<mxfile host="app.diagrams.net" agent="Mozilla/5.0 (Windows NT 10.0; Win64; x64) AppleWebKit/537.36 (KHTML, like Gecko) Chrome/134.0.0.0 Safari/537.36" version="26.1.1">
  <diagram name="Page-1" id="xKlO6a2eZ6lYhHA5f44T">
    <mxGraphModel dx="1434" dy="746" grid="1" gridSize="10" guides="1" tooltips="1" connect="1" arrows="1" fold="1" page="1" pageScale="1" pageWidth="850" pageHeight="1100" math="0" shadow="0">
      <root>
        <mxCell id="0" />
        <mxCell id="1" parent="0" />
        <mxCell id="zvJQPhTG29ef1vISms6T-8" value="Music Player System" style="rounded=0;labelPosition=center;verticalLabelPosition=top;align=center;verticalAlign=bottom;spacingLeft=0;html=1;whiteSpace=wrap;textDirection=ltr;" vertex="1" parent="1">
          <mxGeometry x="250" y="30" width="330" height="620" as="geometry" />
        </mxCell>
        <mxCell id="zvJQPhTG29ef1vISms6T-1" value="User" style="shape=umlActor;verticalLabelPosition=bottom;verticalAlign=top;html=1;outlineConnect=0;" vertex="1" parent="1">
          <mxGeometry x="100" y="220" width="30" height="60" as="geometry" />
        </mxCell>
        <mxCell id="zvJQPhTG29ef1vISms6T-2" value="Device" style="shape=umlActor;verticalLabelPosition=bottom;verticalAlign=top;html=1;outlineConnect=0;" vertex="1" parent="1">
          <mxGeometry x="680" y="290" width="30" height="60" as="geometry" />
        </mxCell>
        <mxCell id="zvJQPhTG29ef1vISms6T-3" value="Manage Playlists" style="ellipse;whiteSpace=wrap;html=1;" vertex="1" parent="1">
          <mxGeometry x="365" y="170" width="120" height="80" as="geometry" />
        </mxCell>
        <mxCell id="zvJQPhTG29ef1vISms6T-4" value="Adjust Audio Settings" style="ellipse;whiteSpace=wrap;html=1;" vertex="1" parent="1">
          <mxGeometry x="365" y="290" width="120" height="80" as="geometry" />
        </mxCell>
        <mxCell id="zvJQPhTG29ef1vISms6T-5" value="View Metadata" style="ellipse;whiteSpace=wrap;html=1;" vertex="1" parent="1">
          <mxGeometry x="390" y="410" width="120" height="80" as="geometry" />
        </mxCell>
        <mxCell id="zvJQPhTG29ef1vISms6T-6" value="Control Music" style="ellipse;whiteSpace=wrap;html=1;" vertex="1" parent="1">
          <mxGeometry x="330" y="500" width="120" height="80" as="geometry" />
        </mxCell>
        <mxCell id="zvJQPhTG29ef1vISms6T-7" value="&lt;strong data-end=&quot;968&quot; data-start=&quot;954&quot;&gt;Play Music&lt;/strong&gt; (Phát nhạc)" style="ellipse;whiteSpace=wrap;html=1;" vertex="1" parent="1">
          <mxGeometry x="355" y="50" width="120" height="80" as="geometry" />
        </mxCell>
        <mxCell id="zvJQPhTG29ef1vISms6T-10" value="" style="shape=image;verticalLabelPosition=bottom;labelBackgroundColor=default;verticalAlign=top;aspect=fixed;imageAspect=0;image=data:image/png,iVBORw0KGgoAAAANSUhEUgAAA0gAAANECAYAAACKJQ+gAAAAAXNSR0IArs4c6QAAAARnQU1BAACxjwv8YQUAAAAJcEhZcwAADsMAAA7DAcdvqGQAAP+lSURBVHhe7J0JfFTl9b8P1Vpb/bvUvRqVrRoEBH5u4ALuSgAFRTARrOIC7kpARdwVFYK7olZsJYaKCyiQqIAKisGFgggSlU0N2rpU6tbFqvnf573vO7kzzCSTZPY5j58r995ZM3Pn3vf7nnO+p1WdhyiKoiiKoiiKoijyC/uvoiiKoiiKoihK3qMCSVEURVEURVEUxaICSVEURVEURVEUxaICSVEUJdX8tEGWPTNOLi4eIH369JE+AwbJxbfOkGVf/iDfv/CATFtv75csVk2W8kV2XVEURVGUMFQgKYqipJTvpfr24XLVw8tk29MnyfTZs2X24w/ImXsulrJhA2TQPcvs/ZLET7Uy7Z4Z8pndVBRFURQlHBVIiqIoqWTpZLlrwfci+w2TMcfuJJuxb7NtZd/BN8sDV/SSLcydkgXirFTK19pNRVEURVE2QgWSoihKCql9v8aTKR41i2WxWalni+4jZNh+RjIlge/lvT+NkXGIM0VRFEVRYqJ9kBRFUVLIZ09fLMP+tMbf2KWPXDd+uOy3rb8JP8ybLDP2HiaDdquWsj7jZL7d71MgQx6Y5N1WK9POHyHlH/l7e101W0q7e889r0zGPDBfPvvftrLvWePkop/ukvKdyrzbfpDFdw6T6+Zt8B8QoOC0STJpcIG/8f17Mm3CBJm29DP5QTaTgsNL5boLe8hOm/g3V0/o4wksfx16jbpLOi8qkwcW1coPP20mO+03SEaNGiQ7rZkmd90zTRb/7QeRzQukz1VlMrxrcmNjiqIoipIoNrnOw64riqIoSWbLHX+SJbMWy5dMTX33gcyf+Zy826qtdPv9zvJrT4hs0qabdNyKexbIfodvL2sWvCGf/pftzeSY68pl2N6sby0djztQflr4quxw3iNSevCvRdaWy8XXVsoPx9wsU28fJvt/9YRcfm+17HBIsfQo2ER+d9AAOfQXr0rlO9/wBEZU3Xt5sfTpuLXZlu89QXb21TJz3ZZy/G3lcvvx/5YZk/4oz/5tT+l9cIFJBSw4+ATZvuYpeePv/kM+XPOzHD/mRjmn4AN56vVa+f7Td+S1F1+UZf9vkFx35THyw8vPy3tffyMfvPmN7DPgQNlZcxYURVGULEAvV4qiKKlk+z5y/RW9ZFsblTGOdo9dJUMGXyzl74RHeDbb5RgZdV4PW5f0g8ypmu/93/GdfN92mIw4xA8/1b5ZbYwXfvj8M9nw02aybffhct3Qtua2eFj2yF0yH+20Wy8p6uDJofb7yf7eC3+/YLJMD9UsbSFbGvHm0+OMi0z0a4u9Cz055/P9Fr3k4tPaymabtJVCI+bYWSPv/c2uK4qiKEqGowJJURQlxWzRvVTKHxojffYO5tatkWljhsiw+5f5NUqWLQ4ZJH12shtvlss0K1Z+WDBX5KhjQqYOO23v3+n7xXfLsOFlMv9vP0jBSXeZ1LvGWSxz59lXbdvWip3fyrbb8+9nsnhpdM+7zZzIC7JJtBqqWqmttauKoiiKkuGoQFIURUkHO/WQ4WXlMv2B0jCh9FnVVTLm8aCaaCuDSvaz65/J7EpswDdI5V93kqO7+nths8OHyZA2duNv86Xs7CFy1TNrAhGnBli/Rtb8ZNcXjPN7M/Wpr3Fa85GqG0VRFCV/UIGkKIqSQmofLwtrBLvZbr2MUCq/pk/IDGHNjEoJdkParGd/OcaGir6fN0PmvzNb1rTv40mnAJsUyKCyu2RYVye2vpdlD18so55uorjZY4hMojdTcLnMCTRFURRFyX1UICmKoqSUNTLnRetiF2DbA4ZL2Rm2aOf778LS7GSTfaWot82z+2mxTLr5PWlra4/C2Kyt9L9xsky+sEeoxmnNrDneKzbCLgWhGiJZX6tNZBVFUZS8RgWSoihKivls+t0yzaavBdliyy39lc6dpdBfC9F20BDZz4qe7/c5WopMfVA9tY+XyriFyKrNZKdjx8gD5+3r3xAPmxRK5w52/ae3pHqpXYcv58i0l7R3kqIoipI/qEBSFEVJNT+tkfKLhsi4Z96Tz/7j7/ph/RwZ98hika32leHnHiMbxYc27yX9jyLPbgs5pm8vY7sdpGCPnaV6wkVStoAeRt7z2ZqiguOOCaXi7bSjc3sQWbOmVr5f+IBMe4+tbaXP+UOkrRFg38ucCWUy/0vvWTCOeFrkmCOcFcT38p3vEm747gdb4fTNBvnOX/P+th/81/5pg3wV7b6KoiiKkuFoo1hFUZQUUvv4VTJtjzFSuvffZc4Tk2TaXCuSNt9W2u43QM48t7/sGyV7zrC2XIZduUEumnqR7BvpILfoAbl780FyzPt3yYQnFstnnpBqe+woue6s/eotxalLerBUrq+qlR822Un2O+M6ua5vKLlOvl85TSbcYRu8buY9/rCLZUwDjWLp1TTkql4y/+ZyCat06jlGxsi4je9rmtzaTUVRFEXJUFQgKYqiZAtfzpCyys5Senr8/Y0URVEURWkammKnKIqSofzw5t0y5IQ+MuTOxSZtbs3za2TvIhVHiqIoipJMVCApiqJkKJ+trZENP4lseK9GajfMkRnfHy19IswZFEVRFEVJLCqQFEVRMpSCvkPkmJ02E1k/Q8bd9YMMOqsJznSKoiiKojQLrUHKQ/71r3/J+vWBTpWKoiiKoiiW7bffXn7729/aLUXJP1Qg5SHLly+XH9RyV1EURVGUKGy66aay774asVbyF02xy0NUHCmKoiiKEosff/zRrilKfqIRpDzkr3/9q10T+f3vf2/XFEVRFEXJZz744AO7JvJ///d/dk1R8g8VSHlIpED6f//v/9ktRVEURVHyleD4QAWSks9oip2iKIqiKIqiKIpFBZKiKIqiKIqiKIpFBZKiKIqiKIqiKIpFBZKiKIqiKIqiKIpFTRryEDVpUBSlKXz22Wfy3nvvyerVq+XDDz80jab//ve/yz/+8Q/55z//Kd9//71pH/DTTz/JL37xC9lss83kN7/5jWy99dam2eROO+0ku+66q+y5557Stm1b2WuvvWSPPfawz64oSqagJg2K4qMCKQ9RgaQoSiz+97//ySuvvCLV1dXy5ptvypIlS+TTTz+1tyaObbfdVrp27SoHHHCAdO/eXQ499FCzT1GU9KECSVF8VCDlISqQFEUJsm7dOpk1a5Y8//zzMnfu3LQ1iTzkkEPkuOOOk6KiIunSpYvdqyhKqlCBpCg+KpDyEBVIiqJ88803UlFRIdOmTZMFCxbYvbFp166dtG/fXlq3bi0FBQWyyy67yPbbby/bbLONbLHFFvKrX/1KNtlkE/n5559Nuh1pd19//bVJwyMdj7Q80vNWrVpl0vVIx2uIfffdVwYNGiTFxcWajqcoKUIFkqL4qEDKQ1Qg5SfffvutfPzxxyZd6osvvpANGzaYQfK///1vk1YFDHA333xz2XLLLc3AlwHwzjvvLLvttpv5V8l+li5dKg8++KBMnjw5ZqQIAUQ056CDDpL999/fRHN+/etf21tbDpedZcuWyeLFi+WNN96QhQsXGtEUi4EDB8o555wjRx11lN2jKEoyUIGkKD4qkPIQFUi5D4NgBp8MQlesWCHvv/++mcVvCUQJOF46dOhgZve7detm6kf0+MkOqCm6/fbb5emnn7Z7wqEGqE+fPibFrXPnznZv6li7dq288MILUllZaZZo9OzZUy699FI54YQT7B5FURKJCiRF8VGBlIeoQMo9EEFz5syRl156yRTYEy1KFYikww8/3Mzu6wx/5oE4vvHGG006XST77LOPlJSUyODBg03qXKbw1VdfmdS/qVOnmuhSJBxnV199tRx22GF2j6IoiUAFkqL4qEDKQ1Qg5QZEh5566imZMWOGvPvuu3Zvw2y33Xbyu9/9ztguY7/Md48d8y9/+Utp1aqVSbn6z3/+I999951Jwfvyyy/lb3/7m9TW1tpnaBjS8k488UQ56aSTTDRCSS833HCDXHvttXarnr59+8q5555rzBAynddff92kBP75z3+2e+oZPny43HrrrcZOXFGUlqMCSVF8VCDlISqQshd+rtSOPProo1Fn1h0MGKkdIQ2uU6dOUlhYaArst9pqK3uPpkFB/Zo1a0ydCGLs7bffNil8pEXFgrqloUOHyplnnml63yhJ4JPpcsklf5FPvNVDRt0hBYvelAMuHiC1ixbJxRdfLG+99ZZ/P8uAAQOktLTU2GpnG/RgKisrM2IpCP2V7rzzTjn55JPtHkVRmosKJEXxUYGUh6hAyj5oxnnXXXfJfffdZwwWonHMMcfI0UcfLb169ZL99tvP7k0umD7Mnz9fXnzxRVM/QkPRaJx22mly4YUXmnQ8JVGsl+kjL5XaQU/Kxd7H+sZdA6Xs41Ol4+61ct0ll9j7+GC2cN1118mxxx5r92QviHP+lmeffdbu8Rk5cqQRUIqiNB8VSIriowIpD1GBlD2Q8jZu3DgZP368sU2OhDQ2Zs779+/f7OhQIkEoYQJA/Qh1JJGceuqpcsUVV6TFBCD3QCB5guCyO2XArv72sQcPkznVc8ytjttuu01Gjx5tt3KH8vJyGTVqVJgoP/744+Wxxx4z6aOKojQdFUiK4qMCKQ9RgZQdkEZHIXpk/Q8WzMOGDZMzzjhDdt99d7s382AASzpgtB47zPbfdNNNxlJcaT7rn7pELp32iXS/pELm33ayafbqOPDAA+X+++83aZa5yueffy7nnXdemDMfKaXU5nFuUxSlaahAUhQfFUh5iAqkzIZaHwREZAoRdUSXXHKJ6QeTTbz88ssmPTDy79lzzz1NShSGDkrzWfOXC6XHJU8YseBAQD/88MN2K/eJNKPAkQ+rcH4ziqLEjwokRfH5hf1XUZQMYMqUKSb9LCgmcJy75557ZOXKlVknjgAL8Geeecak37Hu+PDDD0164EUXXWT3KM3hwvI1YeKI+px8EkdwzTXXyJ/+9Ce7JbJu3Trjprh+/Xq7R1EURVHiRwWSomQIRI1OP/10+de//mX3eIPfCy807l0XXHCB3ZO9HHHEEaZP0x//+EdjN+5A/NGklMiZ0hTWyxEHHiHPPfec3RaZMGFCVFvvfOAPf/iDSa1zfPDBB6bmTVEURVGaigokRUkzGDGQZnb77bfbPWIsuRn43n333bLlllvavbnBWWedZazCBw0aZPeIsSw/5JBDTJNbJT4mTHhAXn7zZbslphksFt75DL8jmss6OK6yMeqqKIqipBcVSIqSRr799ltjzz19+nS7R4xwWLJkiRx33HF2T+5B2uDjjz8eZsv897//XY488siwiIgSnUWLFsno0TfbLb9h6tixY+1WIqiSklatpKTe8yFrIGoUPK6IWEZrMqsoiqIosVCBpChp4ocffpB+/foZEwPHmDFjjHDItahRLEgrxHnN/b1E04qKimTu3LlmW4lO0LabHkeTJk2yWwliVoXIkGKZ+mSV3ZFdcFzRpNhBZC2a7byiKIqiREMFkqKkCSJFNFl1MOt98831UYF8gV5O8+bNk5133tlsY6w5cOBAWbZsmdlWwnnggQdM6pgDh8BEs+69blIypUSKyyskOyWSX9u2666mQZT84x//kOuvv96sK4qiKEpjqEBSlDTAjDbObg7EEbPe+Qo9e4gkuQafX3/9tYkA/Oc//zHbSj00DXYQSTrggAPsVqJYJ9OlUHp7/5UMmSoVEWl26yZ0kFatWpnFpeBF2yerJ0oHu6/DhHVml3+/DjJx1kQpMfv8VL5WQ6ukamhJQsUYjZPpteWgnk+NQBRFUZR4UIGkKCmGFLqJEyfaLZErr7wyr8WRY7/99pNp06bZLZF33nnHNAFV6sHKGgtrQAAktu7Isnq6yN69zWrvgRFpdrNKpM2UYbK2rk7qZnq3jZko66LtQ/i0XyJl7KurlK6ji2Tiak94Led+lSJjSmWpeb4KkZnefQZWSFG5eYWEgrMdKYiOhKciKoqiKDmJCiRFSSEbNmwwzV4dAwYMkLO3fSY0+16/dPAGlPZO3nBzYqfgdiPYmXs3a998eF3//UQr1g9FDYbGO+/f+N9x1FFHhQ1iEQRBV7J859FHH7VrYsRjMpo8r5sxWUr72eOwn/fZB9Ls1r23VIrHjZTWbPStkLrlnrCPsq/16hpPAE2VInMsF3lrNbKkprUUSqm0aTVWCpfXycpR3iMKu8lS77U6vHeTJ6QqxJdlieX888+3a6JmDYqiKEpcqEBSlBRy9dVXy2effWbWcXJDDLQetVLWji+UwvFrTf0NS+WQGilt78REaxm5fKWMbGce1jjtRkql93wth9ddK2VDCmWpiQoEWSfTp9SIDKmUuinxDmvj+ztwZAsW2F911VXy888/2638hcjRggUL7JbIGWecYdcSiYvy+MehfyyGp9ktfW9j4R1tn3QsC3ueir4ivaewXiIVTsB7x+pKXkOKPCGV2BQ7x2mnnSY77rijWacWaebMmWZdURRFUWKhAklRUsTy5cvlvvvus1sit956a2jgFgkDSSOSbkjGkLGJdBomw2SyTA9GfmZNFxlabDcSDw1Pt956a7P+4Ycfms8q35kzZ45dE+nevbv8/ve/t1sJZPV0WdJpgB8NsgTT7Frv3VVqRo8NCRnqhmqi7KtqVyhdV5TKWCesZpVIySwiiIig3lJB2t2U6SY9D6HkTxIs3ajeKVGccMIJdi38c1QURVGUaKhAUpQUgauWo2fPnqY+oiEKOxWKLK2RPw0lTcnOrnsDSpPyNmGiTDQDTu+2Tt66uU+0tDpbBG+Xkodc4bwfnQoVzTeYvlcoI8d1DRNrVe+JDNjbbrj35A1uXdqdSckLe68MnHldFyWoT9/j/Ue+a4Qj0TbHnXfeaaIQ+Ux1dbVdEzniiCPsWgLh+2pfKlNNvZDdx/c0hjQ7G+HpW2GEjJ8610pKO90kvaPtQwStKjPpc+Y7HtNNburrPd1QMdEj0u7EpOV1k67Lee5Wpo7J3CcJ0F/L8dprr9k1RVEURYmOCiRFSQH0YKFhpeOyyy6za43Ta0qluFhN1ZMilZ5QKPHWB/RtLSNnlEnhilJZMpDUJVcM79/Xh9l6P8WJNL6lXw+Qld7AtbDjMBnQjojAMClbFUf6Xt+bpGxpqX3uKqmRQJTBGyBXDvFXiQS49fD3SlQs8HcMbSNLxvG+1kpZZHTKgnGFs/7+4osv5JFHHjHr+QoRSMf+++9v1xII9UPmWAkeD6RF+sePqxHiO/a3bR1RjH0ufc7spy6J5xpVEToeSbmTviOlYop9rLlPcgg6/WH+wespiqIoSixUIClKCnjiiSfsmsg+++xjGsQ2Rs3yGpGuhWGDxt4DxczUF41e4okUS8cyO/NeKN06mj0R+NGaNqPtI7yBa1lXP/2piuhQXLVNrWXAUJHJM9aJeI8rdIPgBoj6Xg3rpGap915NmVTDdUnDhg2zaxLmcJePrF271q5JctLrcpjWrVvLr371K7NOPdtHH31k1hVFURQlGiqQFCUFzJ49266JaYLaGKSjFZUXStk1EQYIbpZ/VTcp3Sg1rUaWrOgqhUGxYRztikRm+BEkR+9r/PSnpviGtR5VZiJUHd4jLhULxI9djfleW0th1xpfbDXC4MGD7ZrI3LlzTSQuH/nf//5nekM5MPhQmkaw3g+zBkVRFEWJiTeAUfKMxYsXh5ZvvvnG7lWSyRZbbEFOj1nefPNNu9fHEy6h2+qX4rpKe3vlELtvSGX9urcUjl9bV7eqrM6TPaF9xTO9B4T2FdaVzQu/3exb5Z63/jWis7aurKN9XMcyb8t/L+Y1ZhbXP6f3vuq3C+sKzWOK666LeK/Bv8N7prpie1vwPUVjr732Cj3PjBkz7N784rvvvgt9BixsK02jXbt2oc+vurra7lUUJUhwfKAo+Uwr/uddMJQ84q9//atd81N1ktFLRamH2pHOnTub9S233FK+/fZbs54QiBD1F6lscv1GlUycUCgj40iVSzdnnnmm6YcEGDfccMMNZj2f+PHHH+WXv/yl3RL58ssvZbvttrNbSjwUFBTI+vXrzTrnwG7dupl1RVHqCY4P/u///s+uKUr+oSl2ipJkVq+udyDo0KGDXUsE62Ri/1KpWVEqRXE3hXXucRVx1RFlAtRsOVatWmXX8otNN91Ufvvb39otkb/97W92TYkX138Mtt9+e7umKIqiKBujAklRkszf//53uyay22672bVEUO8wFnIOaxT3mKZUH6UXZv4d+SwM2rRpY9dE3n//fbumxAPCmjouIBK3++67m3VFURRFiYYKJEVJMt99951dE01nbAbBzyz4WeYb++67r10TefPNN+2aEg9vvPGGXRPp0qWLXVMURVGU6KhAUpQk84tf1P/MsBhWmkbwMwt+lvnGwQcfbNdEXnzxRbumxMO8efPsWvjnqCiKoijRUIGkKElm6623tmsiGzZssGtKvAStvbfZZhu7ln8cc8wxds0vpKbhqdI4COxnnnnGbokce+yxdk1RFEVRoqMudnmIutillueff16OP/54s96xY0fjaqfED6511157rVk/44wz5JFHHjHr+QiD+zlz5pj1Sy65RO644w6zrsTm4YcflrPPPtus/+53v5NPPvnErGcj33zzjaxZs8Y0usWRD+MJejqx//vvv5cffvjBCEIirZtttpn85je/MRM0OB7SO2vXXXeVPfbYQ9q2bRs2caMoDnWxUxQfFUh5iAqk1PLhhx+aTv6Of//737L55pvbLaUxTjrpJJk+fbpZHz9+vIwaNcqs5yN/+ctfpLi42KxjNlBbW5uYprHYxbcvlRrWO5bJ2hkiY2cMkIoscTpsCGq3XLTtqquukptuusmsZzpYuS9atEjeeustWbJkiZlY+fjjj+2tLQfzk06dOknXrl3lgAMOkO7du8sOO+xgb1XyFRVIiuKjAikPUYGUeoI9WJ577jk57rjjzLrSODvuuKN88cUXZn3+/PnSs2dPs56vYHu+cuVKs37BBRfIPffcY9abzawSadVvqZStWikj23nbVizJ+LVNcEfMTO677z7zGTmIHhFFylRefvlleeGFF0zNVPA8nSoQS0cddZQ5Px1xxBF2r5JPqEBSFB8VSHmICqTU84c//EEeffRRsz5ixAi5//77zbrSMAwUjz76aLOe8Ca7WcqUKVPk9NNPt1siL730khx++OF2q6nQF6uNTB4aKYaqpGSoSMWUbDGD35hPP/3UiMl//vOfZvuKK66QW265xaxnEq+88oo88cQT8vTTT4e1BIjFzjvvLHvuuadpGcA6PZ1Il9tiiy3kV7/6lUmvI83uv//9r0m7+/rrr000inQ8JmnWrVsX1+swMUH09pRTTpFevXrZvUquowJJUSwIJCW/WLx4cWj55ptv7F4lmUyfPp2JCLNss802dT/++KO9RWkIT1iGPrfTTjvN7lWOPfZY85l4Qqlu6NChdT/88IO9pYmsKqsrlMK6slV2OwprxxeGvoPC8WtD28UzK+uKzf7iusq6tXVlHf37FM+0D/T2+rd7y5DK+u2OxXXF3LdjWd3amcX+7aH7JI4BAwaEnnuPPfao+/e//21vST//+te/6u666666fffdt/7vj7J06NCh7owzzqi799576xYuXFj31Vdf2WdoGRs2bKh77bXX6u6///66M888s84TklFf3y2dOnWqu/322+u+/fZb+wxKrhIcHyhKPqMCKQ8JngBVIKWOXXfdNTTguPvuu+1eJRYffvhh2CDtueees7fkB5988kndm2++WffOO+/UffTRR3X//Oc/6/773/+a25YtW1Z32223mc+E5frrrzf7m0yjAglRgwDy4L6IGvYO4Tvx9/vr/nMY8WSEDoLJPa8vnoxwCnu94H0Cr5MArr322rBj58knn7S3pJcvvvii7qqrrqr7f//v/4W9P7dsu+22dSUlJXVTpkwx338q+fTTT+see+yxuiFDhtRtt912Ud/fFltsUXfFFVfU/f3vf7ePUnKN4PhAUfIZtflWlBQxfPhwuyZSVlYW0ROJVKdW0qpVYOk00dvr3TKhg7fdQSau9u+ZdKhBMe+B16ySiRN4F6nHEwB2TWS//fbLu7qtmpoa41BG3Qw1RxTsk06HKyLpY507d7b3FJMyNXr0aLuVSHpLRV2F9KZOyZk4WIpnevu9fws7eZJnfKWpX2q9d1f/Ru+eS1bUSGl7jqM2UrpCZOl79jjqOEwGUOskrWXk8pUyUjjeimSqubHlPPDAA+IJRrslcumll8rJJ59st9LDTz/9ZN4TtYg333xzWKoov3VPFMmzzz5rLO09kSKeSEl5rdQuu+xi3gcpnKTkzZo1y7yPTTbZxN5DTMrerbfeav4OnCVxzVMURclFVCApSorAlnnbbbc167hRjR071qz7MFhcK2UdC6VslYnsSmXXUinyxEnrUZXefnu3FFB1Q6l0ncl7qBTpXyST7f51E0oaEGmewBvqC7pEsHDhQpk0aZLdErnsssvsWv6w6aab2rWGwRWxvLxcJkyYIFdffbXdGyftBsiwjjUyeUbkN+d9nxOq/H8R7k+WSN2qMin0b4yTYqn0sxTMEs3woWqo99z9xbtfpXfvljN58mRT4+fo3bu33H777XYrPVRUVEi7du3kuuuuk//85z92r0j79u3Nd4YYQRT169fP3pIZ9OnTx4glRPrEiRNlr732sreI/O9//zP2+/xd3EdRFCXXUIGkKCkCkwHXzwcoGMeVLRa9BxZLzfLgnH0qWCc1S+2qEW2VMsysr5PpU0I3bMzq6TK5gZubysiRI+2aGJOGU0891W7lD4ceeqhxFaNnDfbLHD/B2XzH6tWr5bvvvjPrWFgTMYkf7zse5x1no4vCxG/V0CJPHPf2v1cpk7VhZg3BYyQWhdKt41QpddHH1ROlZKNIZJVUlHsiavlI7120nDvvvFPOOussu+VHHadOTVRcqun87W9/k8GDB8tpp51mrP4d9EKjl9cHH3wgpaWl8tvf/tbekplgAMEExXvvvWeMZrBNd2Azj2HIwIEDQy6diqIoOQF5dkp+Ecwx1hqk1NOzZ89QTv9ee+1lCqZ9gjUZfm0HRfHB/cGCeYrcF7htUxvi13qErXMbNSG2GL54CP/Wv0ZUTJ2Iex4fv87EX+qL86Nt96sbFnoPrig//L2Vja9/3micf/75oedm0Vx4H2qQ5syZY2qOKLB39UfUJ/Xv3z/sMzvppJOa9tsOmiV4S1SjBbd0K7Drhd7xVH88FnvfqzluvMU/boOPpb4osB2qU3K32yVwzDUFTxSGPU+XLl3qvAG7vTX1YMqy4447hr0nT+TW3XPPPfYe2Q3mDjvvvHPY3+cJvbonnnjC3kPJVoLjA0XJZ1Qg5SHBE6AKpNTz9ttv1/3iF78IDSyKiorsLREDxtBgkf2RoobBpl/UjmjyB6TeXis+2OcPcv3nZN2InCY4hTlRFCnSgoReO1DAH3Xd+7fY3q8sNPjemLKysvq/31vGjx9vb8lvvvvuu7p58+aFRBGOZm79gw8+MPfB5S/42SG+eUwuU1NTU3fEEUeE/d2HHnpo3WeffWbvkXpuvPHGsPfDcu655wYmQnIDrh3nnXfeRn/rddddZ++hZCPB8YGi5DOaYqcoKYYUFWolHJWVlSYNx6e+BqkuVuoRBfOBovbWo8qk6+ixUuX9J3v7jyE1b2q/jQvkiwc21temvpao9xTvPawqE5ky3WyH49emtBkdZwpguwHSbUobU+g/2RXrR/DQQw+ZlCMHn8moUaPsVv5CP5u33nrL1H0AtUn0qHFQOA/UIV1++eVmHd5//33T9JP+P7nI3XffbX5LGFc4SMWk2Wrw80klGLEE68AwPqC/EcYR22yzjd2bG9A/j0a8zzzzjOnJ5KDWKpjqqCiKko2oQFKUNEDjWAYSDgq5Tz31YrsVG1PUTsF8WFF7b7lp/FIpalUh0tfu8ig2Rgv+Eq1APiZLS2XsLLseDeNyVyQyo07Wjm+kbL9miXU+o57Jfy9ly9tIScTz33vvvXLuuefaLZGePXtq8bflzTffDCvup7Zmu+22s1tinM8cOIz9+c9/Ng1DHbgBUmD/l7/8xe7JbhBEHB8XX3xxmIsa9VfUHEWr00oFOMA9+OCDdkvk2GOPlcWLF8uAAQPsntzkhBNOMM1Fi4q8c4KFCaBBgwbZLUVRlCzEG7AoeUYwhK4pdunlsssu2yhFRaR9WCpbqO6oY1ndI4FaILOEUuYq64rD0ufCa0eKx7oak8Z6zaytKxtS5i3useE1UWZ7Xn2tSf197OuZ1LpAqmDHQnPfwsvHBB4T/h7Gjh1r9/uLJwBMvxjF75vjUulY3Ofy888/h+qRWL7++muz30HqmWsmG1yof5s1a5a9V3bx+uuv1w0cOHCjv4kmpi+++KK9V3qgWW/wPZ199tn2lvxixIgRYZ9DcXGxvUXJFoLjA0XJZ1Qg5SHBE6AKpPQzatSosEEFXf9feOEFe2uczPRETUPGCxnIP/7xj7qTTz457G/v0aNHWutHMhGEASKIRp5B/vrXv4YEEkYN0cAUYKuttgr7jN3n/Oijj9p7ZTYIur59+270N7CMGTPG3it9jBw5Muw9sZ3PXH755WGfx0UXXWRvUbKB4PhAUfKZTa4L5vkoeQH2sw5SdYLpOErqwcb617/+tcybN89sf/3116Yvyo8//ihHHHGE2RcT0t22O1gu2PRieWFYe7sz86Euo3///uIN/u0eP1Vn5syZOVer0RxoDEujWCyW6TXDQs1HEGqR+C3z7+677y6/+c1v7C31HHDAAaYehDqmN954w+717ZmpHaE2hufAanrXXXe1t6YfLLDpg0XapSfyzHYQ0rcef/zxtNu///GPfxRPpNktEU8MyB133GG38hPq3miES2Nj4LijJmz//fc320pmExwfpLpZsaJkEq1QSXZdyRPIF3f8/ve/32jgpaSHJ598UoYNGxbWZZ8+ONRW0PAyF6BBLkXskfVFmDPQNFMReffdd42AASYwGhpYYtCw+eabx1V3Qx8bBu+YYUSjsLDQNAeldubII4+0e1MHtVYvvPCCVFVVhQnnINTz0HCZHlHpZsWKFdK5c2dTVwennHKKTJs2zawrvskKtZWOJUuWmPOZktkExwf/93//Z9cUJf9QgZSHqEDKXFatWiUXXHCBzJkzx+7xOfnkk40bWeQFi+J9IggsmQwDecwCaI5LZMyx/fbbmwgBDTUVv+kri2PvvfeWPffc024lho8++shEPiik//vf/273hkNE85BDDpGDDjrImEJ06dLFRKkSxeeffy7Lli0z5yLE0GuvvSZffvmlvTWczTbbTM4880w5++yzpVu3bnZv+jnuuOOMoIMOHToYQwY+N8WH3znHDt8zEA1/8cUXzbqSuahAUhQfFUh5iAqkzKesrMxYNv/88892jw9CAgF18MEHy7/+9S955ZVXpFWrVtK+fXtp06aNvVfmwAD8/vvvNyLon//8p93rwwwzUaOdd97Z7slviBoRPXLssMMORhDw/SYLopZEPUh5bAxSHznOWrduLQUFBeZ7Q+Cyf4sttjCpukSyOGZxl0MUky76j3/8wxwH69evlw8//NAIwM8++8w+a2yIYhGVKS4uli233NLuzQxwCjzjjDPslpiBf6PpsHnIq6++Kocddpjd8q38EbpK5qICSVF8VCDlISqQsoM1a9YYK3DqkSJh0EFa2i9/+UuzTa1K9+7dzXomgBUzaXSPPvqo3VMPaTb8Xf369bN7FMQug0l3OqYmiNn3X/wiNZ0YvvnmG5k9e7Y8//zzMnfu3JiRpWSCCKJ+hcgMltHB3jqZBrbpri7qwgsvND2ZlOhwnpo4caJZR1yvXbvWrCuZiQokRfFRgZSHqEDKLhYsWGAiLTSUJZrAdzZ06NCwdCPSWRhcUo+SLqqrq43JwowZMzYqqgeMBhgsBfsdKT6kShINJPrC75HUtnT18wHSovg+aVDL+eKdd96xtyQOjmPEMjVWiPsePXrYWzIbRD99zICUOurqiKQp0SGKSHomIhxI79RGspmLCiRF8VGBlIeoQMouSFEiPY2Z13//+9+mJiMShAlNKhFJNNF09SPR7psoSAdjEM3AnojRp59+am8Jh0jIiBEjTB2JEg7f54YNG4xbFA1fWfbYY49QZDBT+Omnn4zJA+lx1DCRLkeUiWOTATDpdDjlcT+iXhx3uOoR2SQattNOOxmXPP62tm3bmggMaXnZSK9evcykBYwePdrU1ikNM3bsWLn55pvNOmKY84aSmahAUhQfFUh5iAqk7GHp0qVx1WswO0tUiUFqEIrrO3bsaBzKiOBQ8M9AlQFrPMYODNg/+eQTM0tOyt/7779vhBERhsiaoiAMkLFg5j1pbUZ0EBUYFPzvf/8z6WR8T0pmg4kK50wHv4fgthIdas9Ir3PgALjPPvvYLSWTUIGkKD4qkPIQFUjZw8KFC+W7776zWz7M0FOv4VJWHBTcP/LII3arcZjd57tnpt9FLIgAkO7FayKAgo5zjcHzUDtCPyPsmNXRKzYIWWbRnaDFkEEHI5kPZiP0OgKsxomeKvGB6QaRZsCEZuTIkWZdySxUICmKT2oqgBVFaRa4htELZ5dddjERoH333dek0FGvgbgNWkAPHDjQpNlhCR5Pgz9So0iVol6IqBALaVTM9mK53Jg4ot6JdCPSZ2hyS0TkiSeekJKSEhVHDUDEiJ4/wWgf37OS+WCk4aDBsxI/xxxzjF0L/xwVRVEyEY0g5SEaQcpuiO5go0xtBz9fBhu4oAFpc9QeEWGiVoRUOIQPqUCkyJEqR8ockaJ4oQCdImtSZBjI0/OFBpmINaXpkFYXTE+kRkuL/LMDjn/Xp4peZSqS4oe6LSZUgPMJ5ycl89AIkqL4qEDKQ1QgZS8II6IPiCT60FBjRCTojTfeCPVMItUt2HskGhTXYw7w7bffGqMAohqcChBY9LNBYNHfhuhVMo0e8g3SIoMF6ohMooNK5sPvI2i7TvSVej6ZVSKt+k21ewMMqZS6Kb3tRiKokpJWRbLxKxVK2aqVMrKd3cxQvvjiC9lxxx3tlu/cyLlGySxUICmKj6bYKUoWgWGDq0lCLAG1RE2N5iB8SNnDZpl0PdL2mN3F/Q7bZUwdGLirOEosW221VWiQSJG6iqPs4fPPP7drPqE01r4VUjezWKRjmaz1RBRCqq5urZR18m9OHL2loq5Sio0gcq9TJ5VDaqS0fQeZ6Ae2orN6opRMWGc3moAn/kpm2fUWQp1d8HyCYFIURclUVCApShYRHKQx4HDgSseAm38RPUpmQZ0XKUZE7uhfRTPUgoICe6uSDRDxcBClpSdZbFrLyFGJjB7FpvcUK5JuqLJ7NmbdjMmy1K43haono0TGWgCfm4PItaIoSqaiAklRsgQiRsFZ18joAwNuxJGmTGYW1Ky4HlaYYCjZSdAWn5TUmIRFa9bJxE6tjJhq1SoQ5fHu08Hs85ahVtgE9nVoYrSn98BikfIKMc8U8TzrJnSQNqNrpGZ0m9BrVQ21r92qxH+MB/fz97UyUSPuU1QuMrWfez+k+IU/zj2mZGhJ6HENEfzc4mkzoCiKki5UIClKlkBjTgf1R7jIKZkNphiuqB+CUT8lu9h2223tmj/Q36gP2IpSaYN4aF9aH62ZNVZKu1aaVLi140Umz7BCo/1kGWbS5CqluLzUE07sWyJlJm2uUrqOLmo4ZS6Swm5SaFY2fp7p/Vd6r10ohePXmpooRE1pJ2/dvKelUoRomlUibaYM81MEZxbL1DETpdBEpkSKZ9bJylGtPcFUKt1sap95XKeJIqNWmvtMlRKzv6KveRNRwUgGp0tH8PNUFEXJNFQgKUqWELSFDhY7K5kJ9WIrV660W2JcB6n7UrIT0sNIYXXQNDYMV4O0qkxCSa7UJ3mihGgMURzD6hpZOqTMmipQV7RSRoq3z5MZRSY6gxFDjSyxd4+LmiXeIzx47kaep2a5jSZ59zHvaWmNvPLeUikeN1JMK1fe83K7HqJKKsq7SqE9fFuPKpPiFZNluhVxxQMbTycMfl6II0xgFEVRMhUVSIqSJZBSxyCbf+Ppc6SkD9Ih33nnHbslJu0RR6igC5qSfXTs2NGuhbt9hdFupFSMsvLCprtVDCTq4sd4DJ4o2SiJLszkoeFoTCSmVmhIiSe3POJ4HqJC7nbEENVwS99rSlpfoXTrWC+Y4mHx4sV2LfxzVBRFyUT0aq0oWQLW2wcccID2H8oCmJ13YmiLLbYw39smm2xitpXspXv37nZN5OWXX7ZrscEcQcavDRcp7Qql64pSGevqdXCKq4myL073OL9WqFDKrvHkUbTnjniewk6FJoXOl0PrZOLQiSJ7d5Wa0WNNXRFUDa2vTfLpLSVDpvrpeLB6ukzuagVZnAQ/r+DnqCiKkpHUKXnH4sWLQ8s333xj9yqZzMqVK+uee+65ug8++MDuUTKR//znP3Xr16836xs2bKhbtWqV2afkBvPnz6dvoFk233xz/7udWRzaJx3L6tba+xqCt9mleKa3f1VZXaHb5x4TbV8YlXXF7vawpdi7JUC053HvY4h/z8oh7rH2/XisHV8Y2lc43n91t8/fDr6+/5r1jymsK1tlHhKVn3/+uW6rrbay95W6uXPn2luUTCM4PlCUfKYV//NOWEoeoY1is4uvvvrKNIcFUuyIRiiZB0XofE/YQavdeu7SunVr+fDDD836gw8+KOecc45ZV2Lzpz/9Sc4880yzTnrwJ598YtaVzEMbxSqKj6bYKUqGE3SvI81OyTyw8HbiCIKGGkpuMXToULsmcv/999s1pSGCn9Ppp59u1xRFUTIXFUiKkuEEBZK612UeRI7eeOONsEaiRGaV3OTcc8+1ayLLli2Thx56yG4p0SB6tDhg0BD8/BRFUTIVFUiKksFgFY0jGmy22Way3XbbmXUlc2DwFxRHXbp0MamQSvZDH6sXX3xRli5dKl9//bXZR4rYqFGjzDpcc801Jg1W2Zhvv/3WfD6OSy65RPbYYw+7pSiKkrloDVIeojVI2QMDb5eu9ctf/tL0YlEyB76f+fPn2y2RDh06yO677263lGyH7zYofpmgaNOmjfkt7rXXXia6S71Z79695ZFHHrH3UhzUHRFBAj67Dz74IOsmD3788Ucjjmlyy2TVzz//bFwqmbDifLzVVlvJr371K3vv7EdrkBTFRwVSHqICSVESx+rVq83Cb4nBs5I7vPvuu1JbW2u36kEgER359NNPzXf+j3/8Q7744gsTIVF87r77brn44ovtlhgBecYZZ9itzGLt2rWyYsUKqampMb9lTDjWr19vBPA///lPe6/YUBu68847y6677ip77rmntG3bVvbee2/T76mwMND/KgtQgaQoPiqQ8hAVSIrSMhg4MyBm8EMEQclNuDz+7W9/k1WrVhkjjoa4/vrr5dJLL5VTTjnF7slfpk+fLieddJLdEiOMMinC9tprr8mCBQukurra1A9++eWX9pbE4/rX9ejRQw477DA54ogjMronmgokRfFRgZSHqEBSlObz9ttvh4wziCQceeSRZl3JXbhMElEguhDNoRDBjEAiqvTss89Kv3797C35R1VVlRQVFdktMeIAIZJOUUBq3IwZM2TWrFnm/W3YsMHeEj+//vWvTSodDaBJs+M5MWhpKqTmHX/88dK3b1858cQTM66uVAWSovioQMpDVCApSvNYuXKlKdx3FBQUyD777GO3lFyGtKv33nvPbtWDSL7ooovMseGYOnWqnHrqqXYrf3jyySfDImjU47300ksm5SwdYLBRUVEhf/nLX8JqySLZdNNNpXPnziYizDWRXle8d9LmdthhB9lmm22MMIoGKXikWDJpQjrmunXrTMSRdL3ly5eb2qWGINJWUlIi/fv3t3vSiwokRfFRgZSHqEBSlKazZs0aM/BxUJx94IEHZnS6jJI4nn/+ebsWDoPqb775xhg1EGVyjB8/PsztLte544475LLLLrNbYsRFZWWldOvWze5JHViv08R3yZIldk84GEUcfvjhcuihh0r37t1l//33N8YLyeCdd96R119/XRYuXCgvv/xy2DESBBGJBfqIESPS2u9OBZKi+KhAykNUIClK0yCdhplwB+5VDKyIHii5CWlYH330kWy77bbGmpoifga32HxTs+Ls9w855BAzoOV2ogE4tTloKjtp0qScdp8k5ZBBvXOrA4wrnn76aWN5n0owhrj99tvN9xYJAoSUNlLbevbsafemHtoCzJ49W5555hnTRysSrscjR4404jodx40KJEXxUYGUh6hAUpSmwWnylVdeMYX61CFQcJ1L1r5KPQz4SaXDnMFBcT2DVb5/akjmzp1rbxE55phjQulXuNqRLhW0fmdgPnHiRDnhhBPsntyBgT6D+aAoRDCS1pZKu3tS6G644YaoKZCnn366DBkyJCNrBd966y157LHH5M9//rOJQgYhtY8eUhdccIHdkxpUICmKjzaKVRRFiQF1C0QNKMomVahdu3Zy0EEHqTjKUbB7RggHxdHmm28eSqOkUJ9jwcH+YG0K0SXSqIioOEjNJHLBQJ06plyAWht6HBGNCYqjs88+W1599dWUiSNem9qd4uLiMHGEuMA04/PPPzfiI1ONVEjtu+uuu4wjJv8yYelg34UXXmgEJ657iqKkFhVIipIIFpVJnz5lUm0342b9NBnRp4/32BEyLXpq+kbUPj7Cuz+PacbrKXFDc0gGe6ROMdNLpBWBxCBZyT1Iy2LA/dNPP9k9IrvttpscfPDBYYI4eHss7r//fjMwp07NMWXKFJN6duWVV8pXX31l92YX/CbGjh1r/o5gSt0WW2whDz/8sKn9SRUPPPCAMUghVc3Bb/Tmm2+WTz75xERfEErZAFFJjD7ef/99k5JJSqcDcYRIQvApipI6VCApSjrZbZCMOa3AbsRHweBJMiZ9KfR5Ac5T1Aq4wbCrN1FyC2qJXNF8UPhQd8SglEafkXVmwYhRQwYdRIyw/ya64SBV89ZbbzUNRUtLS41teDZAZO3yyy83ETIEyI8//mhvERk0aJD5O4cNG2b3JBc+Q6JXROmC74Nt3ueYMWOyujZw+PDhJtJ49dVX2z0+1113nTECCUY3FUVJHiqQFCURdC+V2bNLpYfdVLIX0uqIGP3vf/+ze8R0xVdyh++++07efPNNI4KJEBJxYNaeCCHGArgTxnISY7YfG2jE0S677GL3RocIFPU4M2fOlP3228/u9Y8x6pLat29vUsQwNMhE6B108sknmzoqXPmCfX+6du1qbn/88cfDIh7JBOFARC8YvULEzpkzx0Tttt9+e7s3+6Gmip5rNJZ1PPfcc6b+kb5SiqIkFxVIitII1RNipbNVSxmpbtdPCEuT8+/fR0Y8Ps2/PZg+F0qp85bzp0mt3e2of2xt2Loh9NiN30t92h2vVSvTzo/+/KH3PEEvsLFYunRpWM8U0nh23HFHu6VkM4heoh1YLgfT3Ohlg+BBIGFP3Rh77bWXHH300cbiOx6o1UF0P/LII2ZAH4QUMUQIg3uiMIgOzCDSAQYVNLqllohjfsCAARuJN/7mP/7xj8ZCm9qqVMHvEmvuRYsW2T0i55xzjrHR5rvIRfbdd1/TyykYTUIk8jlgoa4oSvJQgaQoG2EFhhEcfaS8YFJ9dCgocPqUS8EDs2X2taPC0uR6nDpE2Kp9rFZ6PMB6rcxfiFTxnveWcqntOUZmX9VL5KP5Uh1Rd+QeG7ke9tjZ3jtZYHeD957GPSYyxHsvk04TKb+lWnrc572vK0XGhd6rE1U9pHS2d9sh1Xa/t0QVUvkJA2jqLBwMmGkGq2Q/pNC98cYbxmAgyHbbbRdWHJ9MzjjjDNM8FNc1BrlBaDaKgEKUUNND5ODaa681UQMK9pMBKYb0dyJ966ijjjJOfYge6okiXxMnP6JhNMQ966yz7N7UgDgivSxocoGpAb2OktW/KJMgmvTEE0+EauFI+eXcPWvWLLOtKEriUYGkKAH8SMw4kSs9EYGQ8JZJg43c8UXTLSJj7P7ZsyfJoN38x0Wj4LRB4Sl366tl/kfefgbcJiWv4ceHEXys96w9AjVItQvne++uVsqH95ERniiTj9jy2G2QTAq91x5SjRhykSPz+vY2K6RCkao8htoFCtDBpVwpuQHpYaTWOTDbIE0MJ7FU16wMHjzY9NUiqnTJJZdsFLWizgY3PAbGCAOiORyPxx13nCnmpynrk08+aSJhzpIcm2giQIh8/v3222/l73//u7md+z311FPmcTz++OOPlz333NOYGLCOAQCRiqBDH/C63B9huWDBgrB6qlSxbt06Ixr5Wxz8LbyvfGLgwIHmmKAOzEF6Jq6LiqIkHhVIihIAA4TZs8eI3GKjK95SZjI6CmRQzKhMJlBgIki+6IkW7aqWHtw2yko247pnb7OizxeC+QmDSHrXUItCNIGBaLzpU0pmwiw79UUM/FetWmUczqgrwmQB4XvooYfKTjvtZO+dHqhLQrQgcIjk0POGep9ofPzxx/LCCy/IPffcI5dddpmccsop5m/gOGXQvPXWWxtLcmqk+BcHPWqkuJ37McDmcTye14rWTBWorzrvvPNM5Oqzzz4zkZoDDjjA3pp66CsVjByRWkZD3nyE5tR8L5h8AFFRRCvHhqIoiUUFkqJshBVDNsLSY2FADDUUlWmM3QqEoU/tY9P85/JEii++YlBrI0HgHvtqtYkW1QbaqRTsYW6R8r/wrLUybcJD8tBG0S5nIGFrkBb2sPu95b5BgVS+/IOaFAZg1B2xrmQ3RF8Y/DOzjkMdERXczdiPMx2NXRFIQTe6TODYY4814gVnO9LYsLGmwSn1TsmECYHTTjvNmBwgKPms7rvvPjNJkG6oMQrWHBE1I6KWz3Tu3FmmT59u0iGBSR1qxhRFSSytvItGnV1X8oRgp2wujsysKi2ASM3wcl/M9BwjY2ScjDM1Qr2kV8/5Mt+sE+GZJIMk/L6zT60N3x7lia4JffzH71EgBSZdzj62tkz63EyHfm//Ht5+JoAjH+PuG2/qXp7DYDRotUxEgbQrJTshjY7zGzbtQbL9e6UuDvFCpJPjFQGI+CPtjNolbo/WnwnjCSJL1FnxGeCqR2odUSqcGTGM2Gabbey9MwvqnRBujttvv10uvfRSu6VgnoG5h+Omm26Sq666ym41n+D44P/+7//smqLkHyqQ8hAVSIpCgK42LGJEYfxBBx2U1T1U8h1qZTZs2GC3fIFAtIi0sVyHCChphdQRER1zqXbZCEKXaxPREUAolZeXm3WlHpr20pfKgYjGdbMlqEBSFB9NsVMUJe9gtp3ZeAcDyXQU6ysth/od57jmXL6AupyePXvmhTgCV3dERIh/s1UcAdEQJ44wkrjzzjvNuhIOnxPnLceNN95o1xRFaSkqkBRFyTuILLhGoIgiBhnZPKDMRxBF1BktW7bMzHrT14h6HSJGRAKp1SCKomQXWI9PmDDBbolx2CNFUIlOUBRNmzbNRFEVRWk5KpAURckbSEEite7HH380TRgZTB944IEmvU7JDki/okkpooh1B9bWWHfznWZqXY3SOA899JD5fUKHDh1kxIgRZl2JDuYeuJE66A2lKErLUYGkKGlkzZo18vrrr5slmPKlJB4K91999VVTd8Tn7QbTLpKkZD4Iourqavn888/tHh96BGFprWQ/wVqj4cOH2zWlIbBld0yZMiWs35eiKM1DBZKipBEsdf/5z3+ahboBJTlQwP7mm28ay2cg2qBkHxgwuOgC8Js5+OCDtWdVjkDj3OBE0dChQ+2a0hA0+2WyB6ivnDlzpllXFKX5qEBSlDSBRa+z5sV1imJkJfEgihh4BUURtSqtWrWyW0qmwkw4qXQ0e+X3svPOOxvbaswYqDHq0aOHunDmEHzPDtLG+K6V+Ojbt69dE5k3b55dUxSluahAUpQ0gR2vg4GfOqglB4r4g31x2rdvb/rBKJkLUSIiCa+99poxY0Dk0swXc43u3bvL4YcfblzqlNyC1FcHDoRK/PTq1cuuhX+OiqI0DxVIipImGOAhjH77299KmzZt7F4l0ZC+6KBWhSaZSuZC49MFCxYYQRRs08d3p+Q2wb5k3bp1s2tKPAR7FtXU1ITSiRVFaR4qkBQljXTp0kUOOOAANQpIIi43f9ddd9ValSwAh7rg4I5JBGbH1YQh9/n444/tmsQ5kVElJa1amXTZDhPWSdXQEm9Pcqga6r+Oe61Mg/Pbb37zG7vlN8JWFKX5qEBSlDTw0UcfycKFC2XVqlV2j5JIVq9eLS+//LKJQuy5555y3HHHSadOneytSiaB9Toz3jR8BVdThPU6/amYRNAeVbkPabAcC47tt9/ersWmamiRLB2/1kQaK6VIiuoN8BJO7yl1snZ8oRR6r7dyVGY2HyYbwRGMnCuK0nRUIClKivn666/NgJACdGy+lcSC6EQgYcpAHYszwlAyC+qM+K5Ip2PCgFoxIkddu3Y1UdVDDz1UG4TmEZG/00033dSuNUzXvX2x0nrUSqkcYlbzFmr0HHreU5SWoQJJUVIMNRYOtfZOLKToBEUnaSfBQYOSGRDZmz9/vvmu3ECO7wmBhENdcCZcyQ+C6WEQTy+f3gOLZWq/+pS33lMqpLdZ81g9UTrYlLhWQ/3Eu3UTOoSnyc0qsetVMrGTv79klrlrI9jUvk4Tpco+Z/D52O+/o3Wh523VqoNMXG121t8vtPipgfXvL3DfJhA0o4n8PBVFaRoqkBQlxXz55Zd2zTdqUBIDNtArV660W2KiD5pWl3nQ+4vIXmQ/owMPPFAHdXkMEaNgWt369evtWgP0rZC6mcVSM7pNhKjwBEz7yTJsVZ3U1VVKcXmpd1uVjB3dVSrrvH2rykSmTJd13uNJm6sZXSoyw9vvPdfUJ+OpYuotFd5zFK4olVKp9J+P9/Bkif96KybLdN7LrLFS2tW73XvNteNFJs9ANnmiacxSKTPvba2UdRQpnukJO080tVleZu5bN7OrlPZ3Iis+6PUWvLbstNNOdk1RlOagAklRUgiz5V999ZXdEtlxxx3tmtJSguKIAbe6YGUOiKF//etfZj1YZ4K1/T777GP6GWk0VcGC3xF0tGsQRJIVIKXtrUhaXSNLh5TJSOPP4omZupXeOv/6QqRV+1Kp4SZL4fhKe98m0rFMKqlHalcoXaVYKqcQvyqUbp7oMfDevH0YPLQZ7V6xtRR2rZElZpN1s1PWvbdUpLzIjyD1myqyYknYe2yMFStW2DW/FimeGi5FUWKjAklRUgj1Rw4aw+qMeeKILO7X1Lr0w4QAdUY0rnzllVdM4fjuu+9uBnDYdtPrpqCgwN5byXeCkxqLFi2ya7EJutb5NUg1NkrjsbQmIgJj092I8hD9sXuTik3zqxjoGzw4el9TJkv7+el1RVIpFbbHKwYQJoJklkC6YBwEP6+g5beiKM1DBZKipBDSSFxDWOpjlJZBzQp2tkQlSKf7/e9/LwcddJA23c0AcKV79dVXw2rCSINkUgATBizX4y3EV/IDjDkcc+bMsWsNMVVKQ5bb66RmqTVtIKKzolTGunqiWSVS8tB0mSxlstZEeeqpWd6UOE2AmsYjPOtmTBbxRI8TQD6eUOu/RMqcELLvp/XeXaVm9NiQ4GuqZfkLL7xg10QOO+wwu6YoSnNp5f1A6zvxKXnBX//6V7smZkDpZt6V1LBhwwYT5dhss83sHqU5kHPPrCluddhAMyj4xS90zicTWLp0qXz22Wd2y4fjfb/99tNUOiUm33zzjWy99dZ2S4zDYUOD/aoJE73/T5Yim74WZsFN9Mal0nX0hNHyQhnbqsiTVAEO7yXy8nyzWjy+TJaO9u8fzcqbNDlnI144/hHpOvpM/7mGFEtx+VR/3Xudsq6lUmruVyyVM0WKSJcLUDyzTkqerH8uw5BKI5QwaXCpeE2xE//000/DJtwWL17c7ChScHygkSgln1GBlIfkq0Ci6Pf99983FtC4aH3yySdmRhtXOVLfcABisP3zzz+bgTYDOoQMF2wK/il65SJEahDNR/faa68mdffHlYlZdXLDt912W7tXaQ5EjhBHrq6F74p0LU2rSz+k0b3++ut2y6d169am8adGjJTGGDx4sEybNs2sDxkyRKZMmWLWc4d1MnFCjYwcVR/JWucJvZpRI5uUUhfk+uuvl+uuu86sI2oQSM1FBZKi+KhAykPyQSAxcKbmobq6Wt58803Tnf+LL76wtyYOailc3xYKzUkRCc6ABmFA72qQaFyqNA8ELGlbRJAcbdq0MWJWSQ9MNnz++eemnmibbbYxTXqpP2JioUOHDvrdKFHhGKH/FedrjhPOp6TWHXvssfYeYm7v3Lmz3coBMImgDiqU6rexYGoKTOxR1+fMf+677z4577zzzHpzUIGkKD4qkPKQXBVIRIdmzZolzz//vLz44ot2b+ohJQQB1KdPn5DNNBcvhJpDBZKSC5AShduYE/5E8o444ggzaMO5LtZkgaIAEfy3337brGNYsO+++8rOO+8shx9+uOmTBSeddJI89dRTZj03wCyijZSGTOcKpWwVLnt2s4mMHj1aJkyYYNaZoKAXXEtQgaQoPiqQ8pBcEkhEhaZOnSqPP/74Rmk90dh7772NlSwpP1xMuBiT8sasN7PcNKkkvY4oBel2zGySMkQaHhdzDAFIz8OZq6amxtyvIXBlGjRokPTq1Ss0w8frYm2sKNkK4ofjn8hREM4lBx98sN1SlIYhgkSdUdD6fc899zSD/GAUiTQ70u2UcDBBCdZoTZo0SYYPH263mocKJEXxUYGUh+SCQCJd7aGHHpI///nPds/GkHZ1yCGHGFczisO7dOmSUHczxBHpH+R7I85ee+01E8WKxmOPPWbSjYB0PFJJFCVbiWbCgG19x44dzSSDosTLv//9b3NNokbTwXmavj6IJ87dTISRNhbsk5TvICppZ/DOO++YbSbhSG1tKSqQFMVHBVIeks0C6aWXXpLbb79dKisr7Z5wjjzySJPaxuwjNsKpBgMI7FZ5f88995zZR/78bbfdZtaJPD377LNy6aWXSlFRkdmnKNkANV+YYDB45Rziavqw7SYi6iYAFKWpEElavny5idLHgtqkiRMnmlQ8ReTUU081mRMO6myph20pKpAUxUc9cZWsgEjNySefbARQpDjiosCFE5c6GlJecsklaRFHgLvd+eefL1VVVaZo/Z577jHFx4433njD1Ech4hBIweZ+ipKJkGrK74+aEBbSTvl9ETFigoUUHxVHSksgZZM0ZybrYjkdIsi5BihirnFBcXT//fcnRBwpilKPRpDykGyLIF155ZVy66232q16uFiSb41oynQQRXzul19+ud1Tz0UXXWT+vl//+td2j6JkBmvXrjWOgczwO4iI/u53v7NbitJ8aHvAxBY1nkGIUmLlD0SMSB1jEgwhRU1nUBzkGyNHjjRZFA6yEYLbLUUjSIrioxEkJWMhnQ4XuEhxVFxcbNIJnnzyyawQR8D7xG1o5cqVMmzYMLvX5+677zYpSjjwKUomwEB04cKF8sEHH4SJI2b56QemKC2FGiMik5HiCJw4AoxuSO3kmAR6JPXu3TvknJhPnHXWWWFiaOjQoQkVR4qi1KMCSclIbrnlFiMquIg6KEIlxaeioiJr0wlITXr44YeN5TcXece6deukX79+ctVVV9k9ipI+cKcLFs0T3cSCGcMTbcarNBXS45gcIhLkjGwwZwiCRTwOdsF0TcQ4qZw333xzWPSd+k7cEklZzgc++ugjOeqoo2Ty5Ml2j8hpp50mjz76qN1SFCXRqEBSMg5mxcaMGWO3/AsnURYurj179rR7sxvch6ilQiwxK+8YN26cDBgwwPSRySoWlUmfPmVSbTfjZv00GdGnj/fYETJtvd3XCLWPjzA1XM16PSUqODIi0nGn49hjYEotCI50RDf53e2yyy723orSOLRHINI/d+5ck7aFdTf1bBxngCMd4od0TZzq6J+11157hdohAA1QHWQS3HjjjXZLTP8tBPtdd91l9+QmpBPy+QR7++HoV15ebrcURUkGKpCUjGHDhg0mahQ88dMwkDSMCy+80O7JLUi3w6aVAb9jxowZ5u+m51LOs9sgGXNagd2Ij4LBk2RMbujkjIA6kFdeecXM7GPdzb+bb765HHrooUYY0bdLUZoCKXK0PsCoJpiiCdtuu635l4khalyoaaMXHdB42JVFU4cUaf4xduzYjVo7YFjA+TOYbZAL4Oh3xhlnGLe6L7/80u71syvuu+8+u6UoSrJQgaRkBOShH3/88abuyIF5Ads0d81lGIBSf4QZheOtt96S4447zjSlzQq6l8rs2aXSw24qmQ9udKR6MgGBhbdjyy23NP+6psmK0hDUAr333nvmXI2LKCKb4yaYiunS57p37y4HHnig3bsxwbqirbbayq6Fc/rpp5vjNmggQDSeetUrrrhCvv32W7s3e5kwYYKJsAXF4G677WauE/yNiqIkH736KWmH2cb+/fuH5ZOPHz8+51MnIiG9jk7oDmZPMaIg7SlYD5JaqqWMdLYJUZLZbHrciIceCkuTq57Aurf/8Wn+Y4Ppc6GUOm85f5pExsjqH1sbtm4IPXbj1Dp3X/+2Wpl2vrce5fkb/HvyCFLqEOHBdCbqjCiIx9lSURqDlLlXX33VtCpgIofGpRgpfPrpp0YccSztuuuuofQ5Jrq23npr++jokILnCKYeR0KKMg26cXQLQr850vJIxSMalW3ce++90rZtW2PoEzznk3b+9ttvm3OcoiipQQWSknZwpeNC66Cnw6hRo+xWfoFtuUsxpA6LWVFmZHEUYyBC2l3SnfmDIqZPuRQ8MFtmj7KxIVNrZG8bXitDZs+WSeecE5Ym1+PUIcJW7WO10uMB1mtl/kKkiidcbimX2p5jZPZVvUQ+mi/VEXVH7rGR62GPne29lwV2N3jvadyCXjLGey9jes6XcRNqZdB93nu+0hOdob/DiaoeUurdb/Yh1fV/R1QhlXswgGVQy8CLGX7nCgb07yKlbscdd7R7FCUcjhcXacTEA9OFaLWSzuWQCR7OXy59Lh64L+mdRJwQV41RVlZmjHsOOeQQu8evfbrmmmtk5513Nul3NKDNZDBguPbaa00tFqnkWOs7EJVPPfWUMWPQXmOKklpUIClphQsDFwAHlqUjRoywW/kJ7kSYN3DhDEL6CYXJL7zwgqlbCs7+JwYbebnFE2eICLNMkkG7cZuNvCzsYfezNJxSV3DaoPDb11fLfO9PMjUtJiXPPXccBB/rPWuPQA1S9cL53v89YeS9v3EIpw9rfcGz2yCZFHqvPaSa9+8iR+b17W1WSIUiVTkIM/zUGTGoJXIEOEGSxkOdEQJJ0+mUaFALQxSb9DnECCIpspkr6XAM5qmdbEmPLOqTcCsl4vSb3/zG7m0Yjl8m2HB44zh24JJHFgI1TrwvovNMNjUE9Xj8vcmehCK99bHHHjPOpaQe3nDDDea1Hb/97W9NFkVNTY2cdNJJdq+iKKlEr4hK2sDdiAuDo7S01DS9SyRVQ1uZRoMbLUOr7D0yE8wbyKV/4oknzGxtJKSxkIfPoJdGnsHUlOZTkMWRFz+CZATPfYP8yFNYJKxaenBbtEiYFYSTBtfHq3IFRDTRR2pEXMSIY4UBGoMw0nm0QbESCccKkzGIIlK7gsICMx2iRESHSMck8tijRw8z0KduLV2ceeaZsmrVKpOBQDuFIAg7nN+IKiG+cMRzEwUOBAr1ePy9CC4MJhIJn+c999wjffv2Nc3ZhwwZslHvO5wiSbUmUyBfsygUJVNQgaSkjeAF4OijjzaFqYllndQsLZbKujqpq6uUYu+/+vXMB8GISDr33HONcxE594i7IAx0GRRggY6VLrOfLSZZkZfdCqSt90/tY9N80eWJlLJFrMTAGySEntk99tVqb5/3X8C7wo8qzZdy8z6qpWzCzCiRMBftihIJc4Iqx2BQi4gO1jJQG9KxY8e4Z+eV/IA6UMS0c5wjQs0gPZiGCaRgOhc6UuDatGkjW2yxhdnOFMhAIFJKZkJRUZHdWw/nSgxxDjjgAPO3YIaDO15QMHFexaKc3w8TVM74ATOheNxFV69eLTNnzjS1UCeeeKKJqvG7w3iIcw41gEFIESQCxsQX701/n4qSflrVJb2gQck0GEg7mAFkNivVIIYoRAUG/cyuRc76JZYqKWlVISV1FVLfnjXzYVazQ4cOJq8euOCWlJQYIRSrkzzpLzgeMYBJyXdLpGZ4uS9meo6RMTLOT3WTXtKr53yZb9YLZMgDk2SQhN939qm14dujPEE2wabK7VEgBR8hh+xja8ukz82k03n79/D2k4FoHlPgCaIRUm4yEokkqZseMMhlwOVgkLb33nub+g5FAUQ0AsBFS3AwZLD+wQcfhGphMFYgssHxk43HDhF2IvFPP/102LUvEqJfNKPFaa8x+F1xbqYGi/MwwonPcv369SadNVJYRoOeT/S8O+WUU6RLly52b/oJfkZBp0BFyTdUIOUh6RZIFItzseWiAgz6mcFLLpECie0imdqxTNYuHyDTO7WR0hXFUjlTpKjfVCkcUixSPlXkD/2k5s8zpXB8pQybUuTdR6R4Zp1U9DVPkhLoeXHBBReYdepEuDiT4uIuyoglPtNoMLhxYklrTHIbeqUwsCUawMCGWhGijtSHILIbcgVT8gsG8USeI3sUwTHHHGPOFQgnjplMixC1BH4fzz//vGm6SiQpmiU4E3Wk6xHxiQV1oHfeeafdig8mrqivotffsccea2oAMxEVSIriowIpD0m3QLr77rvl4osvNusM3Jl1Sz5RIkizSqTVmG6eQBoprQO3F07oIG2mDLP7RdaxPVqkbNVKGVnjPebJEqmbkto4FPn+rhEixhbXXXedWQcGxE4oBRsKRoIoRSxRe6LkDqQDUcz9xRdf2D1iUp/UrltxEOng3MA5gIg9tUWRMIDHtGOPPfawe3IfroWk0WFCgdsdqXnYgxMpwwEPQROZ1oywRBwF3eYiwYkPocV5GyGE1TmRqWBvqExFBZKi+KhAykPSLZDoj8EFCShIDTZITR5RBNLqidKhv0hlFIFUJJWychTyyBdIoW1EVRoE0gMPPBBy92MAE6uBLBd3hBKCKZoFL1CUj1BiSWdRtdJyOA4wYIiEZpyuVkTJTzDjIA2MiLPrCYSRAmmWmBC48wPRaISTs+fOd95//33jIBpZJwREZTFW4DZEFNE1IrRMOvH5MeFHHyaWbEUFkqL4qEDKQ9IpkHAJCuZbc/Emvz35ZLdAYrDDgBfrWqBrPda1DeGiSvwb7WIP9B1BKOHupGQX1KW9/vrrdsuHlKh99tkn5ZMeSubgHOiCttGOHXbYwQx6Sa2jdobBfaRldz6DUQURpSBEfVwqohOYuYwKJEXx0aIEJaVg7e0g1z014igOZlXIVLsaSc3yGruWPoj0nHDCCXZLZM6cOXYtNsxo7rvvvsaGl4LgaDUopN1ga0vKDWla0XLyEwUDMuoaEG3Rah+UxkEoU3vGIBinK2asWYgqEjU66KCDVBzlGbgUku7lDDmYEIkmjjguSKEDBv1EPVQc+RMNNFCGyPNS69atTbqcQ9OTFSV/UIGkpJTXXnvNrokpVk0JRIowZPD+K2rVQSautvvbDZBhUipt6Iv0pEgxt+/ZTdqMrpGa0W2khBYVs0qkqNwTSWxP8J6nnyejyoukw4R1/nOkkODnVV1tbbfjgJQ6LvQMnvfff3+T/hGZWseAm7QSvp9FixaZAUOsqFNToD6K3H4GbKSjMMDHOCIbcvEzEb43OuozsCXFhxoHFuodNKUuf8CUZd26deY8QJ8rzAdwLaQOjaiQg2OFiAfNVA8++OCw2/IdhBEmJkRhqT3CmpsIG1EiJu4OO+wwM7Hkovagkw+Kkj9oil0eks4UOxpTuuLWeNLElHqC6YmIDGf93RycsQNLsLg/EmoTiFAw0GoqiK433ngjFJVigKYDDEVpGURhmXSIBhFjBvcM6n/5y19qhCgK1F5Rtxd53nPph0EYHuFY52CSis81l9EUO0Xx0QiSklKY9XSoy1bTYDbT4XpvNBcu8tQecQGkCz7ClR4okZC2QwPFBQsWmH4iFCnHA9EnZmedOMIJKpiqoihKfDCQJ7rhjBaY1IiE6CxW7i5lmaixiqONYWKISZtIccQEELV7kUSm3GnkW1HyBxVISspgQB8MWKprUtNAYBA5clBQnAhIu6E2gQaRWNISNYocCDAjjb3t/PnzjfChjigWfMe4FAYjXPQUyfWZV0VJFPx2iHLQr4cZfQSSMw9wv0/SLUkHY4KDOsNsdk5LNm6ihnNTsGccdZkHHHCAST2ONoFDPyh3LuT8pb3kFCV/0BS7PCRdKXYMqt0MJxedeLqNK+EgKl3Xe/oiRZv1TAQIIpeCt2HDBrs3HGaoSb8jEhU8hhjMsTgQX0SoFEVpHCYXokWJ4KijjtLIUBOg9pGJHXqF4dhJPyJsvBFMGJuQVtcY1GZiZsO5l3NdrqMpdoriowIpD0mXQGKgHXQBYiZPowpNgwiSS7Xhwt+uXTuznkyIVDmxFCvFjvflHNUY4LmGtQxCMBBQFGVj+D3xu+I3xiQC0dznn3/e3urDZBIpYNwejCArseEz5fyIw1+Q4447zq4psVCBpCg+KpDykHQJJEAQucgRM3OaFhI/FBcH64QQnNGsu5MF+fiur5KLYkVjxx13NAM/BnXBuilFUfzfMUYL1MEEbfWdSQAGDC5iwW+JyIcSP0SIgrWuDqLtBQUFdkuJhQokRfHRhFolpbRp08auicmxV+In+HkhPlIpjoCZbCJE3bp1M450RK+iiWvEE1EuxFRTjB0UJdehtujVV181Tp5BcQQYKwC27bh7Yrqg4qjpBOsjMYehZgubcxVHiqI0BRVISkrBhtYR2bFcaRjclxzO7jtdIIwQSAilWPVFTTF2yGgWlUmfPmUSf+cpy/ppMqJPH++xI2TaeruvEWofH+Hdn8c04/WUjALHtNraWnPsExUiAksfsEgQQZwXEURK0+AzRWxyjnGRj5133tn8SwSO81Pnzp1D4lNRFCVeVCApKQWnNMe8efPsmhIPwc+LC38mQJofUSIHzlrRus2TMvT222/L3LlzpaamZqPZ85xkt0Ey5rSmzVoXDJ4kY3raDSUrIQV1yZIlxoHu3XffNcc+KXUYBjBoRxBRS0Rt3hFHHGGMA5x5jRIfCCPS6Gg/QJNcotSkLBKhI62XWiMcOaO1LlAURYkHFUhKSjnmmGPsmpiLW7RccWVj6Hv0zDPP2C2RY4891q6lDwqgg/nq2ORiOYxt7oEHHmgsiCNnbhnYUHv22muvSXV1tXz88cdmX0bTvVRmzy6VHnZTUWJBxBSTkmg1eu63gCDq3r27MTDZbLPNzD4lfnCke+WVV0ytUdCyGzGkgkhRlEShAklJKXvvvbcZRDseeeQRu6Y0xOTJk0M9pCI/w3TBzK0z3GCghzAiggTbbruteZ/0ZyHFhZnzSKhTWrlypYkqLVu2rEWNb5tL9YQY6Ww2PW7EQw+Fpcn59/f2Pz5NyiLT50Ipdd5y/jSptbsd9Y+tDVs3hB678Xtx9/Vvq5Vp53vrUZ7fu6f/niZocl4q4HilLpD0LqKjQFppEExpqH0h4kvdoNJySKkLpipSG0m670EHHaQW6IqiJAwVSErK+cMf/mDXRO677z7j6tQsVk+UDq1amUJclg4TbDRqVkloX8ksf5ch1v4Q62TihCq7HkmVlNjHmmWou5/3mE6B/aGlg0x8qP71wpbQY+Pn3nvvtWsiZ5xxhl1LLzhsAYMSZsV/85vfmO0gNFakSJp0F9Ir6YkUzdiB9KO33nrLRBXpoZQ8YwcrMIzg6CPlBZPqo0Om1sjeNrxWhsyeLZPOOScsTa7HqUOErdrHaqXHA6zXyvyFSBXveW8pl9qeY2T2Vb1EPpov1RF1R+6xkethj53tvZMFdjd472ncgl4yxnsvY3rOl3ETamXQfbNl9pUi49x7DYmqHlLq3W/2IdX1f0dUIaU0F1JDEUOku3K8fvjhh+ZYpb6OaAYmNPwuSJnjmD/yyCONe1oqnUJzDVIWiTZjbsFn7GqMOLe0bt1aevXqZQSSiiNFURKJCiQl5Zx99tkhe29qWG688Uaz3iQQO+0ny7BVdSayUle3VoZNaeOLj74VZl/lEJGp/Uo8aWNh/6oyKZtZJxV97b4gq6eL7N3bbgQwQqxIxHuc/1rec0uRtOo00ZNHrWXk8rVS1lGkOHB73cxhIkd4rzezWKRjmax1+733WdbJPm+c3HbbbaFURAZaI0aMMOvpgIgRDWrXr19vmiYya8vsOP1bGoP0FwwduD/2sTw+clDDDDwCyRk7IJwShW+AME7kSk9EICQQQIORKTbysrBHaH9jKXUFpw0Kv319tcz/yNuPU5ZJyZskg+LtKRl8rPesPQI1SNUL53v/94SR9/7GIZw+rPUFz26DZFLovfaQat6/ixyZ17e3WSEVilQpLWLRokVGDEU2ucaimygqxzguj5guRIuaKvFDKh3nAFIWiTYzkcb5gBouItM401FvpL30FEVJBiqQlLRwxRVX2DVfADTN0W6dTBwzVQrHV8rIUJ9UT6jMKJPC8lKZuNru6uSJoSFTpSjOiM26GSKFUYRT1Q2lUjOkMkxU9Z5SKcUrSmVs1EiUR9+RgfcWxHufo6KIsBiQxjZ27Fi75X9u6ZqN/vnnn03NEeIIkURzS6zGm+MQxYCyY8eOZqCDe1csYwdS75yxg2uQ21wwQJg9e4zILTa64i1li7gl0yMvfgTJCJ77BvmRp2A6X59q6cFto6xkC0bCbhHzWF8IKvFCfR2/PYQ6xx/HPAQH46wz0UO9nfaLSSx89tQZuYbTDldjtMUWW4TSeRVFUZKBCiQlLRAFcY521KgEBVOjrJ4uk1cUyrD+re0OS7sBMqxjjUyeUW/8MAAhU14UI6UunJq9C2Vj6VIlFeUixQMjb+ktJUSontxYfFUNDUStgqyeKCUuDTBOLrzwwtBsNak6Y8Z4A/w0QPQLZy4ifo5oKXVNhUEOg0zql4hGNWTsQJqNM3aInMGPnwI/Rc0Kjh4LERI2Ra0lkZfdCgSz89rHpvnP5YkUX3zFoNZGgsA99tVqb5/334f+bvCjSvOl3LyPaimbMNNPEbTCx3+/LtoVJRLmBJUSF59++qk5xhYuXGhqXUif4/jDhQ6IDpEyyr+kzyHuqbdTEgcpdXz2QYgaHXbYYVrHpShKylCBpKSNCRMmyOjRo00EiX/POecce0si6S0Vq8pkab8O9ZGlqCBp4o/sRGNqP7/GqMgTVGGsKJU21B61L5Wldlc8lJaWypw5c+yWSFlZmV1LPe+8807YbO7vf/9741qXSIhGYezAQChWipIzdqAGJBHGDj1GBQVGAJvCNumQahn3GOKkVsr/4gm0v5QbYYMQKgutj5Np63tIqalJ8tPhECmlBdPCHstzDunJ/UdIn8fWGOESeqypWyqXEX3Gec8A1BtVS8HgMTJkD/sYIkWj+vkCL6rwsZEwF0lSGgXxQyoXcHxznEeLVDobbuy5mdBx9XdKYiCFmFQ6UmyJDjmYLEGMxqpxVBRFSRat6pgaVvKKoDUzA910pWwxW8uAxHH55ZfLiSeeKNdff73dEwNqgkz90cqINDYME9rI5KFrZeWo1lI1YaIUjhopxJnWTeggbaYMk7UzRKbXjJSRkal0sybKxMJoaXGYM/j1R5F1S1VDPTEklVI3pdC87pJx/n2IIMmUCl9uUSs1ppusXe69DyJIMwZIhffeGmPixIlGIDmuvvpqueGGG+xWaiFigyhxYE9MD5dUQN0BNR/MKsdKsUOoUc+06667NivdT8k/6JnD+YfjitRR6uIQS6+//rq9hx8h5bgiYpToyQDFh5oi0umc+x+fNQIUsco+P4KqpJLg+EBTR5V8RiNISlrAjSg46KbZKAsiYNy4cXZvDKKk0hlipd55tB5VKWVSKkU3LLF7wql6T2RA1JqhWKl0sVLvqE+y4iiSdiPjEkf33HNPmDgaOHBg2sQR0HzRwQAmVeIImE3G2AFbc2fsEFmUTRoUxg444OEslkhjByV3QADRO+ell14yg0COE8QREIkkgtmlSxfjtMjxRiQTVzoVR4mHqB11p0SBg9bobr6WlDoVR4qipBMVSEpaQBwF60iYRXR231dddZVceeWVZj06rWXkuGKpGV0USJtbJxP7Y6ZQFtscYUaZSPlU2VgiVUmNDDCRpmj0vgbzh/A6pqqhRTK1Y5ncFMXUoSUgDi+66CK7JcbCdurUqXYrtTirbdLeGKxQK8TsbrqINHaIVo/AQDeRxg5K9oIgwkjEnWfoWUQqV7C5KDAYZwEspBHk8bgyKs2D7wNxxHcTBMtuUmsVRVEyAU2xy0PSnWLnXNAcXBjpY4Hr1vPPP2/3ipSUlMif/vSn2DauJtXOE0V2s3C8n1rnUu1KeQkstklvM/fwmFUiJVIRni4XM70uiJ9qF5IqQ0itI04UeC0PrL5Dz016XT/7iMj3EYXhw4fLgw8+aLfEpP1QaM/MdqohBYnjBBMF3kemdvwnukWaFIurJYmEwa5LldJeKbkPxy6mCqRmAhEgokGkiiKSADc0jgdNn0sNTLbwG6WukPM5ExgO6rmYhNEao8xAU+wUxUcFUh6SToHEhZKGf8zuAkXPOJjRDR1IJ3vqqafMOhCxoJmsc7zLRShOPv/8802PFcexxx5rPgdna5tKcKojVc2lH5F25JozZjKkTDmxFOu0RrE9YikeN6z//e9/ZjDHvwy6HQzkEF00qlQyB2qKiBryfUVCJBYhxH34TWmEKDX897//NanTiFPgfN+9e3cjXhGx1DO66J2SGahAUhSfTa7zsOtKnhCs0WCgmMp+EsuXLzfd6B2kTAVFwCmnnGKiAm+88YbZZrBLFIkB7+GHH2725RI4+CEKXZ8VGDZsmDzxxBNpidrw3ZD+4sQRpgd8R9kAQh8hhwhiMEwqDwO0IPS3YZDM583t/H2REUoGbzSoXLVqlamP4PlIB0Iksc4gD7dCJb3w3fBd8h0SGcRgIZi2C0y8EJ12rnMcI9o/J/m4eq+3335bvv76a7vXF0x8Hy6Cp1GjzCM4PuA7UpR8RSNIeUi6Iki1tbXy7rvv2i0xBdC8fjQeeughOffcc+2WDwP1a6+9Vk4++WS7J3upqqoybn2RDXJxr7vsssvsVmohukcPGFejgUCjN1E2D2Jww3JRpcjaEweTBESV+B1QGxesjeAzOOKII+yWkm6IDiFgEUauJxeildoVJlXcPqISfKfUrbnotJI66Jn2+eef2y0fhCy93DRilNloBElRfFQg5SHpEEjM9tIZ3R1u1NXQgb6hmXiK7S+55BLTzT7I0UcfLSNHjjRpaNkGTmuIoFmzwjvX7r///nLnnXca96x0QV2Yi2QxI8/3kyrxnGzcwBqhFNmdvyE6depk7MOV9MPkCpMskZAu5343CCScDzO1Zi6XoQaQz51zBxMtziCFaC7GF+pKlx2oQFIUH02iV1ICM/NBLY6VbmNpSswKv/zyy0ZQBNNiKPA97rjj0urw1lSmT59uBB3vOVIc3XjjjSaSlE5xBC4NiRl3mjPmijgC0ugYoNFwkhoIopfBhpSRcP9gapaSWhhs4zjnBBHpjdHEEd8hBf6ObbfdVsVRiiGFjkE1E2BMABGpRRD99re/Nd8N5zwVR4qiZBsaQcpDUh1B+uijj0zxtIOLJwKpKVDQe9NNN8kDDzxg99TDDD+Od4MGDTID+0yBGe9p06ZJRUWFrF271u6t5/TTT5exY8eagXi6oCaAHkIMNPfcc08z68sMcK7XBvB3ckxSa8XfSnQp1qmQFC6OMU0NSg2xvgf2u0kVrQHLDKJ9V/rdZDcaQVIUHxVIeUgqBRK9jXCtczCriGtdc8Hk4Y477jDGDdEgJaqoqCgUrUk1r732mrzwwgtSWVlp8vCjceqpp5rUwZZ8DomAmV4K2509dteuXY0Nby5Dqh09t4LRCFIJSQPCaYsUrWBj3CDcx9mFa3G5oii5iAokRfFRgZSHpFIg4QYWrPlAFCCSWgrWsRg5PPLIIzFrSoiKYA+O0QAneuyqE5nqQaE4dVJ8nggNxFGswTWf8Zlnnilnn322KVRON7h9UdQedBQkxS+X7Y+pr8JZK2gDTSodx0cw3Y5ms87YIdIFz+GMHYguKYqi5AoqkBTFRwVSHpIqgfThhx+GGjMCaXWk1yWav/zlLyaV7dlnn7V7YkONAu+DdDLEErbQpE5hGsEgmfoFanBIvWJwTASMHHsGzaRhMcimNoK0tHiK/Y8//nhjXV5cXJwxtRH8bdQ8BcUc/UgKCwvtVu6BdS1iNgjihhqJWLbPWBW73krBPkhB6IWEUGLR3jqKomQ7KpAUxUcFUh6SCoFEv5mFCxfaLX/GHae2ZEJ61OzZs+X55583Rg6xBrXJBAF21FFHGRMJUv0yMWWN6Bs9fhzOJjnXwK4bgYsQpoaN9EzgeO/QoYP5ruKFmiWEEiKZ54wGz+tS8CJ7KymKomQDKpAUxUcFUh6SCoH01ltvmagLMMuOOGrKgDQRLF261NjN8l6oB3ID5ERC1AVjCP4+UtSSLQITAdEvFiB6xkUwlwqrqanCgMEJ5L322ktat25tjDKIFrXUttul3yGWXEPdSIhMIpbU2EFRlGxCBZKi+KhAykOSLZBIQaPWw8FrYKucbqi7IeUPcYCzHulyDHQRcqTRERnAuIDUKkQdg2mK8bfeemsTASMaxOCadDRSBRtKz8pESBnEoY6fPGKRdSIpudJIk++N6FikYyDfGwYUiYbGuogkloaMHThmWNTYQVGUTEcFkqL4qEDKQ5IpkCj6x6zAwQw6vWeU9OKs1qmDog8QXe1zDYwyIoUKtWWYcyBUkgnpfAglBHdjxg5El9QKWVGUTEQFkqL4aKNYJaHQENZBZKKp/Y6UxEP9jetDRYQsHnOJbIO/KyiOEIJYvuNQl2xxBDgzEo3r2bOned0ddtjB3lIPkUqMIqiP43dC1FJRFEVRlMxDBZKSMEhvwijBQQNU0tOU9EEdTrD2CuFABCPbIV0S0ffiiy8ascHfRYQGSIE87LDDWlxr1BxIzeR1mXk9+OCDTSrmlltuaW/1oW6JnkuLFi0y0Vaiewi8xFMtZX36SNkiuxk3tTLt/D7Sx3vsiMfr+0U1yKIyc/8+fUbItPV2n5Iz1D4+wn6/Zd5RpSiKkvuoQFISArPhQWe0HXfc0RTGK+mDdMdgugQRPdIds91hjdqxV155xQgLehohNvgXgwzcAzHOoL4q3ZC6SgSVXlzUQOFuF1nvxXeE0HvppZfk7bffzpDoXoEMunKI9/8m0L1UJp2WuB5jSgJZNK3ForVg8CQZ09NuKIqi5AEqkJSE4FK4gMEp0SMlvSAcgiCOsrlXD1EWoi4rVqwIi7iQ3pbpog+jiM6dO5vIFuYe0RwdqWGisfL8+fPNZEMsO/H46SGls2dLaXe7qeQh1VJ283y7riiKosSLCiSlxeAKF6z/YNZcm2amn2CKGVbkqbZZTzTR6nZIYcumQmJcD2lSfOCBB8oBBxxg0gEja6RwxyNd9dVXXzUW9Z9++qlxHgzipzxFS2fz0+r6TJgZliYXSpGaMC20vz71zj7GLBunUNU/tjps3cc91nsvEdl49WlZ/vuM/Z5tSt/507y1fMZ9d1GS2NZPkxHebX7KY+D74r72NrZHPD7N3sb3yP3GyXzvUy0f7r7viMeGtr3v5XGbJhn8HkLPHTwuYr/P2N+xoihKdqECSWkRCCPXUweYKWfQp6QHIitE87C6xsGNOhhSvEh5zEZwhfvb3/5m1oOW6vw9GCIgxrPVppzIF+mAztgh2neEscM777xjjB1eqiiTYcOGmUHsiNohMnv2JBm0m3enwAC5T59yKXhgtswe1S8sTa5g8BDpxcqC+SJXjjHr8xf6A9zqCd4geo8hMukB7j9fqiNqlkKPjViH0GNnj5GCDwPyxntP4x4TGeK9l0mniZTfMk1k8CTvPY8RucW9VzdoL5BB93nv+UqRcaG/I09qXaJ+dz3820J1Xd4yvFaGzPY+y8EF/mfec4z5LHstGCdltYPsd+cJlNoC6XEVt5VKj/Xeukl7LDDfA5HEjR67qIcMMvfxRFRtDz9N8iPvGDACxxOut5RLrbm/954WsA/8yOTsQ6rr358VVaTiRf+OFUVRsgsVSEqLCLrWUSivqXXpA+MCIg7U5nzwwQfeYKnW1MFEmgRkA5h9LFy40DT7xfmN9DOiRRxfpAoSEcsVq3Isv4n28TchZvkbI633MXb4YbuOMnDgQLnyyivlvlN29cTwOj/ycovIGAasZrGiKRY9h0TcXi3VDHz3LJCC3byBdpNS8gKP9f7rcaiTY97QeiFxCz9yMeIxb+j8EVtgxZB9vz0WMoi2Ysi+vn9bD6lmgB0tmpIT2KhZ1O/ORmgW9rD7WTzBYx5nP3NP3PQx0SGRNd5ny2c3hBohb3+1vafsxrcSJMZjDZ6IOtU+zrG+WuZ/5N1SwLP0kB6RNUjdS+vfnxW3foSrge9YURQlS1CBpDQbBuHffPON3fJd6xLddFaJDwbQ1K9Q9O/IRgFBDyEE0RtvvCHfffed3eunnTkBTm+tXAUxy99I5A/BhHCKNJyoN3Z4X/Y6+yb584WbZmjkxY9chA/w6x3yWKoPCdwWFk3xhvk8zkVTco6GomaxIzQhTFSHz86PKkGPU/0okosMxiTKY5tFMMJlhZ7/fA18x4qiKFmCCiSlWdAYkzQuB9bRu+++u91SUgn1KURagnVgu+yyS9YJCcRRdXV1KKXOQXNV6nbyDVLuSL3D2IFUPFLyIjHGDh9uIaeMHCl33HGHTJt2UBMjLwVSQEbsgnK/bsQTKWUNWXuvr5U1drX+sVS7eMPi2vrHFezR1vt/rZT/xdwi0yZMk7dMfco4kSv9wTmLH62KFk3JkwF1Q1GzqBGaX4Z/X55I8VPYvM/wLyK9bBQpelpbxHcdemwMdisQ8y2+Wu09u/ffh/7uqBGu+wYZcebXIEX7jhVFUbKLVt7gKrz6V8l5gtbPv//975sV9aF/i4tWUBtCwfkWW2xhtpXUgltdMNURYYRxAalb2QQW10TBHAgEjs9sTBFMFohgRBG1Wf/+97/t3nAQUrvt9ht59ZarpHzdT96eXnLOaWvkIVLdvGEsg+j5C3wx0+sqBrAMeP2UK6Ge6D5voH7+CCn/yNzDEy2lUuANfE2q3B7eINumy5nHFkyTEcPLzXaBd1stKVvmOQZJ7YQ+Ms7UrRBJaiT1T4kfIm32MzfRoFNr/e09ennf1nyTFgfh34/9DiTisaOk/rvv6T1+gfd41u13WECUyLjgIa68753nNo/TeFCuEhwfZJMBjqIkGhVIeUhLBdL7778v69ats1si++yzj81TV9IBNUfOZh1jBsQqDUszHQb4HEsYEXAccgxxbP7000+y1157aZPhRsDdDqHEEg3XtJaF40JRFKUxVCApio8KpDykJQKJwSxGAA6aX9LfRUk9ONYxCGZZvny5SbXr2LFjRjRJbQjqpUjPZGEdfvOb35hUMqXp/Otf/zJpiQilYE1gEH7jCCVSL4NugIqiKEFUICmKjwqkPKS5AolDhdQ6VzxP/5aDDjpooz4uSvL55JNPjChCDNFTpzlpkumAPkbUS2G6EKRDhw5aw5YAvvjii1BU6X//+5/dGw71goilHXbYwe5RFEXxUYGkKD5q0qDEDelQQWcxetCoOEo9n3/+uRFHgLU3g+JsYcmSJWHiaLvttjORIxVHiQHRQxSR3kqITj7fSKhhYhD08ssvy6pVq8J+04qiKIqiaAQpL2lOBIlBePBxzEDjsKWkFvoDYYHtoEnqoYcemrFCFQFHKh1pXTQQRiAh8LAg33vvvU1jYaUexCO/NYw2+IxeffXVqGYMfJbUacUDUTtn7EA6XjR8Y4fdTHQpG+rX8gEigIsWLdoo2spxQdQY23tFSTQaQVIUHxVIeUhTBRJ1IjTtdIMrLtDdu3fXC3SK4fMnxRETAwcDpW233dZuZQ68R9z1EEcu1YtI0S9/+UvjfhjNsjpf4bNCwGC6QI0fEPnZf//9TTqiM2HgM2NiAlHZ3DozV6vE60VDjR0yByYSmFBwMMlAs2SErIpYJVmoQFIUHxVIeUhTBRIW0gx2HZgyYM6gpJbVq1ebxcHFKxPrSOiHQ+oWJhJBENXqTBdOpCOkg8Hw4YcfbtaJGjIpkcgoIVEpxBJCSY0dMgO+B37ffN9EV7G5J4LIJRphhMsjEWNFSSYqkBTFRwVSHtIUgRQ5i8nsJTUOSuqhVoRIHmSqSHXmEUFwqOOYyfeoEalSCBL6UzHY5fukMW4kCJLWrVvLVlttZfckF/pPuRQ8NXZIPd9//7188MEHoUghMJHAhIKipBoVSIriowIpD4lXIFE/QkqXq4GgEWyPHj10FjOFuBoeYBaZQTYpj41F/VIJKWK8L44PoiFERYDjpF27dmawn6/w/bn0ua+++sru9X93bdq0MQKJyAEpdQgjlnT9vvgeeZ+8X5fqFwmRJCZJeJ/awLfl8NtGHEVCfVk+/26U9KECSVF8VCDlIfEKpHfffdekSzn23XdfMzBSUgNC6M0335R//vOfZtsNqjMJBnhr1qwxg2uiRKQFLVu2zKSE8X7zuU6N743fWrSoDN8jnw8gLjPNZAPR5uqVGjN2oCZKJ02aDr+ZuXPn2i0fooa4g2qkTkkXKpAUxUcFUh4Sj0BiYESBuAMbZmyDldTAz5LvifQnRyal1fG+qE0LDp5Jw+rSpYvdyj8QRKQYEmUhckYdFuIxCEIIUcHt2YITSizRLhekDPI3cWxmomFIJsFnyXHBRBNCaPHixea3RDSObXV1VNKNCiRF8VGBlIc0JpCY8abW5b///a/Z5uJ9yCGHmHUlNRCFYTDlQHwQwWMwmm4iTTsAd7oDDjggo1L/UgECEVFEalrQjpvfCxFABsBECvj+EBDR+hJlC0S6+DsRSliHR4NzBWKJv1d7pNVDLScGDEFDjOOOO878i7BWx0AlU1CBpCg+KpDykMYEEkX2DPocRAUY8CipAWGEQHJkkjhCELzyyit2ywfDAWa/8y2djugQ0YBoUKuXKpOFdECNkjN2iHQrdBANwdiBtMt8BdHMb9mlyTowYcCiX+26lUxDBZKi+OjZWQmDwXlQHNGQUsVR+sgEccRA2PXjwZHORQaY9UYI7LPPPjkvjoiqEj15++23TTQAghE+BxGibt265bQ4Av5OvvdevXqZf2lsGwnHCw6YL7/8sjEioP9VvsFkU1AcUavFpBQOdSqOFEVRMheNIOUhsSJIpNThWudmhNl/8MEHm3Ul+eB4RloWYgPzA7b5ftIF9sOk0wUdzUgLYlacYyXX04L4G5ks+OKLL0xvGgcCEWHw4YcfmigS4oBoCYX1+WxWgABCNCKMOHai4ZrdIvxz8bPi7+a3i6MjRhzBdFT+bn7P2lNKyWQ0gqQoPiqQ8pBYAumdd94xs+QOZsLzOT0mlRCVIBWHn+N+++2X9p5BNTU18tFHH9ktH5zpqK3JBxEQOVkQhO+GeislNogkl4KH6I8k14wdmMwgShaszSO6SsQVJ1COGW2SrGQDKpAUxUdj/IoBYRQUR3vuuaeKoxRBdILULYr5GUwGnevSAfbukeKIAd7++++fk+KIz5zIB2mELETI+C4ixRERM5wcVRw1DhE1UkN79uxpevpERhuZCEA4vPHGG8YQhmgcJhDZyPr162XBggUbGZdwDG266aamn5GKI0VRlOxCI0h5SGQECQcyBinMgoJ2cU8duFrR68h99kRp+OxTXdODGEAokD4WNOlge++9987JOjRqQxikE+lgMOug7q6wsNCkSiFWEYdEOogGKM2HiQCXguccMiPJNmMHfif8XoJwnFCXlc2OhUr+ohEkRfFRgZSHRAok6igYJDo4KWqjwuSDKHn11VdDjUQRRQcddFBKB+K8NqlBriEw4gxRRO0Els3UUeRi1IiBetApMAjiCJGkJAcuOQgLhBL1XdHgt0AKHv2CMs06npo8ooy8PyKtpKMC0aK2bduaiJGiZCsqkBTFRwVSHhI8ARItoj+HI9jhX0kuwcEVIgTb31S6n5EShE21E2hAtIj0ylyCnj3UeDEgxzmMz5m//f3337f38CNlRC2IlKW7/iufwNTA9Vb67rvv7N5w+D6IKhFdQoSkC0wo+L1+9dVXZts1biaCxHGVj1b3Su6hAklRfFQg5SHuBEhaEYNHl15EnQARjFyFdKn33nvPRMyoeWAWm8gZM8J8DgzWSP0h1YwBD4Md3KgQkaTLuPQfogvt2rUztRXsay7UXBBBAowZUlms/vrrr4fZDwMz4h07drRb2Q3ROcQfA+/IWiJqqRCiRMn4fhFGuW7L3VRIL0RA8i9iEhGDyEQcIBToh4Ww5vKBaEFgEnHkHIKrH5EfjieiKQgHonLcpyF4fmfsEEx5dDhjB547lSKWv5PPglqjIEwkMKGgKLmECiRF8VGBlIe4EyD1L8FaAAaOuZI3zwAL8VFdXW1qfOjH4tLIEgmDNdz+KNwnPe2www5r0MaX97Vu3TpTc4TIYvBO9CiV1r8MQjGFcDCwpWYiF9zEHNEEIJCuhRhVq+V6SDekBpHP7K233jJGFbGiOS0Bgws+eyJ4OLzRgDoaCBKXghe0Vw/CMYtYYoKCur1kwXtZtGiREYRB+N3zm0lnREtRkoEKJEXxUYGUh3ACJHoRbNxI7jwzvdkMUaHZs2fL888/L3Pnzt0ocpAKmOU+6qijTL+gPn36bJSuyGfv6i6YXScKlWwQZUQBSOljkIoQYkBMpIz3V1BQYO+ZfbheRUQ4GNS7z3Tx4sVhboCkQjGo1do6HyzMKysr5YUXXjCTB+mA7+Poo4+W3r17S9++faPW3iFynbFDLJc7RBLfb0uiuZFwbkRMEzFjgsXB8cNvJtPqohQlUahAUhQfFUh5CBd8l0cPDJiZ1c1GGMhUVFTItGnTZP78+XZvbEiLQQgykEYYUHNCShCpQaRbEVkgvQ7xwOCbmWMGaaThEXkhCoUQI32LVL3GIKo0aNAgKSkpMQM9BvMObJAZJCYThBHv00UKXRqlqzvCwTAb4fildi54HAMz+ghUBtOYTxARzdWmpE2FPmd/+ctf5IknnjCpcw1BeinpY0yc8JtxNUCktpGOiJjh2GFCgGgonzcClYgPEwAIVn4rLlUvlhmDg+9n4MCBMnjwYDnhhBPs3nBcVIlUvGg4Ywe+7+amTPJ74bhicmX33Xc3EwqYeXA+oD5T7bqVXEcFkqL4qEDKQ1566aWw6AoD5sg+JZkOs94PPfSQPPLII6HBfiTMKtPYlL+P1B5SehI584t4YvBEtML1c4nsH+S44IILpKioyG7VW0knC0Qd7w23rSAMdDt16mS3sgsG4KRWMRiPJYbdoFapB0H0xz/+UebNm2f3bAy/DdLemChhUET6WCJBMJG6RwofKWukv0Yemw4E2bBhw+Tcc8+NGvHjd8fzMWERKxWQSR+OdcRSPGlw1BchjIJRKo41zh+Kkk+oQFIUHxVIeQYzpBSnO7JtQElq0O233y7Tp0+3e8JhQIMQIcUtVo1DMqHJKil+pC+9/PLLZl/Xrl1l3LhxZh2IbPCZE+lIFi+++GKYcGS2n9QzZtizBSITRAyIPpAuxzbOYQya+fscRP0QwwyIGdQqPpMnT5Y77rjDHJORULfTr18/k952zDHHGCGRahBszz33nEmL5TcRCZHcSy65RC677DLz3UaDY8Ol4MUyduCxHB+xjB0Qbjw+CK9NbSHRZUXJJ1QgKYqPCqQ8gtlWohwOBs2YC2RDPj32ujfddJNMnTrV7qkHsUEKG6lspARlCsxKk/pHSuMZZ5xh9hH5uvrqq03KTv/+/WXs2LFmINZSEA8MFEktIg0IIelqzJiRxxAiWwrKiW6uWLEiaiqVi4CRykXaI5ECbcgZzpNPPik333xz1D5PCKLi4mI55ZRTMiq9EjMV0v8ee+yxjcw1EDlXXXWV+d3EstHm+HeulA0ZO7iokjN24HdIvaK7DCKMSL3lPKKW3Uo+ogJJUXxUIOURkYXrDC4RF5kukK677jq5/vrr7VY9FHaThhNMXctU5syZY/qllJaW2j31jBo1Sm655ZZm18kgxJiBR1gggnr27GnSkJhdp8aJ2qpMh0EtdS1Eg3D5C/YociD+qIvRPkXRwcL+yiuvlGeeecbu8cFe+7zzzpNzzjknJaYgLQHBQjrgAw88EOa0CES7icQyGdIQWPaTgteQsQOii+MI504mLRDjRFeZSGjMjlxRchkVSIriowIpT8BYgAGUg0EzA9JMdmQi2kWKTfCEDSeddJKMHDnSGCBkGwz6ysrKjLFEEAb+d955pxx77LF2T+Ng006khX+DUEeC+M10EEWulsSlA2KTTm0KtSrAYJX0KBZNn4vNXXfdZX4rQYiAjB492qSoZcPxEMnjjz8uEyZM2MhlD4HE3xtP5NAdX8k0dlCUXEIFkqL4qEDKAxhAk8LiYFDg3JgyVSBNnDhxo2gLReTXXnutqZnIdhB/RMaCtTRApOyaa66xW7GJtB928H3itpXJIIyIpkX2lgHSDWncSqSTWX5Nn2sYoiVEhjBiCEJkld9Ksl0SU8GkSZPMbyUockiDw6SFWsPG4Hhj0EcaXkM4Ywfc+rLV3VFRWooKJEXx+YX9V8lhgulKpHFl+kz8WWedtZE4YiaZuppcEEeAmQRF6vfff39Y/xcGtVgdx3Lmc0TOiCMqSK3LRHHE34Lls3McI5IZTRwxk+8EEcXxKo4ahsgKkwZBcYQhCMcVKWq5II5gxIgR5hx29tln2z1ijqfjjz/eRJIaA0v+oDgiDZUJosiaPIQUEVkmLfiXGjdFURQlP9EIUo4TWc9BDUKwd0wmRZC+//57Ofnkk40LnOPggw+W++67z/QMylWwFz7//PNNnZKDv/upp54KuYsxeKPOCGHBIJjoCnbJpEpSR5ZpYoJaEkQchfOuB46zTcZFETdFwF7eFc7rrH380OCV30rQ5vriiy82aZq5DGl31FPxe3BcccUVpobPgTkJdvvOuZF1TF7YZgKBWiYminC9o36PWqXIfloOfl8Id6JK0RrZKkquoREkRfFRgZTDkH7DINqBPTInvOAJMFMEEmmAffr0Mf1RHKQJMROeLxA1I7XQgU05Bfe4euFQ53BObpkKzUFpThvNdtmlRPE3Ycjg3MSU+Jk1a5ax6A7y5z//WU4//XS7ldswofCHP/zBRJQdiEOc+7gt+FvhfMd5j/MLAieWkyO3O2OHWP2ZiNJSC5cOS3RFSRUqkBTFR1PscpigKQMDg44dO9qtzGPAgAFh4ghL73wSR4B5QzBliDQzanWCAz5goJYp4JxHNAgTENKY/vvf/5pIV6Q44j1jKe8gcqTiqOnQ5DkojvhcaZqbL+IIcJqjhm/gwIF2jw/nj+BvhYiRO8YwYIgljsA5JJKmSrSaiFEkREQxWeE74BiPNEdRFEVRcgeNIOUozOCTe+/g4k8/HMi0CBKuVMH+RqQJMSOcrzzyyCOm78uf/vQnu8eHdJ999tkn7TbXiB+XPhe0jd9jjz2ksLDQONC5HkXUwbBo+lzLYVBO6qX7zEn9IpqUjobImQLCkNRc6haDEGXl3EaUsrlgEc4xTlQplhjiGHdRJT3GlVxAI0iK4qMCKQchfen111+3W2JmQ6lbcWSSQCJSRANIx2233WasifOdBx980MxqMwCj7oiB2oUXXmhvTR/Ud9BPi0hRJAzYXZSSNCWNECUW6rdcWhkmA5gx7LfffmY7nyE19aijjjLrpNhRd3T00Ueb7USB4Cc6hViKZaDC8c9kgJqLKNmMCiRF8VGBlIMgjlw3emY1SRsJppdkikB6+eWX5YgjjrBb+VFk3hRuvfVWWbp0qTGtYAZ7+vTp0r9/f3tranC1GZguYAZBOh0mC0E4xpixb9++fbOb3SoNQzNhUjAds2fPblqD5Fkl0qpffZTWp1gq6yqkt91qOutkYifvPcxYKSPb2V1pgGMTpzsi5pxTOKe98847LYoexYLXYrKC3kqxXO7U2EHJZlQgKYqPCqQcgxlUFgeDWlybgmSKQGL2272XXr16mcGNEs6JJ54ozz77rFlv27atcSRMtgghtQhRxECQ9CUHPYo4Vt544w1zH2bLSS+iCF5JHgsWLDC/DwfC+fLLL7dbTQCRNKabrF0+UlobcdNGSqXMbsfCu9/Q6TJgSkP3ST+Ido5PF9lMxWQLDoIuBS+abT04YwfEEs6TipLpqEBSFB81acghsKoNiiPy4iPFUaZwxx13hJ2I7777brumBLnnnntCfauoK7vhhhvMerLAbIGif+pdguIIiEKSNsdgHTc6itlVHCUfmqQ6jj322OaJo41oLSPHFYusWCI1dk9UVk+XyUvtegbDRBDnFAdmJ8HzSzLgd0k632GHHWZSmDnfRoogZ+zA5A+TGziLKoqiKJmPCqQcItjviPSSTO0dRJE/tUYOmqNmsm11OikoKDB1Wg6iB0FjhJZA+hxOh2+++aaZCQf3bxDqoDACSLc5RD7y9NNPG8HqGDdunF1rKVVSQsrdkJJAip23zxvgM8hvNbTKE0cTpUP7UqlZUSptWp0gZ3XithIpGer/e735t4NMtHMy6yZ08B9r99Vvl3jPXL9dMsvb4Lnta3WYsM48vqWQZhdM2aW5dKogQsRv5PDDDzdReWrEguD2SE862i4QgaXRLfsURVGUzEQFUo5A/n1wdhIrXAYfmQj23aSlALOuY8eONetKdEgXwoUQGFRNmjTJrDcHHk+fImySq6urTcSIyCN24hSf43RITREDvs6dO8uRRx4pBx54oPZ+SRM0SXbQF4w0shZhxA7CpEhkZp3UTXHyiJS7Uum2yttXt1bKlhZJSc1IWbmqTAo7lsnaumfl4eWVUiyeqBrIfSrk2ilsW2aVSJvlZd5+77aZXaW0/0SRUSulcohI8Uy/zqn1qEqpnLlWKvp6Qqz9EinjvnWV0nV0UUhktZQxY8bYNZFp06bJu+++a7dSw2abbWaa0Xbv3t38bpjgYF8QmtzyvrALX7FiRcImPBRFUZTEoQIpB6BYmPQrB7UhXJgzFZpaOs4///wG+5MoPhdccIFdC//8mgKRO3rFkD5H/UQQIo7ObAFRRMoQtRNqXZw+XGqW46KLLrJrLcCIHU8AdSyUboV2n6FGlqyokdL2iKc2UrpCZOl70SI7xVLS164GWPfeUpHyIjMpY8wgbOpe74GepHqS+JHHam9PYWvz71JPaBVZoTaV124wzy9+OHaDUaTy8nK7lnqIvGLLz/vB3ZG+ZpGsX7/euELyu2TiIjKtVVEURUkPKpCyHFyVgg1hN99884xNrQMiFQwIHGeccYZdUxrizDPPDM1EM5CicL8xqH9YtmyZqcVAENHINdKiGCtx6iiwkFYyC1wLHdR8UWeTGFrLyBnDZHL/iRIugXC1I6rjLytHNc2WoXD82tBjiTCZ2FTfEikur/BT7NBHzu3OCLX616qIIrqaS7Bp7pNPPmnX0guudpjSHHrooSbCFOluhzBi4gKhtGTJEmMpzueiKIqipAcVSFkOqXX0pnGQ/57JzJ07166J6V1CxEJpHMwRcLRzzJkzx66FQ10R6TsvvvhiaKD1xRdfGBFNlIhBNrVEDNIQRT169JDWrVtrpCgDeeGFF+yayIABA+xagmg3UiqHTpaiUP1PoXTrOFVK3fbqiVLShNqg1nt3lZrRY40Qgqqhft2ReDLppvFLpWJWlUx/r9B3wmtXKF1XlMpYapFgVolfl5QgTj755FB6MZMJWH5nCliAc47G2IF0SaL9kanQbmKDFDw1dlAURUkPKpCyGAa+FP46EBukRWUyrtElkA6jxE/w8wp+jg4GVtQVUQAeGSlyM9a4Gh5wwAFmkObc8ZT0QHoVdunRIOKHeYbDNUJtNq4PEjVInfzIETVBw6a0MQP0DhNERi6nHsjfbtV+iZQQQbJixjdpIB1uqhTZx1cN9dPjqDda17dC1npCyE+bayWlnW4KmT+07j9MlvYrFenvIlK9pWJVmbfPvy/W4zclMILEsY5ZgoPfRCaCBTjRflLwiOJGGjvwG3bGDvS2U2MHRVGU1NGqTuP4WQn1JFw4XS0JEQYawsZD0P421X2QaCbqrMjnzZunIqkJUJNCbRDgmIXDmevsf9BBB5nmlcEmrkSFGIRhuMC/SuaAOKJAH4FA+hU9rkiPdTAgptAfmPSI5i6oxAYr9PHjx5v18847L8zsIpOhwbfrrRRLDDERRuQpWk2TorQU7YOkKD4aQcpSSK0LFto7l7NMh/SukpKSUO1Lc6gy9sL+gkXwugklzXTBCtgah5Zwi+JEpv60FFLhhg8fLo8++qjccsstpmaB9BuaVNLYlYETC+lzCCbEJ/bpKo4yD5zMgPkpIgPUlFGfx8D43//+t3EXJAVy8ODBGZ82m4kEP7NglD3T2WabbULGDvx2o4kgBJQaOyiKoiQXFUhZCKlUDKAczEATJch0iG5cf/31ctppp5nZ3eZYRyOOipbWF3hXSpG0Gd1IJ8uYNQ69paIOq+JCKTP2xnWydrxIafsSqbEWxU2hvu4iOSCITjjhhI0ED5EHBlKbbLKJGVQxOGSgpWQufEfBwS/HHgPfpUuXGrHE93fVVVcZw4FgupgSH8HzYbbaaDPZgbED9UpMelC/FCSasQOmPYqiKErLUYGUZeBEFnStI98eC9lMh/f88ccf2y1/UN9ke29P6BSVF0vl8pF+sbdHa0/I1M0cZreiU/XkVLvWOK1HlZleLxVNjhxVSUWSHYUj+6mQVkkNQ69evbSeKMvAMIPBL71yGhOzfM9K0wimK2Z73Q7neAQ1DnikPJFe94tfhF+6nbEDtvAYO5CqpyiKojQfFUhZBjOGpFQ5Emf9mxwYnFA7E4x4kRr44IMPbmQk0BhG6IR1/rf0HSkjnX1wRId+E3HyhMvUfvF17F83odSTR8EeMS4Nz0+9MwReo5UpWOc+toDd3W+j+7ScwsJCeeWVV+See+6RgQMHmtoUBktK9kKvnP333z9mBLiysjKjXNiyhaD5ReTEQjazww47hIwdSKuOFNfO2IEaNhYmpf773//aWxVFUZR4UYGURVCfEIzC0Aw2kwt1sZym4BPzAAc58xRQYzAR3N886P5vRYgRJht36K+5ps5282+or4trkNlK2oyu8e67MiS4pvarkBKbejd5BjLHe83+7jW85+5aKm2Gik3Vo48Mj412n5Yn3xE9pPaoqqrKiEwt0s5+qDdC9PLbjoQG0Pfee2/Yb16Jj+C5BVGRaxB933PPPU2tIWYeuFMSlQxCFIm0ZqJK1LfheqooiqLEhwqkLIFITDC1jpQqinkzFQZ8iKNgDw9myYkcIZKAVJAms7QmEI1pLSOXOwHkCRNP6DSvQ399DRJLsGll8Uzb8NKxerpMlm7eI3x6X1MmhbYRZoh47tMMgt8/ZhdEH5TshshqcIY/mHaKcAKixkrTCH5mmJvkMtiDk0lArVrnzp2jCkLq2zgfU6+0Zs2aMIMfRVEUZWNUIGUJuNYx2+zIZHH00UcfmWLz4MCP2U4sqoPuUsE+L/HQe2CxyIrJMr0hx7okduiPCn1iOtaLoajEc584CH5epNko2QdRQAbvpM3x+0DoOijED4pefkdANIRBrRI/b731ll0TIxryBdJuqVOi5UO7du02qk3E2IFrycKFC42xA+6XauygKIqyMSqQsgDcibACduyxxx4ZGz0gylFTEx62oXbG2ZAffPDB5l948cUX7Vqc9L1JyjqSDhfDLS6hHfrXSU00c7x2A2SYlEqRq2eaVSFLhw4ImUYY4rlPMwh+XsHPUckOnJ03EVQGpvxLVJXGvRhtMHkQnFQIiqe5c+faNaUxvv32W5k/f77dEunRo4ddyx8w9kAgYRWPGQjCCZfLIBg7INRJweO8rcYOiqIo9ahAynAYMAVTq2jqiuDINKKZMdCotFu3bkbQOY455hi7JvLSSy81sb7CpdS5NDp/KZJKGymK3qG/sFNhDJMGZ66A6AqYMHism1AkpSuoQfL2TygxtUk1o9t4gst7DzPKRLx19xqVprapULp1dCYNse7TfEiJeeaZZ+yWyLHHHmvXlEyHAXt1dbW8++67YcYkrmYEIeRc14Kz+cEmjTNmzLBrSmM89dRTds1vTJ0NLp/JhFpFomgYO5CKFzm5xjHJeVuNHRRFUeppVUcekpKxUFwb7KJPQS455y0h2CmbWWtEV0vAjIFi4OAMJI1g6ckT7bkpLH7jjTfM+rXXXivXXXedWVdic/fdd8vFF19s1hn0aV1KdsDEAXUfkY6NzO6zRMJ9XeNPakmY/Xcw289vSmkYonFE6uDKK6+UcePGmXWlHs7ZXFeoFQ06/gWhDxO96nLR5EKJTXB8EJykUZR8QyNIGQxpOEFxRB1PS8VRoiFNgxNqUBy5tKFYwusPf/iDXRO57777dLYyDnAzc5xxxhl2TclUiBoB809BcUSTXwbw0cQRBPv3IIaOOuoou+WL5ESzbkIHP8oZw2UxdHtLrOqd5X0CnBwb44UXXgiJI6DRrrIxTGCRicCx2KVLl42aT4MzdsAsRI0dFEXJN1QgZSgYMgRT67iguTqeTIEicgp9gwLHmTE01AR2+PDhZnYS6HJ/4403mnUlOhMnTjSF1UDTyBEjRph1JfP46quvTBTotddeM6YapNHhokaaE/2OSDkNiqBIGLTS2woTFvr3nH/++fYWkYcffrjJxiaNQaPlteMLRcpLw1JMfdbJ9OXee8L4JNCcucm0GykrZxbbjeQSjBYVFxfLXnvtZbeUWBAl4rhELBGdjpzYou+eM3ZAMDFx99NPP9lbFUVRchMVSBkKF6RgB/hMc2LCorshM4bGoBeS4+abbzZCS9kYCvnHjh1rt/zPLbI5pJJ+SFPCuREB41LkEEsMJBmkkyq33Xbbmf0NgesYDoX0OIMTTzxRjjzySLMOY8aMsWuJpKsUD3F9vgKsni7SaZjdyHxooOys0WH06NF2TYkHhHvbtm2NAQwZAExiRU500UuJVE9MMJjA27Bhg71FURQlt1CBlIGsX7/ezNI5mIGOtGtNF6QLYcZAt3ZHNDOGxrjwwgvlwAMPtFsiF110kV1THFhC33bbbSZqBAy0r7nmGrOuZA40dGXAGNnslfq+SOew5nD99dfbNd/J8KabbrJbiaPbNWXSdfTYMHfIqhuWSGF/u2GpGtrKT7nzlqBDZPT9rpFzB5lYHwxPCohTJlocpaWlaoXfAjAOIcUTYweimUFHRXDGDtSSYuxANkGsWiZFUZRsRAVShkE6Q7CBKtGCTEkToa6CFItgl3pS/5htjJbD3hgTJkywa2JSkoLpRIrI9OnTpX///lJRUSFPP/203HHHHWb2lnoArN8ptNZUl/QT2aOIyQzEP32NEgEz+pgNOK6++uowR8PE0FtKhkyVipC4qZKaTjeFN0meVSKlndb6PcaMW6R1foyxv2poG1kyjn5klSJTpvrPkQSog0Sc/vnPfzb1NDi13XrrrfZWpSX84he/MNFMzvFYhpNCHZkiSv0p2QRMEmAqxPehKIqS7aiLXYaxbNkyM/h10PCPnhaJJOhSE6+LHRc9bIqD9UaYMTDL2FC9UWMwkAkO/pgdv+qqq+xW/vLggw/GHZFjwLLFFltstCT6uFF8mMRg9pxoCWml9Dfit8HvgN/T7rvvbu+ZWA4//PBQfx+iivPmzTOuli1l3YQSmd6/QkbKROnQX6SSeqNZE2Vi4ciwfTVDW0nFwPrmy0SNEEZly9tE2f+IdB09T0rqKnyR5YmoVk+WSN2UMMmVEG644QYzgAdqGhnQc95UkgeClCyHyKipg+OT3ktcI1rqkqqkluD4QF3slHxGI0gZBAOtoDjC6SoTBrn0xWiOGUM8XHHFFWFOU9TbBCNL+QjiCCOLyZMny+rVq8Nq0aJBagtpXnxPzOQuXrzYOHnNmTPHROZIP8IWHFcqZnsjLaeV+CBax+dInQufNWlFDBIZkNOMlEF5ssQRPPLII2bQCYg06pMSatrQbqSUdZ0s01evk4lPigyIbrQXgv5iXffe2LrB37+T3UouGDFgYuLqvjDDwORCSS4IH87/pOBFm2Tj+OTcxfmHATfnHo12K4qSTWgEKUPgAk8zSXcRoZlfsEYnkTQlgkS6X7DeCJg1b0q9UTwcf/zx8vzzz9stMbU2wdqLfKGsrExGjRplt8QMvOfOnWvSlxh0cJzwb3BpDjikRYs6MfNLZEQJhwgqvb6CdRbUF2G+ENl4M5ngkIf1txPNpOA+8cQTcvTRR5vt5hCKICGIiPSMWSpl41bKSCJCWHSHokrebf28dRMVor5orBQu99aj7r9Jajq1kclD18rKUa1NVImGzomKIPH3n3LKKfLss8+abc4fro6R45d0MI5nJXVg2ED9LFEl6icjoVYVgY9rXip/M0rT0AiSovioQMoQmOUPpiswM8cgNhnEI5CIMjAgDEa0eD90pW9OvVFjMPDs06ePKUJ30O+HWfN8gQEeTlwObKErKysbbNTI9xRNNLE0FnmKBSIpUjixYFmdjzDwc42NHTjSUbzuDDRSCb1+ioqKwmbkiTqec845dit+6HPUZjRulIVStsoTRe0ihY+tHbJW36TZFZX7u4pnhqfVbbQfcdW+VHj24iHFMrV8athjmgvnJXqpvfXWW3aPmEkFImrU5QHCkYbUSnpwRkM4OUaD74dIH5GohmzvldSjAklRfFQgZQCk63DRdyBaElXgHY3GBBJmDLyfoIUrZgzUGyUzn5zB/sknnywzZ860e8TM0N9///1GLOQqfNYYVLj6EqDe5KmnntrIPaopRBNNTkw152dPOmWkaHJiKhFubZkEM+CYkTDbze/BCSRSXrGyZ2CXTl566SUZOHBg2ACU/lg0Xs7lCOCjjz5qfisupQ5ctJlGpqR0uWOb85Xrt6akB74nxBK/JXr7RYPviN9TMibelKajAklRfFQgpRkGX4sWLZKff/7ZbDMgdgXHyaIhgUSfCwrOg6lEXLxaasbQFM477zyZNGmS3fLBwjc5PWDSy5133mksiYPRgCFDhsiUKVPsVuJh8B9NNLEE68yaQi4ZRVAvQWopETjqi4gUUU+BCMRyP1NYsWKFOVaw3Xfg4EYNX+/eiTdDSCdE1+lrFPm7YPIk2DiZ3jwYaAApXYcddpj5V0k/pKny21Jjh8xGBZKi+KhASjOYHzhbVGZ+qS9I9mx8LIEUGckCzBjibf6aSO69917TKykIJ+trr71W+vZtYY5OBkAq4XXXXWe60we55ZZbjHFFukAYRxNOLM0pssYm2ImlyNS9TBu4kp7F5MDXX39t9/iW3dSzZCp8X6TWlZfb/DYLKWj8Vvj9ZjtMIvBbCX4vGNiQVkgqchCOUUw0nNDfbbfdTFqwkjmQKUBUybUqiAZpxURvEUupmphTfFQgKYqPCqQ0wkwnM56OZJgfRCOaQMKda+3atXavT6reTyyoMbj44otNhC0ItUojR46UXr162T3ZA6laGDGQPheEppYMBDP1byLCGU00scRKnWmMTDKKwJEOB8AgvA+curJhNvuBBx6QSy65ZKMIILU5l112mRlsZhv0NeK3gmgNQm3iXXfdFfN7IUJBTaeDWiRqXpTMA1dNokqk4EVz10QcuRS8lqQbK/GjAklRfFQgpQlmznCtc2BPS71NKgieANu2bWsGh5FmDKTUNWQOkEqIqkRLrzvmmGPk3HPPlQEDBtg9mQtmCw899FBYfZUDa/Mbb7zRbmUfDMojRRMLYiqam1U8OKEUKZ6SZRSBU6CLkBHBbd++fdZFX5jg4Hcybdo0u8cHsUkaGpEmhHgmw3Hz8MMPG8EXKVj5TsaNG2fqFBsDq3t6IgHHDVHAXK7NygUQShg70LIgGltvvXXI2EF7vCUPFUiK4qMCKU0EL+CkITHYTxXuBMjglUFhMM2BixDiiNSiTILBH01k//SnP9k99SDySkpKZNCgQaYGI1OgboXB6tSpUzdKXYTBgwcbcUSNS64SGXEKbjeHaEYRLIippqSmrlmzxkwMMDHRuXNnE6WgDxk1EHvttVdWO/YhwqnZi9Yj6cgjjzS9g7DIzqTfOKYTjz/+uDz22GMbRSSpb6N5NL+VeCH1kFQ7V9vJd5pJ9WNKbDg3IJaYtIt1nnC1SixKYlGBpCg+KpDSAH2FKAJ3kCNPrnyq4ARIAToGEW4AAaThII4y2ZEMYXnHHXcY0RENonBYIB933HFpsfnls8WGmYhRMEIYpH///nLppZfKoYceavfkH6TTOKEUKaKaa08ej1EEJiREJngdB9GFTJsQSASIDdI2gwMeB9GUfv36GTMHJmdSHS0j6kjUjt5ns2fPNmI1EkQvKbakCCJkmwqTKqQOA+c0fm9qKZ1d8Ht1xg7RhiocIy6qhNOq0nJUICmKjwqkFEPO9euvv263/GLUVJ+EMAbAEjcIs6vMsmYLRGRIWZs8efJGf4uDXjUMfhFKfMZdunRJaNogFsvLli0zFxS+Uz7XWA5NGBKceeaZJs2pW7dudq8SDSII0YQTS1DQxwsRWgZSiLLIGh0iRd27d8/pgTPNVElbQ4jEAiOWgw8+2Dho8lshqpZIEw3ECnVB1BVSU0jD21iXHs5DZ511lvmttGTQy/Pzm+Q4AgbR1JQp2QfZDi4FL2jWEYRzO98xE31q7NB8VCApio8KpBTDAMHlWHMSx7UulUQzYyAtbffdd7db2QXRhoqKCpPKRuSmMZhtdPUlWDhzMWV2miJuog3UXzHbzEDc1dYgavnOKCTGfYkIIOlzrDcG/YxI/SOtSa1rWwbpoNFEE0vQlr4pZJJRRLLht0/k9YknntiovicaGLjgFodRS7BQHtHC54OA4jNi8Mrnz0QFvdOY9WcgS8qii+LEcitz8Hz0dSLtlOhvooickCLC3JxolJI5IJCcsUO0aDPXVVLwOLersUPTUYGkKD4qkFIIdQ+rVq2yW75zGQP2VMAghqgLAxcHM+vMHGerOIqECyaz5M8995zMmzev0UFZMiCdC9HLIA+3vVz5bDOdoD25W0ghZX9z7MnBCaVI8ZTN9UkOUlWrqqrMpEKsVNBkwyQF6X3HH3+8se5PVmrv8uXLzYAaiBSSapfJacRK/FCnxHfr6nkjUWOHpqMCSVF8VCClCGZWXTd+oGt4qlKtmNmlCJ334GCWjYgG0aNcjWyQysNCsTr9poLiNFGQmsj3SGoSqVr5XFeUiXB6C0adguvNtSePZhThhFQ2Drw5L5CKxm8F4UQqXKwBZ3Phc2FCiAHXgQceaNL5UtVfjdRKDBucjXSbNm1MdEzJHfgtI5QQTC6lMhI1dogPFUiK4qMCKUUwSKdmBUhNwU0qFTDQoeN+MAWJGXBEEekxwUaxuQ5Ckb5TRPLoQUWKHDVDpM+RtsGFlZQNIg5E11z6FbOQ1DNxYSXViJQjnPMY4HGbkp3wXUeKJrdE68kSD9GMIhBPLNkEg02XjksDaSLPNLTmHEZkzn1GXD4QjPzdGF2QqkoKG7P2GM8wgUBKKz3V0gnpfq6fEuc9ahP5bpTcg/O5O7dHq1kkkuTEkho7bIwKJEXxUYGUAqhXYXEQcSCClGyCgwIHA5agqUE+CSRFiRcEQDThFGt2ujEQ3LGEE0JcST6kErq0W4RcOlwuldTBRBdCH3FPLVo0nLEDSyJNSbIZFUiK4qMCKckw4xrsR0LhKG5qyYZ0MiIlQZwZQ/AEqAJJUeKHWr5I4eS2m2tPHs0owoknhJWSGJgYeu2110LuebQ0ICKs5D5EPYkqkYLXkLEDQolsgXxGBZKi+KhASiJ8tNQdudkrBkJHHHGEWU8WzJoRNQqaMZBSR68lZ3GtAklREg9prEHxFFxvjj05BAVTcF37+TQPUmxJrwUiBocddphGDvIMzHyILOG2GA3SppnIRCzxW8s3VCApio8KpCQSGcXZf//9kzo7Fc2MgVQSxFGwEaYKJEVJHYgjJ5Yio0/B2sCmEMsogoXblOgwgYRhg+uHRZ0U50cl/+AYIKrEZCK/y2g4BzyWXLP9j4UKJEXxUYGUJDBHwBHKwYkWF6dkweshjoLOXMyCkUYS6aylAklRMgMGaZGiyS2k8zWHXDGKSBYU7+PU56AWiYkkJX8hFR6xRHQplrGDE0u5bsyjAklRfFQgJQFOsKTWuY7fDFh69epl1pMBJ3ac6oJgxkBH+mioQFKUzAfhFCme2G6uPbkaRdTD5JWzMudzwNUuXyIESmwYDnE9JQUvlrEDLo0IJSYgczE9UwWSovioQEoC77//vqxbt85uJXeGsiEzhlioQFJyjdrHR8iIx2q9tV4yZnap9PB35yTYaweFU3C9ufbk+WYUQWojqXYuWsBkEpNKiuIgZd0ZO7iUzCCkshJVQijlkrGDCiRF8VGBlGAo/AyeYJKV404u/cqVK81Ml4NI1T777BMyY4iFCiQls6iWaY8XyKDBBXa7eVRP6CPjFuS+QGoIoktOMEVGn5p7qo8UTe7fbDeKoMcTvZ6ANGSaPKv5hRIN0jIRS/lg7KACSVF8VCAlEGoGSK3DUhTIW+7Zs6dZTyQMfKg3co1nIZoZQyxUICmZBMKmvGCSTFKBlDSYUOG8ESmaWKLNjsdDthtFcOlbuHCh+UyAwW3Xrl3NuqJEA4twhBLGDsF+gkGy3dhBBZKi+KhASiBBC1k4+OCDEy4+6BJOvVGwDoETMuIo0owhFiqQlOYSU4SsnyYjhpeLnIbQqZWyPuNkPvt7jpHZowpk2vkjpPwjb3uPITJkz3IpXyDS66rZ0mMhz8cdPcx9JeKxPexrihScNkTaPlbu3VYgQx6YJIN28+5jX7dWekmvnvNlvnlv3mN4Dvv4MBaVSZ+b55vXLu1u9+U5pJshlCLFE9vNtSdncshFmyLFUyZBncnrr79ut0T2228/U2OiKI2BWywZHKTgMQERSbYaO6hAUhQfFUgJItIZaY899pDCwkK7lRiaasYQCxVISvzU1osbjwIjgGykx4oNn3rRZASN1IsdMWLEPY93v6u8e3Xv4d23VmoXVcu4m52wKoj+2IJ6ETTmgQIpDwkx8Z9zz6CwCoi34PvzhNmk+wZ50srHiS4I+5uUEFwaIqNObr259uSZaBSxfPnyUKoyKXak2sU72aQo4Iwdgi02gjhjB5ZMN0RRgaQoPiqQEgCF0aTWuZA7F3saECaS1atXmyVIY2YMsVCBpMSDb3wg9dGaENW+GIkWoXG32S0ICRAnWIKPixV5spjHHlJdf59Y605cxUqxC3udcDEU++9UYkGqkRNLQQHF0lx78nQZRXD+xrDBGVy0adPGnBcVpanwW0AokYIXbRIB4f273/3OCKVMjVSqQFIUn9yzJ0oDOMkF85FJ00gUpLgwwxkUR8xy8hrNEUeKEi8FgyfJ7NljRG7pI336+EvZIm7pIaWzZ8tsT6C4/X3OnyZ4yIVABHEfbwkJku6DZMge3r8Lqj0Z1QDRHtscEGTu/d0innCqfz7ElLvNRKxmqzhqCoiZbbfdVnbddVcjJrp06SI9evSQo446ykwOMbDae++9zTmKgSAipzEQXczAMxuPE+iSJUtMjdCcOXPk1VdfNdvs53bqL5sbxYoEq+agIMKBlIGuojQVRD3HEm09unXrZoRQEFLxamtrjc18dXW1MQrRY01RMhMVSC2ExnIff/yx3fJnH+MZDMQDJ05OpEGnOgYl+++/v+bJKymiQAbd54sVFmqG+vQp8wVO99LQ/tlXiozzxMaIx38pBUYElcu09d6/nkjxRRWRmmkih9IPbL6MmxBNIhXEfGxUdiuQtt4/ta9Wk6wntaHyP6JY3vtc2KP+/bn0Oiuaqg+x+72lRSJM2QjOfzhp7rnnnibKzWQOognx1L17d+ncubO0a9fOzKRjLhNPyhHnws8//9yIF9KM33zzTZk/f77MmzdPFi1aJO+8845pd8D5+JtvvmlyFKugoEC22mors05SBZNSitISdtxxR2P6ceSRR5rJgshMDY5TXBQR/2+//bapZWpuzZ+iKIlHU+xaAO5PXKjdDBCzR+SvJ4JYZgydOnVqcbqJptgpSSVknOBh0umcSUOB9OrpyaMFNtYUdlt4Ol39Y+tNGqhz8o0YWLdGDbWuzghx5YkkaqXs45TsgWgQ51EWl6rn1pt7iaJI3qXpRabsRYMsgNdeey30epxriZApSqLAFMQZO0QT8Ryzzi48Wb0TG0NT7BTFRwVSC8Bqm3C54/DDD5df/epXdqv5cAKNnMFMZF68CiRFUbIBZtSDwikooJprTx5pFOEEFP+S8uScSEm9I/LFv4qSaKhTcumi0aD5LEIJwZRKYwcVSIriowKpmTADtGzZMrsl0r59e2nbloSflhHNjIHmr6SAJAoVSIqiZDsIpGjCiSWa7XI8MBBlZt+lOjFIxY0U8ZRMowglf+F4dcYOwYwRB8YOZI8glFKRWq8CSVF8VCA1A9JBcK1zJzMEBj2PWgIXZCJSwXojwu2Io0SfFFUgKYqSy7ioU6RwijYAjZfIqJOLPGGaoyiJ4MsvvzRRJWrpokGdnEvB49hLBiqQFMVHBVIzoDaIk5iDIsyWpGFw4eY5g6F2zBho/pqMk6AKJEVR8hGsvCOFk1tvrj35pptuGhJOLE48sWh6ntIcOBaZLGXBzCEaTiixJDK6qQJJUXxUIDWRyPog3Glwa2ou0cwYcHdCHCUrpUMFkpJIOIUw8CQ9CZHPMQ0cv6QopavYWFGaAudgJ56+/fZbc65v6eXRGUVECieWVq1a2XspSmwQSEzIkoKXCmMHFUiK4qMCqQlwASW1zvXfINxN74/mEim2IBVNClUgKYkCa2X6gAH28wwEsVzmX+ryUllcrCiJBMMGbJgBsc9kGL2aXOSJhe3mwPM54RQpnhJh9KPkJtQ+I5bcJFQkztiBpbnHkQokRfFRgdQEGPgxi+M45phjmh3liTRjYDaRniGJNGOIhQokpaV89tln8t5774VFPrFExhpZUXIBLo00qiWiBAw66WsThMkyl6bnUvXc0tyeNgxsEUrRxBMF+4rCcYdQYpI1Wl2dM3bgmKUnWVNQgaQoPiqQ4oSTEalwjuY6y/Fx8zyc2BzJMmOIhQokpSUQ9Qwev0CtBZ3jqZ1TlFyBvjWvv/663RLT9Dae8zTneSeagsKJ9ebak0OsqBPXECU/IZrE+IToUjTIdHFRpS233NLujY0KJEXxUYEUB1zUSK1z6RRbb7216QjfVLhARpox/Pa3vzXiiAteqlCBpDQXmmkyqx5k9913N+l0WpCu5CLBCQEc62gG3pJIDteRoHAKCqjm2pOrUYRCxBKhxBLL2MEJJWqWYmW/qEBSFB8VSHFAv6Pg7Mxxxx1n1+IHUYQ44iLoSLYZQyxUIClNgWMf21mOVy6uL7/8spkFJ1pEWqgeP0ougwHJK6+8Yv6FZNaJOsEUFFAs0dKo4kWNIvIPTEYQSpQEuOM2CELfGTtERv1VICmKjwqkRvj4449l5cqVdkukc+fOZqDYFDhJMQsZ/KhpKsusezpQgaTEA9Eijn0X8WTW/OijjzYDNmbB1Z1OyRdqa2tNnzpAVBxyyCFGcKQK3MuiCSeWaAPgeFCjiPyAyS3EEj2WokEWi4sq8b2rQFIUHxVIDcAAkdQ6dwHiRHLAAQeY9XgJunxBKs0YYqECSWkI0nwwYGBQGISB02GHHWa3FCW/qK6uDqUuMTlw0EEHmfV0Q8F+NPHEenNhoOxEU6R4UqOI7ISoP0KJdFGOj0j4XhFJjHuc+6gKJCWfUYHUAEuXLjVuXY6mpNbxsTLjyAnJwcUFcZQqM4ZYqEBSGiKaCQOTAzjUaTG4kq8wcHzttddCmQD8HnBuzFSoSYkUTu7f5tqTQ6yok54bsgeyAhibkD4dbQhITRsiGdfGeIwdFCUXUYEUg48++khqamrslpgTBWHoeCBfnHqjYK+CdJgxxEIFkhIJAyZOBS7F4osvvjD7yVWn/wszi4qS7xBZ/fDDD8065gdEVLPRBIFoQlA0uXWW5tqTq1FE9sE530WVcGyMBuMet2j0UMknVCBFgTQKUuucoxB9BOINNUczY2CWEXGUajOGWKhAUhwII5phukjnwQcfbOodSAuleJdauUw5bhUl3XBNwLDBWXXvtttuxmgnl3CCKVI4uQbpzcEZRSCWIsWTGkVkBkRIuQ5Qdx1NJDdk7KAouYgKpCgsWbJEPv/8c7POyfvYY481642RaWYMsVCBpAAXQoRQsMi7sLBQ9thjD7ulKEokpF2Tfu2gFiloWML5n8Fmrp1XOU9EE04sTKo0h6BRRKR4UqOI9MD4gAkABHGsVExn7MCCcFKUXCRtAomZipkzZ5qcbowMuKDQXwgxQdrCiSeeaH6EqYb0CdIoHESO4ulEHWnGwImfeiNmGDONfBVIzIq9//77snr1apNCyTHIYIdUyK+//tpc9LkgMEvM98cFmgs1x+V2221nLgZEAxEQCN+99torK1NH+PvefPNN8zcHIdecwR6pMoqixGbx4sUhVzAG9bjaMZlGBgG1p5xLOGfsv//+5j65DmnlkeKJf1tiTx40iogUT5rqlTyC4wPq7FwKHt9nJM7YgWvjjjvuaPcqzYHr8tNPP23aaDj3WH4De+65pxx44IFSVFRkxpRK6ki5QKIo8KabbpKHHnrI7okOF5tLL71Urr32WnNCTAUMGEmtc+FlfvhdunQx6w1BSp1LUQLeLyl1XCAzkXwRSO+8845xnnrrrbdMVJDt5ubXx4L0mm7dupmBUI8ePcx6pkOkk8/CwUWuXbt20rp1a7tHUZSGYHadVDt3PmHCBFEQ7JcH2OLn82CeQV9QOLG4qFNz7ckBsRRNPKlRRMsJjg+CpQUbNmwwQonrR7TrKOMIF1XSrJSmMX78eLn99tvD6tajMWDAALnqqqtMuxkl+aRUIM2ePVvOOeecRg+CIAzc/vjHP5rBZ7LhxOCK04kgHHPMMWY9FtHMGBBFiKNUibrmkKsCidoxjrHnn39e5s6da/o/pBq+fwZFOB4y45Nux0IHkVEucAzkSIl49dVXzQBll112MSYMms6iKE1j7dq1pn6vIfJdIDUEItNFmiLFU3OHJUT0g4IpuK5GEfERSyAFcVElrinRIJqEUGKSWY//2Kxbt07OOussWbhwod0TH/fcc48ZSyvJJWUCidDh4MGD7ZYPKrhfv35m1p0cblIWmO1/5plnwtLVOLE999xz0rNnT7sn8URe7Oh31FCKHycG6o04mTtIvyKikOlFp7kmkJ544gmZNm2aTJ8+3e6JzVZbbWXSOAlb04uKEzgihjQ6Uszo/8AJnRky5/REZBER7BrucVIjTS/WxSEIImnQoEFSXFyclgsFvynC9e44pbiWcD2phCxq4aoozQPXL1JVG4pKN6U1hOLDkCQomoLCyZljNIegUUSkeFKjiHriEUgOvhuEEku074bJOCeU1NghHMacjA8YSzgo5zj55JNNQOB3v/udOeYZZzL+ZVIzyG233SaXXXaZ3VKSQUoEElGW/fbbL1TIyaDsjjvukDPOOMNsR4PbR40aZbd88YF4SkaeKxc6UuvcR8FrkXsbi2hmDES6WLKBXBBIiBQii5MnTw4ZakTCyZnaAOpqOP723XdfI4wSBY1Uly1bZj7P119/3dTTffvtt/bWcBBgZ555ppn1IWKTbLhY8btzEVEHopAIp6IozYPIK7WMwbTqaMSThQBEvrmmcB6j7oBzCAMjXgfxxcQK5zIG85xHmNBh0El9K6+RTzCpEymc3L8NCdWG4DPks40mnvIxst4UgRSE4xehFOwdGQSB5MSSGjuI9OrVKyxyxHiX8pNYE6mVlZVSWloaFjxgUpggg5IcUiKQ+vbtaxQwoJBJg4rnh/fCCy9Inz59QkKEAWZjtUvNAeHl0uQ4OEmLiEU2mTHEIpsFEgXQd955pzz88MN2Tzh8F8zK4Dx45JFH2r2pg7oEjtuqqip5++237d5wSkpKTH1dUy4+TSVSrHGhx1SCWSlFUZoHg3EmQ+KpnyHzIXgOQvxw7uW8wOQFZkBcT5qSch4JdYNExDnvMalHvz6WfMSJpeDCvpbYk0caRQTFUzoyAlJBcwWSg98GQokJBMy3ImHMhEhiyVdjB6I/1BI5Jk2aJGeffbbdig0TnoxvqKkGJuWDpmJKYkm6QMKRIyg4ZsyYYQRTvDAQHj58uN3yu/xjRZwoIgVP9+7dzSxdNCLNGDhJcmHKVDOGWGSjQCK97cYbb5T777/f7qmHOhpS2EhlyyTXKIwQSP2bOnVqqLlkECKoY8eOlTZt2tg9LYMZPGbmSCMkHM8AAYiaMYjK1Qu6oqSKyGtAQzC4Jj33pZdekgULFoQZoyQTrktEzpmhPuqoo0z0PJ8hcyWacGJprj058DlHE08s2UxLBVIQjn9+LwimaBE+sokQSvlk7MAxx0QlEyYwevRoGTdunFmPB1LmmQTBAAXuvffesDGykjiSLpD44txsPw4c1Is0lUMPPVQWLVpk1q+55hqzJAIOUHLIHbvvvntUG0VmoBBm2WbGEItsE0hEjJht4YIWhEHAueeeK6eddprdk7k8+eSTJvo5b948u6eem2++WcaMGWO3mg6fC5E1jk9mranVYxDAbBPikYu4oigth0kIeiDFc9nE0Y6sh3hw6UfUvTLBwXWFekhqYxgIkTLLbDzp4NQVMmEUbz0ObQlOOOEEc/1NZh1vNsK1PZZ4ai6cg2MJJ77TTCeRAikIaaSIJScMInHGDiy53GqCMTATukBGFeKxqamyTKzeeuutZp3m7kzAKIkn6QKJATjFaPDUU0+Z/kZN5b777pOLL77YrNMjiRm5RIA4cj/WyHQIRzQzBtLpEEfZWtiZLQKJ2dpLLrlEXnzxRbvH54gjjpCRI0dK79697Z7sgYjqxIkTTT5xEOqkEIIYKMQLM1FEP+npFCSycaWiKIkD91KuaQz2Grp8EjUeMWKE3fIhkospEelwZEKwTZpcc8xSEGC8D+qhmCBx9ZCIqFjwmkOGDDHRa2bulegQ7YgmnPg3nvTKWEQzinBLptSTJUsgOfj98NthacjYwU0Y5Brnn3++PPjgg2b9vPPOk7vvvtusNwV+88FaYsaxTKwoiSWpAokfQnDwzaxXc2yPydl2aQI8PhH2zQwsSa9zEI2IvEhluxlDLLJBIBF1JDoUDMsT3aMv1imnnGL3ZC+zZs2S66+/Puy7AESSmwxoCH5b1EJEXmD4PhOVsqcoSmz47VFbS+oqE2yRcJ0idYYUc9LdyIRIhSjhesmMMhOJc+bMiVmDg2HMBRdc0KAhkbIxfO9BwRQUUM0dTsUyimBJtaFBsgVSEKKhCKVYYzoXWWXJlR5XTPBSqwyPPvqoqUluDhguub5r1NHna+1hMkmqQMLNBEc4IGTa3GJJhArpb9CS53GQisQB5aBGI9JZLJoZA4rd/T3ZTKYLJKwrcTEMQoodDi+5xi233LJReh3Fmo2ZkVCYGaxr4gLCMayNEhUl+Tz++OOmuSPpdpw/TzrpJFNby4DWwTUjHhe7ZEJ63rPPPmvcrkjtiRb9IJp0+eWXGxMXpWUEBVNQOMWbDhmNWEYRLMlIRUulQHJwnLqoUjQnWH5LrlaJJZvhMyXaC0ywNGQK1hC48hI5BrJsNH028SRVIGFfGgyREvpvTipBTU1NaJYLA4WWuP4QkSC1zqUhkBOMog+SK2YMschkgYTRAhdyB32lSLEktTJX4fsg7I7VvIP0QeqWuAgCqZ706SJyRI8uBjrU5eXasakomQy/OWpgo9USIjROPfVUc43hskoqNuevTIHB+pQpU+SRRx6RxYsX2731XHnllcYIR81cEg/n62jCicUV2zeHWFEnd91oDukQSEEYNzL+ojYn2mfDGNIJpWxMKwvW1GPixORKc6Dpu0uvr66uNuMCJbEkvQaJi4QLn86dO1cOP/xws94UysvLQz2T+MEGB5JNhUGmq4kCVLebdScyhTgi7OsgpY8BaEtOOJlGJgokDkNmYIO1OQw2/vSnP+VNLwpSXujt5OBEyswvFwoXSgeKrhPp5KgoSuMQZSFqFIQZfOokL7zwwlCWA9CvJ5ML8jnPUvtACl4Q0sfLysqMqYOSGpj0iiae2N9cSPlkzBJNPDV2XKZbIAXhuodYijUpjskBQonoUrYYOzCWZUwLnFMwaWoqwewsYIyQ7ZG1TGST6zzselIglQ1bQkCI4OHeVHiLCBsgwtDctAVcvdx7ARS4O6iIKJEugS2lA3FHGDMbnGeaQnCwTeQhEwQIDkvU5TiwvnzggQey5qSXCBCI/L0YOQApc5wEuVgG4biMZUWvKEpiYUIOwYDJUBBEEW0rOHdF/h4zPQrDxBhmDcw6MwtN02ug2Jv0Qa6Hxx13nNmnJBcnZjDWYcDPOZ+0f8w7GPiThcMkJtdpUs2IqkSzzA7C7aT1ka7Gd8qAGqFBg3UG04yFGOsgxhDzTFBy7cF4Kjg+SHffPP5uPg+uebw/RGPQmp1ro2tQy2387jI9zZzP3k0EI/wwamgq1Gi7yQ1KP2ggqySepEeQuKgMHjzYbvmzE4iOeKHpZlBUUXyKrWFT4aRCap0TQBQ+UjgLnBAwYwiedHAXQkDlIpkWQcKMIVhzc8MNN8jVV19tt/KPu+66yzSSIxUmCLOBnAxz0dlHUTIRIrpEdoPQhJpZ33TPricSGlWSYhecIMS4iAh+tpsS5SJkuyAOokWemgviAqGGYGKdhUwF9qXaKKIhEBWIvaCQC4LQdPVKmSiWEHRB4cn1nhT7eOF7ZhzgykAwewo2nVUSR9IFEgSL0nCjI9UunkE5qXBEi1wxOjNas2fPNutNBVtEZk8c1B0RGeI1XHQKOCmQUpcLZgyxyCSBhBkDpgwO/P3Jg893sAJ3Np6cEDmpRloGK4qSPBh0RDZwjNdlMhthFp50wWCkjEEmESU3mahkNgzngoLJLQgnhE9zIXrlUvQi0/bSleXBhLarVQoKe0cmGzsw5nH23rxPokHx/sbIonr66afNOp8/Y9jmuEMrjZMSgRQZBcKO8P7775f999/f7tkYRBShx6Coaa6VIYPLJUuW2C1fFGCFjAOISy0Aiv8QR7k+Q58pAonUFXr2OIYNGxZqKtxU1k3oIG2mDJO1y0dKa7sv26ERHJa9ON1QuMrvKN2uWIqSD3DtIari6NKli4kmuXYTuQw1SKNGjbJb3iChVSvjhEcKsJK9IJAiRZNbb8kwMCiYIsVTqiCV0ImlYAqeg/flxFImGDuQwko/tI8//thsI0A53wwdOtRsR4P7ktYbrNNGZDUnRU+Jj5QIJJgwYYIJ4Qc57bTTTP42Fx387snNpLcL7l3kdgdh4PyHP/zBbsUP7jEIKwaYwA+FvGtS6nLdjCEWmSKQcKZ79dVXzTpimRTI5rFOJg4dK0uWLpVuM1bKyBzKCMEC1Dlm4eT4zjvvmHVFUZJDpDjiGlVRUZFRaUbJhkwN+rO46yYwMMvG5txK4wTFEhk7lCTEU+vUEK62yi1B8ZTMum5MwVydVTScsQNLtP5lqYJa40iLb6JIxcXFxqDJ1R+TfTVz5kxThhC06R8+fLjce++9dktJBikTSEDaEK4dTYWZO+di11SwCHdWiMBAHKMGTgQOGm4hjpgpywcyQSBhwBBMGcP2MhhNahpVMnFCoQyQIu+/Slk5KldiSH6/I1Lt3IWKvklXXHGFWVcUJbHQk4zfmOOss84Kc5bMJ7AC79+/f6jWAYE4f/58OfDAA822kpsExwfUizvhFFwYuEez4I4XaoNiiSdSzhIBJhUuqsT7jYSojRNK6WqTQaYUZinByfp4IM2X8bSSXBJzJMbJyJEjzQER70CYdCKiCs0VRzi3BMURipwfPz9wB2YMDEDzRRxlCpgQOHCsa7448phVI9K/tbTuP0xkynQJJWXOKjHfa4cJE6XE+5f1EozyYuwnTc+sD/VvN/ddPVE62Pu06jTRe+51MrGT3R5a5d3BbZd4Mq3+OVq16iATV3s7WghOdsEGuaTdfffdd3ZLUZREMXnyZBVHAcjsIJJEahJgDMBgDlc0JT+gvgiHRkwFGCuRaopJFpEPoh1MODO5TOsJsnDiNUXAcQ6zBUocqA+nBGLhwoWm4elrr71mHIXZz+0cbxx7TQUBhNEWmSpkDUXWlSOgSFsjw4jMJco5ogmpZMLnyOsTrY0HDFMee+wxFUcpIqURpCDUVZBGx4xUsC8RYoXeRDTPaklnYPJtEVduMMmPJdjNGjMGXivdNpbpIN0RJNIlzz77bLPOyZeTYEveQ5UndApHUXuEWCkSCaTZmdqk0V2lsq5CeiOM+olZL4yxX4a2MlGouimkkvB8Y6VwuXcfb6sqdJt4wqpCSngsL7K6yhNHvaV3jfc8T5b4j+U5x3RLWE0Ulq/OrIReLMEaAUVRWgZpLAz+HERO6EGmiBm4ci12UexTTjnFNLhUcpPg+KA5To0cJ5ERJxbERzBFrKkEjSLc4iJP8RpFMNx1USXqgCIheuWiSixMdqYKzkE0yUck8h24ofmOO+5o+odSAxh0hFaST9oEkgOrRlLcANESFDEtgTQ6VwAXSb6YMcQi3QIJ+1hmiQCnqGCEpOlUeWKlSKbaLSgcvzaUZodAqk+7476l0m3VShkwI/r+whtaScXAOqmgHpnoUX9PODmRw3b7JVJmhZS737pZVSJ9PVFkRFcN97QU+wLMbrUEZoxcrwOsV4P9vBRFaRm4mrr+Y1wbmFxj8JUost1EZsqUKXL66afbLT9FmvYMSu7RUoHUEIzvnFiKFFAtIZiiFymeYsHkOUIJwRRNuPF4J5RS3XeQ1EZMxACHO85PSupJaYpdqkB0xRJHFOjxo9deMumBsLkTR3DmmWfatWYyyxMrM+vMbItZVpWFp9mFUSjdOnaVwo1MHGLtj6BdoXTt2M27t0jvgcUy9Uk/xa7G2+MGPYiz0HtJkDgCHP4c1NVRs6UoSsu57777QuIIcFhNpDjiHDF9eVcplskyPQFpt+kAd62gWxaGSxs2bLBbihIfRIEYe9H4da+99jJObhgS0MKFf9lmP7dj3BWvmQMCC1MGSiq4PiLyXnnlFRON4VpJdGbVqlVGEHHckmHERDmvdeSRRxp3ZCI1QXhOspt4PPV4ZLq0JAKmZB85J5CYoVizZo3dCodIFeIo0zst5zJYVTvIDcZuvSVUPSlSEnSfbTdAhkUMRGqW26jOrLFSKr7AgVj7Q5jnKpWiCVZueWJs6dABvhjqe5OULa2QqlnTpabQl0et9+4qNaPHmlokqBrq1yUlAprfnXjiiXYr/HNUFKV5MOAJRrCph2xJand0vPNMp5vkpqEik2dEn7rJBohi77777madQWawXktRWgqTEogU0sk7duxozECInCBgqFHGxZXxAhEdsl7iMXPg902PJCbNGRfiXkx7kZdeekkWLFhg6n+I1BDRokaJ1ySrJnKCBBMF7ofrLv9SP6XkPjknkFavXh01XMtB7xpvKukjGD066qij7Fpz8M0RisqnSpExS7AgdlbUSGl7TBj8wUjh0lLfOIE6o0CKS+R+UuSKykWm9nMGC61l5Iwyb9TUxr/fmG5SGXLIay0Dhi6VojEiA1zkqW+FrB3v7TMmDa2k1BsUJSqCBEFLUOoCFEVpGfQRwRYYMCO44YYbzHpCiWUiYyC91z9f+CYwdu9Quy9g9hLNAMa/X4lUzSoJM5XpMKFKJg6tf75EgIvdNddcY7dEbr/99ia7bylKU8GKmwlCBAzjOKI9GEVg4sVkBmYipJ0j3nGji9eOP9IoAmMIxBNCCvFFpCuy/IDIE/dHWBFZSoexg5I6ckogffrppyFLUgfFe507d25xpEJJDIS6HS2zi/XEy3KbymYMFSyeSHEpbiG776GV0VPeIva3HrXSbgd6KbUbKSvt89VF1A+Y+0fbZ++faLtxnHgcwc9RUZTmEXSpu/TSS00KUKKpes9OomwU3bamMiZFeK2USamMtW6axgzGO4esHS9SekOVJ7JKpM3yMv/cMrOrlPZH/FRJhblfiVT086sw181YIsNW1Xl7S6V0qdmVUEj1pUYLsHnG+U9R0gXZQLjn4aLHcYmrHu56TCb26NHD1PLg/LbLLruYBrHUuTcGxzWNZ3HP499YEJlCWBFVQlwx0cLvU8kdWnlfaEK+UWa0m+OLz0E4cOBAuyUmZ7Q50NCOi5v7c/iXbX4YDRXq5SPB+ixC2qlsgIh/Py43HC+cVFzKRrIIN2moJ9b+TIai0lNPPdXMIgNudnpsK0rzqK6uNr8nYCKN2eTEd9lvyETGu61TjdwUMclSNbSD1FwT3vCa89XGBjA3SU2nNp4UKqs3fzCOnFOl2BNdxmgmCdx5551GTAIz988//7xZV3KD4Pgg2dfndEDaHZEgFkoy3DpLS3HXZuqbuDYHGy03BVx+nbtzWVmZiZo1B6Jria2nzC8SIpDwmg/2G0oXpNAxaIQE6T4lSeDCdsEFFyS1o7YbLEDYgCHW/gyH/GmKTBVFaTl0pqfVBNC9vqKiwqwnFFLfpKL+HBPmjIl4CrQLsJA2F3LStDQ4oWPcNUula+BcZloSLA0IpwTy+eefmzoQx4MPPpiTA2lFaQlEl+j9mU6Y8Hn77bf199lMWpxiRxQgMq0tXbz33nsttotUUgMX2KSKIwik24WJoFj7M5xEzHApiuITTFPt3TuR1YL1NGwig3vmVCl1JjCe0Cnx1gs7FcrUMa5+aJ2pJZKoBjBEoLz7kQa8qkyWPlllhBS1SL2n1Ell1+S45pF1EDSyYOJGUZRwkpGu21TIOlHH2+aTkAgSeZ8IpXRDOPH6668369H+LFLJ3JLPBO1ZKUKMt8laS2GA/8wzz5gwNC5sdK9O1WvnApzsxo0bZ7f8QR2hfEVRmgapNThjOciASOwsK/VFbaR0hbc6hObSVoAFotd+ql1NIAWvvm+aiQCVm52hKHcwzc49duLQCplcPtW0Gigz/d0mytjlpTKVxwZfN8GMHTtWbr75ZrOOu+a1115r1pXsJzg+wGo7H2C8SOrdjz/+aBa33tzhMY/DGj/4WaYDau/nzp1rarSUppOwGqTmkshGsRwIrtt3Q38WDiW/+93vzJKP/ZDS2SiWz959N0QecaZR4uM///lPmEU9DlK49iipg2PXXTgR9/FYzSqZB9GjLl26mHWKvOmhosTPtGnTQl39cRRTV83cIZmNYjMBJhoxXwguXFsTheu12RK0UWxmkFNX91gzgAgvVzwHiCgG53RLp0EguaLNLaZTmgY9DhwffPCBXVPiIfh50dlbxVFiwQVz3rx5plFoaWmpDBo0yDQvpJkgaUWIUwQRqaGkT3BeIRrNALt9+/bGNemkk04yBezYR1O8ngm1mcrGMDHncBN0SvwEr7X8bhQl0yBjBeOVDz/80KSBYspC5gpingkSTBCYGEmkOKLmhx5OSm6QUxEkHjt//nyzHu3Pos8FodNYTb5IV8L1jshSLjeTTWcEqX///ibNDm677TbTmFGJDyx1zzrrLLP+/9l7Ezir6vP+/6FNtzTdkjZtWicKamUQVGgWd3BXBlFUxDAOLrgR18iAEXGpIirMuCsuwQUcFDcMy7jFCC64JD8wigwGBFPsL02TNEuTJmn/v87/vL/nPHe+93DuzL0zdzn33uft68o55y5zl7M8n2fFcGdSuNF/uFBy00nppTL0EFCk/5LShbedNrSWWlpZnnzyyUz3VOpp9Lph5AdNdnSuoEXgaotqjCDFI0Lc+mNL4vDCmc5zNRspF8xmouYdmxKY18T3xfaBYhGkdFBTESRt650L+tSj8PH00hsfL7wPodfNmze7CcsMDKPdJek0RvHgu1eYZm3kj98C3/8ejfxgpMBDDz3kDGPOA4jMyy+/XJYvX15SLzipkESTrrnmGjefg/av48aNkwULFlhXwhRQYR+hYRh5QrQHMc6A1nfffdcNnufcyr+ss53zbV/iCAcVQmannXZydTrqFOf1GSDbmzgic4PZmmQSqDgC5jAVQxwZ6aGmIkjw85//3Imb3j4WIoqdGcWP0UTbUg66XB3wyCnlAOpNfFUTlYwg0XLS7+mPaPVbxhrJkC5AwaxO7UYsmVcpP4gWPProo/L0009HW3IzdOhQl1LH6AIKW6mRI72OWkVEFRdRzhuA84SLKd5KinE5jyC0SKtjGjspkXgB+/JEHnXUUW4eT0tLi9U0lQm8snzvgLeW85KRPxikBx54oFvGwGR/N2qDNESQOGfGI0I4sPvTyZU5QGQH+Tec6dienK8Z+JoP2IEIKuyVLVu2uJvCNcMvHxgoFkFKBzUnkACBFO8egtdWjUtA6SOSMHoUDBwVS7nehzZ3IK2gWqmkQAIEkhokN9xwg3z96193y0ZumDVy3nnnuWXy/622pXc4hu+55x65//77Zfv27dHWbLjgHXzwwS7t7Utf+pKMGjWq6Km1DM+mwyf1juTAkxaZ6/0ggBkQeO655zqj0ygdGzZskBEjRrhlvnccZUb+LFmyRJqbm90yxxBZF0ZtUG6BpE4m/9afcS1EdHwRpMLIb7etoqiQlFBKMxBGavP96Ec/yurazPUYW7KYmEBKBzUpkIhKJHkE8Qb7KS3km7Jj4yH2wTPsiyWMnDh4kTWqVG1h1UoLJH8SOyeeXAZj/9Hp9WHrW38ifUjPdPv+D4rVNr49rXlLCSF9nTdy1VVXZdrZG9lw7DN5nH0s6bjlexw/frxrkb7ffvtFW8sLF9dnn33WpfbhzEninHPOcUMGOT6N4oMn2jeciICYKM2fyy67LDOUnX0VB45RG5RKIHE+jgshokJ+mlq+YLMkRYaSoOYcUcStEHMXe5Gb3+kYMec7A4rRsS4JE0jpoCYFEtCdLum16DCC99CnsbExZ594clJVLJHbmgTRKW3uwEGbdiotkPhOOfGo15Z5GrNmzXLLxSMSQUmzQFa0y7BZrTJy7kAHxSZPwi82dFU7//zz3TIFpIj8Wkn3LCbXXnutzJkzZ4cLLjnjzKSYPHmya5aQJih2J/1v8eLFiVHBSy+91M2Y8SPdRnEgavid73zHLT/44INy+umnu2Wjb4i6EhEForTaPMaofoohkMjWiYshP4MnX3BixEUQN01zzgVdiTValGQHalfjuPnLdpy23OI16kC9k8L74PspRUMvE0jpoGYFEsV6tO+Og2GOkMEb77d3JH+UPNLewNuhYolapyQ4qFQsEfJNI5UWSID3ES8kUHeBodjX918YgXiZ0iGyWHYQMJ3z26XrvVZZNzH9AolwPlFOFZOkI5KWaPRAbRHNFuJt45lzM23aNOfhrgYQSjRuePXVV6MtIUS4+c3PPPPMaItRDDiW6KQJtGenVs3oGyL+fptvGhvR9MioDQoRSGTbxIUQdlKhza2wAeIiiBvO53zBntNIEe8hCcQMUaA4NG1AFGEf5rKHOC9r6h+P57sp1SBdE0jpoGYrgnNFhPC+czDiPfR3bgQVaXm9hXs5YEnDoF0vN5bZ5kPB36ZNm1yHNryT/L2+irTrEdp7aw0A389FF13klotLs8yZt15a52+L1gO2tEuHnCCN0SowoR7PEbdh3mP72j5sfjjVvpTwvag4wpFAep0RgjOFeh2MW18ckUb3yCOPuFS2ahFHQKMGapRIvaPDnoJDZurUqXLyySe7FEKjOBx7bI935KmnnnLOCKNvOjo6oqUwCmfiqD5AHHD+QRCvW7fOpZoxN440YRycCGccx32JI0QKqWk4pcnowZZCANCZlXM3dhVOoXzEEbaDzrSkVT/Xgbg4wkbTaFBcHBGh4u/xt2nQk0scMTfJr4vCaVkqcWSkh5oVSIgg38tFdErhgObg++IXv+giPQoHP96TfIbGUndE9IVOPqTt8LeoafIh95VIFR4AxJddgLOZP39+tBR6STSiVEwGT5gqsuhpUXmzbVkgm2Z43WYCwdT0XpsLtXd3r5KRM4dI84petq9oliHR9lWy0NUxlQpSDx9//PFoLfy+ShHOr0aYXYQH77777ou2hEP6qD3iYqYF5NUIhjtCiZbk/jnsiSeecI0kVq1aFW0xBgJpYnhqFZp6FERwLlAHStZtRHvmfNM/iEwX43VKAyl1CmmrRm3BtQ1HMWKCcgTOtS+++KKLoGDHUK+H0yYpEuODzYUwISpDdgjna2aOcWOZbURtsKUKnQvH3+e9YDfwHuNNVrhOYtuRXo1gineq434d7o0d15sYY6AsmU4Kz/PtRqN2qemesrvssku0FBYI+iIJIwoRhceClr4KHhBEUiFihu4meBTo5kNaDwdP/IBHfOHR5kRD6NS6JoXtjWfPnh2thWl3t912W7RWJHabLm0jW2U24iYwN56Wxqx0uG3LFoqM0HjSWJkzr1GWPNGZc3vnE0tk8sTwFQbPaJNSmQfURPjfzYUXXiiTJk2K1uob6nW4sGkKAmCoEbm9+OKLoy3Vz2mnnebShLX+DLhQM0PplltuibYYA8GPMN588807dD/tlWM7pHt5cAYY3iZbnSMldKZM3tAqQ/oSN4G4cg6XRMZKx+a2rCh3WrjjjjucwQh45olsGtUL4oFzCpEX7B6iMNRaYwdxH9EZxEVSwxsfBAZRH6Ix2FScnw877DDXCIdMEaJFRI0G4uDj2OScT9SKCFY8mo7Nhe2lZQOk2uGk9mGfJVLE+8Pu8xu1JMF34WcnIOh8e9GobSoukPC4KX0dhIWiB60Sb/eoBw8eAUK9Cqk7iJlCWykjuGgJyQkCscRrxjvk8RkJRWtIGAOIvN165brrrnMpUsoll1xS9I5IY69qk/WBuJEVs2Xd0N6rhQYPHSmNGWHUQ67tpYAWun69yeGHHy633357tFbfYMTScEHhmCOKRNpPLTauICp95513uvoYDAyF5g3UXRkD46tf/aoz6oDMgYGnsAbiJhJJoVMmGRwt1QbXS797Jl0W4ynmRjqhayO/30cffeSyWmiwQfTltddec85iRC8de/267CQQIaSWke5NcyuyZ8aMGePsHaLbiBNECtF8zs0DhbQ2f3g/tlM8hY/z4p577umEGLYbgoYIkw/vByc2wgjHeV9NHoDX+u53vxuthY5w/k458L+7YnyPRv+o+W/er0Wii4qfN6odjADPACl3fppcV1eX80r3Bxo08JqcNDh54LXw20UCJyNqnxi6x4mKk1RfJ6haBOOWdBeFeT/t7e3RWhHY7QSZur5Vhj0xSubEmjK4FLyZTdIezXzrfGK9TJ0wOOd2RNKSWZF3eEVH0VPsMPb99DBO+ggmQ+TGG290RpnCBZqLJrODah2cCHxWvzaJ7wOhZAwMP1KLGB14CuNYaW4RF3Emat0+QtPvhrnzSeeUQdK0OLh/fFTb6KfqTeE5PTwdPDZ7e5R+527NwZq3LXhM55TYtqznDgz2NXUqcm0zgZ5OcLgSPcH5ioFPR1+ticaeoS4aZ0BftdFk3DAUlYgJqahco4kKffnLX3ZCAdsK0RAvLRgopPfhnCa1j7Q+Uvri6Xx+iQNpyHwmnNrxiBH2HtdQhBGPK0Rs8L0pdCdGYHE8lQP/75Trbxo7MqibvIAKQp0FbWyVhQsXutSSYoIA0SgNBzTL2i2PCA8iRkFE4WHxUy2ICnFCyMfr0BecmPBucMtV68RBjRcGj3ihubn5kIYudnHwXjU1NWWJVqJJ/UslwjgI5xyJtvkOjJBhm+bIxhkSzS9yD3RzkOZsGiZDZoYNFxrnbQ0eE9Yo0Yxhx+06/yhYbJkskxcvSW4l3g+uvPJK16ZaQVSvXLnSQvoBpPb4jTzwWlKTo8P76gmaNfDZlSuuuCJrvzEK55RTTnE1EXjE8VYjxPOKSCJuZo2Sre9NF3+Ovjt3UKs4sUMGPdHszg9sa5JV7jyCSOpwXTQ5nzSJLGNeG+etqCvmlnYZtnurjHRz2sLzmUTnqh1eQ5qD/zrcv4PGi6zqniNdmdcMz1frBjjS4K677pILLrggWhPXBKWa6/xqAWwYbBn/RlpcoSZdfMAq4gpxhJjoq4tdMSGrh7+da4gr7w17jRsCicfjVOZzx+G6QO1Tf7MKiLCpfabfA/VM5QAbyJ/Rx7mJ480oPxUVSFu2bHFGoA/igI4ofjrJQMG7oEM2gZQKzaMGBJKfCsdXwuM5WBWKDRFJxZxHQh2SiqVcMwJ4XxzkxUwfSqNAArw/J510kks9VPBYMQeI91mrsH9SZ/LNb34z2hK2VyWtyq+jq1eWLVsmJ5xwQrQmcuSRRzovfymcB9VCS0tL1kWTY4SW5kZhYAQRxcfY8qERAZ3t+iSHQHJRokDIqONEo0bqaOkRSO5u1xQGQdQl0eBp1icEYid6XV9c+U4aN+i6MXyuZJw4noMownf8FEpnZ6dzXimk/+LINMoD9khcCHEjba5QuNb7YohbfHajbx+UWiBR44OdRT1RUkSLsggVRWoTUheF/ZZkM/E4opu+PVco2H5ckxVKJXjNckHEi+wlH6531Gwb5aWiKXZJLXiJ3PhpNMUAT4JvTFEH5AsOCv58CGlSR+S3L6VQsdDmDX1Byh0CUfN3OQjjs5MQT+QIP//88+7AzTWsthbAQ0MqgN8Z6aWXXnLhfQzAWoROZXw+XxyNHz/ehfdNHIlLrzjjjDOiNXGpEnxX9SyOYPHixXL88cdHa2EtDWm6Rn7gpaYOFE9xXBwBqUlE6vpHp3QEYsg1c0HoBNcTxNDWeck1jIilQYghapeibUmMHBoIHJeOR3SoW1a1RHfsNl02Bkb0qkBC9aTdIbS0cUR3v8URKU4TJ06M1kKDueBuf0bekGLPvokA4LrPMc21n/2U6z81RDgS+xJHCAuiKFxDcOySFoezUTs3kpVA+lwlBtvjlNBRKBxnCCRfHGF/aS03KcW8f8QRaXdcF+laFxdH2HOUSMSd3YXC3/DFEd9TOcUR8+7i4ggYZ9FX10Cj+FRMIGEY0spWoRBdoeaCg6eY+MYmB2S8LbdfjKcgkFDzijZv4CRVbDio8VQgljgxcILw82W5yHHg8j75bjiI4q0rawFOjtQk+SlDXDSIsLCP1IoRiNimnTPGv583zfBKBEBaonqVhu59up9zEeTcUOyc92rlsccek5EjR0ZrkpUCZeyINsjB6Of4662TKOde0hgLF0lR9GZ4m6t3dN0w523tJb0NMRWImVgEKptOmT1zpDQHr+G6aC4ndS66C0gfnr9NBs/YGIiw9dKxolFGDV/SM/8tEGnN3hy3fKFbGJEjNUa5RiHMi5FqXu+wL9IpjmgI13LEOtd1sifYN2k0gHCPz/SJw/WSrBbt3qY1z4cccohLF8UBS0MFMnMq+btxDUf0cf1G7GFDxUUeDlLqSnn/fjdgnse+yPekpREKzm/EH6JvoClwnA98ccJr08CrXOAMpORE4TdU2E+uvfbaaM0oFxVJscMg5GBWw+eII46QZ5991nkAECBAW0i6lxQLOp9wkCn8faI1eCMUDkqESRwOHLw3voJHcMXTA4sNfw9vElGkXJEjOvVxIuHWWy9/Hz+EnqYUuzi0RKcOiZRLn1NPPVVaW1vdSbHa4MLX1taWNUsEKHilxflxxx0XbTEWLFjgIiPKihUrXItroweOZQwhxeqRksFAwwjNlcocB2FOCjgwxBKnzQ7XBqI54xMaqPg1iQmP8eseG+etkamLRmdqIh20DQ8Ek2RqIBulbXMoivy6yJDgvnunyrrXFsqSxcH26LmDVai5x0Rpe245P0jfJI1TIdLw3HPPuaJ4ozDY5/zUOESPP3Q0X2iRHU+P4+aPLykGvn0wkBQ7RCDOaIReLmcE4g7hzc0vX+C5CAbSX+MmKs4LojrcilXygFjznfJk9/DZi/3d9gbnGQ0aIPawFWjEo/MieS/YxzSLMMpDRQQSJ95HH33ULXPQo9rZ2TGE8YhycMDMmTNl7ty5brkYIIZQ4sCJhZN9PN+UPM+kriGc5OIDyQhRE/6Np8WVAk6sKpbwPCVBnZQ2d+jtPVWLQAJ2T6IqzEiKw1wgQs++pyWt0JGH9uUPP/xwtKUHPP+E1tknjRCON5wQWrBLB62idjasIRDcM2bMiNZCEV5Oz2c1QOo2XQDzBUNk1qxZ0VrowMCpgTOv1qGrn+/JJvrwzDPPOM++kRucsHEhxI2ubIWAIezXCiFO+XcgM4QKYaACiTIEhFGucgQ+h4qieNQHoYIwShqxQgQMO5HITrGvlThj1e7k/fG5y3k9XrRoUdZoDzIliF7jJCejCKEI2Mc4epJsVKP4lF0goZBRygpzTfzuVIgitkGxFTMnLTraKaTP4Slgh9PoEOtf+tKX3HIcvipEki+oECW8P/4tF1zsVSzlCsGTf4xQ4uan6kE1CSSFOjFmJnGhjoMHnY5KdHtJigBWCsT00qVLnffZ3+8UxDid6/wW50YIURC+G0D0k2bR11C/eoZzlnaAxGlgdSLZYPwgkHJ1Do2z7777OkHE9ciHOUn+LKBagmsbEXvqPhU6++HM9FM5jXA+T1wM5Rud9CHrQ4WQf4tfs8tJfwQSNolGi+JzigBbDoeyCqP45+O74xyvDmwfUqoRRYijUojEN998M8vpzGcuZpOwvsiVUaX0ZTMbpaOsAikfNcxjyEPVA6XYihkjQms+EBEY1wgeIkkKwokDMhekXmj6BRCtQSRVwjhHKKlYyjVDSYUSJyaoRoGk4Omh9bd/AvGhwxlpWIgPPlu5Yd+mqJauM7ToToIW1UREqEEykmF/1UnppB7aBaF3nn766ayByxgrfIdGD1zqqH3g3K3e4lwgOHGWUYeEZ9d3RJEKToSllqJJfB5/HhRwfnrggQfqspW+QvQnLoS4JYmA3qCWxo8K6S2NTp98BRIikfMMN3Uwx0FoqChK+qx8pwijpEYpiEdNpStVlg5ZS//yL/8SrYnLCKJmq5ycfvrpmY6kfkaVT66sK6O0lFUgMVgun3xKjOBjjjkmWgsNJIr0iwFiwj8BcLEjzOun3wEXP95jLuKiCqhJqlTnMbrAENJWsZR0AuckjdHESUkLNqtNICkUezJUlaLhXJBmRBol3mCEMDVmxfbMvfvuu65xBl4o3pNf5BmHkDmdG+kmZOSG5gNf+cpX3DLGGfu00Tc4k9555x23TEqqn3Zn9IC3GkdZLqMO9LoApCxy/fFrWIGoNdc0jKpqBcOMNPb4eeuaa67Jmk9YDyB84mKot30kF6TExcUQ26olLao3gUQKnIqiXNFYZhSpKOKzJ0HEBmGErRKH704jRqXsVkrDlvfffz9aC8e/lNupGo8OYR9/7Wtfi9Z66CvKZJSGsgmkeH0Rrbxvuukmt5wErZ4ff/xxt8xBxlRoQrTFgJ1Sw+EciESMOPAxcnU7KXP+sK4kkpo3kKtOBKyS8Fl8sZQEQoHQNSkUxfpeKwGfkxQ2jGp/yGwSfGZ+G4QTTUDwFBH1wwjnpM5FDC8Xj0Nw0jGH/YGTOScoIhqcVPFC00AEo6Kv/HIaSVArhTFF50Sjb/i+9Njv/7Dg+oPUCx2RgFOAujdjR/B8k/KaNHdFwaESj5xwvaIeMs4ZZ5zh6gj9geNph5oHhi/Hu7cSOcNIq+V6I66PcSHEra+oYhyiGiqEtE6IWzlqkktJkkBSUZSrWRSfX0URNWu54DpKjVFS0wZsLo0YlVpMIjT88yOO43I3fcK+oHOxZlQRLCBokMsx/+CDD8rZZ58drYm7RvrzAY3iUxaBxJ/gxMuPDxwAGJe95ZPGFTPhfgZGFgNCqtoZjQORGhBObIR5mT2g5BNuRRwhkirVvKEvMAYQSYilpJMScJLX5g7V3EKZ35S0Njwr/rDZcsP+dPTRR7tUP6JWRmEgVvW4X7NmjRWH5wnCHeGvIOir2flRKvyaAww7bnFHUq46BBx11CGpgPch64F0mf7PTyotFL4jjDC01ChT+A6IGtEdtJbwhZCKoVyp6L0Rjwhx4zurRVQgIST5jLmGuGLfqCji1hs4MokY6Xndh1RWbEJskHKAU9Ovs+N6g0Ok3LP1SGmlSx0gijgv9VXrh22hzWY4t3M+Yl80SkNZBBKeKj9siAGbT/72N77xDTnvvPOiNXGTzYvVBvmFF17IHPR+aJWQK1EChXSovuYH8BXGmzfQfhKRVM7mDX3ByQlDgAtlrhxqTlYIJSIr1TzvgoshkUJmLlDDRpOHXAJxIPD7clLDAcAQUwbb8R0a/YMUMb1IcOLndzTyh3OOOn+Yp8XQYaMHP60G5xhZApyrMeDYjlHIdo7j3sYmcP0gjdE3tBSMRerBJkyYUPE6JYzb5cuXO+cibbqTIOp42WWXlbUwvdjgjY8LIW69RQmTIIMgSQyV23iuFNgInIP5PnN9dxjmKor6shGIOiGM+C3isL+RwVPu2m2OWc384PfGGVKsduH5wjmaiLPaYWRK0I20L0j35fqo86Cwj++88063bBSfkgsk6noII+oBQqcxLUjLh1IpZl5HvWhETahV4SRImB2jWucUcLLMt8sYoWN/dhMelko1b+gNPEQYAtz4+XN51DgB4tXhe6+W/OneQBjyu1OkjbcdQYsBQbSSCwO/uV4YSLPj98ODhgiiHoHvgRM6aZQMESY9EXFtFA9//gqRIyJIRv7w3en5lcJ7v1V1vcP5jv1JU6nis+wwmrhe4eDI17FFQ5a7777biZAkSDdiwDWjCLjG+IPHSwHnMK5fOIeY68JyEnjNp02b5lIDy+W5LwZcr3whpGJIDcZ84XrGtd0XQ5zr850lWEuQBaMpdGr3xOGYUFGUz3eEIwJhlFTDxXWUiFElBLnfpAsQKXymcsI+XGhGlQ/dfLWTJvsxtc8MyzWKT8kFEmkHNF0ALjoo4Hjv+97g8XS+U6VNsSxNGwYKJ9SXX345WhNXm4LhCxjNWuwM/n19wUmGlDv/a8WQ9lNfKo2fY0zkjDobTcPDiIiDWCCqxIW0kN/OMAqFgnGGncIZZ5zhumgpPUMyJ8uqzaOkY9kJ0jGjSMdVNNCzcd5W2Vis1ywmeb4/LpykSgENQZi9ZYQQRdZUOpxiRIl6a8RTCJzzmXGGOCUalQsEEx5ghBLOMxwtXBswkgqJ2JMiSKo4RihOH6JfpIfTNKY3EGlTpkxxqYBpzxDAcRcXQtwKNVn4rZOiQsX67asRnAQqimjRnQQOY+weBES+DgMcj+yTSXYE9gP7eaUyLDZt2uTen1KIXVdMcKj4XVnzzahSsIWxibGNARuO475eopzlpKQCidazfj42Xcf8YVj5wkUf1QwoZlKm+srVzAcuKNpekhOA35SBEKjf/hEPYL4tOUnlIuVOGz4AB2KlmzcocYHExQM48Li4q1jKlXfMiQ7BlO9J0zDyhRoIHQjLDJpMI5ct7TJs93XS1t0hY6VTmgc1yfpCxUwgMpqlQzpydFdHgDXJqnQKpIB83h8XX+34edJJJ7k21UZYA6EeW0hqwlAsVqxY4VLaqIcspAMjzieNXuFN5lzL9Q5jFoce4gBhRKG8f23pCz4rqZYUdKex4x7XGV8IcdNofiEgeJKEUDXX1RYbjgNEUS4Rz3fFPse+x623Nt8KJiSiiIyceOo+r6Ud6YhaVgo+s+88iEePywXfOw5zzaiaOHFipn13IZBV5Wc2XXvttZYtUAJKJpDYAdgR9EAkBJg0LDMfOFEiiFQx99XtI1+42FAYp/A3CP8CXwvpCZysgbByIcXihJYRSX44F08M6YaceCpJLoHkw/tHKHHzP4MPKQmIJVIIa7Vg1SgvF198sdx+++1umSJWdYw4gTRBZNV708XJg2C9ucAIUueUQdIxsbumBRJ1m9rpiHrNpMHK9QYCg9Q69WpzzsIDWw5IfyHVTeshk1KOig3GH5Gi0aNHu/S+So2eSILP7wshjQoVCtfjuBjiGkS2g5ENDlscwbmGuPKdcQ3XFDrfkdCbQOK1KCsgKhM3I7HNEEXckuyLcsJ+5tue2HjFcLD3B5xWek7GEYIjXm3OQqH+iPM94LzH3kxTplItULKzCe1QVRzx49E5p7/En89OpV7mgYBHw/dq4GVQ8HyQ/qDgscNLki94APHccYJQEBu0VU3q5JI2eP9EvZgHgqeC1tjxiBFePmquXn31VSc0qfEp1OtnGD6+tzfLS77bCTJVWmXIoGbpdOvTPXFERGmQO2YHRfcjJlhvntLs/j3k0EHStFhkyfhBMmx+WHuYzNOZ12pe0fM6+rou1S26L4to+7D5ndI+gscPk/YtoSgLt+vf3PG9hvS1vTl4Z33jf2fmOQ8htUbFEWko5YzkI1ToescMJX4b0vxIG6UxQlNTk/Ni9/d3ooaDWgZGCMyZM8c15aD2A08+8+HOOuusiokjRCkOSN4P12uyPhCKCFW+A64bpLL3JY74vUhLZEQCvxvXI7I5cFZi5HJdIpsBI9zEUQ98rziU+b757vkd4uKI/YeIIkIahwEiKZ/vkNRHflP2afY1Xxzh/KUul4ZF/F6VFkfUFfriCBumUlFUIsu+w4oOdv0VR0B2hT4fu2vq1Klu2SgeJYkgEf7jwqAvzcC5K6+80i0PBDyjKpSKpZjj9UbMD/FFE8VzGP4KJ5N8i+mUePMGcr85SCvVvCGfCFIuyFfWyFKugk5SV/DScvDWc563UTh08tEBp8xCY8ZVD9sC8TFEWjcEiy2rpHvRWLe1c8ow6bpqo0zfLRQ0QxZNla3vTZeuQJwQcel5XN8RpCEzR8oq0vhczY+45casyE2ndK4YK2MTXiN8fvAZNm+UE5aF9VKTlwd/T4LXmjUqek+53mvS9hPk6RFNIsvYnl9aIYNLtXXshRdemInG1SvxLAFqf0j5SRtE6Tmn4u1nACeRFow70s84h3K9I0LCtYlUPK4dhV6HSgXXAQxyPyqU69rQG3y+eFSIm5EfOAG0rmggQ1x9+8CPIPGb4iT2u/UqiHyNGKXJMcO4D21CpSmDlSgN4JgoVkaVz+OPP+6ukwrOF2oMjeJQdIGEl6JUBWREXng9TfnCi4RXaqDQrEEjH3iqSOHzITVCTzgc/GPGjHHLhcBJKy3NGwYikHx0EC23XJEjbe5QzS1kjfJB7YYOv6PDkL+v9hCKhSVOJEmwHEgQV5uk97XKqECkNF6bLYgKS7FDjPniJPobKwKBdGwgkMKnZJH1fATWE82hOMukBzbK7MT32ibrdk/Y/q2psvCSnrTC7PeXDK2l1UvJgF3ax9YriAuMEDXWqe8h4mL0DwRbPDWOm7ZMzhcchFxz4mIo7U0j0oqKolxDXElHxFmJKOptiKsSF0jYPggjnMlxELUqjNL2+/E5/BpAZhJWyilN6vhdd93llrGFsYmxvYqB3wgN5wnRPWumVRyKHpNmCreKIyDiU6zuGij/W2+9NVoTl9ed7WHuH34aAieaeJ64n2qHN4I20YWCSODi7LfIpPsQO3O14ofomUKNGIpHjMh75kRFOJ7PmqtjjmGAXxtCKk7GE03NUSZNbax0BKKicXFHICXiNMqo4SOlseeQHQD6OmOluWWJdKxAurBWLHK912h7Pxos0cZWKfdk+LRB5F73H85LpW6xXUsgfDh3cy3nOORay/wY0rXIqiBli3N5X+IIEcS1D2MQhwedA5ktyLWQFCwGsWO0mzgqDAx/mkwxjwtjOy6OsLkQLXznOJJxxuYjjnz4bSkJwEEcF0fMDeL3I5UOJ2/afj8ydnxxxOevlDiipovmOQpR/mKJI7j//vsz0WSCB6TvGsWhqAKJfFRyoRVyoIvdn/0rX/lKVrOESy+9dMA1PUSNFCJgiCQfPC9+pAeB1J8UAk5Q5FD76p5OeVyAktpiVgvaBhyDDLGEaIpHjPhe+aykX5IXzYUXT6Rh+Oy6665ZDgvmzCjrZ87uEURd66Rr+KhASoTipWlKdM+Wp2XhyOaBi5gVs6XVe52xV7XJ+lnDpKuXV+56jxbkvZHrvebYvlujjNzQKrNdvdM2eXpR76+PONL0F47JfOe31SIY+H7NKE6utKSkpQmuOxhVFNqTsk46Is4smktggPMdkiHQV9c8UgBJrebYpRERqeo0iGAfxOlBXQrXUWvm03+wcxCnZLzgdETAxjvNEinCEcB1mN+B77xQ2CdITdWOiT6k6PG6CCNqlNOYQk8aG84RBfuuUs0LqMU77bTTMplDCCPq84sJQljnIgGjBnBoGAOnqCl2hx56aOaH4UAlYlCKfE+EGCddjfQw00G7efQXv9aIkzierjhvvPFGRoyRz8rn7S9cjBhKqOBp48RTjvxYP4Q+kBS7vkBEagpersgRnijEVZpy6o3KQptq9bjhEFmyZImLILV3Ncq68U0SrAVMDmuF3HKUcueWw+3UDYUzkxpdTVCmtifYlnuWkFfjNLzN1Qb1PIr7Zkvje/o3Y7iapegdtEyWJYvD5cZ5bTJyZmv43jIpgfl9Brc987qNwetK8LphjROfJ85ll10m8+bNc8vHHntszuGl9YCfFk36FoY6DTDqGU2P81PkCu2qx3eYlB5n5+7SwO+DwxYxxO+VRKFDXHNBlAhBnFS/hFMXQ5xrdZph3/Zre/hOiKJVCs7Hfvtt3lsphroixGhaohlJCEJsTBwXRv8pmkBatGhR1owjjBp/BlKxIZWPUKVCLZIfWSoUPGS+6kascELwwZtCyFnBKzaQUCknIz8dkTA19U+lPgmVSyD5ICxVLOWKHHGi1+YOlnJRv+Ah9Z0PpPPEj8VK0LmiU8YemzuCVGk4bji+gPNxS0ugqOoQHF04vACDnvl2OGLqBepB40KIG0ZUIVBvGxdDOA+t8U5pIdsCQYQwyuVY5DdRUTRQpypRZ2yRpKwYXp+mJpxb0g7fG9FPhe+IGqpKNY3AkY8dqfXZZ5xxhkuHKxWk8hG51eOcSJWf0WUUTlEEEiF6DG2NrjAVmOnApaQUiplUNzUwchX0Imj81A08kwMRGJwEed9+qJzvEvFVKiohkHy0YxO3XB5MTsiIJU7Q9e75rUdoka/7KTnVdLerKC6CNV2m52jwUGloyEC6MXDsJBVU1wPUiDJ2QI0EUr4qMRCyHHDpViHkiyHt2pUvpGNyDeDmR4XS1I2sHuCYxR5QGyQOtg3HNtfEYgw5JuUdWyZpf+Fv8fv7w/PTDg5uTQWlBgtxVGjdVTGh1o5yAiACh+1Y6gwhBq1rnT7fATZtvOmYkT9FEUhEjvBYAqF2vHfl8PiimBEx+hFoJU5L8f5Ci1WKUJVc09bJ0yY/F/CmIQgHAl4iRJLvwUnqplcsKi2QfMgXVrGUVPDLxRuhRFTNOrPUJrTZRzSTZkkxLSf2hx9+2KXOKu+//35lTvR0oNu9Vbp2SLlLDzimqLHRegG8hldccYVbrjeI8Ov3gIFHqnQtRDwwYpOiQvEalL5IGrDKzZxQlQGbA1GEOCICEoffhfOiRouKsS8T2eCWVPdMtAg7RDM4/DbfaYZriO8UogQDu6FSkEHl1x4xl4x08VKDw5nmGVq+we+HvWrHd/8YsEBCtSMQ1GNH6tvXvvY1t1wOaGN75513umW8HogmjP7+Qo4oFyHgAPO7aikYc363KIoV2SkHAjs2RqBfFEmjA0K0xc4jTZNAUrg4+GIpabfke0AocStHrZZRergY4/FXqO1DCGEUkKutDot6r6npDSaq33vvvW4ZAwevMN9jvUFaEo0FlFwOrjSD4FEh5IuhXGMUcoGTISkqVI/7Rdrg99S6olwZFOy3KoqKEcljv6JxAc044qmWOCE5b+DU5rrq2wfVIJDipQqlzsDpCxxW2IN00cOOKUdGlQ8tv2n9Dfy2zMLjGmEUzoAEEidtOqaQ881Bh2GDQCmnx46TDSICxczfpUscHXj6C/m4zCtScqXQ0UbS75RCKLoYRjsiiZoLhb9NVzh/eO1ASaNA8sFbqmIJMZoEF3uEEoa0dUaqbnyvv0KKK95VvG60Aj7uuONcBLGe5/okwZiDU089NVoLBwWeccYZ0Vr9gIOFdBaNQnNuSHubc4zjuBDiVuglmfOfL4ZY518jPWArqSjKNcQV+0FFUbGuyUSJEBDYaPH9SluBc/P3l2oSSIgQ//1yrcBeqiRTp051neQQpYjbcmVU+Zxyyiny5JNPOoHEb8t7qIY6srQxIIFEGgcRI8J3/BB0DqIuqNxQmDd27Fj3PtgpGch1zjnnRPcWDvMe9EJLbRNpP0ng3caIA/72UUcd5ZYHStwjwomMg56LfjFIu0DywXjQqJLWuMVBPGpzh2JH24zSwymI1vm+wyEJjjWMiKampmhLfcNxfOCBB2ZqCGiKs3TpUrdcb+DU0hbnnC9pc5yWRi84D1UIqRgiclpoVIjP4wshvVlDm3TCeQ1RxC2Xo4+SBK0rwilULBDf2BG+s1XhGonBTtQoqetdtQgkjiPfGU7UjahxJSGjitoj7GF+/xtuuKEic4lwMBPF4jsCHIxPPPGEWzbyZ0ACiQOaHwBxgGf3pptuiu4pPyhmpvAjkCjK9aNAhYKxpsNgOZmQx85FNw61Q8z1UYrpvcDTxGfg8yjFCh1Xk0DywUDGY4RYSuq4A6QlanOHWqg9qCeo62N4cq7OTRiUU6ZMcSkESQ1U6gk8wsyZ0fMUzQhI+622lLJiwHnBrx0lqwHjrxJQJO4LIb0VCsInLoYG0sLZKB9coxBFGKn+9VvhuoSzk2sV16li1oewryGM+PtxEGMaMerNkVgNAgmnA9cBhagp4qjS7eZxUmGHIpAoz/BLMcoNo28YmYGJz35IU45K1mVVI/0WSHgtEQNcqLk4M825kidwBAUXRowsDhQK0/oLYWnahisILn94pY8vpoC6iWJ1Tklq3lAMEVatAskHkaRiKZcnlpOBXoiMdMMJXCNIpNJxMveLbvmNH3roIXnmmWdcWiX1SKTT1iPUEYwfPz7LCbR69WoXNak3MJTwImstR67uo8WGlD4/KsQ5GuM0qfC9NzBU40IIYy/JIWekF7IbECWcs3JdjzRSxK3YUT/+PudProdx2KdUGOWzX1WDQPJrxRGcvM9iRuD6C42FSK8DnOeV/v4OOeQQV+PLPkCaXbGykOqFAUWQEAZPPfWU2ynSkN+I5+Txxx937wcjaiAgTLQTCDM0mBydC7wEfgj96KOPjpYGDkKU91LM5g21IJAUdl/EsYqleAEqcDHixMCtkm0/jR0hlZXUKGr69Lej6QlGhHrfuAByO/LIIzOPIa3yscceK1paa7VA29ZJkyZlOWX4HthWj2zatMkJRsBrS7S/2F5kxI8KIY0I5Ypg54IogQohblonVGmPt9F/iBaqKMoVJeR6o8KoFA5koqcIo6QUPtKRtfkCx0a+pF0g+em0UMmIcRzOCww5J82ukgNqFc5ZCxcudDXypRhQW+sMSCDVMuxY/kRmCn5zqW+8N0Ss9KvM1f1uIMSbN3BxRST1p3lDLQkkH7y3XKwQS9ySwCDh90FA18rnrlYQRVzotIZG4beh2xZRJNh1111l9913d52A6Gbni2AuRtOmTYvWahucP2eccUZm1gcQVaOdbD1Csfsbb7yROe8ONAWZ8weGri+EuCWNH+gNCrNVCHGe1lshRqqRTogcIopwyuVKBea3VlFUjMZNSeAMxCGs40Z8EGWIov6KhjQLJJwhOEUUxhtwM4xSYAKpF/zIECe73jwC8cYKpP8Ue25P/G/0t3lDrQokH4xIFUu5LmREBhFLXMzMk1teSIlKKiBG8HOs4RVVIcTFXr2vL7/8skycODHLY3rWWWfJHXfcUZR2uGnlsssuk3nz5kVrITRkIOe9HuGyhQNLPfcYpXQczbeeIx4R4uYLz3xA8KgQ8sVQfyP7RnrhWoIwSkphAxw6OHY4d5WyDhBhhh3AvhuHv8u5cqDZM2kVSGTR0PFUQQASPTKMUmECqRcwrv2TRV/1RfF2xaQEFdtryAmSlDvfi16o57QeBJIPET4KZvk9ky4sgJhFaCKWrCtUutm4caNr1uDvx0SZEBAnnHBCtKU2QBDOnDkzyzAgBZHB3AcffHC0pf6IO4tIgcbhEYd6kLgQ4pY0lLM3cKD4YkhT5IpZYG+kC5wwXG+5duSKInLNQBRxK2VTINL9Ge6alNrJ30YY8W8xSKNA4nP78/KoN8IJbcefUUpMIPUBB6WelPpqkMCFl5QPFS94cvbZZx+3XEyIiJByx99TCmneUG8CyQcBixcQsZRrSB+/m1747AScTjBYzj33XHnwwQejLSFEVK666qoBNzKpNBhE1113ndx3333RlhDatTIUNg01n5WC45bzsnYIo4EOoxiSokK5jvFcEJVXEaQRIW42YLU+YP/RuqJc+06xh7j2Bk2wEEbxNGTgGoUwKnamStoEEvYUo1f0eCebgPeFk8IwSokJpD6gDgKPNeAhYu5Ib+lYnMxoVaxwIJeiixonTESSX2vDiZuQc18pHvUskHy4CKpYSvIQ8ntzEeJW7IuQURwYjHrppZfuMCOLuqSvfe1rrnapmmCfvPXWW6WtrS0rSgxsq8RMjbRBvafWXnCMYijhxIp/X33B8+JiyIyu+oMoo9YV5RriSnRS64rKcb0kxZh6m6TrktYXlarhUNoEkn+847DkPdXjOAOj/JhA6gO+Hvrtq/cin6JATjC+cGFeSanatiLetJgduMj31bzBBFI2GFZcHFUsJR0SiE5t7lCqwlujf2DcMLSahgVxTj31VDn77LNTn45Gd7r777/fRYfi+9/xxx8v119/vQwbNizaUh9wzo1HhRDChTZN8Aes+mLIWmnXLxxjnDe4JXWAA6JDWldUjhbSXIcQRkSN4mIfR4B2pEtKJS0maRJI8eZUZAaQLWMY5cAEUh6Q607OOxDe7cvYIjRPAbHmuXOCLWXLx3jUipMpIonIRxImkHJDZE4jS7RQTQLjSps7mMc5PXzrW9+SuXPnurqdOFzoGSZNgwdqeNIAYvzJJ590bbqZwB6Hc8asWbPkxBNPjLbULpwz4+lx3NQxlS8cm3EhVMn5fEa64LyOKOLfpH2LmmFNr+ZWjhRrIljYFwijOIh7RBG3cl1r0iKQEEYIJIU6a+wVwygXJpDyAKOZQYxKPl6MeDvKkSNHlrRuoJDmDSaQ8gODjQJdLqa5Ui9Ic+CCym9r3avSAcNkb7vttqxj1oc02WOOOUaOOOKIsg+bZYYHQo6W5f4keB+Mkosuusg1oqg1OD/Fo0Lccg3X7A28+njTfTGEc8gwfEjPQhRxLs+1n6kg4lauejO6JiKMdN6iD9ErTaUrd4fVNAgkono6Bw9KMTrFMPrCBFKefO9733MiBDCK8xm6tX79endSVg499NCSnny5EOs6PMAAAP/0SURBVCCSMDiUpOYNJpAKh8YYKpZytQPm4qreRzPUKg8C6Rvf+IZ0dHREW3aE2jI6oCGUiNhQw/f5z38+undgEIlEEHEe4GK/du1aZ6jlggYMtCwfN25ctKW64ThJigoVcsnBg8/5ifOm3yE0TcMhjfTBvsexxjHoXw99SEPXuqJyZgJwTJBKx3uLQ7RTI0aVagxSaYEU71iHvfWFL3zBrqlG2elbIG1pl2G7L5SpmzfK9IHO41rRLIPGLwmXh7fJ1vemy+BwrX9Er9c4b6tsnBF7pSL/LXLf6VCnYExxYu0NBg9yoGvOPMZYqT3W+TRvMIE0MBBJeuM3joNRh1DiVooGHUZh8Ds9+uijLp3ttddei7bmhqgEkVdS8fBccpwTreA4wZurbeBJoeV4w+BBQPN3MMqoCcQznCtF04fIMml/pP8NHjygs2HF4HuIR4UwcgqNCvkDVrlhtBIV4hLFeZTvGvgtvvSlL7llw1C4zuLE5JZr9h0CROuK+jNkfSDgwEQY+ddmhf1dI0aVro2rpEAi7ZEUabWZOCcgjjgPpArfvtyBybKqu0PGRmsDpXPKIGla3ChtxbDBjYLoUyCFP06w0LJKuhcV4SfXHavUAgmK+bcC/G4qGL977723W+4N8oq7urqiNXHP4bmlJt68AWODuiS8MSaQigOHjjZ34JaU044xrc0dStV1aEfWStu4uSJXrJTW/aJNebFdlp4/TRb/QKTh1AWy4JQ8imHfaJNx15PK1iAt9yyQSTuFm9MK9XqdnZ3ywgsvyLe//e2c3uVSgfFDJJkZaaT5VVvjBYRPUlSoEAodsOqfy3juQQcdZIOdjQwqijgHJ8E5WEVRJRxWRD5zOUwQadp8IS0jJSopkN5+++2s7ykfR3Tl2CbtI4ZI6wbpsUFdQKFVsPhy2qUFYgKpcvQhkDqleVCThDq5SKq4yKKlV4r8twiJv/POO9Fa7uGEcXiOH04fM2ZMyecnQFLzBtLtuJgoJpCKA5EkfmMu0n4qkA/eS23uUNrvvL8CKeDjpTLtvMUi+QqkgO2PTZNpj0hVCKQ4OD3eeustN4iV45Toax8+o4JgPg9OEQwN0nIPOOCAquiehgdXo0KIIhVCSRHT3ogPWFUxlC84pPiNFM5XhQzFNmoTalS02UKuroYqirhV4pgjJRthFB9BAERBEUVcD9JGpQQSNdvUbiuNjY2paaiTTIJAYuv8YTJkppNIJmqqnF4F0rb5zfL00FGycHyoiCcv75aOY8P7oGdH4L5VIuMjMRWLNmWiUAGTWybLksWeaFERE8BOtkqa3GvqDuf/jSyR5il1/+/1+rfCzQOCugZN9WBA4dChQ91yb1CYvGbNmoxxkW8NUzFADGH0+ZPjiSZpZycTSMWH/HcVSxpxjEOrcCKJiKVUecPrTCDFIQpI10qcC0Qt1DNNyg5igWNfDTKMLhwdGPwc03in+U2p+yNdjhlM1dC4A+ETjwohigoB54svhFQMaTpif+DSREqkvhdeD4GZFk+7UV7YR7XZQq46UNLYta6oHE7IJHiPnD94v3E4RyCMeI9ppRIC6V//9V9dvabC+RPnUrpJFkg5o0i+zZpg/4KzsaXHsb9mykIZnbGxe+xv387NsotLEdSoY3oRSMGPP79Lps8Y2/Nj7CA0enaQ8Mdolg734/QoZxU4uqMkvVbmMcMbRaZMlZEzW2U9jx862+0o4XMl+ls9P3pGPEUCKZ+/NVD8qAxFlKR75GMExFtWlrPIGCOdv+2fsDXfv94EEr/fli1bXOoj3YO42OKNxMuHIYaIRdCSyoNxi5BEzODx46LGxQ2v1q677trnPCzgdbW5A4ZnElzUtdalr30ptxgJo0arR58jLR/dl0mTmyVzg8dvFxndEmxf7LaPyUSWoue454+RWStbZX9PIPU8d5YsaFicWV45Y3/vuQ0yZrTI6jXee4peg+kVPe8h6T1HKX3SIgvumhS8klFK2LfjQohbLg98LhCLmtaEI4Djh2MHAUPKEDWPCEWOFQwdjpP+GIQcp9yUfCP2Ru2AQ0KbLeTqJMr1S6NFlbyWcY3n+pIk3vTaUQ01qeUWSPGOdfyW++yzT7SWZnIIJF+kZJz30Ta33hg+b2S23Zrl6J/fLo0zsFl7/oYKJH0863M2+TZvZCNLaO92Yf+uL57tW4/kFkiBsg3kTqhYMyo3HjKM/3i6Y+jj9H7veQlpb0k7SM9r9zxXBU98RwmfF+10ffytgUIkhja9Cl6OfIur/U54wDwljeSUGi405PJjqCsIPNJ/MNBrESIBdA4jr5lOYu+++25Oz2N/QEAhdMmTpvnGfvvtt0PHQB8uBCqWNAoZh4sDxiUXe/WUr50/TuYGAsSRESgBnhDJqgHKigJtzwiZlntaZPt5iKjwNdzrfhSIk8tF5gaP3xXh1JDwXPd48Za9594VLLu6Jf37oehZfVDw/APXBq+1WsZ42xFo0CPSArI+RyTU3LLRHzilI3ziYqjQfZ/nYPDpjfQXomr9OYbYn/1UQ8QO23KB4CJ6pJcnnBKk3Bi1D1FcRBHXSs6ZSXDu1fMkzqtKwrGBwy3pnI7jC2FU6fdYCOUUSJxL/BlwOCNpyjCQyHP5yF8gJTvv1dkfs5ulXdq7pst0Fy3KZWMnRIfU3s36m8F1W+1ho2B+L/p3BzqfWCJLxg9yRloojqBLWq/tjJbzoUvWBT9svjSO8C+AuZ+7ftO2aMmnsL/VX0ir8fNiOZHnC338/bA/gqlc8Hcx5P0WxniUaQueq+NPtUHXrKefflrOOeecTIj+jDPOkAULFrg6hmKKI+DvUbty3333ydlnn+2aYHAxPP30093wTwxMH4QoRfnUoOEh4+IZz43HU4qYQ4S//+0lMm3aNFl74EpZuTK6OXGE2Bgn426QQEzoffHoTIzRLbH718paRNcuDdKw0yRZELxG/vVK3nOD//Y/yIv9fLxWVgciaPsj02ScEz3Bf075NMiku3o+x/6vBe9/XFvwSgHR3w/vCwTXuOC++e4eow8wyqh5Q7xwLLOfv/TSS25QNQ4BaiAQ5H3t+xh4pA8/+OCDcvXVV7vjhu56M2fOdMfPc88952oE+nsM8R6Y+3TjjTfKhAkTnEcdQ+jyyy9PHJJLuo2KI85dRLqN2oZ9hDpAzn3sy3FxhC1C1gWdHzmHDh06tGLCg32T6CbHGhklvjjifZJmu++++7prfjWJo3LCd0j9p4LDFgdjdYij/FCbtuu9ME2ua+YQt3+E6XHrpcsFyMfKnHk8rksWLtsm25YFz4tS6XZgS1fwrGS2bYruWdzk/oYLHmAXh3/a6Ac5BFKndI3Y6nZgvW11P2DA4o7g3nxplFHD+bc/P5I+d0dGDk2K2AzkbxWGLzI0Lzof2Gn9tCzSr/xOc+UAA92f+cAEe8LbhQi9tPHNb35TJk+e7NJvTjzxRLn//vuzij199CTMrJnzzjtPrrnmGrnzzjtl8eLFsmzZMlm1apUzBul0xvojjzwid911l1x77bXy1a9+VcaPH+8uernqhsilfvjhh+UrX/mKS/c46aST5PHHH4/u7YFIEa9zyCGHOGEV96aT5rf9vz/tZuPs9ZMnZe7cuTJ16lSZ9phLXAvFBpEfxIS7RWIjJZBap2IoFF6RqIvebyj6okgREaTM51gr+/M8jZIZDrzqnC/YvzDI8PJS14ioQaQjXkgZJZ3WrzeMw36FxxtHQnt7uxtIe/zxx7tj4aabbnL7KhFXhDqpckR7Tj75ZPna177mxA3OAMQ/xxzDbjlW+I1pof7QQw/JLbfcIrNmzXIC67DDDus1us5n4DVHjx7tzqmXXnqp+9ucE/3aPY4Pm4FSm/A7k9lAa+d169a5/S7eDZS0NPYBzpVE7BHXXEsrAemoHH+IOASSn57KPorzlOgo15hytxGvNvi9/VEAfGc1kUK7oiOMHgU26dQJ4fkv4/wnupOxq3siO4MnTA0eHVivi2bL7GApKzLks1ujjHQLS6RjhVvIMHhoeI/LmPJsd79vgFEYCSl2hPSaRJbFw3I7hg1zh/960tzi6XOZ9aQapKwwZc/28LX1b/Vdg9Tb3yoWHNyaroYhgTc0X/Ds+oKEyf6FdHYaKBgmnJgQd/7PT1E5tTXVAOkXGGsPPPBATpHJRZSibjx5/D6k+OB1LBabN292UUC+TzxhpATlqufgon7mmWe6SFMuoxEvJAYC+1WuGTp//P9+KS+//bEMn3KuTNzVH26oNUizZOVXtueRJtcQpbxFqXGyVNpe219aXVpcwnOj19ye9dwwHU5cCqCm2GltUnhfw2Nt8uwvPpTlwcncapDyA6eFnxqnN8RNvrDvc05BpBNhev75592xkqvDIgIdww5BRKQZ8Y6ILwbs10SEiA7gjGGeHBGCJGh2gdDSIZmkUXHcGrUD6ZNc/0g3Zr9OglQrrSsq5xDXXLAPE41Nutawr5I5wK1cKfOlpBwpdqS/830qXJdpelVdJKXY9djJWfZspkGDXzLSLLJI0+TitrTbGLDj9h1q64PXbl52gnTM6Mr8bX2sa7Q2ocNS7PpJTCD1/BiQ+YH97htKIEK2jmgNBYhjskxuWSJLXOgwwBMlmR80gEYMXRvC57jXjxoxKNk7Bz9wJHIcXt5l7D3tsPME7PC3PPE1UDBg8XYqDC4sJJSO9xdDCDBkEEnlQk+AGPPctEsUcJLHW5dW8NrdeuutLqqTBC2Am5qa5KijjpLDDz+8rF3EMGCZrYMxSiQKr34SCCU88r19zxgOKpZyFSdjTGpzh57P6df6jJFzTv1Q7qO5QiA/wmYKUaWPqwHymjTs7NcTuUdEAoemEMFzdm6Qhh+QMBc9N6pVcq8c3Lc9uC98jUDoZGYjhZGkfLvh1RvsL0lNE/x0nXzQhit643zCjX3wtttuy6qZ9KHBzNixY+WII44oSzG2DwYy70sjUHwPQEopUVrg/Egk+MILL6yK1uhGbrjO8JtzTsuV0k1UXuuK0hJ94dqIIU/kNg7vV2cY+anz1U6pBVK8Y11V1hdm6vKTSKgPgthzkm3dkVnPTbZ/s+30rABAzC4utt1bb/TSxc7oCxoAqPFaqLDgYkEkSSmnB8U/AfI3qT/QaBhQK0MqQ5pO+gjSOXPmuBSeOAiF5uZmmTRpUlmFZl8goJcuXSpLlixxhkEc0ppmz57dZzdDDApt7pCrBgSjQo0LS0dKH/xucSHELWm4cC7iA1ZVDGm0RXn11VfdscIw3DhEh0j/pL7Ir6WsNKTokbrHeUdHIHCs8xnYr6+44go5//zz3XajetBuh/71xQfhq+etNHV447r+4YcfuvNuHCJaGjGqpXoZpZQCKe5Y5nfnnGQYacQE0gDwPSH9mfBOmgl1A0q52tj6J0Bt893V1eWEkkKqAMYK4qPSUCSOgRT3PNI5joYMZ511VrQlvVDLdO+997o0PB8iP9dff71Mnz492tI7GBp6SxraSWoVUSXSU6qhpWytQf1PPCqEF7rQqBDnkbgQ4tYbGB/U/7CfxUEUcaxQ3J5m8NZjQBGFJdXOhyg9xwqRYSO9kMapoihXyrGmz3FLU3SQY4h9MCkVlWszogiHVi07oUolkIgIkzmjcF7jGh538BhGWjCBNEDoYqMXAep3qOMpBDo4aVQAUULr71KTJJCA4m2d8QSIPqJiGNyVgDzlSy65xBWD+1BXhKCgG1a1wWe5+eabd0h7olAdjzkdmvKBw1aNEG5JkQguPPx21D+lQejWGggfXwjprZBTarEGrD766KMubTPu8cZ5QPODamyRzfFAI4l4ehOfk2PISA9EXMiK4FyUK8pNCjrnIkRRIY7EcvDjH//YXf8QSHE4d2oqXT1QCoHEOZHItu4bnN+oC6bWzDDSigmkAUIYnmJ94KSPoVsIGDS0dVYQLNTRlJJcAglIBWOorO/5q0TzBrrKnXvuuZk6LeA90IK4paUl2lK9kFL0z//8zzsUq999992uDqMQNL+fi3yuInzSQkhlwUDxf2+jb/h+/aiQCiO/A1M+4ADxhRC3YhR1U6NDJ0YfOtNdddVVeQvutEKd1nXXXeeOFR8MNyJlpaiRMPKDqCjnHa5hdFhMArGv0aI0dijjeocwSnr/pJojijhv1hOlEEjYOL7zhsYr9fa9GtWHCaQBgpFEi1KFNtp+G/B8QJAwhVuh61opi1R7E0igrVf95gBcKMrVvIHZKLT/9ZkxY4ZrQ1yp9q6lgjbjcePvggsukDvuuCNaSwajPSnNDoOSNC9+Q79Vsg9eO23ukDZPbqVRERS/FQLe0bgQQqAWO5WIjlpTpkzJSlvB0z1v3jzX9r6WILLNTKbly5dHW8Lo26JFi2rus6YZHeKKsMjljCFyrXVFaR1CTlQSYZR0bPO+ud7xbz1SbIHkO5GhHE5gwygGJpCKgF9LhLBB4BQK4WftJkddCjMfSkVfAgkQfgg3jHClHM0biA5Rr6MQvaJjHZ22ahWafVCAThtkhQjAE088kWVUk56A15ZUFYQRHfMU9juMEgxkfQ5eUQwZIku5jHxa1KsxU4sFx7ng+9OokJ8ql1TX1Rt4yH0hxHo5RCezj2i04M/7QigQSarldMrbb79dLr744mgtpK2tLe8aPqN/4P3XlN5cjUXU6cKN9Ow0glOBYyYpDZBIF8KIc2I9U0yBFG9GxQBd5h0ZRjVgAqkIEGnByFVIayGVqRDwxmH0KP2pZ8qXfASSUs7mDdQUPfPMM9GauKGvzG6pieFxfYDRccYZZziPuMKgTVogY8ATYdROeAgaUhT4XUhB5Lfoa39jKr2KpVwNA3hdbe6QVgOnPyS10lZnRL7gFfeFkIqhSnxPnGsYqus3LZk/f760trZGa7UNn59jhRpFhUHOV155ZbRmFAP2L60rypVOipjQuqJyjlQoFBovcL5M+hxaX2R1miHFEkjsP8wHVLiuWEqsUU2YQCoSDEDECAUuGP3J/SetzR9EV+hspXwpRCBBvHkDaW6IpGI2b2BaPxETheYMSS29ax3qRqi5AIpYqcPi4u3T3/1LQSjhEUYskY4XR1vvIpbSmiKTBMYPYsiPCHHz6+nyIS6EuKXF+CPKSBc3PdeQZkYreZwJ9QT7Lm39/fRmUnBJwzP6D8eO1hVx7CSBw4rzAwYvToK0QroxwohravwcgGOD8yriyBoFZFMMgRTvWMd+wvWsluZFGbWPCaQiwQXbP7H0t2X366+/7ow8IOXp0EMPLXrdTaECCTCqS9W8gZobf/ArnmA8wvUK0QAMvYULF+4gQhFH1LkVw2DHgCBtRsVSEqSLYQzxd9NiSHDKSooK5eqelQsu1kkpcmmtc+M3Ys6XRk74bajJqde21+wHxx57rBuIqzz88MOuLsvIH87pWlcUH6WgcKxoCl1ahrjmgjRZFUbxdECcPwgjbmkWd5WkGAKJcRYqsHHiII4sQmdUGyaQiohfR9Tf6dDxsPTgwYNljz32iNaKQ38EEpSieQM1E3ThUi677LIdGjTUI3PnznURHIwSLjR45DAGS2WckHanNQa5jCT2EzWSaDpQDnhfvgjSW1LkKxd4i30RxA3jqNrmb5BW54sBZgUdeeSR0Vr9gkBk3IJCNB+DzOgdFUV+nakPxw3HO86RapipxjkSYeQ3PFJwKKkwssY0vTNQgUTNEfuWstdee+3g6DOMasAEUhHBY4WAAKI/zDTqT+F7vO6Hi30xC0f7K5CANCY+o9+ys7/NG9atW5d1AsbziwfYCCGKxrykTZs2uegBRiARxVKDAFGxpNHMOKR+appNMdImiGbFRRA3v817PmD8xMVQucRcKZkzZ05WjQ1t8E899dRorb4h3ZDZaJoGzPBJf1q/0UM+Q1xxgGhr7mJ3XiwFnCfolMbnikPNrNYYpblGKk0MRCAhUP3awN12283dDKMaKYpA2jZ/mAyZ2RWtRQxvk63vTRfx74u2DQ7Xag7C+Ri0GtZHfPS3nSWFyBqpIUSNYcy/xWAgAkmJizgMU0RSITVTfCatIdhnn33c+6ql5gDFYMyYMZlcbuqOEJXlhGiSeplziRU8zNrcIR+DiteJCyFuiKR84ViICyGiQrXYiY8ZIqNGjYrWRL7+9a/LDTfcEK3lyYpmGTR+SbSiTJZV3R0yNlornG3SPqJJZNlGmV5hG4jUZNIPFWr54u3z65V8hriS/qSiqFoiLHTpRBglRcA4F2jEqBpEXpror0BCoH7ve9+L1so7GsQwSkERI0id0jyoSbgEN87bKhtneDJoS7s0LztBOvxtNQreE7wowEnav2gXAif/N954I1rrf8peEsUQSEC7VKIbCrUbnBDx2PXFN77xDTn77LOjNZFXXnlFDjrooGjNUN577z2XoqBUslsZUSwVS0neZ8St3wmPNLgkIZSri14uSjVgtVoYP368rFixwi3vt99+WR0zCwKRNGtU5KRC3AyRVunLaRU8bsrTcsKi9Du2SM1lhppCRInzWz2CEwKDlUh/riGuOjwaUVRNnUKJGNI4KGkOE3WSGOZcg8zZ1j/6I5DipQFklRDJNYxqpiQCafLybuk4Ntwa0int8xtleh0IJC5MfvcWoir5CIYkuMBzIVDwInMxGyjFEkiAwUzKnT8/Jp+wOvfj/YNLL71U2tvb3bKxI3S1wyMOROgYcljpbkDa6QqxlHQK0UYHhZxeiP7gVIiLoWJFTqsR6oyOPvroaE1cxJWoYr/IEkjR+njpPYq0pV2GTQgeUyWRfzp/UoMEU6dOdY6YeoEIrB6XuYa4coxpHWE1dagEzjVcD5NqJImAqTAyBkahAgmHFzaPnutxXiGOrNbLqHYq4mIhJQ8DKrwNk/Yt0R0BnVN0+yBpDp2m4YU82jZs/rbM81lOG5wU8MopfrFiodCcwe8cRnpVrrzxSkG0gJOo74HcsmWLi3zk4sEHH8yIIwxim1/SO3w/DNiD//iP/5C7777bLVcC9j8MFIwxRBqGSVJaGxfL3sQRvzvHCQKd/Qejn7lPX/7yl12XPj4vDSnqWRwBTUyU5ubm/oujHeiUZlLuWpo9cYSTKzr/TukMxdHurdK1oVWGDDpOzhrBfc3S7M7RzfLP7t+e83fPeT3c1rPeHLxyz7o7r/Pa0d8q5nl81qxZ0ZK4LpD+IN1aBUFEahODo+k0miSOONZIY2YAOZkI1SSOiISRTcH1Ly6OqM3lc3HeMHFUGUgB1nM9xzODYE0cGbVABQRSp8ye2eWiTBxUq1qizQFcQJsWN0rb5uC+5ZNlyfjo4ntsh2ydF6WXLWqSJpkqk8O1VPL5z38+WgrTAXRmSX8gAuXjzyNKC4g4jFxqURSiHBRKJ9WtPPTQQ9FS2OI77W1j0wDfk4LALAd0ZMT4QsxigFHngRFGKgWGGDVoCLZCRDsRoaFDh7poKMNuqdErVqOHaoSUQ77HpK58HOsMClYuvvjiaGkAOLGDMGkS4Ry8SOURKXetMopzb/dWaVvfJM1d02Xj5jZppHa0+5vyjfdWBefdQFRN5DEdcvUi1iNWNMuQ99rcOb17+UhpndAuMmOjO79PXh5GqAbPWCWrlm+VjmMDIbb7OmlzInqVjJzZlOUkGwjHH3+8M5aVWm36glAgcr969WpnoCIi4jV8iCCMVUQRxxrOrGpKO/v4449du2jOPfE0Qa41nENoYMTnMirDhg0bsn4b9rdqi0waRi4qcLZslFHDJRA/oSdx7CIt8A2Fk8hIaWS9cVTwyC5ZuCzbu9g1sk02zpguHcHFNavOKUXgVfd7/g8kioSn3W/0wEWDtLa0QYcgmghQK6VgPCOS+FfZvHmzqzdSzjzzzGjJ6A3ShRQuSn6+90AhPZLfSLswkqJEKhdt6zG++M0wwOho11tUCPFD+g6RT6JAOAriHeR4DerW2AdI5UBI++mZ9QSfm9+RhiccJ/GZLU899VS0JDJ69Oji5PQ7sRMIoOHBeTirpLFL1m3oktbdEU9DpHWDyPpNSZGdydKclT4dsm3TepHFTc6D7JpBbFgXvGJwfp8YSKoniB8FbAm2NAbn7ODf9YHQaoqE2hL+dqzHz0A4/fTToyXJGj5d7SCmqXFFNLDfcLzG6/k4BonKUvvK/kIkttq6txH14/zAeY7P7EMkjM/FtaYY6eZG/yHdEXtEYSYiaY6GUStUQCANlunOExmKpEEj2sVdht1FE6ILJ6kdwVrXe9lXzsYRxWlUUGp8oYBAKnSIpQ8XPD/KwjR92m2nEdI3iBAoRJAw/jCEgZoKhYs4w2aNvsErR7G+4n+PhYDBgcAmDZL9CGOLqBC/EeIIo4uIZ2/7FwYXqS3M6KKBBC2WqZPhX9bZjjhCJNF4I5ehRtMHUjH5+3iJiVbFRUItQ/qgRo7oNOa3x4XnnnsuWhI58cQTo6ViEJyDl02VhROic28GutoR1QlvhTqgaM6jzyXC5GJTxzbL5MUdYYod+khLE51Q6/lb2TWrA2PixInRkrhIp99IptpARCMYEEQcqzQAiosGjiuOOSJnHIM41HCsVRtEqnHM8HvFr5cY3vvuu6+LhFmEovLgMPOzWXCM2bXcqDVKIpB28DziORzqX2zHuggQaXSkfDSRg75bo4x090UpdnrxzKSAVBeE/TVtiM/he1r6AxcGnzSm2im77LKLywv3B3FiCGOUk6alMODRyJ8jjjgiWgonlfcGAgehQ/oWwgcBhBDheQgjfguEUtzY8iEdh9oycvsRvQgdWrOTskNqC5EiLox4rXvDT/Vhv8ALHK8t4oJLtIr3yPvNVWReS/Ad+NFhDGGNNmMYE8FTij4QdrfpsmrKwvDc6yCyv0RadZ3OowXUBg0eOlK6Zs52Qgg6p4R1R5zr58xbLx0rOuXpTY1howfO9cF5f7ZXY5qpNy0C7G9+99B+d/2rIOwH1NxwPCAY4rU3ROo4Lkkz47jiWPSzFqoFHAQ4BhiPQaTad8xwfOBo3H///V13VEvFTgcMjPfbebPfWTtvoxYpokAaK81RPZF/oXSFv7uvk8aMh5BC4OjieewcacscV/r8Lmm9Nnp2gRfptIFQULjgIZT6C0WPhLAVXk+NqTSizRv8JhMY5X6rcr9WwOgb//tC5AD7FGlrCAwMDEQGhjWeWFLlSN8iKkQKXW+pbOxfpKywjyFiiPxglGOcUAfHvozh6Yve/sB+gdhHaHFRjU/ox2Di/X73u991nZH4TFyQaxW6OfoecabQI5T4V+E7wgAeEK5jHalvrTIkitpTEzR10RBnbA+bLy6yP3JmuD4oOGc3E0GKxEzYpIF0uCXSFD2/c0qYHke90TZXJ7o+SpsbJK0j5oQRpIDBE6bK+vGtIhPUSTZWOja3BdvCx9JZb04RI0hANzvFN+bSDE4BHEkMhOb3T5rvw77A8cjxw7/VmmaGEOLchAAkKubX4NH0hYgY5x6uF9XUgrzW4Xfj3KzgBOY8bi3VjVpkUGBg9d9qT4BGC9lDY+PDCAOBNKVDZDGXWvDvj2ZzbHArPYNl9eIesWMb8XRC8ToXO4WTvZ961x/iNT3UJhTaMaaYbb77ghMqEQHSpxQu/jfffLNLGxno9xGC6A5bzPdAJHKjTJeoE1fLqoFFI7WjV+Z1yj8kk2gPvzfpa9xOPvlkV4NQSJMEvLL83vFbJYcpso8g9jEIk1r4AkYSkScMxGpMH+oNfj8iq349CQZjZ2enO24QiP55xOib++67T84991y3PG7cuMwcqbRBgTvODfb9XGnYOJnY9xFD1T7/i89IKp2mXPtgbGurbuuCVjl6a/PNNds/R5NJQLq1YdQiRRdIRjZ4yUhzAi50DHocCEQB8LopdPOhYLUQyimQFNJE/Ja7iKRLLrlkwBGJHhBJdOEKBUso1Ec68d3IMh22Bpiu6V4z39ch+lnk4cjxuVh9UY0DVhGBajASGUuCiAuRqGrqfkeHMerxEIP6LylDfBYEEucJUh6TarAwSq6++upozcgHBJHW7BF5ffPNN91yGuD3V4dAriGuHKcqivwofLXCsUykiGM7Do1cEEWIo+JdD4z+kksg+bYMkDat4ycMoxaxuGiJ8U8gXAz9SEp/4AKCqFF4vYHWN5UDalj8ORXUrpTyYjh4RpvQkrijQo7jbcsWRk1HikcuY4roD3ngRJW4aFHMTL3SwQcf7MQzaVwI6WrwPhMdotiXYnM+BxHGuDeZ2iqK77XFMcamn6JTSYjuYgj6HnJSHV988UVX/8Uy3blIHcQQQTghjPgMuRpUlMOBUWv4+0y801sl4Hfevn17Vupo/HjmOOYYptaPY5fjoNrFEdEGaqmIkMbFEfs1WRWk0lGLZ+IoveCY88URKZAmjoxaxwRSicHg8/PEk1ILCoWLiV+3gMHFzJq0gyi69tprXfSICffxuR3FZNv81kAexVsZB3hDhzPDMKP1sFCcSFR0Xy+EA411SGbPcyhOfzBKM+2inqOP1ykEhA6ecFrgMt+FKAopdzS7wEteawNW+RwYUHxGPJkI7PhQWhwE7E9EVTkOkuo2ygniiKJzakno0ofnPNccNAQRN8Rt0u9FcJ/0VMSgURh+vV3SIONygfilBor9M9cQV45j6v6oK+IY9s/t1QqfEzFI9DN+THJcU7eCMMIBUgvnqlqGfdhvCsX+OuCaSMOoAizFrgxgIOE5VrgwDLTwFHFB5x/9+Ug3iucL56ISKXbAe/WLORGLiKbisGMdktaq9aTGNXp1Qzy+Q5qpf0MkTRBZRb1b8LzOFZ0y9tgd0+iyU+y8lL6uZmmWjuA/auWC14nS+ppkVVFndZGW5aeUYYDXY/430RaEEYZX0umLtsfsVxwTn/70p6Ot5QGjUI1gGgXw9+miRhtvIgR6w1uOoUHEANSgVDi+mRHGZ6RLmZ9Wa/QNw6jPOOMMt3zUUUdltUwvNUQRMSr57XJFr9gvNIWu2uYU9QbHJanUSbWEfGbS6Ip3zjdKgW8f4JR74403orVQ3BLhNFFr1AMWQSoDeAR9QVSMlDhOUP68IYxlun+lGaI0hOYV0kyKS3aL+B0beTCDK2rc4Iup3aZL20htO0zEp8BapcZRriPXsE1zgr/rNyQpLv6cHPanei2OxcAidTCXxx0hSUoIDU1Ia6MoHIFSDogG4RWn/bKKMxwizIki0jdmzBjXghrxpOII/N+W9DBSq9TzTvdHozD8c4vfTbRUUDvH3ySVjP0uaYgr2QQ4pPT3T5oNVq3gtMARQMprXBzhqOB45TObOKoeiG77Yol9lcifiSOjXjCBVCb8bm1cTArpPJYLXtM3kknH6W2uTRqgNa3iR9XKhUuNI1rUHQ4rVjIT/xFJhXZIDATWxkCQrZKmQATq/Jfi40cYGMha75A6pTUbu//yRZd++O///pvo3hA1XDHeuB/v9kCGNvcFbdJJCyyk/TJd6nwBRxt0/zihdqUa6gzThG/Y+d9lMYkPcUWIxxuLEClEoJECizCq1iGuuUAI8tlJc407IYiQktXAjRpIo7pgX/ZTValvrbUOoobRGyaQygSeM82F11kvxYCLj5+2RqeZNIM3XSl/2lCndCyenEmly4KZXOtbZdimguNHrq5p2PxtMnjGRjcLplSNIfxWzwPthpgu1srSx7ZHy/1j15Pb5cg//a48/viH8qfBPoZRSncsH4QI3RSp4cKARnT0NhuqXPjFzxiSpLEQQfK7U5JOa+QHzifmgCk0+ygWRKZJDe5tiCtwvieKSJSTSH81DnHtDSK0NJtIcsrx2YkWUVdF9MioPvhN/XNjoU4fw6gFTCCVCdLL4oNjiwGvS5qRQr2T3047bdBdTXn22WddauDA0fqjLmndXRsnRGxplybmci1ukuYVjTJq+JJomCWP7xl6SfrdCVNERg7NIY+yXodIVPT3GJIpo2Tke0SPBsmQRVPd0MvBQ0cWtUkDNSnLly+P1sQNca0V1s6fK6uj5WLw+3/+584oZdgt0SXqHuKpTOx3NHXAyMX7navFdjnw55r5w6D93/iZZ56Jloy+ePrppzPGHWls+dZm9gb7C4032F/4N954AIjmE6067LDDXIS31gxKjg/SPRGfFO3Trlzh3Md3jeOGz17u2j+jePC7+r8tdoufAWMY9YI1aSgj5KTTmlghnxfjrRjgEffFRm+NIPz0k3I2aVC4gGJkwLx582TGjBluueKs6JTOY8eWrIZoICxcuFDOOusst8w+Q9pVJVg7f5zMXTNGZq1slZ5YYMDHS2XaeYtFTl0gC07ZLm3jItEzepasnNEgS8+fJosJlOzcIi27LJbFa0TGXLFS9n+N1+OBAe6xEnvu/tHfDIzdU1tk10cWB/c1SMs9C2QSh070d7fLGBkzerWsdu8teA6vET1foYD8hxtWy8e/+VPXKCEOEV6833i9y1nfRXczfk+MEDy1CrUspGYppHCRomX0ztixY53zBZi1dsstt7jlQslniCvnWPYZxFA1tNHvD0Tk6M7IPhpvp89xpDOMrB199cM5kjoypT9zFg2jVrAIUhnRSeFKsaJIgJfUN/pIfUgrp512WrQkcvfdd0dLlWabtPcnva5M3HXXXdFS9vdXerYH4macjBsX3hY3LJCVKo7eaMtsH3fedmlZuTIQRw1hRAhxsnKWjFkzV9reaJBJdy2QFpyQP9guDQfOCkTMSmndj+WWQO4gfoLXdWIo/txA7H8lfMz2R7bL/vewvF1Wv4ZADN7bDYE4co8P3pEKreDdtQavv/LAtT3v7/yl8t/BxX6fwyY5A/pPPv52VmobYAiyjVov0vBonEBaXqkht58mDr44AtKU/JTUO+64I1rqHbot4tF3NyKYK5qjFvalJWx9n3ArYqv7vqBJgoojaGlpiZbyAyGEEKVzF7ekmjXO4whVoiX8PnjYa1Ec4dBDvBMxIqXOF0fUVvEd8PnZb00cVT84BHxxhD2BE9cw6hUTSGXGH65Gak2uGSn9wU+1w7DD65dGzjvvvMwARAwQokiVIxBGIzDkmkQmpFMe3XfffVkXLr6/QqGzGxfAQgaqbn9sWiAu5opcHogNBEckgKgZakN0vLZ/ZntGNAX3rUWoBOKG5xIJ+jAQRcGeL5NOHRP8u1rmvoaEgYbgeHALEbmeG9Jw6qRY1GqtrA40TnhM7S/7jw43Z9ivtef9XS4yN3jP0x7b7mr2Rp81T84991zXQvvvfvO+/PCHPWlugFHM8UNjBxo8sFyJBihf/epXoyWRW2+91dW89IZrRT9zpKyKOjl2T+yQQeP95velYpt0rZ8c/V0aoPjL5ePGG2+MlkSOO+44VwfUF1oTqsI4aYgrnbvYz77whS+4ToRE3qt9iGsumKlHhJ9sB6JGfuopHRYZYIsw4juo1ahZvUFK6jvvvBOtBYZhcI5E9FZyhphhVBoTSGWGi6qfvlPM7lSa6qGUywNeKBTPz5w5M1oTufLKK53XtjLQ+htDjtlI0aYUgYDm+1FaW1t3SMsk8kHHIWbpYND4ba15PoYOXmA84rnmsiTRcArRolkiN0RRmOBGRCdXhCYr6c9FdUJxEoqqgP0mhVGkNYEQCrckk/Tc/uBHuG4QF7XS1yNtj+0nnnii3Pu7k+WMMya7LmPUAMU7NfFdcizRrYvOi0ktnEtFc3OziyQps2YFv0cuXJ2cSNtmr9X8sR3SvblN+pYJA4XjKKnF/VjpcHPDSs+iRYvcPqNwrPSGDnHl2CDinjTElRQjugrSbIFIXy231kcUYiS/+uqrOww055hgOCjCiGPEn8dmVD9ECv26I37vpDRkw6gnTCBVAH/+CTnuxWw7jMfU9/qkNdUOQ09TivBeXXzxxW7ZyOaGG25wXuspU6Y4oYRBrzNzMNKJbtDdjtQiPOBc6PCA02ULMAIHZsyTHhdFYYIbNUPjxrWFAicxQvMH0uBE0GJZivYPREooqohILRU5KIoizU+SSA05n5vITg1CS4Ptr64NxFnwX6Y3SUKE665JwasHRKJp7YHR9uCmogmjAO84QonOZxyncUMQwckxhejEmCRNtpCoXH+45pproiWRZcuWyZ133hmtZbNt2ULpGj5VTogL/d2my/RM63oamvipb9H6iHbp1NS8rO3N0kyE1TUziT83XzRKy81rorKiOdqmt7BFfpiqFywXkBpIauTXvva1aE3k7LPPdr9jHKL2/u/H+ZcGKD50nCMaT6SI+gsGutby7Be+E84XOFA4X/hQY8V3gTBihp1FFGoPotLUHik4MGtpeLFh9Bdr0lAh8NKRygBcePDOFYt4oSXTsLkplW7SoKxatcoZq8oVV1whc+bMidaMFStW5DRIDj74YOfxxQOeBKkvPIYCc7q0AcY+Yqvk3t9M44QAokGZJg0NMmZ0II/WRLGmrPtIoVsgCw5cG3tuT5MGyTRiYDlq1LA9EDzXk4yHuApEEmVF0fOKBc1PtFg/SQxhPGNEE70tVecyUu0WLFgQrQXfYWDgjx6dnVPo0usWTZWtXht7xEbT4nB58vKtMmpWU6CyiJYiWobIurnd0tHYLsN2bxWZt1U2zugKRFCHNDPweAvbF8rUzfr4hOcmzgxDSEWvwSpC6Ilm6V401r3HJlkV/B3J8XrBc6eIdCyS4DWC+5fn+hvZ0B1TW6HTNIAUMW2tTXQVw5/fLz6nSMEo1Ah8vdTTsF+T4pyU5s13R6Sa79KoXXAs+KNBcAr5kaRidIA0jGrFBFKFIBUKbz/grcFbiRe1WOAd9b2BpOlo69W0CCT4+te/LjfddFO0FjZtmDZtWrRWvzz66KO9zk4h5Yc8cX5L5rAgiBA+3FjGsKFewCguCCUVS0nw/TMgE0O7mK2OEWaIWxXE/L5EDn3HSk/9UXaqW48oQfzQnr6HRkTRhKdlGMOTnbDyxA0CKWt7wnNn7DBRLCAmkCJUrOnzWO+YGAqgnuVQLLVKW5bQ640zzzxTHnzwwWgtbIlO0wv9nfw26j7atZA0unpqS811AcM4aX7TZz7zGSeMEPxGbRN3pNK9E0Hk2wcmkIx6xlLsKgQXZh3wSgF9vKPWQGFIH52GFNJK0qiFKao+9tgeFzGe8gceeCBaq0+efPJJmTx5souwAV5vxBKGN9FGumfx25IjThtojEGiRYhgWqgTLTRxVBowHEljZdYNqUdxw5p0RrzytOimZom5MVoPNhD4rTkuNPpHjciECROyGrEMnjBVGgMJ0/ugYm2eEN6SBU4u+vlchNagUABtndfTqW/sVW2yfnyYXoeACyNFUU3gMnHzyvpKsbvgggsy4ohIHlE2vOBE2EgdShJH+hviZCDNt17EEfWupOTiPIuLIwQ93wlzw0wc1T6ck3xxRHoxM7wMw+jBBFKF4GJeisGxPhjLCh24qE1JI0uWLMkqRJ86dWreLY1rjYceekgmTpzolqk1oa7igAMOcEII0UvEoFa7Z1UTRB8wxNlvSXWjdik+d4xjDoGEUfrWW28ltowuBAzYxx57LFoTlxpz1FFH9Rg6u02XtpbgeBofG5acIRyU3Do/HI2McGlmuWud9CTZ5CLHc/OA2ijS97JT5bZJ+4R10qaCK9PIoVOaqXcKPsvGzYGAeiJ3rRNzwWh/z2/AccKAWM6peMZ5TR8iIzrElaYLCIJiRuzTDM43xDqDkeNiHTFEZJJ9q1TpoUa6oKmPpl2DtvP2HaqGYViKXUWhBolaJAUDmChBMSElh1QThYuhH62qdIqdgke8qakpq6aGTnd++l2tc91118lVV10VrYmbM0IUaejQodEWI+1ggHK8YaTnEkMYonrrj1GCQ4HudgrC7OGHH5bjjz/erYepdp7kGe6nq/mpckSEmqVD11vapG19q7RuCJaHT5XxGxbKcrd9VSRg4s/tkEb3t+icF3WBdHVLrZHgagy3dzXv0Gp88vJuaX6ipz7K4f6OSPuUDlm4eEnwGtHzY00nqJ257LLLnGFHMw2i8UlwXtMUunpsR63DXf2aEkWHu/aWxmvUJvH0exwGftTQUuwMI8QEUoXxBYzmABcb2tiSxgekXlGQrN7TtAgk4KRNlzY87gpDPalL2nln2pvVJrQXJrXwiSeeiLaI83Y/9dRTLjJhVCekdxEZpg6GTo1xOAYxTFQsacptPrCvnHzyydFayNVXX53V8a5srGiX9sbpOwiZ3tkm7fO7ZPqMniqlbfPbpWvG9IRW4SEIzjVr1jgHjx9996GeE1GEo6keI6105FNhFN/n2L8QRdzi0U6jPvjggw/c0F+F6z+OOB8TSIYRYgKpwmBEUa+gUF9S7As7+eak+CiIJJ31kiaBBAi5U0891dXhKHwfbW1tLqWm1qAZw/Tp07OifNQUPfLIIy4tyKgNiChp0wB/8KZCJEmbO+Q7awfHR0tLS9bMGpq9cKyUzbDxOtQVxA7P21EwAc0pVGQmzSkChCaiCLFZy3OKegMxhDCizijeaZF0UI0Y6XnfqD9wLPgd69gfSK2LYwLJMEJMIKUAxIsWzeY6aQ0U2t76hhQeRLytaRNICqlmpJz5EE3CQ04hcbVDPQCfhSiRz6WXXirt7e3RmlFrII4w+ImW5jL4SQdTsfSXf/mX0dZkiBQw8+f555+PtoSQgsb+VfKW7v0m6lZHOp8jO51OxSS3+JwiBSGAAcf3VMtzinqD9DkVRvFLOed3jRhZ05b6huNIZ+MBzrdc11ETSIYRYgIpBWAMaO0NF3qKvktRMEl6iuajk25B9yaK/tMokID6GwbIfvjhh9GWECJJTMkv5uyocoEXDw9/fNgnBvFtt922Q9qUUbsQLeXYRyz9/Oc/j7ZmQ/SUGhpEQG/e/2uvvdal2PnwPOr4EN3VAPN4iLRhzOUabkxnOu4/7bTTqvL4LxZ0tqTph+/0UhDYiCKiRjbw02BfIW1dTT1S7BFHuZwnJpAMI8QEUkqgLa0aBfHBrsWCwaJMS1fwKtK9KK0CCfhOmJWEeIgzZcoUOe+881xaYtrBe3fvvffKfffdF23pgQgA7c7raRaLkQ0NW4gsIRDofpcE6WMIJW5Jxs2bb74pl19+uTuX+JB6Ro3bOeec456bJvIZ4oqI/Pa3v+2cSOeee66cf/750T31B0IaYeQX2SsIaI0Y0cDCMOhY953vfCfTvRDHKOKot+YcJpAMI8QEUkrgood3FPAAMtemFDAP6V/+5V+iNXFeWGbrpB2EHSl3zz77bLSlB9pgU7d0yimn9JmSVE4oKqctc0dHhzPw4lAvcuWVV7p5LIahYAQjChBLuSIpmoLHLW4M33///TJnzpys41zhOGHG1jHHHBNtKT8aOUMU5RriyrHDMUOXT1oSM++IYyVtAq9cEF3jGkEHvzhEGVUY1UvrciM/4l1sGf2Rq+ujYgLJMEJMIKUEimx9I5o6JC54peDFF1/M5PVjXB100EFVk4qxcuVKufnmm12BehIMnR03bpxrdMCcmnLDxYh6EN7nN7/5zR0KpoGIF3NbdN6RYeQCg1jFRNK+xPHriyWF0zq1bLfcckvijDWMpOOOO87V9R155JEln4FC7ZV+Dm65LjsIIiJgRMN4zhlnnOFSBEtRl1kN8F2RlotAikPEmTQ6boYR5/vf/37WIOl8M1NMIBlGiAmkFEGHGZ1RRAic4aClgK55vucWIVZtBshLL73k0tUef/zxaMuO8JkQf8xKYf7TsGHDonuKBxeh7373u86gYxijP508zvjx412KEEapYRQKAkNFRhKk3alY8tM1Se0kquQbPj5a96gDiUm79eeiDAQVRETDSPdJgggRziGOIdKAaSBDnSHHCk1k6hF+Z64FSbVppFpyzua3NowkiB6TLaIgohkdkQ8mkAwjxARSiiAH//XXX4/WxOUKl6LVMydA6hz8AYL5hN7TCEYEKWxLly7Nmg6eBKmLjY2NbrYQaYUNDQ3OyMDgIDWP4lUiaeRp470mqkdtCEYKHlzy/ukaRqrL5s2bnaDNVTehkMJI6h9pTfVq7BnFRVtfsz/mSlGjrlCbO+jMG5q0MGQWp0KuphAKAol9F48zM8gwyHk9hBevx7FE+2hSung/pAJyTqEbJ++JNDpqHHlcEhy3iCLOd9pogEgWxwppgLx2PcL5hZvWjPjw/fM7MC/PMHJB1NkXORyzX/rSl6K1vjGBZBghJpBSBhEIvK2A8b7PPvu45WKiJ0AMGU21QxQQbanmdrA0QiC1jTolvNGVgosKKX6k+hG9MoxSgZODaANiKcmoBgwkTcFTwbJixQrXJZJ0UAT/QMFDrdHaXN3lEGVaV0S9JWl9iCIiqqTGliqluBrgN0AY4ZCJg+OK79fmohl9gcOOa59e17meI44Kua6bQDKMEBNIKYPZKKRsKTRryOWF7S96AuQk6nuguRATSaoF8KK98sorrr0pKYWIJwq/iw0Rp5EjR7qL0P777+9+r2KlJxlGIWAcaSe8XPu6CiVuWnf0/vvvu/RQGqHQ8cpPzekNuqaRmqcprElweUEUUVfErB4MLtL4SOfjufU6vwj4bnSGkR/NVxCM3NLUeMZIL0RyubbrTEXoTxaKCSTDCDGBlEIw6tUbvMsuu8jQoUPdcrHwT4DULeC5VErZHKLSUC+E53rLli3OY0tqD5530ueofcB7S2oQ6XVE1DAgSbsjpYg0PFJc8OTym+y6667udyFlzzDSBo4PxBL1P6SKxiE1DiGvYon9XUFcIZo4XphBRj2DvhavSy3f3nvv3essFY4tjilElB4r1kwgBENWhVH8t0EwqjBK8/gFI32QYu43ZOnvtdwEkmGEmEBKIVw4N2wIR8xjpNMO2jdgBop/AqQuhlag/uwVUmUQBoZhVD9ElLS5A+I/DucYbe6AIyCJfIa40m6aKDSOhFzCqZ7B+YIwQjzGOxLyGyAgMWjt3GsUSrxjHU4Jam37gwkkwwgxgZRCMGJoY61dn4o9qygukEgT81uMl6r2yTCMysF5BaGElzmpbTRgnGtzB5wyKopyNSOhtgFRxDnDIh7JEJHbtm2bc3zFL7cISY0Ymag0+gMZIER8FSLDRHj7iwkkwwgxgZRSSG2hUxpgeJCzXyziAonXx/uEF0ohjaYSc4QMwyg9pHYhlBBMpMIVAmlgiCIMMb+duJENadKk8vppTwpCFFFE1EhrwQyjUOId66hXox52IBknJpAMI8QEUkqhaJe2vAoRHby0xSBJIIFf+wSIMvMKG0ZtQ3QIZwz1RfHULx/OBThNMOypYTKSoUieNubUN8bhO9SIUT03qDAGDmnxNCDSOjYyQRBHA03RNIFkGCHFK2wxigqpK1xEFdIzSk18MK1GsAzDqD1InaPWkc51LPcmjgAhRSoPNYtERXINfq1X6ECKcfnWW2/tII7w7FM0j9OJuVImjoyBQAdauk36TT4YBGv1a4ZRPCyClGKYG+LP89lvv/1cIfRAyRVBAjyfDEBV6D5F1zbDMKofohuIIW5JM3cAI4sUOjzSRJVyiadPfOITmeYODC+t16gSdVp0+kuq66LFMml0fJ+GUSziHeuKmRJvESTDCDGBlHKYiYRnErjQ4iUaKL0JJGAeil+XUCxhZhhG+UEIabMFnC5J/MEf/EGmrihp7g61StoJLwki3trcoV7qkuhGR4F80neKYCQDgO/EMIoJmR3UKCs0cMo1nLk/mEAyjBATSCkHw2b9+vVuGQ/tIYccMuCi3r4EErsEE/YVWv/mGgRpGEb6IP1NBY06WJJAECGMMOjzgUiSNnfwB1L6cD5RscQMsVqDaBHCKKmzHxE1hFGudumGMRDiHetK0XHWBJJhhJhAqgJeffXVTDrMQOYbKH0JJPBnMQGPGzJkSLRmGEYaUVHEjTqFJEj7QhQhYkiT6y80ktHIUq424ESTNAWv2usjtFV3Umoi3yfCyLr6GaUCRwcZJQrOB+qGi13PZgLJMEJMIFUBeCwpyARSWUaPHu2W+0s+Agmof/LTRzgZ/9Vf/VW0ZhhGGsBwUlGUa4grxzhGPB5nziHFBoFEZInmBAinJBBKKpaob6oGmB3FCASEUfy7JaKPKOJmKchGKUGU00xF90GySL74xS/mvHYPBBNIhhFiAqkKIK2FwbHqEd5zzz2loaHBLfeHfAUSPPfcc9FS6A2mjahhGJWFdvx9DXFl8KiKonKmutHYgagSYimp0x0zWvzmDmns6Mb71oiR3ykMiLohiqgJLYWBahg+XPe5ZnNcKaNGjXLHTykwgWQYISaQqgSGuOLJBIqo9913X7fcHwoRSHiF6Zij7Lbbbu5mGEZ5wXuM6EAU+caSD+IDUURtEal0lYb3yjkEMZd0qSGSpPVKaajb4TtWYRRPUeS9IooQR5/85CejrYZRWt577z3XEERpbGx0reJLhQkkwwgxgVQlMBTutddei9bENU3or0FRiEACQvt+C1tC+2kwvgyj1sFIV1HELdfpGoGBMOLfgUzRLxWkqhFVQiwltcMGapQQS0SVyp3Ky/n1o48+coZo/DvWmXTcqiU10KgNtmzZ4m4KwgiBVEpMIBlGiAmkKsKffYAhMXLkSLdcKIUKJPBT7YhgkWqXRkPMMGoBFUTc4ileCschoohzQTUZ7nwezmMIJn+cgA+fTVPwSpnGxt9n9pueV30+9alPZVLpaINuGOUk3iiJ44HUulJjAskwQkwgVRF4XonmKAcddFC/OkP1RyD57caBjnY81zCM4pDPEFdSuzSFrham5vM5tRNers9MpFzFUrEaTJCiiDDivBaHei2NGJkTyKgE8Ws912ickuUQ6iaQDCPEBFKV8dZbb2XmjzA5mwnahdIfgQQ878c//nG0Fp48MVoMw+gfiAJttpBriCtNARBF3JKGuNYKRHOI5JBS+Lvf/S7amo3f3KE/xiLnL7qC+ucxhbQ+jRgZRqXgnMC19r/+67/cOsc/4qhcjVZMIBlGiAmkKgMDQpsmcOI89NBDC/Zy9lcgAQNkdZehtS31SAOZpWIY9QYpZiqKkgx1BTGgdUX1Bq3LOdfxPSXNc0Icab0S3w8tt3uDCBVDNpOaWxChQhQRlTOMSkKtHtdnv06PQbCcC8qFCSTDCDGBVIWsXr06Mw9hjz32kMGDB7vlfBmIQIoPq9tll11k6NCh0ZphGLnwmy3Quj8JWukjijCIzPEQoil4fG9JkHanYinePIY6Dm5J0TmEFRGjehSgRjqh5oj9VenP9X2gmEAyjBATSFUIbWg/+OADt0wh8YEHHuiW82UgAgneeecdZ+wpNIvAQDEMI5t8hrhyDGtdUSmGuNYKiEqEEpElTTOOQxoSgoeoE9990owovmeEkXXiNNJEvGNdf1PoB4oJJMMIMYFUhZCfz+BYpdAQ/EAFErzwwgsuHQB4Pql2TPc2jHqHWhoVRbmGuHKsaF1ROYe41gqITYQSginXdxxHZxiVu4W4YfQF7eWZd6QQDa2UODGBZBgh1qKnCqGlrz8ojtz6coMgUjBQfM+XYdQbv/nNb9wcnbffflveeOMN+fDDD3cw3KmTwUhnhhm1g6SmmjjqH3/8x3/sOmkecMABst9++znR01sdEqmLNLiwAa9G2qDeyBdHdKccMWJEtGYYRqWwCFKV8stf/lLWrl0brYkzEmiakA/FiCBBfML33nvvbYXORt2Q7xBXvMFEikhDtbbRxYNmF6QbU7PxP//zP9HW3vn93//9rOYOrBtGpaBTHddjbXHP+YGOdZXsVmkRJMMIMYFUxTCXSOd4YIDttddebrkviiWQ4Fvf+lam4BzPF5ElvLuGUauoIOKWa4grzgqOSVJfq2mIazWAUckMI4RRvMMd3zVpdNyI4GknvKTLHI9VscTNSDfaiZDflO6PdCTkNyZ6qwIZwcv1h7o+RAYdCrXmjGYHfXU7LCfsk1yLqZVT0uBkNIFkGCEmkKoYDLR169ZFayKHHHJIXsZYMQUS9RakFClciIYPHx6tGUZtkM8QVxosIIowcDDQjOKCMazCKA6pcyqM4rWQXOK0Xsk3Rn34vYgoIZSsRqmy4HRg3h/dUr/3ve+5zm40JfrVr34VPaJ/II643u25557OmYjxT7SmUl0M4x3reG+kjVYaE0iGEWICqcohzY50O+Dkykm2L4opkGDjxo1u+KJC/rQNWzSqHQwyFUW5hrjisUYUcTPDujTw3XN+QeTE4dylzRfyaYuO8a2d8HDuJEHkQVPwBnpuNPLjzTffdI1/vv3tb8srr7ySM121FHC9wrl4xBFHyNFHH12W9vrUKG7evDlaS5dj0QSSYYSYQKpySDl4//333TKpBWPGjHHLvVFsgQQvvfRSJs2B94FnzgqijWoj3yGupGYhiqy9femgeB1hpGnEPqQwasSov2lTRAIRS9xyRQVJ0VKxZC3Yi8trr70mTz75pCxbtizLwdYbNCfiuOP3oPEGTU74XRgcDKRc0uGQaCPCmmOY35fXJxWvL7h2HX/88XLiiSfKSSedFG0tLvGOdbSb95seVRoTSIYRYgKpyuGCsGbNmkwtBOkDDQ0NbjkXpRBIeNu54ClcxPKtiTKMSsIpUEURt1xDXIkQsV9TV6QGmVF8+C1w/CSlw2EUI4r4HYoJ0SSiSjTdYIxCHESY39zBfv/+gXBZuHChPPTQQy59LhdEBRENo0aNchGexsZG2X333QfU5IR0tk2bNrnUNmb5kcKnzsUkEMennXaanHnmmUWbR0TdFH9XR2TgRMSZmKa6XRNIhhFiAqkG8AfM4Vmlo11vlEIgAXnidJVS8hFrhlEpiFCoKMrlXabxCMY4dUUWES0tCBSMWIzIOAgTjOZC5r31F4QZUQfEUrwJBCCOfLGUpsL/tILgvf322+XOO+9MHJjMsUV6G2lupLvtscce0T2lhQjT6tWrXbOh559/3tW4JTFx4kS58MIL5aCDDoq2FA7nGK69WkvFfoM4SltqrgkkwwgxgVQD0NWJvG2FOSt4v3JRKoEE5JBrNItiaS4AVrBupAUd4ophpLV7cTCAEUXc8m2db/QfjGeEUVJNEEKEiBFipBIgkhBu7DNJYNirUCJVysiG5iZz586Vtra2aEs2p5xyihMfpLWloQX+66+/Lk899ZQsXbo0sebthBNOkMsvv9xdYwsBM4vrrh8VTWutrgkkwwgxgVQjkCqAoQFcrElNyEUpBRJeMlL+FDy+++yzT7RmGOWHfVJT6JKiEwpRIkRRpYzxekM70pF2FYffAWFESl0aIJKEwcwNoz8J6mFULJmwFhctuvLKK10tkA/pcmeddZacccYZqW5s8vjjj7t0QJpHxCGaNGfOnLwHPfvXZ9htt93cLY2YQDKMEBNINQIXbVqjKqQCkB6URCkFEtCdhy49ChdEimsNo1xQR+TXFeU6zemcFG42xLX08DvocFci3z6kHGlHukoOyuwLUsQQSqThJYk7QNipWMp1Hq5VqO+ZPn26yybwIZvgkksuka985SvRluqATrG33XabE0w+iPj29nYXBeuNeMc69nGiR2nFBJJhhJhAqiEo/tQQPrU/1AAlUWqBBOR1a645bVO5OObrbSslGDZcsNR7jRFNLQrpPXSyIj0QbzHGMjOlSKHBG4zBQ7oPF7dddtlFdt11V2fIGelCBRE3TfWMw36IcYMosiGu5QHBijCig1e8BoVW6RxL3EpxLiolCCSEEueVpNoaQCSpWKr1/e2uu+6SCy64IFoLIVIye/Zs1/CgmqEJEVEjapV8pk2bJnfffXe0lg37xbvvvhuthY1evvzlL0dr6cQEkmGEmECqIciXx3sHGB2HHXZYole8HAIJ49T3IPaV9lcKEEEMsX377bdl/fr17kLVW4pVoSCc8ASOHDnSCUCaYyCcjPKSzxBXukQhirhZTVz5QDSoM0LHACjUKCKKcDrUQpSF/VAjS0mdEDkncx7UG+u1xDnnnCP3339/tBYya9Ysuf7666O12mDRokXy9a9/3f3OCqLn4Ycfzmouwf7AtVb3hWoZf2ECyTBCTCDVGK+++mrGSET8JE3mLodAgq1bt8r3v//9aE3cxWPw4MHRWmlYtWqVPPfcc64rES1dyw0C6fDDD3cdmZqamqwdcInIZ4grzgEVRWmpZakXOAchjIgYxTvBYShqxChN7Y2LCfslBrRvRPvwuTWqVO01bwiBSZMmyYsvvhhtEecMo2vdAQccEG2pLXC0XXzxxfLII49EW8JOizR3oAtfvGMd0La8Ghp5mEAyjBATSDXGRx99lBEGeGWT2pKWSyAB3fW01oAaAzxtxa4vQBCRH073oVydyXwQMQg1DDSaSFCHwnvi+8KrjWeXORXMQ+G9Y4CThkeEDk843zE55X0dOhhBdD3CeBg/fny01egv/B4qinob4orRiSgqR0toIxuOP4ZycpzE4fhSYVQvjgPOERpVSprrBEQ0VSyluWlBEny24447zqV3KzRgiEeSahVEIEJJ4Rq3fPlyl77rn6OGDx/u9vtqwASSYYSYQKoxSG2ji5x6bffee293svYpp0DiffieRcRIoS1Sk8CDd99998kDDzyQVQAbB68dooy/yXdBXVYxjDME1MaNG92wQ4wDGmSQzpeLz3/+827g4Nlnn+2MdyM/OD3lM8QVgcv3yr5uUbvyQxQBYZQUMaHmS5sv1FpaWSFwbub7QVQktTQH9mMVS2mvx+IcfOSRR2ZdT2644QaXflZPPPvsszJ58uRMJJsaLLIHFLI4uM5WCyaQDCPEBFIN4g9sJbWIvGefcgokINWmq6srWhM3Eb2/tTq0Sr311lud5y7JWMYQ4+J01FFHuRqscrbbJdr00ksvuSLezs7OrKG5Pl/96lddNye+ByOZfIa4ksuvKXRpz+uvVYiKcEwiYuNg7GvEyMiGc4VGlnLVzZGOhVDi9id/8ifR1vTAUFdSmZV7773X1SHVIzjJmOXEOf2yyy6LtoajA3DMVRMmkAwjxARSDUJnJQbeKfvuu29WWlu5BRLwfvyWuIi2QupCMCLoIHTjjTdGW3rAOG5ubpaTTz7Z1f+kBerByElfsmSJ87DHITWD7k69DfWtJ0jPUlGUK1WSjogqivx92igvmm6alDaGYY8oikeujWSIJmlkKanzImlbKpS4pSFCeu6557oIvlLP4kihEdC8efMy3fqIqHJdqrYGJCaQDCPEBFKNQsc2LrgQ92JVQiCxm/ntUZMiW7lgWB9CAqPMZ6+99nIX5alTp6a62JvPzmfAoPjOd74TbQ0h/YguT/HWuPUC0SEVRUSNckE9EaIIA9GoHDRd4JbUDZLUMIQR7fCN/sExoJEl0njjUCOpKXjcEE/l5hvf+IZLFVbmzp0rl19+ebRW39C5lVbnXHOpRSKL4cEHH4zurQ5MIBlGiAmkGgXPrl84S2cdncFRCYEEeJw3bNgQrYXNEnpLM6MZwte+9jV55plnoi0h1BMxiLCvAX1phM9y8803u+iSD+kqpA4OGzYs2lK7kBqpdUUUMicZgoCIRhRhbNRz7UoaII2O4zepdgbxijCySGhxwSGEWOI4SYLIuYqlcnVHYx8YOnRoJi1wypQprr11YWyT9hFDpDW4FExe3i0dx0abM/Tc3zhvq2ycUdrOp8WGaNp5550XrYl0dHS4GqVqwQSSYYSYQKphaBygqV1+oWilBBK8+eab4rdlRuwkGVakppHG4RtkGGFXX32165JU7XDRvPbaa7PaoJM+ds8997iIWC2ikSJuuYa4si8iiBBGtdoCuprASUHEyE+PVaj342Yt1EsLjW40qpRrjhvHjUaVSll3ecYZZ8hDDz3klrmmvPfee/2s/4tEkLTJ1vemS5YE2tIuzRMWyvopq6pOHCmk2TEvCeiYynDySkT7+oMJJMMI+f1rAqJlo8bghKzeRzx+OoOIC62C57Gc090ROVu2bInWwmJljGH/4oEIuvDCC11bZ+Wiiy5yKQv5puWlHdID9TMyoR2IpPAZMUZpMlELaHczmnTwL7VF8bk47H90+aPDIFP3aXWMWDQqA/shDUYwfjlX+GKW2VIcw/xW/GZpbB5Qa/CdI3q0EyDHC7+J/7uwzLFGhIc0PYbyko7HrVjg3OKcpZAy3P8GBD+XN978sfz1v3XKz488X/b3NPa2hW/Iz/deL+ulWc4/oLranivMf6LVOed3HII4ew488MDo3nTj2wdcmw2jXvm96F+jBuHkpgYMF1DSZNIA4kDh4uG36SZ6QmRF2XnnnWXlypVy22231WREgba4L7/8clZqHSl4NJyoVhiOyJBgDCqimBjb8U5dCGIMPtqwk/7JEOFyRjKNHcGo5lhkTACRTZ1fBgjWXXbZRfbff38njsrZHdLogXMgji4McAxuojjx8yJCiU6mpPESDeC87zub+ssdd9wRLYmMHTtWTjrppGitv4ySOXNHSuu1ndE6dMrs9xrlhGjNsaLZnS/cbQqP7ZRmlke0S+f8Yd72pMcC0apoW3QbNp8Oo9HrZD22OBDJo25WIX3aMIzqwgRSDcOJv6GhIVoL6wjSAMLNz5nHgCbSxUBV5hopxx57rKuj8mdK1CJjxoxxhoxfU/XEE084IyQebUkrGGDsX3wOImIY2H4qpULNBF5nImQjRowoW+2EkRsaZWBQM9SZVCDfmCZaQa0gwojaE4aaGumA34IUac4fzHrjXB+PvFLj9/777zuxxMw2ogP9OadwbNONU7n00kujpQFybLNMXtwRSJWIFV0y6qqx0QoE4mbWemnb3C3d3auix46Vjs1t0rihVVpllbc96bEBK2ZL60geF2xfPllkeJusmiGBaGqVUe6xW6VtfZM0r3B/sGhQJ4tQAmouNTXRMIzqwARSjeOHyElv8qd7VxIiBz7M01i1alW0Fs4KIt2sXgq/8QI/+uijWTM0GEDIbI20gsFBITkdEzHAMMSS9i+iDY2Nja6jEznt1v45HRDpY9gxvx1OCiJICpFnGqggjPjX5kylG9JSiewx5mDUqFE7HGM0RkEcIZIQwrmO1VzgsFE4d3MsF4exMmfeeml1ER2Rzk0iJ+zmFiMGy/T3Nsp0aZdhg5qkR6IFOKHj1yjleGzjKGlc3xXIp2jZbeySdRu6pHV3IkhhQ4j1m8L3UCxwUDIcXKGu1jCM6sEEUo2D4U2amkIdSFoYOXJktBR2LNPhsYgEWqXWI8x5Yt6TQnqhf5FNA9Q4UFOEofXOO++4AvL40F4MbH7Pgw46SPbbbz+3D6ZhfosRzt2hmySRPs4HfhdBohJEikjh4vcrZ32iURyIWmiUlnTmuJPJj/YijokeJs1p8+E8pEycODFaKg6DZ7TJyEVPy7Yt7dIhJ2Q3bAjonBKImAkiq4gKRdtykfjY3aZL28hWGUIq3e4LZeoybQoxOXgcEaTwVoqGEH5WwHPPPZdzvpthGOnDBFId4HsT8RqmJW2LeSl+nQNpCKRuJA2DrSeuuOIK8XunMEfjpptuitYqAxd2mmusXbvWzXL6wQ9+4FKzfGjFTZoP6T6jR492kYdqG5JYy9ABjQjCG2+84Yr5fYjyUQdHxIhaI2uSUf0QwSCDgE6hRHyI4saHK1MbSPSQWkH2C1Is4x0LiSyuXr06Wgvrj4rLWGkOBExTIGyadxApndKxOBAy8U53XeukK1rsIcdjVzRL64itkRDaKNNdhKpRRg1fkolcuc55ulxEEKrq+AMEqWEY1cGg4KRhbb7rAKZ8I0CAqJIWxJe7zbcPqVlcQJg2jiebDk1+nnu9wywNZmooRGyIyJSLfIe4InQxxGxAaDrh90MQaUdLH1KzOO5omGHUBziltG14vHmKQm2gtg0n2qjdQ6khTNqPCqNnzhFpcq7NdyBQhl3bKBsXjXVRoKbF4SMb562RqYtGh49Vhk+V8RsWynKWW9qkbX1r9FqzZJbMlblZjw1ef5lI0+6tnqBqlLbNCCWaNGgqHtGkjkCqFZ+WlhZ55JFH3DINiK688kq3nFaszbdhhJhAqhMQR4gkwLPIBZB/KymQSAF54YUX3PLw4cNdQwZL6cmGTlWvv/66Wyb3/+2333bLpYJUORVF3HINccWwRhRxsyGu6YT6MIQRQ6PjkHaFMGLIq1G/kG6JUEIw+W3DFa4RbKeDHVEm0qL9aFJVsKJd2hunR5Ej6JT2+Y0yvUwzlsiIuPzyy90yYknnI6UVE0iGEWIpdnUC3v0///M/d8to4nh6VLmho4+KI7j99ttNHCXgt9Ylte2WW26J1oqL3+2KyB7GdVwckS5H2hzpc9o1y8RR+mCwK8Ys9WFxcUREgCJ+0q5MHBmkVlJzduihhzoHDJFE5i4pXCuoHST1mXP0vvvuG91TLdDZbmG0HLGiS2RCecQR4IhQOK8ahlEdmECqI/wT9W9/+9toqTL4dUYMgWUWjrEjeGyvuuqqaC383vxuYwMhn3kpDJqkwQKNFkjvI5/ehoOmE34/6kgY8BovuqcOEQMYcaSthw3Dh6wCWu8feeSRss8+++yQMst69aXRDpbpzFpy3eqi2xONXjSp9Pit8XOlNBqGkT4sxa6OIH2KOhZNpSCixAWx3Cl2pBicdtppbpl6KAy7emnn3R9oqkG0RiecM3Tw4osvdsuFQmtnTZ9LmlOkaPqc/S7p56OPPnKpdPy2cbS+iJRIwygUzj0LFy7MnCtI1W5vb3fLRn489dRTmaG6OJm4BqcZS7EzjBCLINURdKbyB8dWKs3OH5h34YUXmhHeB6Sx8T0pdLUrhHyHuPI70BY4V3tgIz1guNJxDGNr06ZNWeKI/eXzn/+860hHbZ+JI6O/sC/hWGP0AjfEuFEYdI9U4l0EDcNILyaQ6gyiAgqpWvGWrqVm69at8vLLL0drkroZP2ll6tSp0ZK4Vs00tOgN6ofyGeJKFFFrEKhLYf8gDcVIJ4jdzZs3O2HEv36bfGpFBg8e7IQRLbu15tAwBoKfmk1LcKMw/O/Md1AahpFuTCDVGRTak9am0L2onDAsT8GQwzg3+oa6kXHjxkVr2d+jjw5xRRTlGuLK7z9kyBDXIU/n3lBrZKQXhBCRIiKARI78WjF+T2rD+C332GMPmz1lFBXmJyk4Z+LnE6N3OA8r/ndpGEa6MYFUh/gCiS5X8cL8UoKBpxxxxBHRkpEP/vflf4/5DHGlMxWeYOaZjBkzxrV394uHjXRChHfjxo3u9ya9yW/Q8clPftL9jggjugta8wyjFLBvacdDItN+BoDRN37Nkc6TMgwj/ZhAqkNIxfEjBuXMK/e9abSKNvLH/76oKUIIIYgQRggkhFIcIk90pKIzFfUon/70p6N7jDRDjRjd6JiBxRBlv+U6TVXwRCOMiARa9M8oNYcffni0JLJ8uRvRauQB35V2ruNcbALJMKoH62JXh1CsT9RIDWoE02GHHeaWSw2zjrSLHrnZpHcVxIpmGTQ+nH2eRcsq6V7Ujzno0es1ztsqq6RJhszsksnLu6Xj2Oj+QvBea2MJhhASTZgwYYKbRYJY4ndLgkJg7UJHYw6jeiCiyxwj7Vjow+9KRzoigdVQJ8ZnoVsiReqca0gT5NhH7FH8j7AjHZBZPLSYpoU0y0b6ePLJJ2XixIlumd+KekarVeybSZMmyeOPP+6Wzz33XLnnnnvccpqxLnaGEWICqQ7REyCGC92wgKJuOl+VErzifkctZjH1azgsQmTWKNn63nQJZcg2aZ/fJdNn9EMgBWybPyyQRqucqOmcMkg6JvZTIAX4r1VsaLiQq2aMdCsVRSwb1QVCglbd/BuHqB+iiN82jbBfrl+/XjZs2ODqpIhmEpXuz6w1GkvQaIK0LuoTGUPALDDWjcrC/qfCnQHWF1xwgVvOi1yOreFt3nm8P3RK86AmWTLg1yk+pMbuueee0ZrImjVr5OCDD47W0osJJMMIsRS7OsavRSJlq9T4BhMe5H6Jo0QG91scVRNxg5O6IkQtESUuvLvttpuJoyoDg5OOhOvWrdtBHP3N3/yNEwek5aRJHL355psyd+5c1w6edL+9995bTj/9dGlra5OVK1c6kdTfQdREmmgEQMRizpw5zgNPnRU1MCeeeKLcfvvtriOjUX7OO++8aEncb12Qb/XYDulePjkURMHzeG539yqZvKFVhoxol1574wXiqnlFtLwDY6Vjc5uksfXBTTfdFC2JjB49uirEkWEYPZhAqmMQSBjZQPpWUhvoYuKnhBG50ujVgNjSLs3zey6vRHDCienDpH1LtDF4zDC3bZAMyzwWzyPbmuXpaEuGTfp4fY1t0j4ifH6u1x00pTPaqOjrD+rl4l4YRPkokKbo95prrnHpiWyz2RrVB2l0b731lhMDpKL5kGqG55Yby2ng+eefdwYyKX777befXHHFFfLCCy8kDqf1YZYWnfW++MUvOiORWjiEFQ1HMBj5jHTg62sfZkDp008/7QYkU0tHDRZzefgOjfJwySWXZH4n6h/ZBwZGIG4ikTS7l3Nk5xMJkaeUQ5fRRYsWRWsi06dPj5YMw6gWTCDVMYgj7U4EXPRKSXxgZVI6Ud7geUSA7N4q66NNeBqHvBd6NruXj5TWCXgmA6Gy+zppizyWI2c2BQIHwdMqozazrVnWzeyKXiBkSXBdWxU8fus8CV9jxWxpHbnKvS7bFi5DZPG6C2Wqe43gIr+4tUc4wYoOkeXc1/90vTjUbMybN09uuOEGZxjaANDqg4YLNNWgAcPPfvazaGsIUSKiRUSNiB5VGuYszZ49W3beeWc5+uij5d57701M8SQtjs6IF110kSxYsEBeeuklN++MeiOcLkSU3n77bVm9erUTWhiPiCtSjoiekZLHd0ExO4/t7OyUW2+9Vc4++2xXa5dUR8fjOBaInvJ93XzzzVkDOY3iw+989dVXR2vizkMD72g3VppbgnPuEziYdnREkfLctDi4f3zk3CJVL3I8xZ1STwePzdqe9NjIqTVsfqe0T4kiV4kOtP5Dp0lfEFE3euyxRboIGIZRPgIDzqgzAqMkc/vhD3/Y/eyzz2Zu//mf/xk9qjTssssu5GW4W2AgRVsLZPnkbhne1r2V5c1t3ZPnuaXurfMaM68d3iZ3rwrub8zaJt2T7w226fOj5zVGr7GqJbh/uVsMWNU9mdfQteA+nu8ey+u26D09uNcaHryPhPsGyoYNGzKf4c/+7M+irUba+d///d/ubdu2db/66qtZxxq3QCy43zUQCNGjKw/H5cknn5zZ1+K3T33qU92B0dd9++23d69fvz56Vun4f//v/3W/9tpr3XPnzu0+/PDDE98Tt9/7vd/rPv/887s3btwYPdMoBYEYznzn//iP/9gdCNPonj7wz9se7rzN+ZL7o/Nm8jl5a3dbcG5t2+y29pybo3N8+Bi2s5z82K3zJrtt7m+69+Kf41nW5/Sf0047LfP9/P7v/353IOaje6oD3z4wjHrGIkh1Dl2kPve5z0VrpY8iUXStBCfgaGkA7DZdOryGCHSQC/br6NYhrjIpK++9WzoOdQ/Nj+GjpDHyMNK8IbiwRncErO9KzJ3vGjlSJi/ukHjS3UChpbfif49GOsGTzFBXUiKJePjpaNTgEZmhVTeF3GlIk6Sl+Pjx410qnHbeUuguN3XqVFdjRDou6W4XXnihayFfaoh0H3DAAXL55ZfLiy++6OqUOjo6XE2SD93x7rrrLpd2SvSJyJRRfG677Ta3/8L3v/99aW5udsv9peu9KIJPndKisS5qRDfRHRks09/bKNOF83GTZCXeBef4OS5IM1bmBOfo9Zsk8bGDh4q07j5IZg/dKN00ddjSJeuDe5tcBInHdcm6pD+dJ6Q+P/zww9GayJ133ulSTA3DqD5MIBlZBeB00ipKbVAOqF9Qvv3tb0dLxWHw0JHSNXN2Rph0TmmWzt0aZaSf407Bb5e/bZs8vSj5irhtfqusn3KCyLKFIoHwykqVS3rdYJmLfeOIOdKxXKRph7qkgeF/XxjWRjqhQQHpaQx35V9/aC9pkswuwuCnjoYmB5WGYx7xc+CBB8qKFdnFIIcccoirpSAF7hvf+IY0NTVF91QOvrPJkye7Rg4//elP5ZZbbpG99torujeE90rnO+pkSnk+q0f4rhcuDM6JEc8++6x85StfidYKpVM6FotMnjg2k+q2gyPKA/E0aAIp0KtkcrQtiZFDw46kOzwWEdbdLc1PBPdpc4i4A62f2XDt7e3yz//8z9Fa2NTCb2xhGEaVEZwQjDrDD6H/8pe/dNvefPPNTNrPhx9+6LaVgu985zuZ9ANugYET3ZMnpGHo83Ola0T3a4qGpmBkPSfzOo3dk1t4jp+OET1W0+T8vxndXDpH/HW9x01e3vM6mfcxQP7iL/4i8/rPP/98tNVIC7/61a+6u7q6ul988cWsNDpuq1ev7g7EUncglqJHp4M777yz+5Of/GRmv9LbKaec4tLaqolnnnmm+7DDDtvhs+y2227dy5Ytix5lFItrr70263ueOHFidE8OOD9mnbOjc2S0zU+r85d7Uuzi6XBeil3mdXV78mN5XU2hXhWc99s2c5++fkDwHjPLBUD6p/9dNDU1RfdUH759YBj1jAmkOsQ/AapA2r59e8aYe/nll922UrHnnntmLiTt7e3RVqM3Hnjggcx39rnPfS7aaqSBX/ziF66OCNHqiyJur7zySvfWrVu7//u//zt6dDqg9pA6It2n9Hb88cd3v/XWW9GjqpPly5d377fffjt8tosuuih6hFEsZsyYkfUdU5/EtWQHEpxM7ubXauZwRKnTq3Hemu624dn3++Iq3KaOLmqQdnzsmnlt3ZOjWtLM305yoBXAxRdfnPV3+A7S5ggpBN8+MIx6ZhD/Cw5qo47wB8ExY4SUFfL3X3311Uw6EGkUpZq9QvcpWvQCLX6tVqBvaJMcXLDc8te//nXXQcqoLKSdkZ5Gy+44dPxiuCttsbVeIy3QQe7MM8/Met+k+11//fWu41atcPfdd8usWbMkELDRljDF98EHH7S6kCJCbdiNN94YrYnb5+l4mIZ0zFLCMGRS6OjMqNDGftmyZVU9j84GxRpGiNUgGQ4KoTHoFNoRlwouKjSHAIrYadFr5OaBBx7Iamhhee2VhblF77zzjmu1HhdHtF5nTg81YgzxTZs4uv/++90cIv99f+1rX3NT/2tJHMFXv/pV97kmTpwYbRF54403XP0XzR6M4oCzhsGxCvvWuHHjMk6wWuShhx5y7eV9cXTqqae6dRvWbRi1gQkkI4MfMfr5z3++w5yWYoF33b94XnnllSXvnlet4P3m+1EwZul+ZpQf5natW7fOidV/+7d/i7aGfOYzn5G9997bze3xHQ1pYv78+XLOOedEa6GYo9FBLTsoOKfRkc//jDR2wNPPZzeKA3N/6Gz46U9/OtoSZgrgLHjmmWeiLdXP+++/LyeccIKcccYZ7hqp0Jxh8eLF0ZphGLWACSQjw5/8yZ9IQ0NDtFbalt8Y/XSZgv/6r/9yE/KNHWH4pg7nZHjoVVdd5ZaN8vHDH/7QtVhHHMWHG3/2s591nmRSIP12+WkDcTRz5sxoTWTUqFFuYG28VXatgmOBAbUIWYXIEka9URyIQOI88FPrEBRsP+6449z+FoeU7v/v//v/orX0QUt5Bh7jEGEfQvCRQqcMHjzYtb6387Jh1B4mkIws/CgSFwVaFpcKPIzKN7/5TTdDwuiB9sW0WFYwctMwL6deoL6INLrvfe97Lurg83d/93fyhS98wQmNv/3bv422phPS6nxxdPjhh8vq1atl6NCh0Zb6gNRCWuXTZl1BIPJdGMVBBQOzkv74j/842iqyfPlyl9pI9OWll15y237961/LmjVr3M2PxqQFZpch6qjZY5+59dZbo3tCSOF87733ar7WyjDqFRNIRhak3eAVV0oZRTr++ONdaoZCmgLzSwxxaUGXXnpptCZy1llnyWmnnRatGaWE+jsMow0bNuyQZkoBOml0DEj967/+62hresEY9dPqDjvsMDe3Jg3zlyoBzWc6Oztll112ibaEtSPbt2+P1oxiQOSbIbI0A/Eh+oJA33fffZ2QAgYq//jHP3bLaQGH3ZtvvumWP/GJT7jhw8rBBx/sjiuGEmstrWEYtYcJJGMH/ChSqQ0HinuPOeaYaE3cBPxHHnkkWqtPuDhPmjQpWguHwhIFMEoHw0S3bdvmhrtS2E9qjUIDExou0AFtxIgRzolQDVC/5osjRB0pZRh89Qwd7Kg/UuOWpgLnnnuuWzaKB+naDJSlMQaRI5+3337bdU5V1q9fX7Ka13whUnTBBRe46x/OO7+7Ko4RUmk7OjpcxOvQQw+N7jEMo1YxgWTsAOlDf/EXf+GWyQ8vZUc74KLDxUdpaWlxbWLrEb4LLs4KbdCXLFkSrRnFhvoCOikijD744AP51a9+Fd0Teo6JNCBQ8SDrMVEtEIHcunWrW6a+kHRNGqQYYfvihx9+OFoTF1XzO7EZxYNo0VNPPeUiMhoFp628Oho4Bpubm12DB6Iz1KfSDa6UaXdMNyF9ljRmaqQ4LkjBJCpEzSH86Ec/cv/C1KlTXQ3i5MmToy2GYdQ6NgepDkmagxSH1Lquri63jKf1oIMOcsulgpkS5HLjvVdmz54t1113XbRW+9x0001uxpGCB3bVqlUuamEUF4rDiY5SZ4SB5vNHf/RHrhMdN4RFNUIamV8bweyf008/PVozFLppai0kLdmJGvjpd0bxIWJHLRhNZ+D111+XOXPmuOU4XJ84/1Evt9tuu7kOnhyX1P2p2KftPtcrUsP9JkMc46Tu0eSG+3EW4AQhdZa6wt6aQyDWmO9EUwbgvdbLTCCbg2QYISaQ6pB8BBJ54QyOVeORE6Ve0EoFkaqTTjrJdQxT6H60YMGCVHcIGyikc1HwS/RIwSDA6+rnvhsDhwgRoohb3EBifgmpNBhgiKRqhqgXqU1AtzZq2oxkMMAxmoFaP0tnLT10u0PYAM0QSMXT3yBf/uAP/sBdu66++mp3HYMrrrjCOT44znXoeb4gunAqjB8/3l13eH86f47oMSm29YAJJMMIsRQ7IxEuPv48FyI8pYY6DzyLXJwU6nGYL+N3c6slEEEUjvviiPz2l19+2cRREaEeh5bDeKvZl31x9KlPfcoJUkQFKY3VLo6oM1JxBNdee220ZCSBga3QJIbmAkZpUYcXAueSSy5x3eA2b94s9913n0uxJlrUFzjx/uM//iOrsyfCiKhRPuKIJisMtL3xxhtd+h9dWxFqev0hBVAHPVdbeq1hGAPHIkh1SD4RJOBiQ22GcuCBBzpjshyQ3sCFy4faHFqBI5iqHYwBDLNHH3002hJCkfAdd9wRrRkDBQOKlB5ucTB6cAIQNaIRQ61A0xNm/sB5553nIrBG75BCrOe6GTNmZI0gMEoDIyT8VuBxmDn27rvvOscGqXHUCpJlQMqc30Rl6dKlmXQ7mpL4jYVwdiDGSL2jVTez93A84ZTCGdIXiDDm9NWTQLIIkmGEmECqQ/IVSIBnT41LjEnNyS4HtIRlgGy8kx7paK2trW7mRrWBl5Ji8Pb29mhLCDnvzA6h5bAxcEiPIY2O7zsOnmEVRrUGdRa+4ffOO+/UhEOh1CxevFimTJniluliliSojeKAyOG4ZD/1B/cWAhEiut7953/+p4sIqxlDGjh1gzjyiCwNtCkJ3S0RZDhQavF8kYQJJMMIsRQ7o1f8lt8YnFwwygXdhchLnzZtWrQl5O6773beQFqC+yfzNIMX9MILL3QX2bg4orMT95s4Gjh0nmKfoHYgLo5IqaHVNXOMqtXYITWQ4/B3v/tdtCUbnS0DpAyaOMoPjj2NjmMQ2/DY0kA0hkY8RHY55/UXRBDXJhx8vo+XyBARItK1i9GxEYcD7xNHIe/ZMIz6wQSS0St4+HwvXzlqkXy4yCGIMFgYculDvcAXvvAFt/2BBx5wF980gZiktmjs2LEu8nbnnXdmzf7AgKW98EMPPeRaqxv9h9a8NPdgnkp86CTF16NGjXL7SrV/z3xGnAavvPJKosFGDZ9iE/7zZ9CgQe44VUwglQa/dfYf/uEfRkv9h99Nawapm+VWTPwOl5We02QYRnkxgWT0iR9FKvVMpFyMHj1avvWtb7mmBgcccEC0NQSjkDkVpFTQsYv5Jv6FuJxgtDK3iLke5K3jmUYE+ZC2wDBcGgYcffTR0VajPxBNocCatr0//elPo60h1B588YtfdDO2aAFcC6i3HPGNWIqngvkdIEvdmr/WoMZS8b9Ho3j45+ViHZM4n3CCEB0uNn6b/7Q54AzDKC1Wg1SHFFKDBOwiGPM6RJM0Bl80VQJEB8Nk6XKXC4QIRiKDCoke5FOUWyjM1yCdCyOdIm/+zQViiCJiUgeNgYFQRxz5xdoK9UXc/O5WtQKfF+Od4nEF45CUU6KT1LIpPLavY9vogagcjhjg+6QpgFE8SAulO6fCuZkZe2mGyDTOF6B2kfTcWsdqkAwjxARSHVKoQAJysbX9bZpmQtANjjS2xx57zHU66g0MZvLT6WREgwc6G5FyRW0K93GxJl2DglyMTdIrfv3rXwsT3YlOUNNCwwjSDPm7DNLVWR654O9MmjTJRZTK2eCiFqH+Roe78rv40I6XuiKEUTFqD9IM3b84hilQ9+E7oFaCfZx2ybT7zost7TJs91ZhLHTjvK2ycUbU/CTX9mLhvf7k5Vtl1BNPywmLpkulWq8guhlECqR/5arzMvoH0U72T6Dey4/YDQScUkR3Ghsbiz4vj3O/Or24NhxyyCFuuZYxgWQYISaQ6pD+CCSMMgbHapMGPGl41NIEF7IVK1a46BK1KJUCIUSrZWZsHHzwwdFWo79gqCKMMLDi8010Xhe3tHujiwnHIQ4LIphJ4NCg22MhbJs/TIbMFGnbvFGmZ8bQdEr7/EaZXrA42ibtU3oTPMH9I4bIurnd0nFs8FemDJKm9W2y9b3KCSQibn47Z/a13tpQG4VB8wvadgPXHaJ0A4XfbO3atW65FBEeIrUvvfSSW8YBccQRR7jlWsYEkmGEWA2SkRcYChihSi7DrJKQSnf99dfLunXrXJSBWiDmClGHogP/SgENAM4991xX+7Rt2zbnJWWOiomjgYFXGBFAeueWLVuyxBH7I8MkaXSxxx571JU4Qiiyj/d2DGpaUGFMlbZ5Iq0T2gP5MkC2PC0L+/RRNMqoxnBp7KKt0jYyXK4UFPwbpYO07BEjRrgIZzHEEfhNFPzhz8UCB4x2vKQznmEY9YNFkOqQ/kSQ4Be/+EXWhP4xY8ZUjYeV3ZzuX5s2bXLGNmlyGJqkzZE+x2cjbcu/4HJxxPAmZYtOfqTjcbHcZZddXD3T0KFDZc899yx656R6h9QxBC6/T9zo4ffQVLpidMGqNhA+1EXkgn34qquucp38GLRZCNvmt0vXjBOka8QQWThFU+r8CFKnNA9qkiU8uGWVdC8Sb71N2ta3SusGkcn3tsn6c8PUuWBNVnV3SE9/uB7CiFWXTF4eRpF8XERpcbgc3h/97eFtsmrKQmkKnhe+h+CVvVS9kMZYFCw/iFKqEcwx7Z8LjIHBd8m5lnNoMY9bmj5otkC91AiVGosgGUaICaQ6pL8CCRg8qfNlqK/Be19LcDhQf0QdknmUywsiFWHELX5aYh/VVLpSRgPTAil0dETEAEToYLgTMcNBwfekUBdBGpC2j2fGFt0egaYqhUTWQoE0PRAzoRiRSJiEAil47RHBtmUIDz89ruexzU8Mko6JkdhBtEwQWdVHypyKpCwhtaJZhm2aEwo0J34WylQEj4RCSFw9VFfwdzukOXiOBGJK/y7CqnVE/+qlaLKinf9wghANNoqDDhxHHFF7VCyR5KftUUtKM55ig7ij5pR/qXOq9bRLE0iGEWIpdkZBpKHldylBFGGAmzgqHwgBjByMf7z4vjiieQY1XaTSUUBf6+KI7wID5cUXX3T/IhYxzDSdDocEhiBRNFJHcXCoOKIlsRbBQ//S7GCsdCyfLEvGNwdSSemSdRu6pHX3QcGxMcRFitZvQkAEj93cJuvHe+KoAAbP2Oh+71UtS6RpUPj3Op9YIiOHRgJnt+nS1tIlC5dFYoUIUkz8NI5ojN5LuNxf1NCGWnP8VBp1qrEvFzMVzn+tUp0biMZyXsJZgcgzDKM+MIFkFASzK7Q5A17uNNYiGdUBhgcRybffftt5gn1oV007eerKiBrVg2ClEQrfRXzQLegxx/eCl5xaDtI+/TQ6vidEk0JEpN8c2xGKlikd0QYgytPtBA23TJSma10gXBpjgqovaOLQU+vkapCGL5GOFdEGD0RPRjAlMHhGm4ycOcTtI0MWTd1BQOWL/33536MxMNhHtbkPIv6Tn/ykWy4G/pyiUrX1VwcE+NFbwzBqGxNIRsH4USQTSEah4IklOsJNPcvK3/zN37jBrl/60pcqPmurlNA+eOPGja5DFjfq4Ejr9CF9jjRWUpJoBJKEP90f8eS3Ie7szF+uJDF20SqZvHiJLHRrjTIqEDCt8yNJs6VdmlkmBe6JZtn43kbZOm+9NI0ooMHD+laZnRFERKjCpg1jJ/rRq23y9KKR0kxkKhBiPXVGPXROaZVRmyPhNoAueM8991y0FA6mNoqDPxyWmV3FBCcBEea9997bHSulwBdh8S6ahmHULiaQjILBcNWLBp3GCi0GN+oTokQMOaWoOh4loXibfHduxTai0gR1LQwkpSU9KarUD3Gj8QJ1GQghjQQhdkj1YmZMErQ/J2UJiJ7Qorqpqcmtw5o1a5wIywdqd4bMbM2kuYWE6XNhc7nBMv29VZlIzaDd10kzdUA0R1jfFcgYhEwgXza0yhBE0m6NMpLlrNeLMWWVq1tyr+fqmKLGChq9ctupdaI2qVOaxy8JX39Ku6uHWhL8hyD71AiJUv+iWyEiLWLp0qUZsYlIP/zww92yMTAQraUUSDgV2O/5zUqFL5Di89cMw6hdBgUnMGvSUGf4RZiFNmlQKFrVSfN48SwlxciFNl4gahIHsY0gIPpRi2gDBaJBRFsZLhyH2gmiZtQWFQJpS9QqAd8fUTc47LDD5Nvf/rZbvuiii+S2225zy7VK5/x2aZzhRY5WBAKqcXpBXez87+ziiy+WW2+91S0bAwMBr99rKQatUhNE3R3HEMPLczkTBgIm0vPPPx+tifsMfJZaxbcPrEmDUc9YBMnoF376E+lB8an+Rn2DKEAQMMOI9uq+OMLL39DQ4Awa6oxqTRzRPY5I0VtvveXS54gYkZoTLyKnZoKZMLTLL1QcAa9HjRZODtKMlLPPPjtaErn99ttruxvblnZpXRQtR3RuEjmhAHG0cuXKjBEPZ511VrRkDBSioqS+0fmNurliQ1MT0K6PpYDzld8NMp4KaxhGbWIRpDqkGBEkwPAlMgBEAXwjzahPiJhoxCiejvKJT3wiM8Oov/tcmsFAe//99xPTcGisgAiiGxadt0g1Kmaxehw8vwyThZaWFlm0KKYiagh/ZhIkzVXqDaLf3/3ud91yrX9XtQbpuprCh7OhVMNcSSMnJZZUPrpp1jIWQTKMEHOFGP3GjyJhEJdikrlRHdCBjQG8RIw++OCDLJGAF5nJ+bTqZo5IrYgj0of8JgmkzyWJI4w2jRAROcOjXkpxBFdccUW0JLJ48WJ57LHHorXaY+yins563AoRR9dcc01GHMGsWbOiJWOgUJ+6evVqF5375S9/GW0tLtodD3DAlAq6t+LkqHVxZBhGDyaQjH5DapRfHGsd7eoPBMH3v/99Wbt2rRNICCWF4ubdd9/dCSMilaUWBeUAg4yGChjVGH6k0dGaGygWV2jLTUSV2hY82+XmhBNOkMmTJ0drIueff36mZtAIocvfP//zP0drItddd50MHTo0WjMGCqmdnA9wJCS1ri8GvkAq1RwkIDJOYxVq/mwWkmHUByaQjAHhR5FMINUP1JwRMUEYbd26NdNNDSiUpvsawmjXXXetmcnzpMchjD766CNnMCGIfFGEIKILHUXcX/7yl10q4R/8wR9E95afm2++WT73uc+5ZdL/pkyZYlHeCPbd008/PVoLC+9nz54drRnFwG/hXyrniC+QSnmscb6jjpK/x3nAMIzaxwSSMSAwwP78z//cLWMkxwd+GrUFRgK1ZwgjBLFvoLAfEC1BGJFGVklxUApIj0P40FzCv2n3OCAVJy0drqhzuu+++6I1cb/ZiSeeGK3VLxi4J510UiaqQbTvnnvucctGceA8gRMBaGrAcVEK9NqDE6ZUg2LBj06ROmgYRu1jAskYMH4UCe+6UXsQgXj33Xddmgn1Zn5vF00nQxhRb2NdntLDuHHjslpWL1++XI477jjXZbAeIc2QWVH+fKhHHnnEpYAaxcOffcQYiFKlv3HewUlBJ8hSnnf8WUg4Auv1+DGMesIsGWPAIJAoxAeKcf3CdaO6wctOpyjqbOLRQQwfJthrOpmRTpjrc/XVV0droUgipUw7UNYLr732mhx66KFubo5CA4uxY8dGa0ax8Nv6l3LwMxFs2nCXGq5vvgCzKJJh1D4mkIwBw8WD9s2KRZGqHzzAtHvl5nuDgXQZam1oj6w1Lka6oVubL5KYzYTn3R+AWcvcf//9ctBBB7lWzcrDDz8sp556arRmFBMd2Mq1oZQCiYg2qaPaKKWU+LOQ/GY0hmHUJiaQjKLgp9lhUNsFpDohSoSxQdQo3nkKMUSrW8RRqWoKjNKBSLrllluitbA1/9FHHy1XXXVVtKX2oLh+6tSpcs4550RbxNWILVu2zDWtMErDnnvu6SLLiNJSN08AUoD9eshS4Nc4paXO0DCM0mECySgKzLaxWqTqhcJ1vLHUGcUn0hMdxNghnU7n+RjVySWXXCJPP/10Vvc92lvTaOJb3/pWtKU2IH2OuVsPPPBAtEVkxIgRblbX8ccfH20xig3NW0hjJOJSSnHkd86EUtc+MrKANvA4iWpx0LVhGNmYQDKKhp9u5aeyGOkEjyvGDAbj+++/n1U3gLFBwwUaL2BU0ojBqA0mTJjg2pUfccQR0RaR73znO26dqMqmTZuirdXJmjVr5KijjnKfxZ9Zc+aZZ7ro6D/90z9FW4xiQ+YALdT53olClxI/YkQTiFLXIpEuuMsuu5R0IK1hGOnBBJJRNBgay/BYoMuPzUVKJ3hemV1E7j7GjKapAB5fjACEES27tY2uUVvstttu8sILL8iNN94YbQnRqAspaX4zg2rg5ZdfduKPjmZ8NuXv/u7v3OdauHBhzczkSit+vaLf6bIUxAVSOWAfI9K+bt26aIthGLWKCSSjqNjg2PSCd3fLli1OGH3/+9+XX//619E9YU49Q10RRqSRaJF1Mdn+2DQZd/5SKXjM4httrl31uHFtsjba1DvbZen5PD64zc/vGfXKZZdd5kTyxIkToy0hNDXYa6+9XCraN7/5zWhr+mDwLSl01LrQoe6ZZ56J7gm58MILXUTMmjGUB18g4TArF+WI6vzud79zN/j3f/93969hGLWLCSSjqCCQtNsPrVDtQlJ5EEIffPCBE0YIJL+BBhPumQGDMCLH3p/3kRr2a5VZo6PlvGiQSXfNkjHRmtE7COLHH39cnn32WRd98UEcIZJIt7z00kvl1Vdfje6pLCtXrnQpc6R+0oSBFt4+kyZNcl7+22+/PaveyigdDIb16xdL3eESJw61QESP/C6qpYIUOz+NzxoRGUZtYwLJKCrUrlgUKR0wk4roAMJo27ZtWUXNGBcYxgijIUOGlKUrU8MpC2TlXZMC+WKkETrakUKE+DjmmGOirSE08aAD3sEHH+yM0dNPP10WLVrk9qtyQLrfXXfdJSeeeKJL+zz22GPlwQcflF/96lfRI0JaWlrkrbfekscee0xGjhwZbTXKgd/1kt8I50upOeCAA1ztHNHvUoM48lM0f/Ob30RLhmHUIiaQjKKDQNKc8J/+9KdZNS5G6aHZwoYNG5wwQqD6ufp402nBi2FRvILjtdKWI53NpdWNmyZLV/ppctHj2f5YtN1LvQufw/3jZNpj8YQ877kf+8vhvZnn7vBe9LF6X+73rCl9bW9E63VGU1OTdHZ2uhlYpKj57Y2BVvDMEDrttNOcuG5oaJDjjjtOrrzySnn00Ufd8+KdEPPl3/7t39x+i/iZMWOGHHnkkW4gMel+F1xwgevAFz+fDB482M14Qqwh2ujIZ5Qf3wFTjogO0AzCb8RRanzRZwLJMGqbQd2lrqQ0UgcGjEJ6VSlalm7cuDHTyW6nnXaS4cOHu2WjdCBGMRYwYOPQPAOjpWiGy8dLZdp5iyNR0yAt9yyQSTu5FVk7f5zMXRMuy+hZsnLG/m4x3D5GZq1slYZAyEx7JHh2cP+ChsXBsoSvIeHr7nrFStn/teDxH7XIgrsmyfYdnhs+fv/Xepb957ZKIHKuX535++5vC8sSCKO5Ijxmv+BNIYZ4HOwc/i2NcPmfo+HUBbLglPqNfT3xxBNudtDy5cuzatd6g1RbGiSw7yHMMS5JUyLKTBMX6jmIAP3iF7+Qn/zkJ65+RWs8+gInzPjx4+WEE07I6sZnVA4cMZzzEUp77LFHtLV0IMJ1QCxNR7iVGv+6RgQeJ1Ot4dsH1vHRqGcsgmSUBD/NjoGUFFMbpYHUFlrq0qo5Lo6YW7TPPvs4r3pxxFHUAOEGCcTKSpeOtXJlJI6iyMvaA3V7cIvEUTKBsPpK9v3bX1sd/IUGaQi0yP4zgucXkJLnP1f229+rQVoraxE6a+YG72+uIIc+/EEUmdqvtee9Xi4yN3j/GrVyfz+6b1Ygr/xIVb1BE4clS5Y4QfP888+75g777rtvdG8yCKkPP/zQ7ZfMWEJcPfnkk67eiX9XrFjhUvqoFcLo7E0ckdp0+OGHu5lNRJhwBCxYsMDEUYogsoczrBziCPxIYr6ifaD451CbhWQYtY0JJKMkkJbzt3/7t9GaDY4tBaQj4e3j5nePAr57vH8MNcSLXzxogNAjJlzKmnaXi8QGkZ9we1KKXAUhmhQJnkw0KNMhL7hFok/vI4Kk97nokwrBOoe0N9qDv/HGG64RyyuvvOKaIdAanG5yAy3OxyuP8LnoootcNz1mNpHO9OKLL8rs2bNlv/0I/Rlpghox2l/TLKNczrBKtPkmEnrIIYe4ZiakfhqGUbuYQDJKhjVrKA1EiUgteeedd7IKo4Hv/Itf/KIrUC9pm92dJsmCSGysXLm/rEVIRPU8A4m8NOxMsfV2Wfxo+Fpr5/fe2pvmAYo+d/VrwbaPt8uH4eaAhuC+4J81i8P3EYiitjeiGqTX9s+810y0KiESVs/pdb1B10NEEbVK9957rxNL7J8IGqJHRHv4/og+feMb35C7775b7rzzThf9oT03zRTonsf+zDkC45paIuYY3XbbbXLWWWdZmk/K4TfTOiCigHSzKwe+ECuXQALSQ9nH/cHahmHUHlaDVIeUowZJwauoF5IRI0aUrXi31uAwJVWRGzUbcUht4RYvqE8NXq1Pw6nnyK6P3OdS3WT0GBmzZnW4HNUAidYnBYzx64kCwlqg7a6OiC0NOzfIdtLloueGtUrBHcH2hmA7r+Jeo8GrmfLqogzDGBg//OEP5Xvf+55bphsmEZZyQIdOdbzRxY4xBeWAVvek9DFU+7DDDou21g5Wg2QYISaQ6pByCiRqCyhsBVq/0lbayB/1ziKM4t278JoiihCdfLeGYRjlhuYwpFoC4wOYTVUOGHa9detWt9zY2Cg770yYuPS89NJLmSjZgQceWJKh2pXEBJJhhFiKnVFSqEfQ2RHM5elv+996g05QXPxJUcJT6osjOoHR2hixiWFg4sgwjEpBLQ6t3rmVSxwB1xY6JRI1L/VQWh9/mLYKQ8Mwag8TSEZJIQ3BapHyh9qNLVu2OGGEh9S/ACM0aWWLMKJTFMaBYRhGPULmA/VvdFPEaVQubBaSYdQHlmJXh5QzxQ5oDfz666+7OhoYPXp0lheunBDBonicrnqkrtH9jRQR6nrIKydyQ3ckZrWQT8/FkM5FzHKhMxzpbKRyIFRooV0s+NtaYxQvckYIaSpdOQ0BwzCMtMK5nIYeRLDKOY/IT+3j7zIPqZawFDvDCDGBVIeUWyABbWC101G5LiqIH1oR0yGLOUHvvvtu4hDV/oJgovEEHePoHEf7YYRMIZB2iCjiu/Hb1gK/izZfKGeXpjicIhBt1EP5naMQbtynUa5BgwY5AUfUEIFpGIZRKriOaRfPAw44oCzXMfCbUpBWuOeee7rlWsEEkmGEmECqQyohkIjSMDASMKSPOuoot1xsKKB97rnn3GBK2mCXGy6WDLTk8x1zzDHR1h2hs59GjOKQU6/CqNIQadu0aVO0lg0XT1qJI5AQUETaDMMwygEzl8hOAAZhE+UvF1zL+Nt77bVXzc1DMoFkGCEmkOqQSggkYODjT37yE7dczK5Dq1evlqVLl8pTTz21w1ygJBAeRLH4lyGqpMohSoiIEAEhWsOsC2Z6YPwjZhB4DGZF0CAa6M7XFwiGE088UU4++eSMIOR1eA28kHG40JJG59dslRuiblz4iY7RnYlaKKJcPjSF4Lv7/Oc/H20xDMMoL5z3f/vb37plovfmoCkOJpAMI8QEUh1SKYFEehtpbkANErVI/YWaHabsM2yS9L1ckAJHES8n+r333ttFeIrxeRFOtC8n1YLvk3lPpPHlYsKECTJp0qTEizhRGAQHoqQSkMuP+OP30RQ6/X1oqkEXPdYRbtysOYSRJthn2X9xvuDM4NyA4cx2otWkfLL/ctzTZY3jraRDlI2yUMl22z/72c9c/RPnQhrm1BImkAwjxARSHVIpgQQ0a9CW1aNGjZLPfvazbjlf/v3f/11uvfVWueOOOzLpFT5EYZqamlzEhiF+5RQdCA0u2i+88IKsWrUqEyUaMmSIzJs3bwdhQfQKYVTMZg+FQM3TunXrXFQrDpG0Qw891C0jBv3OTYZRCRBAWkuIc4JieYxUrW0sBPZvItgMGMXAxXGCAwWDsJL1fkb+PP/885nGP2PGjMmMkygHfjZErUWvTCAZRogJpDqkkgIJg+aDDz5wy+SMkzueD3iD58yZIzfccIPrNOeDQTN58mQXoUEcpYUXX3xRHn/8cRdluvbaa6OtoeeTizs1SrNnzy7b94+gJAURLztGId71NWvWRPf2gKhkv7BIkVFJ2FepJSSVinoTHThdSjiX0Eaf9tE4CHCy1A7bZen502T1QQtkwSkN0bb8WDt/nMzlVDF6lqyckc+w77XSNm6urA6WGk4t/O/lwyuvvOKcN5/4xCdc3Wc5ofGPzvQjS4HU6FrBBJJhhJhAqkMqKZCo6yGKpCInn+5DjzzyiBMS8RlKvPdzzz1Xpk6dmmoPHuk+K1eudF7HZ555JiMQgVQfhN8555wTbSku1A+ROoexSeqRot2X2Be4j9QjLvJEtTA4DKMSUNtHLeHy5cudMMoXIkJaS8j5hBb97Mdc3kjDYl4NkWuMWvX85wOvNW7cODn++OPlpJNOqvLujP0XSBnBk7dACvh4qUw7b7FIiQQSkW/2F6Lw5U6Z3LBhQ6bBDiMfuNUKJpAMI8QEUh1SSYEEdEWj0QFglOOBS4IUtUsuucRFYXx4/PTp0+W0006LtlQPNJO4+eabnQfSByPslltuKeqFloYLueqiiCANHjw4WjOMysJxsWjRIuns7Iy2JMP5ilS44cOHu32YFDmahRSSqktqqTZbYSgzNXbUMdL1khTeXHCePPXUU2XKlCmurrG+SJ9AqiSIbSLxQPpxLXWyM4FkGCEmkOqQSgskohp0R1NIj4hHLZYtWybnnXdelsGCl/Dqq6+W888/P9pSvdBcgrQ7PypGSts999zjjLBCITJHpAjvOMXKdAlMatFd6bonw1BIj7rzzjvl7rvv3iE6rCCGSHM7+OCDXbS51Pst0V3S+Yhekd5H84ckSL/76le/6rpUpoHtj02TaY+ItNyzQCbFpgOE6XFj5MTRq+UpTZP7ynYnXrbLGGk59UNZ/Mj2rPS5TEpdwJgrVkrrfp5A8p47654GWazLK1uFZ+tzG0aPEVmzukcgRYIp+Eth2t3OS2Xc9auj13d/KkNvn0fByUTaMEK5llLcKo0JJMMIsWmORtmhTTSGuqLRJOX666+XE044IUscIZY2b95cE+IIzjzzTPd5Lr300mhL2JmvpaVFLr/88mhL3yCKmMnx8ssvO+OOtBOMTf5FCNF1DmGJxx0hus8++5g4MioKEZy5c+c6o/ayyy7bQRwhhNrb293xQVSH5eOOO64s+y3GNim7ixcvdhFs6lw4RuMjCb797W+7lLsvf/nL8uSTT0ZbywtChMgzt2nbW2TlShUTpNL13Le4YUFwX6ucMWNWIGMidpokLa6J6Orgv1kyi+U1a8W5rd5oCwROgxMnLcHHXv1ajzPLkXlubBkyz10psxo+dGIoJHhPN4TRpJX3tIg8MleWNrS61OP9X/M+x2PhMxpO4T3PErmh5762N9xdDs6VpEuSqr1169Zoq2EYRvEwgWRUBH/Wj28gTZs2zdUbKZ/73OdcTcKCBQtqbs4F7Ycx/hhs66fW3XjjjXlFkejmxS3ehY5Cc63BYJAhXkDEktUWGZXmwQcfdKmdV1xxRSZFCWjY0tra6vZnIjiIkjTUddCsgWMUJw7GPKLIhyjGxIkT5eijj5a33nor2lpiAhGCYFh74Er3ntwtivwQeRk3bq7I5T339Z7eNkZaYvevfY3ar12lYacGmXRXz2vnQ89zA5Fz4BjJvPLHa2V1cJrf/kjw/lwUKfgvUk/7z+h5r7NkbvD+p8lSV94T/f3ovlBItTkRF2/UYxiGUWxMIBkVgZoBGgMARdS06iV6QoqZcuSRR7rGBkSTahlaksc/Z0dHh/OaA00e6P5HcwvElKbNkaLkg4DEqMQDX86ZIIbRF3Sgo8MkkdPtahkHsL/edtttLlo8f/78nPWIaYD3/8QTT7hI7UUXXRRtDaErJXVJX//616MtJWS//kdeKg2pdSp4NK3Oj4TNDSRSrkhYKAjDND6ikIq1ZTcMoxSYQDIqhh9FevXVV123OuXss892Rof/mFoGcUOk7Gtf+1q0RVzqCLVK1ENglOn8KDUwSQeiJfewYcNcTQTzODA4bWaRkSaoMSLF02/AwH6LMCKNDrFRTUYudZu8dyLfRLx9brrpJhexfeON0quS/kRe8oEOl6TeLXaiKxAp85cG/8/FdtnuZUjrc9fy8YPzVOZ5OzXIrsE/2x9Z6t7H9sfaZOnKHSNhGu1KioT5dUomkAzDKDXWpKEOqXSTBoWLHFERjYRQj0CKDek1pLXUK9dcc40rXvcFow9duxBFhpF2zjrrLFm4cGG0FoIT4LrrrquZOVuk2ZEWzNwzH9KCqZ1MCz2NFxqk5ZoxsvqaqGFC1EzBiZmoUUPWY+9ZIA2PZq9PEm240CANOwdCiCxp99wG10p8Mes7B/f9AJEUPWd7IIiuD1u3D3Q2EhkHdB4EaiytmUDxsCYNhhFiAqkOSYtAAlp407QBEEh0q7rjjjvcej1Dtz4iQgqDcnfffXcXUavk72UY+UCDg6985StZg4jpSEcr+0MOOSTaUlvceuutWRFgmDFjhsybNy9aM4oFDRp0VAJR8zTUq9UKJpAMI8QEUh2SFoHE/BGaCEyaNMmt06qaHH8jZObMma5LHUMJv/e977nW6L5oMow08v3vf98NVuX4VkiZve+++6K12oVzK0Of161bF20R1xXvG9/4RrRmFAuiSIMGDaqbNOxyYQLJMEKsBsmoGHStIjJCQwKaFDz00EPRPQbgeaZGA3EEfF+GkWY+/PBD18zAF0dtbW11IY4Ag5JudieffHK0RVyKIc0pjOJC3Wb/Wr+HzR+0sUUhZBpKzM+3oov5UeFz+vP3DMOoHCaQjIpAfY1ftE1aXa3UJBQTP92QCJKlHxpp5Re/+IVrg71ly5Zoi7h5QtOnT4/W6gPa6S9dutQNklVob37JJZdEa8ZAYYCvDvRl8Hi52N+fJZUX+0vrPS3S/2orwzAqhQkkoyLccMMN0ZI4Q+KII46I1gyfL33pSzJr1qxoLfze/vd//zdaM4z0MGXKFDfYVXnsscfymudVq9x1111ywQUXRGviOt9Rp1SN/OQnP5H3338/q0V7JaEGCTgXxufA9U3Y5W8gTSIMw6h9TCAZZWfJkiVuLgowLPXKK690y0YyV111lZsbBRS/0zbZMNIETUWWL18erYlLqdPawnqGiG9zc3O0FnbwY6RBNUG3UWqqEEeIpDQMaSU1O4mwPbi2O88mTI9rkwf9NLmPl8o0lwLXJkvdc6PtEf6Mph3mSXnPXesvR3frc6c9GhOVmcdGaXfR4N+keVW9fR7DMEqLCSSj7DDbR8HD+nd/93fRmpHEH/3RH8mFF14YrYXpOoaRFuhUd+2110Zr4oal0pTBCCGdmEiwcvHFF0dL1QHRI41a49D6wz/8Q7dcSfw5SO8tutAJDCc4trdIrkGzixsYUtsqZ/hpcjtNkpbRLKwO/psls1heszYUOYFwmbsmbFHesnPwiNdidUeZ58aWIfPclTKr4cOwhbojeE83LBZhYO49LcHOMVeWNlTv4F/DqGVMIBll5aOPPpKXXnopWgs7PBl9439PeHP9LlmGUUn8FFAGFvvps0bIPffcEy2JrF+/3s2BqhZ+9KMfRUvhgN804ATS1hfcvLh3vnCfExjuNmN/d3/SoNneU+rGSEvs/rWvMbNpV2nYKRq8G712PvQ8NxA5B47pqUH6eK2s/kHw/h4J3p+bIxX8F6mnUg3+NQyjf5hAMsrKc889Fy2J7LvvvrLnnntGa0ZvfO5zn5OxY8dGa9nfo2FUCqLBNA9R6Fhn7MjIkSOzhCMCiUYDaYcpIP/+7/8eraVHILmI1pAjXQbCF9edk4muVEvkhUG5Knhao8kNfjrf3EAi5YqErT2Q57VK/nLNMIz+YALJKCt0HlKsMUNh+N9XtdUxGLXJzTffHC2J61aHEDCSIfVw2LBhbvl//ud/qqJhw69//etMvc/v//7vy9/8zd+45Uqjs/tIPz5y1jczYqOYkZeGBuI+q2WxE12BSJm/NPh/LrbL9o+ixQB97lpE2XbiRBE7NciuwT/bH1nq3sf2x9pk6cqwBikUPuFNo11JkTAVVIZhlBYbFFuHVHJQLBEjbdDAyZ6ZKUZ+vPnmm5lBsdRt0bDBMCrFM888IxMmTHDLGM8MNdZmIkYyRNw0XfYv//IvXX0P311aYXj366+/7hoz7LzzztLY2BjdU3lo7/3nf/7n0Vr+EKmZu4alBmm5ZoysvoZUt2Bt9BiRNatDMTN6lkupy3rsPQuk4dHs9UmyVKa5VLkGadg5EEI/0Oc2yNLzp8li1ncO7vsBIil6zvZAEF1PCl7wKqcuSF03PRsUaxghJpDqkEoKpD/+4z92F13YunWrDB482C3DtvnDZMjMcMBk47ytskpmy9MTOmT6bm5TCemU5kFNsmR4m2x9b7r0vKNsMu+vZZV0L+pJd1My9/fxOjuwolkGPdGc+Jo+GARf+MIXXP79j3/8Y/n444/7ZSAYRjGgS93jjz/uls877zxZsGCBWzZ6Z6eddpJ//dd/dcsMyZ48ebJbTiuIo9/85jduMGta+M///E/X3puUvz/5kz+JthrFwASSYYRYip1RNn7+859nxBH8/d//fbQUSJQpg2TIoqmyNdDraPZV0hSIjfXRvQWypV2a52+LVvJhrHQs79tIGTxjo2yd1yiyuFXae2ZhRmyTp98LhF2h4giO7ehTHAGC6Pbbb3fzVTBM33jjDZdq9+6778p//dd/uccwrPPDDz90LXnxTmNIkM5jGMWEtCsiSErajfw0ccopp0RLktUaPW0gjL73ve+5Wqk0iSN47733ZNOmTe4caBiGUQpMIBll47e//W20FKbkkD/uCARN6+JGaVvWIywQI93LR8q6MKBUENuWLZR+Sqs8GCmTW0QWLosJsC1Pi4wobUc+X1wCQpIaAVKb/uVf/sVtw6DZvHmzm1fy3e9+16XH0DWQQnr9/im6RkThxcYLy2sYRiGsXr06Mw8HR8dBBx3klo2+od5E8Tt6po0f/OAHLo2XlOi0NZQgmg7sg7ofGoZhFBMTSEbZ+MQnPhEthW1adbYGgqZr+FQ5IZ5Kd2yHdBwbLhJhGjQovDWvcFukmfUR7dI5f1h435TOTJpb18whwfo/R49pluYR4WORNTu+VmGMuqpNRs6cHbyDHjqvXSeNYTlGQM972xb8187fHtTsHs/7GzRomLSviKJcgTgcFr33kOi5mef3sOuuu8p3vvMdJ4jifOYzn3H/5hqgiEHxs5/9zIkkWoQjovDC8npEoeiK984777jH8rsQgSIFEgOJ55FiYxgK4ls58MADoyUjH0aPHp05FxLl/f73v++W04Z/nvm930uPqeDPQII0vTfDMGoHO7MYZeOv/uqvoqUQv31sr6xoltYRW13EpHtzm6wfHwiMLWOlI1hu3NAqrbIquG+VTF7cIV1RGhw1TN2Lro4es15GLQueS+pb4mtFfydvxkpzyxLpyIirTukaMSfYqvgpe4Nl+nvBe3PLpOGRRrhKZFZrGOXabbqsIm3PgZhqEllOmuFWaQs+2WxPwJFrf9VVV7ki72OOOUb23ntv2X///WXMmDGZ7lJ0yUIsUVfG4xnsCPzL959LQAFeYqJUiCIiUBhuRKTeeustNwz0hRdekG3bQslGKh+56ogtPMxs/9WvfuXuM2of0puUvfbaK1oy8gHnx4gRI6I1kQ8++CBaSg8c3+oUQYCoAyYNxAWS73irFJz7SIH2syQMw6huTCAZZYO0us9//vPRmrgoRj50PrFERg6Nku8CQdHW0tWT4ja8TVbN6KPix4tO9fpaBTD2qkBczYoiPCu6RCbE3kPjKNmx39PgYFurDBk0Wxrf65aNO7zvLlkXyKI5LmqGsOrORNDA/77+9E//1M1GokkDjS8Uutt98YtflAMOOMB5qg877DDXHpxlHvepT33KGWc0x+CxiCZ9PkYQaY+5PLJEljACgPQbGkUgcknvw8izrnr1gzYZALqbFZMwyhpFUXNEU6sd/zvzv8u04KfU/fVf/3WqOu35AikN7wsxyfiKDRs2pDYaaBhG4ZhAMsqK7znVbjmDJ0yVxg0L5el4JGdLu7QnpMA1jmjsETkDpN+vhbgayXveJu1PyI7pgTkYu4joULN0BEbfsKRGEhvWBTIpGT+tyf8e+wIjwvey/sM//IPssccess8++8iXv/xlF4E6+uijnbAChBf3IWZp20yB9h/+4R+61xgyZIh7TBq8tkbl0BoQiEeGB0qmGQrdIl3TllUyeUOrDMmkoZaK4FieUh4hRotvxf8u0wLODyUtw2GT4LxUaXzBhlgyDKM2MIFklBWd4wMvv/xyuBBFclon+MZJpzRPCITHsYGomDhZlowPa3hcmtqikdJMZKUrt5jIRc7X6gdjJ44M3nOTyMQ+utat6JAlboEUOv72WOkIjL6Ri56OGWONMmr4EmlV4RTrxpf5vgJIrSslRJdI1xs1apT7zQ499FA5/PDDnbgCBBb3MxARDzORqTR5mY3SgnApH2NlDoJpfVfseCkyW56WhaXr7pIFUbE0o++PYzpts61IHUZgIo523333aGvl8NuMazdRwzBqgOBCZ9QZ3/3udzO3X/7yl9HW8vDmm29iWWVuP//5z6N7urtXtfRsF5ncvSraDv59k5e7Ld2T9bEtbd1tw6Pl4W3dW5dPjrZf4z2m59V6e63GeVvdY5LYOq8xel5jd9tmtyX4u9H71L/Jjffg7ovWWyaHrz98VvesedFycHN/e3Nbd2D69az7nyv2HXz605+Otkt3Z2dntNUwyk8gmDP74pIlS6KtxcMda3rMRsdI1rHpHTds12Nz8jzdrsfojo91+Mcrf8d7TPy4KwUnnHBC5u/fdddd0db08Nvf/rZ78+bNWednI5n//d//7X7uuee6n332WXf7zW9+E91Tnfj2gWHUMyaQ6hD/BFhugQRDhw7NGAe33nprtNXojUWLFmW+s89+9rPR1nrkX7of+2pT93mP/ku0nj+vz2vqbmoKbvNej7b0xevd83l8cOvP36tlTj311Mz+eOONN0Zbi0ePM4KbJ3YcOBFUxLAc3u8cH845ET3fLSc9FueFvqZ3PyIpen6p+eIXv5j5fMuWLYu2poPf/e533T/72c+itXTyf//v/+3++OOPo7XKs3r16oxA+ulPfxptrU58+8Aw6hlLsTPKzpQpU6IlkbvvvjtaMnqD4bDKaaedFi0ZhbD/jFkyJlrOj/2l9Z4WaYjWjB7+8R//MVoKh3aWBFeDRAfIkdLo1/ht6ZL1skSaXAOHpmCpKzMvbfLcMN01rGtcJ12Jj6UBykaZLrTYZ1v5oUukkoY0MYUulnSsfPPNN1PZXQ/+4z/+w3XXZL9Ly3skxVixtuOGURvYkWyUnfPOOy/TOY2uP7fddptbNpJZtGiRa7Wt8P3VLw0y6a6VsuAUky2V5Atf+ELmGGYIcemgZb5IU7xBw/A22RpmQLib3+3RsVujjBwedZJMeKybhTZBZJUTYOXljTfeyNSq0IVyzz33dMtpgE6U2nQgrW37/TqftLzH3XbbzY1aoImN34DDMIzqxQSSUXboejVz5sxoTdxsn6Thp0ZoDFx55ZXRmsiFF16Y6SRXa2x/bJqMGzdNloadxLNYO39ccF+bPOj+DW7zA6P846UyjeVg+1L33Gh7RPic8Nb2RrRR8Z671l+O7tbnTnt0e7QlIvPY4L7HgvveaEt+/YDePk81g1ODIv477rjDzddiBhYDh0vGsR2ySpp6hjojfjZ4M8JWNGfuW78pbOOwbX6rLBnZKIMTH9spHYsnyyrmokWby8mqVauiJXHNT9LEj370o2gpu9NemvBnuaWlmyadPv/pn/4pK7JqGEZ1YwLJqAgY/cziAdrcXnzxxW7Z6AFP7nXXXefmDAEGC2KylvBFzLTtLbJy5QKZtBP3bJel5/fct7hhQXBfq5zhp8ntNElaRrOwOvhvlsxiec3aUOQEwmXumgZpuWeBtOwcPOK1WJQj89zYMmSeu1JmNXwYvBMleE83LBY5NXgv97SIPDJXlja0Bu9rpez/mvc5EE4BDafwnmeJ3NBzX5KQqjbUiN5pp51cZ0N49NFH3b/FgDlIQ2Z2iSxukkFR5GjsokBUjA9nIjWvCIdEr4/WB80aFc0OC1gUPCfYNmTRVNm6iNHNSY8Nu0X2pN0Fy8xZisTUkEHa5bI0LF26NFoSt0+khf/5n/+Rn/3sZ9Faett7p20OksLQ7Oeee062bt0abTEMo5oxgWRUBDx/8+bNi9ZEnnzySbn++uujNQNeeOEFN+B18eLFcswxx0h7e7trqV0TRJGXtQeudALD3WaErcvDyMtckct77us9pW6MtMTuX/va6uD/u0rDTmFKnr52PvQ8NxA5B47pqUH6eK2s/kHw/h4J3t95iwO5FPwXqaf9Z/S811kyN3j/GjmK/n50XyikeiJV/YGBvUDUFWOMQaPUZZSrxTCpRMrJJ5/shMfChQuL9veZg6TpcN1O5ACt8b10ut2my0Z9jBcJGjk3eq4fHdrhseEQZreetV3/RkewVBoQR1u2hAPfaFM9adIkt5wG/OGwtK7262rSRBoFErVbDM2G7XpSMAyjqjGBZFSMk046SS666KJoTWT27Nny8MMPR2v1zTe/+U1neAKiiO/p7//+7+Wdd96RX//61257VbNf9UZeGoggRYKnNRrr5UfC5gYSKVckLBSErTKQKVa/+c1v5Oc//7m8++67Lt2NYvW3335bXnnlFefB3rhxo3scqUhEH0mBo7aE5/z2t7919w0EIr9aiM68rKOOOspFgefPn++2Gbm5+eaboyWRc845J1UixD+v8LumFT+t7o/+6I+ipcpCqqnC8alODMMwqhcTSEZFoUGDpunA6aefnpWCUo88++yzMmHChMS6LLy8/+f//J9orfopVeSFAbak3i12oisQKfOXBv/PxXbZ/lG0GKDPXYso206cKGKnBtk1+Gf7I0vd+9j+WJssXbljJEyjXUmRMBVUAwHvfm+dsjQlk38RS3T6ousXnclWr14t3/rWtzJe7p/+9Kduf1q/fr10dXXJRx995PYxjLxcYJSSXqdMnTrV1RWSDvrhhx9GW8sLaXlNi0WWjB8m7WGAJnXQsRMhq6QtrZiUOgz9T37yk7LLLrtEW9MH7xMB97nPfc45jdIAx6MvksoVzTUMo3QM6ia/wKgrfAObotI/+7M/i9YqA6kJFCv7rW8feOABOeOMM6K1+uGJJ55waUvwp3/6p+57oNOVD7VI++67r0vV+cEPfuCMBQwFjNRah0jN3DUsNUjLNWNk9TWkugVro8eIrFkdipnRs1xKXdZj71kgDY9mr0+SpTLNpco1SMPOgRD6gT63QZaeP00Ws75zcN8PEEnRc7YHguh6UvCCVzl1QUW76SFufvKTnzhjjBQfRA3/sj/ss88+bt9A9CTBvvLlL3/ZNVfgdZLYe++9nRGK0KLuiJQwxBkCCWNw06ZN8t///d/usYh56gq/9KUvybJly9w2owdSIfk+tevajBkzslKMjeqHbo5EUmHUqFHy2c9+1i1XG759QOMJw6hXTCDVIWkTSLB582Zpampy/yrXXnttVge3WueWW26RSy+9NFoLPaWk2pEapYcpxu/QoUNdi+WXXnrJFVYrGK8IpZ133tkZs4ZBfdIvfvELJ55Ir9MUuxEjRjgDjsiR37nMh1S6PfbYQ1588cWsug+F+o/4dpwd//mf/ynnn39+tMUA0hCpKYRdd93VRfbSdIwi4IgeMpMpjKCmF86HvF9Evjb6SQP+sdTY2OjOw9WICSTDCLEUOyMVcGEmtQwvq0LHNoqYKUCvZfD6n3nmmVniiFbe1JPg5UcQKdQj6fyZuIcSI5gUp9deey2rFa5Rv/zDP/yDDBs2zBk6BxxwgBx22GHupvvO8OHD3f5FShVpc4jyz3zmM642RtPocqXzIY7iTUP0dWm6YoTQml/FEdx6662pc2AgOIgG+lH8tIII4VxH1BIxnhb8tujmoDKM6sciSHVIGiNICmKoubnZiQMFI48Obmnq+FQsVqxYIa2tra7YXjnwwAOlo6NDPv/5z0dbQs88QgrvLsYB0SKgLS8pUBTh+1DXxeNIw8PgJVXKz5E3jHwhSknqkEah+JcbRf3sk3G++93vytVXX+2O4SOOOCLaWp/wPRAJV1i/5pprorV0gOAg+gGkTx5yyCFu2SgMHAZEbDnPcr6tViyCZBghJpDqkDQLJIVoCilnPggkjAs/olKtIGowlh566KFoSwidre69995obUdIg6H2A28l9R7q3cdQ5TURTFycEVLM5dDWs4B3nxS8NHeoMtIPhiANH3zvPfsVQmru3LmuBonLCsY2y7Sor0eIgNO4QpkyZUoqu3TSwEMdLKSFkR5m9B9SALmmpmlGUyGYQDKMEEuxM1IJ7XAfe+yxTMoO0N2OizfiKanDW9qhmB4Bc8UVV7gUOl8c0ZCBWTK9iSOgZTNwEdZ2zoAxSpoioklrCOIRI8QSbcJpB12Mds9GfcI+pOKIVvRf+MIXZK+99nLG1OWXX55pFoJoHzt2bF227qcGyxdHxx13XCq/B4Ss70RJ63DYaoEuhTgP3nrrrWiLYRjVigkkI7UQMSInnvocHyJL1EeQ218NOfN0riLdCGFy2mmnOS+7X9x+yimnJH7OJPzUjY8//niH1DofCvGpMYlHCBFq2k2Lds/+9HzD6A1qVX784x9Ha+KEkV+HhFhatWpVlmOD1v2zZs2K1mobjicaMtDSWzn++OPlmWeeidbSBQ089FyEQ+XTn/60Wzb6B98nkJKqHR4Nw6hOTCAZqQbji8jK888/72pzFDyfd955pxMAeKmXLFmSyuF8Tz31lCvKVvyZT3jcMZweffTRvDsekRLpD5fcsGFDrzM3EJIU5xNZUu8w6Xl4+UnJQ5jh7WQ+Dh0Ea2IIrVESOL6oaVOIVCbVWtCCng6Le+65Z7RF5IYbbnD1SNXg0OgvnINo7+w3ZMDpkea250SedfBq2rvXVQN8n4qdSw2jujGBZFQFRx55pLz66qvOCMFL7UP3Oxo7/MVf/IW0tLS4VDz15JUbxMrTTz/tDCOaI5x00kkucqQg+DAcEX0Us5N6UwjUHGGEaX473l+/NXou8AyPHDlSjj76aGfA8nw/zY5lOuDxHTMbJ6n43qhvEEhqTCPSe6sFxHHBvuTv3wyoZfuNN94YbakNmDd16qmnunMQc6kUUuw4ztMMzV5wPBFtxvliDAxtngO9Oa4Mw0g/1qShDqmGJg19QeSFeh2/210cIidc/Pfbbz8nquiGV2zoAIXQIe8cg3DNGjeJNAuGduJBV/CkD7SAl9Q6iqtBB4P2hw8++MClBcXbglPPxLwWhBPv1TrgGUDtESKAyGS++wRd3GhI4oNBTi1eNXemJIWK43rOnDlZxw/fDSl2xx57bLQlneBcIU2XltTV3HUtTRDR5zsFzp+cR6sNa9JgGCEmkOqQWhBIynvvvedaYtPQAU9ubyAkmAnDRYsBg6SUsI2oDmlnpEd0dXW59D2aQWA4kCZBQ4Sf/vSn8m//9m9OTNAogagNj6Wta29geEydOtWJNeX/b+884KOqsj9+cIt1VayrEjGUhSCIwY4F7GsCKCACicGCBURFJaAgIiqiJIMdQRRcCaGIggKJDRUQYicqSFAwAWNvu2JZy/6d//vdd+/MnckkmSQzkym/r5+R+96b+jLl/u4553dOPPFEZcrQVCCSsEpp24E3RshgogTTC5w/U5t01FFHqdVQE/3COcLEjw54pDFg4QB29lhMsOnevbuMHDlSzjvvPL0n/kF9CdJ777333gCDA3DRRReplgTGqCKeweKIMX3BRHjfffdVY9J4UKNnWjbg+xIR00SDAokQFwqkFCSZBJIN6miWL1+uUu5sh7dw6d+/v1xyySVqjNqhRx55RI0bSrt27ZS1ca9evVRqIATICy+8oI+KqgeKZDE00gmRFgdHMTSWtWuUGgrEIIThLrvsEhClMiCaBEtnvG8YVSINBel1sOoPTuHEwgXSUmFiYps+xBP43oTzJNLm0AfKBumrt9xyS1xGjbD4gQUeOGfaCzMvv/yy7++AtF3bWCPylImn12SRG5dL/nF6V1hUy8IRw6Vom0ja+dNl+qAw6qRe9Uiv21c6gzTJmzFdBrr9jmMCIqxr165VY6RSJ2JdFwUSIS6sQSJJQ8+ePcXj8ahCcBSTz549WwkepPOEQ9euXfXIXSUOF0zu4NQ1c+ZMFVVCdOm+++5T4ghAVBhBgTS/SDtFmRQ59KFBw0fjStUYEEmDOAJYUQ62/cV94/EaI0AJueGGG1TU4uqrr9Z7XPB+QoQJ7znU7aHWMB6K3PE9gu8U1O0hTReRI1scwVxl2rRpqudYPIojfI+99957KtINC2pTd4hFFSOOsLASv+51aTJwbJ7z/wZwXL5MP795hAkWG3v06KGyBGh6QUhiwwhSCpKsEaS6wKQG+eFosopJDxquYtKAtDmsrmLCgFQ9U2Q7atQoNWnbaaedZPfdd1eGC0gvg8A55JBDVH45itSRQtGUiE0kwPNHBMmAtD5b7DUVTKRwrnAxk1bTUNI0o8UEC/vYR4WEC4TS/fffr+p1QpmCYOIOy+xTTz1VTTqR9hltEAFALSGi0TCVwIJDKLAocsUVV6h+R/EMFk1eeukllTYM8F2FmkwYsiAdDOC7LRbnttF8slCGDysSCTeC5FC9YLgMnysxjyAB1KYhaodzHa/R0LpgBIkQFwqkFCQVBVJ9YKW1rKxMjeEUB3MH1CQ11UzB5rvvvlMruEhRizSIXNk1WNFK78B5Qt8kCEVMBGyHPgCBCaGEuiicR0LqA++pRx99VObMmaMEd20gPQxRHBiS4P2NBQosVDTm8wThgEUSRHuxaIJaRoih4JTSYNDTCNHihrpPNiew87cjvvhewGfY1Bva3xVYAEE0GotCEKjhUFbYSyav6injludLd73PxU2rW9njMsnbOtOXJjdOJjvipVqkR56zv0jt7+lLvdO3UbfX92kJJP9tx8n0tCLfePloPLK5bZr07CGycpVfILmCybmuTrvrvqY2AaVT+iRPpk8b2LDIlcYsGuH8nXLKKQmXikyBRIgLBVIKQoFUE6SNmR4tiIagTiiSQBwhxQXAIKJDhw5qHCnwMYbAwwo4gB2z3XMpGmAihaJ71C0FE41zSJIffEZQ//f0008rE4FwMC5sSM9DiihW7hH5xWcAnwuIIUSQIcTwOcTkFe6T4YLU3b59+6rUv2gsbsQCfLfhO86Ac2YameI3AJ9hXMw+1Cthf2j8dUEgoDZIixn3kawaoIAoULVPyOTNyJPqYRBRrshRYmurI07Gikx2rt8WwiktxG3V9cUaW7ed5ozV89OPL7j9SulphNErPbX4CXwdfpHmEPA6Qom/2oGjqflOTETzCwokQly4xEuIg93gLxppYnZfJrtXSqTAaiUKrU2fGkRvmlKLFA54LNRmoLcSUqFQc4V/cTEpO5igmgsh9QFRPWXKFBXVQTQHjnCo7YHwqQ1M6hE9hVhHWhxaAMDVcu7cuSpt9vHHH5dly5YpJz1EiuoTR4hKwY2uqKhIpeDCzAA1U4kqjgBSAtEnzoDIOGoN8RmG6xpEoxFHoLb6L0RiejmiRMYuV4Y4uLjiCGKjl/S6QxwxYY7Vk97WIy/oeJmUoUvCIWmS1mqgTHfuI3xDB+u2zn/dT/THfqrXrHSeXbUUDevlRpG2YQukycBp/tfRfY3z/Ht5nHty0I/vHnMEVy/nWKGbYVAfEOcG9kIiJHGhQCLEAQ5OcKLCRAL2rJHGjtLZDVojCdLbMMHERA6pSJFMD6wPCDSIMvxrLma/vU1IuBx22GFy3XXXydKlS1VKGMwG4CKHfRDliHI05X2FlD08BizG4UAHYYUoizF4QfPXZKmpw3lCXaI5X4ioYfIe3P8M3xmoSUKUOxRpg6Y7gmGcyB0QE+7F86o64ooNRH70fp/YiAsQTTKCx0SDtKjTz7fsBOsYIki+11Em3XE7lcZXP2wWS0hyQIFEiAMmRpgwoXYmGsLCNnJAyg8u0QC1A5j04bW8/vrrqtgcq+CEJDpwo4QNOKJKsPKH0QCipKixwXu9pKREud/BTRIuknfffbe6wHkO1tyIJCHChMgUIiaowcF44cKFMmHCBFVXFI3FkXgAEVyIIdvm24DoOdLpUHeJJtaI/tYVsYtW5AX3m9ba+WdVkSxEr1VHpHgW+NMCa/BJtXykh/7blqnnYacTprVu6/y/WormqyOysHChvBkiEuZGq0JFwsJPrwPGBRRQIBGSuLAGKQVhDVIgdr+faOaMQ6yY6BEax0bzvCONyDhwIbKDhpzN7bZHCIkeSJVDrRHSEyEekXYI50l8F6D2ChQUFPjaHuCnf8aMGSr9EEYCcFyDUycMG+DUiYbacKqEU2fTeiTZtT495bLzP5KZ2jDBNVNwxYxbA2SZNLS264nUNVQtUJoxXGjtiCKdLqduq2uV1D07x6qdY+59DJRqZSSB+7DqoqKE7SqaiLWYrEEixIUCKQWhQAoEqTuwZQVo8opLNMB5//rrr9UYtsV2KkakwWoxBJlJocHfGKKMEJL4IHKG2ihYksOcBRNyu86xNqZPn67ED4AJxjXXXKPG9YGUOzShxncIvrvC7S2Xqrz66quqjqtjx44JF5WkQCLEhQIpBaFACsTuKB/NCBLMGZAOhBXaWDgb4fFQuG6IhnseISQ24PMMdz9EfJ599tmQvaPqY8CAAcqA4o8//lCNeRFtagwQWVlZWcpAA/VgJHmgQCLEhQIpBaFA8oNiZbhbARQwwxo7luYG0QZpN6YhJDjppJMCcuQJIfENbM/hxrdkyRK9JzRwT0NkB1ELpMdBxCB6gbQ5GC/Axc526zSgFgu21IhuI90Yizj4zsB3B/onoVdUXeD+Bw8erEwt4KRJXBdAmH0gvRl9phKpJxwFEiEuFEgpCAWSH+Tow/oXwOAAtTrRBJMN1CFh4tKyZUu9N7qggB0uYCCaETJCSGRAutyDDz6oDCfQ0DYU+A5BuhvMFWC3jwa60QD9o5DCh1Q+pPQh4h7sfmfAAtPll1+uekalMhCWEJoA7oHo05UoUCAR4kKBlIJQIPnB5MOkmWDFFauv0QIrtWvWrFFjFD3HarUVjnl4jVhFTuReLoQkOxBGhYWFctddd6nodjAQQXDbg/00rPybA/RLgosgHN4Q1YIpQTBomTBq1CjJzc3VeyIDzokRZ6jhNH3f4g27MW/dTXfjDwokQlxo801SGggVpJyhszxqg6IJ8v4NtTVijAZwqELqDcQRhNKLL77oW91sFl71+G2BG4KvN8lw1wY4DNzGlpYNMSFxCkRR69at5fbbbw8QR4g0w0wBURw4U06cOLHZxBHAdyVE2sMPP6zqohYtWiR9+vTRR13wPJFyd+KJJ8oLL7yg9zYdiI61a9eqcxHPa7u2AU8ooUsIiX8okEhKA3GEupxTTjklZI+QSGJ3WI9Ws9i6gPMVImaIKCEFxDjqJQytBsq48xsmYtHYclwPvUFIHPLSSy+p3kOIuNhOdGhaPW3aNPU5RT+n5hRFdYF0OphHYPFl5MiRATWciJifccYZcumll/rSfJsCIjFIg0ZqIRZ+4hW7zpMCiZDEhAKJpCxIFXnnnXdUOgTEQ7TByqv5Ucfj4fFjCSYudj8T9H5qDqEmx+U3uPkiIcnI2LFj5dRTTw1wm4TBwiOPPKK+l6644oqEMY2BQ+Y999wjn3zyiVx33XV6rwteD/opwXCiKSBNGSl9jXHwiyV2BInNYglJTCiQSMqCdI0vvvhC/QuzhljQ3FEkpNpBqAHk8iMVJnKpKmjyWEvnfJ0eN3zmzIA0ubJCjJ39Cxa6t7XT53wpdc5lxELVANLGf9vqgLHCd9uaqXXmuu4x3Tk/xP3X+XoIaQJo5HryySfLnXfeqfe4TJo0SbnHDR06VO9JPOBqN3XqVKmoqFC24gb0mkO06YYbbtB7Gg5EI/o3oc9QPGNnIySSgx0hxA8/uSRlQf68IVbFvrYhRnMUGCOCZbtdIaXHFBM3ClvE9CqStBnLZfloHRtStUb62LBqyVu+XKZfdllAmlz3wXmCreq51dJ9BsbVsnINno8jXO4okuoe42T5jT1Ftq2UsqC6I3Pb4HHAbZc7z8V1cXdxntPkVejIv1zG9VgpkwurZeA05zmPFZnsex1GVHWXfOd6y08o87+OkEKKkPBZsWKFShNDI2cDegpBUNx44416T+IDw5vHH39cWZTvv//+eq/IlClTpG/fvo2KrPzwww/qX6QJx3PqGr7bkSK5zz77SEZGht5LCEkkKJBISoKoCXp/GPbcc089ii7t2rVTqSjoSN9c/Yj22msvlcZjQNpKw9GRlztEiQ04Wi1fPl0GqqbxOvKyprvej0vdKXVp5w8MPP5Jmazc5uyHcYZKyTP3HQb2bZ177W7VIJWtwaTUEUbO85sM4bS12hU8rQbKdN9z7S5leP4mcqQeXx/TQsoXqSKkASxcuFBOP/10+eqrr/Qe5/00ebKUlJRE1UGzOcnJyVHpvOecc47eI/LUU0+p1EL0XWoItr14vEdmDj74YFU3ZotDQkjiQIFEUhIUDJvUMkRVYiVW8Djp6enNbq3etm1bVfAMC1oItoaTlsCRFzeCpATPtIFu5CkgElYm3XEsVCRMC8Lpg/zxKkLCYd68eTJo0CC95S5U4D2IOqRkByIBluDjxo3Te0Ree+01FTkLVyQF14nGq8W3AdEu9I2CCYdtvkEISQwokEhKYkeP0B8oVuBH/o033pBVq1Y1ePU00pj+HEhVgdsUVnkbTLQiL63SpK3zT/Xcha7ockSKp66yg2odCQLmtq+UOfuc/6w+m25UaaUUqedRJp7CpSEiYSbaFSISZgQVIQ0A7x27JxA+d0ixy87O1ntSA1iYP/DAA3pLlElOv379wkqXCxZI8W5eATMJtHOAGU+salwJIZGDjWJTEDaKdYukN2/erMbIFUc6RCzARGDLli1qjGgSIjnNDRy0TD0W+rBENWcekZphRa6Y6TFOxslkN9VNekrPHitlpRqnSd6M6TJQAq+7fHB14PZoR5AV6lS51mmStg1ySN+22iO9bkc6nbO/tbN/m7lNmiOIhksRtlUkiW56JLqsX79e1RyZVFak0iGlDgsUqcrs2bMDjCj69+8vTzzxhN4KDeqO0MMNwGgGrRniGbj5bdiwQY1RixSvNu3BsFEsIS4USCkIBZK7GokfMPzoIuUtUax0owGaxqIvkgFd8Jk3T0hkOOaYY1TUGMDhDSlXLNwXFUm66qqr9JbIzTffrJrg1gUaxG7fvl39bkW7sXdTQQQJzxfA1Q5NcwEWyd577z1lUoHv2ljVv4YLBRIhLkyxIykJfpwgAmCakMriCCB6hhVOA1a849khipBEIT8/3yeOwNwpZ0v/Tv1lqhtEDkGVTO3SQlq0yJVSvceltv0Wy6bWuN+qwk7ObXA769JlqnNvzc+VV14po0eP1lsit9xyi7z88st6KzRoqAtzh3gTR1hww0KTcdkDdl2rcez77rvvZO3ataoGFr2ckMlACIlPKJBIyoHaH/xIoYAWq5FEpGvXrr4eTXCKsiNKhJCGg+8X9AMyeDweafPlD5KZJzJrSW0SJV1GrS+RHL3lp7b9fko3ifRrpzc06aM3SmVBhkheiTKl8Xqd+9iQL22G1CqzYkpBQUFAqtz111+vR6HB9xJqJeOt+SqEDp4bflfWrVunTBnsZrE49+i5h4iS7cSHiCIhJD6hQCIphzFHwKofBZILnPyQ7mGg6xIhTePWW2/VI5EzzzxTRo0aJRXSTSZNGCoyZ3GEozilzn33c2RUfWTJJAim8oq4iCKBu+++W4/cFLpp06bprUBgrIMoDb6/4y3yAiMGAyzc0cgWqWomMo/IHSLzpqJhxx13lKOPPloOOuggtU0IiT8okEjKgdxwQ3P1IopH9thjD5VzDlc/RJSIC+rUMLl5/vnna1yQMgMa10uKJCswYUBDWMNtt93m/F+LmHb9ZKjMksW1pMN1KqzQe1xq2x+Ac18ZfeuXR7JlqmSPqZCMIX4x5U/D66RS9Mx27rJSyVX7kdZnUvywX9/Qua9O6rg/bc9/X24qoP++aj6O4bDDDgtokFtYWKhHgdhpv7/88osexQeoKUOqst2b6euvv1aibr/99lNp3MaFD/VI6IMHm3dCSPxCgURSCuSImx8q/Fi3bNlSjYnLvvvuq/L8cV7Ky8uV/Xeq1yMhutalSxfp0aOHMvRA/5U//vhDvX922203lTqD8/TCCy8oIWULcJKazJgxQ49ELrzwQvWZkmWOwFEiJl36DQlKs1uWK23We1SEocQRT/P07lr3B1Hl3HVGUHpdAEXZrjhpP0uGbvbKxtFaHln3712aKfl9p4qM3igleSLz+hRLLh43b55kt8gWWeJV6XrzFinpI1P7rhMPbofrZLppe0jpw21zlhZLlnOt9NElUrK0Upx7qvE4dgQLvaCwQAO2bdsmjz32mBrb2Klp8VY3iucDN1SkC8JAwvRownNGRMk8d7jvwc0O/xJC4hsKJJJSoDjWAPcgTBpITaqrq+XLL79UkRGkikAQpDpIi2nfvr2aBCE9BoIJEx3znoLwRr8TpAmhxw0LsP2gHwxW1HF+8N767LPPlLV8MorvyspK1ffIMGLECPVv6aJ8yW/vRlzajKmQCivNrnTRPMkZAEkBUeHx1RrVtj+QKlm8CbKrDlQNEmqYMgOEVNWmcr946uPIrw3rxMSpjMjJ6JIhGQUlMsq5XXpHnYa7ZbEj17qJ8eLLmuCRjKJiFTXKGpCjRZTDFii39DofByCqMmzYML3lXLWoSI/8mIUtEK/GOhBGsG8/6aSTQvbXO/DAA1VEmhAS/1AgkZQCEzUDUxxqx3a1g0iiaUMgeO+YVWD0jtp9993V2IAUIPTZwmp4KrB161YlCmBEMHz4cMnKylKpU3CKxKQRkTakGrVq1UqlIqH2AtFKpLhCeGIb6Z1nn322jBw5UllAI0UN0blE4+mnn9YjUf2P3P43pVIsxigBl0rxhEizaxSOWJGOroiqmywpXiqSHWTQkFFQaT0vVxQ1mHYZktlZC6beuZKjxZId2arvcYYMGaJHovodQUTb2ALJRGiaE9SvInL88MMPy5gxY2TAgAFy7LHHyiGHHKIi8LB3N732AF43okyIlEEoQkAhNe+0006Tiy++WDXRRS+oigpbOhJCmgsKJJJSYGJrflwPOOAA9W/4VMvCEb1k+ALVqrRBoKFpr17OpbBM76mPMvHg+s6lMY/XVLCiix9zA3pGJeJkNRZgko+JMKJKwe8piCisGMPRrKysTKqqqgIKuhMVvJ7Jkyer9yeED1IPe/furWybkV72zDPPqHRDpBfZE9tQ4HxgMgz3r6VLl8p9992n+uOcfvrp6nxiwjlw4EC599575Z133tG3il/s2qM+ffq4g2XFIjoS5BKYZocozbxxOu3Mua5Jpattv03VEud6vfVGffSGTMv21REhIlQxZrwSM6B0iFtvVFGud9SGqqPKl+xCHQNznlu5r64JRhDlUrysVBZvylD7Qj9OIPi+sY1iTFNYgy2KmqN2FA2+Z82apcSMETrobXTZZZepuimIm9dff10tisBlD4IIdYoGpNlhnwH1i5s2bVKv89FHH5Xx48crkYX7xoLCySefLOPGjVOfpXiruSIkJXA+sCTFeOutt3yX7du3672pg/ND5XV+wPRWQ/jYu+CKbO+w+R/r7Yaw1luYne3NLlirt8OgeoF3mHObxj1eZCgvL/c6P9Dq4vzYq3NH6ua///2v96OPPvJWV1erbWfy7zuH5vLmm2+q/YnCjz/+6J07d67XESpeZ2KIWV6DLy1atPDuuOOO3p122snrCMeQ1wnn0qpVK68zKfUuW7ZMP7v4omXLlr7n6kyYvZUFGXo7x1uir+N1Rjn6OtLZ4610/vN01tt5Oe6xPFy7tv0G53iBvR2I/7Ht2/kfO2dp4HUyCpxn4tvO8Obk+Y/lFHi8Gdb1vJv92+5rsFDHMryezXrbIfhxQnHNNdf4rnPFFVfovS74znYEsreiosL7+++/673RZfXq1V5H9Hsd0eJ7Xg254D3vCCf1mb/lllu8O+ywQ8jr1XfB/Zx11lneBx54wPvJJ5/oZxcd7PkBIalMC/zP+QCSFMLulI2C0r/97W96K7nBqt4HH3ygVh87dOig98YKRIQmy8oe42T56O56Xz18slCGDysSOX+6TB/UPI0RseqJyIfpO3LCCSeo1U0SPkhRRF0SGkMGg3oFfAbjFWdiJ44wkoULF9YZCYJ7F4wskDKEOi1ElJBOhz4vSNfEanvwqj9+enBu4PSFeiTYN6M+CTU8SE1CWic+r3WBNKXBgwdLbm6uSm9qbvD8kUIIkEaF6GGqN6JuCKg9Mql2qPFDLV+swXsPz2P+/PkqalQX+Fsfeuih6jPctm1btY2oJ6KqqHHFb2vw3x/RIKTnwcwFdZ6oy0OKKh4LESVEXu1U8FA4YklycnLk/PPP13sihz0/QNorIakKBVIKkqoC6f3331cTGIAvftRAGKoXDJfhc0XyZkyXga30Tg3S4yav6in9e6yUJ1c5OyByBlcr8VItPSXv/I+kaK5zv5b4cW+jhtLzxuWSf5wlkKzbjpuRJkVmvDxfcGtz27QePUVWORMEI5C0YMIrSMO+1gul1+0r9f2rh/JR1+tpKCikx0QV7xNMAkjDMQYO6OMCUWBA7Q2EBSZIcFhEEXeo4u5Ygkn99OnT5aGHHqq19gyip2fPnkowH3fccarOxrY4jhRGXKKvDNL6MGGuLd0I6U4o9MfEsblAo1CcEwDxS6OOhoHFGFhgA4hsiGUDRAVEBMR2NL6HkA6H9NAlS5boPTXB3xYGDHjPI6UWQigabNiwQaXr4f2E9zxSc0OBx0eKH+r+8N0RCSiQCHFhDRJJGYLtl311Qajzqc6T5cuNmHBrjcyxorTpzrF8uWj0OEfGaFoNlLweGKx0/hsn4zBeVSaqwuhVjyNw0pQ4yWvtXGNNUN2R77ZBY+C77XIZl/aREkMuznO6w40mLZ+RJzJ3sixMy1eF8d3XWK9D1yulDcJzHidyh/+Y51V1qMGgI/zhhx+uJiX4oX755ZdVbQkJH6wiY3UZEyxYPiOygskNzikEKFaObQc8CFJbSDUErEqjDqKhblmIFt5xxx1qogWjhGBx1LFjR7n++uuVUIEj3aJFi9T1MFGMhjgCwbUYWFlHjyEIIZxDGzwvRJKwoj979my9N7YgGmZobqGbiNjmMKbHmAGLC/jeQYQnklb6+A7FewzNfIPF0U477aQilPPmzVNulXiPwUwB36fREkegc+fOMnToUPU+hkh89913Vc1fcJQU52PSpElqoeXaa69V3yGEkMhAgURSAqQ3mTQxqXxeLrroIik7Ybn6cVQXHflB5KVXr8kiY/3H6k5v6yl5QcfL1iAtpK2ktUqTgdP89x0O/ts6IueEnuK750/KZOU25/nNdZ6fiiI5/2n11H20/7mOExTOD5eFn+CIfnx9zBVSHlfENQJMTjFxx7lEQX1jJ/CpDibOEJzdunVTaWdIxUKvJQMiJBCicMj68MMP9d7wgHBB/yo4YTXEQW/mzJnKDAFCBOluBjjMYYV69erV6j7vvPNOX4SkOYAQg0MeIlxIyYNj3LnnnquPukDYYXKJqBZMH2JJvDmtJRr25yA4pdP3/e0QCaMTLEbAWASX4FQ+WPnDOAGCF+IIIgkpc80FHCHRKwqRVESXMA6OGN1zzz3KUfOWW27RewghTYECiaQE9orj37r2twRD9CIv0QCpdUbwmLQ6OxI22ZFItUXCXEHopvE1Bjjb2RMYiKT6HMpI/WCVGmlFSMnC2AbRIABxinQts10b9sQxeAU+FG+88YaaDF5++eUBq8+YaBUUFCjBhVQ7pK/FI3CJQyQLq+ywWrbrnJAqBNtw1GnEamUd0VZDfXUkpCb2oktwzVokxSfeK4h84nvUBgtn+EzAWQ4NfrFAEG8gQopoEt7TEHGujbwLztHEiRNVjW1dqYKEkPqhQCIpgZ36gh4VIFqRl7Q0xH1WSpESXY5IKVzo/L82qqV6qx46mNuWQZRVI06kaZUmyLqvnrtQPY/qBR5ZuNxjCR/3YqJdoSJhwXVKjeHUU0+VM844Q10QSYhWalWqAWGEekDU9SAFDykzEKPu+8Gd7CO1CNEhrHajZilUCp1toFFfhA/pdOjVgpRJAwrMsRKN+4dld6LUJ6JeZcqUKWrSiCiY/b4sLi5WKUuhmo9GGjvtChEu0jBsIYseWja2QGqs8QXe66j5gy23Day7keaKlDZ8/hIFiDhEwhYsWBBgkY7Ic79+/VRtEhexCGkcNGlIQVLRpME2aEBqU2Pyx/3GC2mSN7GnrJyoDRO0mYK6d23UEHDdGdMlbX7g9kAxhgtpktbaEULIhlK3TZOFI4ZLEbZbO8e2QSTp21Q7guh2NxVEmTQ0k7MdiT0oIP/jjz/0lh98fhF5MuA6L7zwgq/fCpzA7KgGQFTokksuqZF+hvoipOfE46p5Q0F64YQJE2TOnDl6j8uVV14p999/v96KPBCl9vcpRFJwrRSpnbvuuktGjRqlxn379pXFixerMbANOmCSALOGhoAmxhD9Nui1hfc87i8ZQA+xm266SRlaGLp27SqPPPJIQKSpLmjSQIgLBVIKkooCCT+sqKFA406kKBCSSGDCg1Vhuz7IgE78SDn6/vvvVdTJrg+DsQJqiwxYbYaRgd3hH+lzU6dOTaiV83B56qmn5LrrrgtwAcP5QlQpWkX2aPSJ7xrw5JNPqpV8Eh7nnXeeSpkEt956q5rsG+DqBqMEgLRQfJeHy6WXXqpEggGfE4gxCOZkA6IcIhM25QZ8P+A9j/NbHxRIhLgwP4akBHDoQgoCxRFJRHbffXe1AoyJIUQPtgFS6jD5QXoQCrhhpmCn1MD5y6yBPffccyqFzxZHN9xwg7pNMoojcM4558h7772nRKFhxYoV6jw21AAjXBC1M+Cck/BB9NMQXPeGuhpE42BwEq44wvc+6tRscYT7feedd5JSHAGkycJY4sEHH9R73PMwcODAgH2EkLphBCkFSbUIElaP4b621157KZFkGw0QkqjABAC1S6jHeO211wLq7GwgqBDRgPubAbdB+llz9gyKNai5Qn2SAamJpaWlEW8ajdRFmEMAfOdE0pI6mXniiSdkwIABaowedU1tJYCFArznkZ5qgCMjTEdSBfSVQuNdux/XvffeK1dffbXeqgkjSIS4MIJEkh5TLA1XLzs3m5BEBq6Cpli9ffv2NRzwDIgu2TbGSC1DsXoqiSMAa+THHntMb4lyvkP6W33OgA0FEQtjMIDvHDt6QWrH7l2FaEcwiPog+gcDkXDo379/gDi6+eabU0ocge7du8uqVasC+iehdxnc7wghdUOBRJIaFK0jQgZXMFziKVqGlWW4NuHS0KaehNigRwv6otTmKohGmIiYIEUJDVfj1bY72mA1/fHHH9dbbs8k2IBHGphgGLBiHx1KJbdFC9VHq1NhlZQOyXX2JCYQ7HhfGmC3bYPvxy+++EKlitnRkNoYMWKE6pFlQPQQ9tepCH73kOpp9y+Dax+szAkhtUOBRJIaTBhh62ouDSnsjTbIboWjGBogMu2PNBY07kUBOyIioZzuACaWEOQwDYCLYyqDNC47koSoxDXXXKO3IgMm6EasorEnrNMjTemQbCkvqFTfIyWSLdnRdzGPGrfddpseiWr8G/wetReQ6qsKmDFjRkCtzfjx41WtXSqDmkX0RcJvoAHNlJn+SUjtUCAR0kzss88+quAY6VGENAaI67Vr1wakjiLt7uCDD1ZmDKiFQb3B4MGD5eGHH1YpN8SNJE2aNElvuVGeSDbWRKH8jTfeqLdE1T6FE/loKJkd09W/6aM3SkmeGiYcsKa2e3HBbj4YCHxDXU1ikU5qmy/k5eUFiK/QVMnULm4kLviSu0xfxbAsV+1HxM63PaT+uF1VYSd9n7lSumWq5JrbxxD83sDJDqm5AFb4SLcjhISGAomQZgST2PXr1/vsa5uPalk4opcMV81tGwZ6PqFhba/CcFvplokH13cujXk84mfLli3y22+/6S13pfj4449XYwgjHMN7DGNTAE9cIGBsC+4xY8bUG51oCEjpggkO+O9//6uiSpEka0COzOvjn6xnzSkWY8Phn5Cb4zodr8tUKTXHfBP7mgIBt3Hvo5NMXRa9CT1s5+1JOuypQ/XrCbdJLCJF5rqwWw+v/itdRq2vFE9nkZylXvUeUJelIWr0ehdLZUGG3nBwtr1z9FmvTfg4+7PHZEqJut9cKW6fL+X6UKxBBAkRNgMEk51ySgjxQ4FESDOBVX+sKqMGye7Tkmh0Hz1OeupxeHSX/Bl5wja3TWfvvffWI2eal56uGl7usssuqoeMARPO22+/XW8RG6S+mRV1iE07qtRUkGKHXjsG1IGgJ1PEwOTcmcRXjGnjCpktej8m5Os9eqJfIpnO8dxlWVK82SMZG/IlX0rU/pyiYrdmadl4yc/EPi0KOnukZLTI4vVDpdK5noyLzoQerouohTFg8l5YWKi3ArFTR2sTSIgA2nVHOPdNSql2zm9xbz0Og6ols2o/T527iSur3L9Dpho3D6i5u+CCC/SWqEa5hJCaUCAR0kzYP/SwbG5e0mTgtOUyfRBlSyKBAuxjjjlGmS7Arhqr/6hHWrhwob5GYH0HCSQtLS1ggogJummyGwmys7MDmp3efffdcuedd+qtCACR5AibygKR/PauSMJEXbqYKEeWTCrIkHmLdLRIiR83Lc9HhjN5L68QtUSDsdqZ7vybL21ajJeM9V7ZGHybCICmpajPMiCygfdvKNDvywBDklCg2bEBJg9nnnmm3moEy3KD0uuMIUauLNZ7IEQ7Yd+QUhVtazOmwhWrwSl37frJUHUutYlGu1FS7DuffqMNlX6HXb40vlJfZM/3XPQx/6VxxhxYCDB1rzAqQfotISQQCiRCmgl7dfOXX37RoyjwyUIZXks6m5se55FH7TQ5fX3sX7hgeI30OV9KnXPxvKp3Gqzbltljfdjcdvj84OfiT7tTj/WqJ/T9O1Sr5zRcFn6id6Q4LVu29EVBgJ1Cg3P4z3/+U2+RUCCtC9E38MMPP8jMmTPVOFIgmjdo0CC95dqNFxQ4iqaJ2K51bg1ShcxaUjMSnd4xUzJ8gikEzoTdk4kJvDPhbj9Lhi5xzoezO2uOTglz9vtqbiIA6okgHO2msLNmzaqzPm7HHXdUxzt37qxS54KB0QZq8QyNNWVAyqISHn3m6T0AKYj50m2zez7WOUJI4Zy3Ep1uh/OP1LsMmGaYlDsfJoVvnmTjvi0BVTrE3C9Ebrlkd5kqVTqNr2JMvsgSN6rnClzneYwrF4+6vkkJ9KdVNoRWrVrJ6NGj9ZbI9OnT9YgQYqBAIqSZwAqeEUnIm4+oSNICQ12GVUvechMdcmuNzLGitOmyfHm+XGSnybUaKHk9MFjp/DdOxmG8qswVOc79Tl6VJnkzpktea+caa/zCSeG7bdAY+G67XMalfeQ8Ez9lhZNlZY9xznNxnseqyeKRfGe8XLqv8T9XI/DSBuE5jxO5w38slJBKRTDBRwNYQ6TrXpKV4cOH65FIUVHk7eDmz58vp59+ut5yjQhsE4fGMU/yfcKlSirKXdOG9L5DRcZk+1LuSheVy9C+juSpWCd6ah/IslzJ7+K64Xm9G2VUO+yEKIAAy5JipOnNWexGmJoIetKdeuqpqkGvARE1O9WuNhBxRwPZUMydO1eP3BQyU/vVUHw1SHb90ZbF4shG6afOixuRazgQSbhvpDZma5FUKsVFjnhV9wuR5ZGcDbNksf67ZRSU6L+FIV0yMitknfojYqx2NhrbzKK8vFxeeeUVvUUIARRIhDQjdnPPyAgkHYlZ010JDPeSL1ibdSMvk0XGmv31pdT1lLyg42Vr0HC0raS1clPylo8O3xXNf1tH5JzQ06pBcsTXKucfRxjh+eFaH21zxVD30f7nOk5w3ESO9OPrY66Q8keqUhXUYJh6DUwSGT0KD7jaGdCQ9L333tNbkQN/m9NOO01viUyePFk164WBQ6Po4hGPOJNtlWrVRmYNqXRrZlRkAyl3bjQkvwsm2qWSi6jIhnxpM2SqI36yHXk1z41YZHRzBBXqmHT0xNQzOacE0aMWLbKdJ+tGlZoCmhXDQGT16tV6j5v+Gcq1LhjYUWMCD7c7tEYIZvFiX+Kbcq5rMg2sP6qTAPMGXQtm6r8CyJBunf2CKRRZEzxSrqNc2VLSpOcIp0XbuOWpp57SI0IIoEAicYWaxI9YGBBdCAtfxCT8SbIrGJp3Ym3n1ttiqfF0l3yIhhPK9GtzLvp8xn3kRUWQXMFjhJudzjfZkUjLl0+XgY7ACo6ElZ2A27lCMJVBqpGhd+9IzfCSn/333z9AvESjiebOO+8szz77bIBzHiJLRxxxRKMeL2v0KOeyUUd+AuuEkPIVuB+RIB0dmTNKRzOcy3pH+FSIDNVpXu7FI7JEZNRoRyTofU0VC1OmTFHNim0zGtRjoUdROMDQwfDNN9/okQtEEyKnABGmM844Q42bjiMqISDbZUimIyzHqzqgKlk8J2Qcrk7Kx4z3CyJE8pRpQ5bk5jki1aTcIVKVmevsda6yPtRjVMnUvuvEY/5ONVL5Gg7aABjslEdCCAUSSRaOy3dTwRoABENDbxNp2rVrp3Lqjz766AgJJI1zPozYWD5WZLIjItwUtaZFXlDUjtS7InVfjkgprEvMVkv1Vj10MLctgyirdo6pvSBN0lo7/6wqcqNDjtj1/MsVvK7wcS9GNIWKhOUfpw6lPK++6le8mJCS8OnZ0+/F+Nprr+lRZEGaGJr1XnvttXqPMxmuqFDiDDUhtp11bEBdyyw91ixzJudIyYsAb7/9tkottGuCIBRhLd2Q5rx2o9hgFzuYkhh69GjMFzrSCdtI/garBklHzsqH9JN0iEvUAalj2bIuE/VB2TL1Rdh3O+eqKFuZKKDWK6RJg8PQpW4tl7rfPiIlEKbO/qw5OuUO+9s74geiZ1muavqL+8otnCqdEPlzrtOpUCQjU9cxmUuIx2oIp5xyih5JnLSbICR+aOHFUgRJKfCjZUAazt/+9je9ldgg2jB5VU8Z14BIQmNuk4y45wGjNMmb2FNWTixSAiathzNpXLXSFTOI8IzuHnjdGdMlbX7g9kBZKMOH4fYQPo4Q2mZumyYLRwyXImy3do5tg0gKvo25bqrHghoOUrVg8W1Avcff//53vUXqA9Gds846S40PPfTQAIe1aDB79mxV+2T3sTrkkEOU6104NTkRA85otilBXkmToxPfffedckpDlMgGKXYwEYHZQkN4//33pbraXVJBY+22bduqMUBKnalBgp09mvImJ46QK6yQUaP9f5sqR0BVIJKotxtD69at5eOPP1bjNWvWBCzUIbpJSMoCgURSi7feest32b59u94bbdZ6C7OzvdkFa/W2RfUC7zDn2LCCid5sXCe70Lm2vn72MO+C+YXu/isWeD/WNzG3sfevLQhx22p77N7Uf9tCb6HvNi7ufZh9H3sXXOGM7cc1lLnPqbBMbzeS33//3fv66697V65c6f3ss8/0XkIazgcffIDFLnX529/+pveGT0mee1vp7PFWLs3x5izVB8LBuT5um1FQqXfUTmVBhu95BlzwuPo6DaPS6+mM+8jxlug9jeHDDz/0PZfddttN740uFRUVXkeU+c+Bvhx11FHeefPm6WslDt9++613woQJ6vwFv6Ybb7xRX6vhvPvuu95nnnlGXaqqqvRel5NOOsn3GAsWLNB7kxB8xvLsd7jzvi9oyjvepUePHr7zN3/+/ID5ASGpDFPsSPTw2TzjUiRpM5b7IwOhXNZG32ylvHWXgecjpapaiqq7y3SMt62UMlWgXy0L7yiSakQabuxp7TeY2waPgXXb5c5zUZEPjXJZQzRpufM8Vsrkwmo3HU2nqLnPV6ej6RS2UC5rDQHNYrHaitV/s4pHSGOw6zTsBrJhgbSeco84AkW8S0SyA2yOw0BbE4dDxXqxrIoz/ONGu3LBIaxELN+xRrHPPvvokaheSHZkJ1p07NhRObohqmI//ptvvqkMHBBpuffee301NvEKjC2uuuoqVfgPW3O7lxRc65D6GakmvH/+85/1yMVOC7PPYdLRe5J4yo0pBy7ZIn2bXodknzOm2BHihwKJRAFdQH+HKLHh1omY4vraXdZCkyZ5g4OOflImK7c5R1DTooSKue8wsG/rPGp3K2XddVlzhJHz/FTK2FZdJ9NqoEz3PdfuUobnr/sC1e6yFh52OkOj3awIcUB/GUPwJDIsMjNcp7J2o2SjbXMcYbLmGCtpG0fkzGm6U1pTMI0zDbGsB7r88svlo48+quHohtQy1OrstddeymkP3zPxwpdffikPPvigqvvJzMyUBx54IEBUZmRkKMt5GIcce+yxem/jMJN4/I2Crb7t933w3zC5MFbh5hLqc9Rw7O+K2NfAERK/UCCRKKCNAEJFXhxRUpvLWnzgRpCU6Jk20HklDgGRsDLpjmM6Ela7y1p4oAGiATbfxqKZkIZi1x/9/PPPehQmvXPdYnG4dqlty+Z4y1TppFet/Q1DSyXXrGTXKBT3H0Pxevjo23XJldwu+Nd5LqiPCfE4pUP0PmNJbVFV2Mk9Zl5LmNhRDwAzgViy++67q55AqLVB81r7uwEiAP2Z4EwIsYReP4899pivLidWvPXWW8qRDsX9qG9Dny3btht06dJFHn74Ydm4cWNkLLcdDjzwQCXEYKRhnxdgv++D/4akfn766Sc9iv17npB4hgKJRI86Ii+1u6yFQas0QYlu9dyFruiC61kddtUBkwhz21fKHFHm/BfCZc11aCsTT+HSEJEwHe3SKYKhXNYaAhyZgkVSsoOmhLCUxeWll14KcKgijWe//fbTI5HPPvusgWLbbQiagz45jrgIEEJw11Ir1iWSqRqQwvUrX7qZ1Lhy18XLx7JiEd1ws2H20LpHzIZy6bbEuf36frJ4XLlOwYPbl9s7BgIIPWBw/5Xo93OrLdCqZPH6oW6qoHYKC5dPP/1Uj6RZzS1atWolHo9HRWjwLwwjbJAGVVxcLBdeeKEcfPDB0qFDBxVduueee9Tn6YsvvtDXbBoffvih6i80YcIEyc7OVmmbRx11lHKkg7V2MBBvS5YsUT2kLrnkEr03MmASj9cV6vsRFu0GvO9Jw7DPmX0uCUl16GKXgsStix1Ex+1Ic3PEyvmXSdu5M1XTUOnRU3quWumOW+fJdER2ENWxXc8QkfLddrojVqrFo5uOprVOk2o0HjW39T1OHS5rKpIUG2c75Od///33agy7b6wQJzMQRGvXrvVNdg4//HC6rUUIfJbNKjomqljNbzCIGLXPFymolI19F6ux3ZUlZ2mJSB80GvWT4Vy3xJEt2XNEKjI9YbqgQWhliyyxUoXw2H39NsgK/XwqJEdKvI74GtJJKiYEpxch+pQv5Z1Fhtr31wAQoTENY0844QTVmDReQJNVWGNDsEA41ccee+yhHPEOOuggNemFuEGECtGWv/71r7LDDjuodCp8BiE+UL+GBqwQIVhQQr+icNKtjjzySOnfv78MHDhQ0tOjlyCJmiw0i8XzhiU6/jWMHDlS7rvvPjWGffpdd92lxiQ8dt11V1/EGSmddqo3XexIKkOBlIIkq813ovLBBx/4GigidQUTGAN+rJAjnmy59TCnQCQJE7eGWv6S2kEakkl5euihh+Syyy5T43pZliu5YqXVIbVtXDephGFDsGBRYqRYch2xYssgRHbarM+UnCKpcSw09QskpNIp84j1GTJeP6Y4+4oHBEenXIEkeSLlXUoCmqaGC9LFUFMDYDhgJt3xBsTSc889p5rLQjjEEjS2Rn8tiJR//vOf6vcjFiBi9euvv6oxxKvdYPvRRx/12aJ3795dLb6Q8MD7B4tyAOcUZiD2/IACiaQyTLEjpJlBigx+9DHhMOII6VFYzVu1apWa8CZb6h1WszGZhzhCxAPRDtuFjTSOE088UY9ETaIbwrxx/pqdqk3lrmlDuwzJ3JAv400KHYTUsgzp1nme5Js0PEfU5DpjdP/P6DJJipc6oqqJDSxdSqW4KCdInInzGBnWc3VE1hBnvKVCyiVTcueUyNA5SANUBxvE888/r0eB5zHeQB3OHXfcIW+88YZywIQLHpzj+vbtq3oERQpEmxAhgviAAQMeDxPopUuXytVXXx0zcQTsaJYdPQL47jSUlZWFFWEjLvZ3xEknnaRHhBDACFIKwghS84HCZaSxoM4AKSl2ZAiTD/wtsFK6bt06X9odQKoU0mWSEbM6jHosNJK0i65Jw8DquT1hRFpSWCmby6bKVOefWX10Ol1nRG20MPGluNn7EbExaXaOiIEo0tbgdgoeUu9CR3Ps2+M2iAhZ+1Sz0gyZ2qWN5Nv9WvXjVyCyVOTuyllaKd3G6es5x0uGzJLsMXi2bkpeOMl+WIiA8DAgwpmo34twkoMjHtoGoL4EggFCCq8JEWkcx88+hAZcNJFihZQ8OMUhHQ/fTUjPc2sy4wM08TUER9kBXPRgNQ5giw4BR+oH6c3vvvuuGkMEI4rKCBIhLhRIKQgFUvOAj5q9YgdBgCJrTEhMvQM6xGNSY+eBo/geP2SY0EBgbd68WaXkYQL0+eefq9oBRF8gsBBpMra3SM2DKxH+vi1btlT3gz4leEyIM/ztY7kKXBvo3m7qZpDmgTSZ4FViEj4o6sf7BMBxbMyYMWpMage1R6hBAoMGDZL58+erMWl+ED2CoYvh9NNPV9+dNoiojRs3To27du3qE0ukdiA6zzrrLL3l2rbjN4ICiRAXCqQUJNkFEsQFfkCDVxmbG3zUUHfz1Vdf6T0ueJ6mfwiet0kngVUxokhwpoK9Llb67J4fkQAryBBfSKVBrxJEH1q3bq2PxgYIO6TGmK8iCEbWJTUeFKnDJhog6gghTcFZO0jvxKTagEWMM844Q2+R5sYWSPh+hEAKBlF5LP4Y4PKHRruRQNXWqYhkECrK2cRGraj1W5Tr3I+40VM7chtlkNJtFuywQADbeECBRIgLfzVJ0gAnnsrKSvWDGm/iCEDwdOvWTVnl2naqdnNFI44gFiZOnKjcoVBsjx+tSIsjgIjTa6+9ptIr0FsFqTWIQFx33XWqwWMsgEBHU0nDJ598oqJipHEgTcY01oR19S233KLGJDS33XabHrn1PRRH8QVEESIbiIjXFvGGCyaMNQyTJk3So6aTPnqjVBY4308QRM73srrAjh59w+qstdP1cXorJL2LtcjKkuIoNmcOZtGiRQHZDPa5I4S4MIKUgiRrBMlYwYJQaRjxBmoCkAoVypxg2rRpqrdSMDA3gKlDmzZtVKocGihi8oA6E/wdEREyndEhqBBNw+OgBgGRK6Tvbdu2TdUowD2vvoaimHicd955Mnjw4CZ3w68PpMWYHi6IfDTKopoo7r77biVyDYhAcjW4JnPnzg1oZoq0ozPPPFNvkUQCiwFIHTZ91ZByd/vtt6txU3EdGoPs61Vt3iwZurkWW/kgR8Z6Mc6RUY4g4TcBEXosJgKYcMyaNUuNASNIhLhQIKUgySiQgvPUYUUb3HE9nsCPOCJD+GE699xzA36IUGNkioyR8oaaHESdEH2CMIokEEkwhIBDFdLc8G9tHHfccaoBpLHUjTQQdBBJaISJ17vnnnvqI6QxQNC+/vrrvjH6bRE/WCTA+wzvN4DGq7CMJvHHpk2blJELajRti+9gCgsLA2rusMiEJrdNJaRAQoSoSxuZNcQ1IlGW9KqMLUdKNneTfF//MJiFTJIKn+FIhnggqkSbn5hUPVsgaWMUKSiRoesrpN+cyImmiy66SP71r3+pMc5lRUWFSms2UCAR4sIUO5IUmEkOgDCKV3GEiA3SP5Avj7QGCILJkycrW28DUvHQkR4NHGHegEJ7iKhIiyOAaBSiQ4g4YDKNSNPChQvlggsuqOF+hgn20KFDVY0Srh9pEPlCLRSif3DWQnQNTStJ45g6Fb50LkijxN+O+MFE0XxvIGLp8XjUmMQXqFHcunWrMqTZsqVu//bRo0erHk0GvOex4BQd0iUj0x1BQOV3qVTpd5UF5ZJ9a4ZsRBoeaorgpLhsvORnuil6lQUis5ZUibQbJSVI3QtB1ZJ1MnSzV0okX/LL9c4IUFBQ4BNHAPWKtjgihPihQCJJASb2hrBsjZuBe+65R4mLm266yZcKCFAHZBs3IKXtnHPOaRa7a7jd4fHxI4rniM79AwYM0EddUPSP9C2kszzyyCN6b2TBqiYeB72gkDpDGg4s0+1J/+zZs31OX6kO3uPGORLMmDFDNS0m8Yft6BlOPzg0+zXRZzizoY7zm2++UduRpUoqtHhBD7CKMW3U4pYydCivCKw90rVGiDKFNHwIIr2jSH77FjK+40bxRijlDtHR66+/Xm+Jyga49NJL9RYhJBgKJJIU2BEkTPLjCTSgRKrCtddeG/BDDUOEO++8UxkSwHEJRgVw00JNUbyA5pOPP/64iuRMmDBB9t13X31E1KoufmBR2B7p9C07AohIkrEBJw0DbnaXX3653nLtkCHQU5nc3FxVpG6AiOzVq5feIvGGMa4B4dSVolnunDlz9JajVcrLpXfv3jXcQ5vMlsUya0OGDO3ryhf08kKESF2CRQ1S5hzxVDwAEaTQUaMAIKic+8ld1EJadKnH6CEMsOBlp0bjO/vhhx/WW4SQUFAgkaTAdoKLp5VgiCIUfaPOxwBhBBMG9DLCih4iXnDdQ3TJtqqNJ5CGATc0pLkgTcMWSmiyiTqpm2++We9pOu3atfNF0DBBwvmzJ0okfBAd6d+/v95yHb5SsZEm0lv79Okj8+aZ9rSiPn/GEp3EJ7Z7Z7jGOxBEtgBAiumpp56qItIRwTRPzvMog4aMLhkyb5wRMjXd66qWzBIpqJTi3npHPSBlL3eZSNYcr5RkzpLFdWcW1gkyF5BOajjssMNUGjUhpB68JOV46623fJft27frvYnNtm3bvM8884y3vLxc72lenAm998gjj4QBiu+yww47eG+77TZ9jcTmp59+8jqTy4DXh4szCfF+9NFH+lpN44cfflB/U3PZsGGDPkIaQ9++fQP+Vo5Y8H799df6aHLz9ttve7t27Rrw+h1hpI+SeKaqqsr3HfDuu+/qveHx4IMPBvzN99xzT+/ixYv10fCoLMgIuA9zySio1NdwKcnzH8tZqvZ4c9R2jrdkaY7vmO86D3m8GWa81FzXvd/KAo83x9xfXom6/8Zw1VVX+R4Ply5duni3bt2qj4bGnh8Qksq0wP+cDw5JIZLV5jtewOocrION3SxATREclhAZSSYQ2UFhNJrZGhBdKioqiohdMuqP1q9fr8YwcbALsEnDgVObaQgJYBWPHlhYcU9Wpk+fLldeeWWAEQqinegzRuIf9EXbsEHZv6nvz4Z+hyLdDqYzNmPHjlXmOMkKzH9gArRmzRq9R+TEE09U6dJo3VAXdLEjxIUpdiThgV3vyy+/rNK/mpv77rtPBg0aFCCO7r33XuVKl2ziCMB6/MUXX5Rbb71V7xFVU4Uu7RBJTQXuYrD2BdFw8Us1UIswfvx4veUabiDtDAICbmHJxIcffij9+vWTK664IkAcIfWK4ihxwIILUo8h5pGG3FCGDBmiWkCgZ5wBtXjHHHOM+t1INvDaMjMzA8QRmoAjFbo+cUQIsVBxJJJS2CH0ZEixe/75530pGM3JlClTAtIZnIm995VXXtFHk5/ly5d799lnn4Bz4ExG9dHIgFTK999/3/u///1P7yGNYcGCBd6WLVsG/K32339/77Rp0/Q1Epdff/3Ve9NNNwW8NlyQXrR27Vp9LZJqVFdXe7Ozs2u8Ly655BL1vZLoIHXw8MMPr/H6CgoK9DXCw54fEJLKMIJEEprvv//eV7yPAl7nPa3Gseb+++8PsFBFg1fYCOPfVAENGVevXq26tBvgcldcXKy3msZnn32mHO0Q9Xjvvff0XtIYYH2MNBzbvAGWyCNGjFBF3HavlEQBjURhIIJIw2233ab3usCUAq8XZiIksUBkE050Te1nBKMZNI7Fe8QGrQoQmcrPz1fpfIlGaWmp6h2HaCne4wZEyNauXatSoAkhDYcCiSQ0dv8j2HujD0WsefLJJwNcwVAns2LFirh1pIsmsCo3tuYGpHesXLlSbzWeHXbwf11hMr9t2za9RRoDhMQTTzyhapLS0tL0XlE1X3C9gl0yJpN2z654BKl0WJxA+hD+xXvDcPTRR6v3I9Jc7fcPSRzwOcffFKnU9t+2sUAwoKYJdaE2aKyMzwH6A0W6bUE0QF+z4447Ti1M4ffGgIVC1FfBuY8LAoQ0Hv5ikITG7n/UHA1iP/jgA1X4bsAP0tKlSwP6+KQaEIZPP/20dOjQQe8RNeFu6kR7//33lz322ENviWzatCnp6maaA9RoYPIJ4wL7fbtlyxYlOPbZZx8ZPHiwqqOLFxA5RuNL1LrhfQYh95///EcfFTXRRcPQ119/Xa2uk8QFkUGDXdvZFA499FD1fkYj7KOOOkrvdZk1a5b6HkcE5q677lIR63gBNVOoqcNv3dChQ5UIskHPs8rKSmVCQQhpGnSxS0GSycUOPxjmBxQ/aLFuEovJl1m9QwoHUhqwMk/cBo3HH3+8rxM+zCvmz5+vxo0FnfRRfGx6o+y8887So0cPNSZNBwYbiLYgZXT79u16rx98V2RlZckZZ5whp5xyiurpFSuw6g9DkOeee06eeeYZvTcQGHkgmjty5Ei9hyQ6b7zxhi9T4PDDD4+K0QB6Y+E9Hyw4DBBMEOPIDkDUJlZgUQkOoTCZwHu+thRApDLjPQ/h11ToYkeICwVSCpJMAgmCBFEENFrFhC2W3H333XLdddfpLVE/YPgRJX7mzp2rLM8NRUVFKuWuKWASb7+HMXnZfffd9RaJBBC1qM1AlAZCtzbgMIiFCUykULuECVokUkvRRBlNPVFTgb81IkF1uVSiCejFF18sOTk5eg9JFsrKynxiHe8zu0l1pEE6JiJIsMOuDfxeHnvssSryBMGGmsuOHTs2Ob0b2RCosUR9JT5zEIbvvvuuPloTLMQhMo9Ikp0i21QokAhxoUBKQZJJIP32229SXV2tfjRjOUn+5ptvJD09XX788Ue1fcMNNyh7VVIT5PRj0gGwwo90rqaC+0DRNlJNUGdCogcWITBhRDpSOEXsSINE0TsiqkiLRIoePpu77rqrWshALRCMVRD5/emnn1RqHD5PX3zxhbp/iCNECusDYgwmEzCc6NSpk95Lkg2Y3eB9AvBZj0UqNcQ4+tmhRg/v//qAOMJ3G4QKFgjwe7TnnnvKbrvtJjvttJPq4YapFn6vsPgAwYeoGGqq0OsNdVZY+KkP3F/fvn3lvPPOk169eum9kYUCiRAXCqQUJFkEEiZZ+KGJdVodgCCaMmWKGmMVHfUaJDSY/OIcmVVg5PVfe+21ahwJUI+CCyYmf/nLX/ReEg2Q3ogUN6S6xbqQHX/bnj17qjQnRGoRsSLJz1tvvaW+QwD+/hAcsQTiBdkBSHNDSrdd9xoLEKFCdgQabyO9NdpQIBHiQoGUgiSLQDKpF7GOIvz888+y3377+VY1kYqENAdSO3BVuvHGG9U4UlEkgCgErMUhljFxQs0TRVJswGcPNRtvvvmmSgmC+x0c5SIB/oZwRIQIQjNipDOh9gMOXSS1QJQe0RVET6KZXhcuJv1t3bp1KgUOaXGRMotB2hwEEVL3jjzySJXKF2s3VAokQlwokFKQZBBIECmYGBtiWfvz0EMPybBhw9QYaXZwDSJ1AzGJdCsjKuEgFWyz2xhg1oBohvkaQzoXJhakeYDLGMQvVt3RtwopREglQoQPn1mkGOFvhTQ7OOYh7Q4peXvvvbd6fyAtD+l5ENGEJApIk9u6datKEUV6HiJeSB3F9x3SRbGAgzQ8CH8Yy+A3Fwt7WGg78MADlTDCex4isLmhQCLEhQIpBUkGgYQfJKxYA0ywYuksBAcvpFuAiRMnKntkUj/Dhw+XGTNmqDGMGmDYEAmQ3minOOI9zQk2IckBvuchtLEYhVRdEl0okAhxYR8kkpDYPU9iUbRrQLqHEUcA3ctJeNjn6tlnn9WjptOuXbuA9wDSvNgfiZDE548//lCLYYgUw5SFEEJiBQUSSUjsQtlYmjTYhenoAdOlSxe9ReoDPaNMgTVSUEwEMBIgZx8OaYavvvpKjwghiYrdGLapNtqEENIQKJBIQmLstUEsBZI9qWetS8OxUzYiKZAgjjIzM1URP8bI6yeEJDamITSAVTYhhMQKCiSSkBhnH0RxYulahh4tBtS6xI5SyW3RQq2idiqsktIhuc6exMM+ZyhqjiQQyieddJL06NFDmQDAKAA9RwghiQnMDQx0MCSExBIKJJKQdO3aVTnXoYN5LDH9OAAciGJF6ZBsKS+oVA5gJZIt2ba/wbJcyV2mx3EOnMoM9rmMFHBGw0QKVrwVFRXKCj6cpqOEkPgDNUgGCiRCSCyhQCIJB6xU0Xvl22+/1XtiB2yKDbFuWJjZMV39mz56o5TkqaGidNE8PYp/IGAM9rmMNKZeATUMEEs06yQkvsFnNNhcBQ6r5rO85557qn8JISQWUCCRhAIpF2jMB3GEJn2xxjYCiGVkImtAjszr46bXqe05xYKe6qVDWqhokv+YPxWvRQs3Da+qsJPazi2cKp3U/k4y1e+KHVPsc2afy0iDVD4zsUIPnk2bNqkxISQ+QePVtWvXqubD5nsCUaPu3bvLoYceKp06dVL7ABpEI0KMCyGERAMKJJJQwN7bpF2YCXAsQSNSA3pzxIzexeJdmiMVY9oECJysOV4VTcpZ6pWNo9MdwZQv3TZ71WpsZUG5ZHeZKqIjTvPmiJSo/SL5faeKv5oqdtjnzD6XkQb1SHa9E+qR6GxHSHyCSO/XX3+txviOX7NmjWq4CmDOsO+++yqxpL7XKitVk3B8pvm5JoRECwokklCgK7+hOVIu0KzQgH47MQUiyQic9qGiQKVSXJQpGe3crfTRHsnZMEsW6+vlTB4lePbpfYdKxoZ10hxrr3YvE/tcRgPcvy3CMJkihMQfEEEHHXSQ3nLd65Ah8N5778mqVatk5cqV6vML4YTvXdu8AYYshBASafjNQhIKu/9RLBvEGg477DA9Ennrrbf0KPrYrnVuDVKFzFpSXwwoQ7p19gsmH+0yJLNzN+do7LHPWSx6SMHMY7fddlNj2yCCEBI/IBsA3we42GYMn332mR6JSpP96aef9JbIrrvuKkcddVRUI9GEkNSFAokkFEi/MDSHQDruuOP0yI1IYIUzNsyTfF1/JFIlFeV+0wY/WZKbN0+yh2gptWWxzMrMVbVKoHyTe/uqwnyZl5mhokmx5Pnnn1e1AwApM507d1bjaAILeNQw9OzZUw4++GBl8GFHIQkh8QOiSMcff7wSP8EYoxVEm1CPdMIJJ8jee++t9hFCSKShQCIJhak/QoE/HI5iDX64zzjjDL0l8uSTT+pRlOniEY9kq5XWFi3ayKwhlVLc2z2U0SXDZ9KQNadEcor09dqvE88cI48c5rj728wZKpX2/hixePFiPRI566yz9Cj6IAUHjoNbtmyRDRs2yBtvvCFffPGFPkoIiSd22WUXtRC1++676z1+TK8zLHY0Rw0qISR1aOE1yzIkZXj77bf1yHX7ag6h0VjgSIYGo3//+9+bLWVq5syZcvnll6sxGtXazWPjFbjdFQ/w+kRVrPnxxx9V3yjTuPXpp5+WPn36qHGsQHG3qRtDGg9WqjEZCwbPFUKYEzBCog+svfHZREQeKXUwXYBLKRbDsrKyfJ9DGDlgkQVR4T322EOl1uE3oFWrVup7uF274Fxi0hjs+cERRxyhR4SkHhRIKUgiCKSff/65xuQVhbnbt29Xq4jNCSxokSKGiTSAYLr00kvVOF5pboF0++23y/jx49W4bdu2KpoTazDBQuNYI9JQm4T0O7vIG+IbtQ547x1zzDEBfZsIIU0DLpaw8UYfu3feeUfWr18vH3/8sT5akzlz5qjvWoDrjhkzRo1DgUUPpN6hTjQzM1OOPvpo9fm2a5pI/VAgEeLCFDsSd6CQHzau6Ithd1JHj4zXX3+9Wfof2SBd66qrrtJbInfccYcvPz4eQR8kt1dS8/Q/wqTozjvv1FsiV155pR7FFqw8Y+JkgMC1+yPhb/jRRx+pMQR6LPtcEZKsoPZw1KhRcvjhh6vI/znnnKMWTEpKSuoUR8D+rl+6dKkehQYLaBBRxcXFkp+fr1Lx8F2NlOiCggJ1jBBCwoURpBQkniNIEEQvvviiz8YVRbhYxcJkFqv/YOedd5YePXqocXOBQn/YSCOiBbCyOWXKFDUmgVx88cXy6KOPqjHSYGyr7+YAqTymwSTSd0477TS1ygwhV15ervZDTJ188sm0ECakEUAULVq0SNVo2s6jtYH029atW6t0OaTN4XsfNUhIdYUZD34P4GCHRQv8C7Oeb775RvVKqq6uVmnOWNSoDxjDnHvuuXLeeedJRkZz+HjGP4wgEeJCgZSCxHuKHX7sPvjgA73lNhTFD6bZhzHsXfHWxY8vxArS7mLtaHTvvffKNddco7dErYgiZ574QYrMBRdcoLdEre7m5OToreYD7oOod8CKNla2ASKXmHQBiN8OHTqocX2ghgK3w6QNQh6TOPRxgfiC4xYEPT5j6NuFdCFsE5Js4DPwyCOPqMWQunrEQaQgfbVbt24qHQ5pcZFwJMXCB0xYEHXCZxmpfKbZbCgQWcLizcCBA/UeAiiQCHGhQEpB4l0gAaQ62ZEG1ISYFUI4GCHShBV/1JUATEYRVUJKRSw588wz1WopOOCAA1SUCwXDxBUcMEL47bff1HZubq7MnTtXjeMBU+eGmiQUhb///vu+VEnULtguWni/IeUTwmrjxo1qAojCcqxemyhiuGAyiNXyNm3aKBGGCSL6NcXC9pyQSIMFrXvuuUceeOCBgJRoAyJCcK2EIDnllFNiaq4DwYSMhGeffVZdQoHfQKRMN1fqb7xBgUSICwVSCpIIAgmYSWg4QCAhJQr237EEIg7RLLjrAayMrlixwtecNFVBbQFS14zIhTEDCrOb22AjGIgj1LYh4mPAewh9k/B3fPnll1X3/ldffTWge380wOcQ9sYnnniiei9DXBISryByj1qiu+66S+/xg4WHwYMHy4ABA9QiUjyACC9S/h5//HHfopYNFizGjh0rl1xyid6TmlAgEeJCgZSCJIpAAnbaUyhQI4IUPEzAYf3aHDz11FPSt29fvSVqcrt8+fIaLnypApqx9u7dW7lUGWC6gYl/c4KvOkzqUMOA6BH+hegJbhwLcTdy5MgGmTSgVgLiD8IYUUyk1gFEOCHCkIaHdNCG3Cfe17169VJF7WeffbbeS0jzg2jRTTfdpESHDdJV4eiJ1LVYR/MbAsxZZs2aJQ899JD6bNpgYWLSpElqkSQVoUAixIUCKQVJJIGEHy+s8AeDNCWk2qG4Nx4K6R988EEZMWKE3nJTtBYuXKiKjlMJpLSgANqYIID58+fLoEGD9FbzgQaxwWIoFEilu/HGG/WWH9QPmVQ4pMZBlCNVDt3/Q3X+DwUmlJ9++qmql4DVOSZqcNeCmDS28aFAfR1SFFHPhdoNQpoDfL6vu+46eeGFF/QeF0Q+sR8GCIkEFkqQHogoGNJsbeCEV1hYqLdSBwokQlwokFKQeBNI6D1j13SYZoFYcYdAQtqDKeJFKhQK/XFdU/SO2p+0tDRVWN++fXvp2LGjum6smTp1qvpRNaAW6V//+lezO+7FCtjwXnjhhQGuVbNnz5aLLrpIbzUvSJf79ddf9VbtoI4CEUGI71NPPVX9/SB4wzVtaCwQSUjnW7VqlaqbqM39C7UcV1xxBaNKJKY8/PDDMmzYsIA6I7hSTpgwQfLy8vSexATRZESN7HYE4Mgjj5QZM2aklFCgQCLEhQIpBWlOgfTFF1+oSSAchpA+h0mhqd+pDURnIH7AtGnTVPpaXcCiGSv9+HFDTRBSJiCcYgGeX3CxL1Ynr732Wr2VnEycOFFuueUWveUCQwZEPeIFCG9Eb3DB+w6pdKg3QiobLH9tF8R4sJJHDdTTTz+t6iZCuXFh1X706NEB6Z2ERIOrr75a7r//fr3lcsMNN6gecMkEImR4XXAkNSBD4bHHHpPzzz9f70luKJAI0UAgkdTCESa+y/bt2/Xe6PHKK694x44d6+3WrRvEeIMvV1xxhfeZZ57xLl682PvnP/855HXqu7Rr107djyOu9LOKHosWLfLutNNOAY/fu3dvb0VFhb5G8vDGG294HSER8Fr//ve/e1944QV9jfgBf3tHNAc8V3O56KKLvM8++6x6n+Hy1Vdf6VvFB3jvn3322SGf+1lnnaX+DoREml9//bXG+65Lly7elStX6mskJ3fffXfAa8blzjvv1EeTG3t+QEgqwwhSChKLCBJW6FF7gmaBsIGtCxS0B9d0IL0JaXWwWkaxL1bxcD0U1dtfhD1bAAAihElEQVRF719//bWKDCAagLQ79Eqqq5YDwMwB7kpwWYLtbDSAHfRll10mr7/+ut7jgkgLUlLgupfI4PwjYoS0Qhukf82cOVP9HeMF1BYg0mKa1Rrw3sLKOGrH0A8JX4UwBEEEEumb8QgsxhGlRFQ1mGRc0SfNB75H+/Tpo1JTDYiiIG0Wn5FkB86VMJtAnaBh/Pjxctttt+mt5IQRJEI0EEgktbBXiCIdQZo3b57XER01Vt/sS9euXb3Dhw/3OhNWryMk9C0jx+bNm72PP/6415kUe48//viQz8FcsBp67733en/55Rd968gyatSoGo+Zlpbmve+++/Q1Egucp8mTJ3tbtmxZ43U5gklfK3548sknvQcccEDA83TEqffGG2+MSfQ0WlRWVnovv/zygNeFC6K0ZWVl+lqENI7/+7//85566qkB762bbrpJH00dvv32W+/pp58ecB7i8XsuktjzA0JSGQqkFMT+AozUJHHGjBnejh07BvyQmMsuu+ziHThwoPexxx7zfv755/oWsePHH3/0LlmyRE0oDzzwwJDPERP+iRMnRmXSvGLFCu/RRx9d4zFbtWrlnTRpkvfLL7/U14xftm7d6h03bpx3r732qvE6MJF6/fXX9TXjB4ig4Oeak5OjxEWy8Nprr3lPO+20Gq9z2rRp+hqENJzzzjsv4P3k8Xj0kdSkb9++Aedj+vTp+kjyYc8PCEllKJBSEPsLsKmCoLi42NupU6eAHw9z6dWrl4oo/f777/ra8QFqTS644ALvn/70pxrPGUKpsLBQXzOyIGq0//7713hMXDBxX7Zsmb5m/IB6quDJgbm0bdvWO3v2bH3N+OGPP/5Qgtx+rqiLmj9/vr5G8hGqZgLRS0IaSvDCwpQpU/SR1CY7OzvgvLz00kv6SHJhzw8ISWUokFIQ+wuwsQLp3Xff9WZlZQX8YOCy2267qdS2Dz/8UF8zfvn3v//tLSgo8LZp06bG6zjssMO8JSUl+pqRA0XPSFGrTSjtt99+3qFDh3qfeOIJ7/fff69vFTtgTgDRm5ub6919991DPkecL6QlxiM4Z8EpnjDIaI7IZax5++23a5hQYCGAkHDBIo39/qHI9vPzzz8HGA116NAhaqnZzYk9PyAklaFASkHsL8DGCCSsKNo/orjsuuuuUUtRiwVIEUREJPh1jRgxwvu///1PXytyIMqBNI0jjjiixmPal2OPPdZ73XXXqejHBx98oG8dOTZs2OCdM2eO98orr6zXZfCEE05QaZLxyk8//eQ98cQTA55zfn6+Ppoa4L06ePDggHNw/vnn66OE1A7qjtq3b+9738AdMVKU5PnfjzlLsZ3jjfzyU/TBwuBf/vIX32u56qqr9JHkwZ4fEJLK0MUuBWmsi92XX36pnNnQENQGfX9uvvlm1U8m0UGjQLyW3377Te8R1VPpoYceUj2VosErr7zic/yDi1pd7LLLLsrxr02bNsop7sADD1TNcuH4h78jHP/g9gfQVBeOf45ole+++04134Xj37Zt2+Sjjz5Sjn/26wxFq1at5LzzzpNBgwbJUUcdpffGJ1lZWfLMM8/oLVFd8O3GvanEyJEj5b777tNbIsOHDw/pfEeI4aabblLNUgG+Z9avX6++Z5pGlUzt0kbyM0vEOydL7Skd0kKyi3KkxFss7p7GUTokV2RO0+6jMaBxLD5PhrKyMtWTLFmgix0hGiWTSEphrxCFG/FZs2aNNz093bdyhosjGLyrV6/W10geqqqqvOeee27Aa8UFkZZog/qoq6++ulbDi1hckF6INMmXX35ZP6v4J9jR7Z577tFHUpdrr7024JykSh8X0nA+++wz7w477BD5z8/SHOf+akaLKgtyvJ7NeqNRlHhzQtxvrDjzzDN956pPnz56b3Jgzw8ISWUokFIQ+wswHIGEJpX2jycu119/vT6avDz44IMBrxkX1CzFio8++kiJMqT5QYwGN5+NxAU1Y0idu+aaa7wLFizwVldX60dPHJCqaL+mZLfhbQhogGufm+eff14fIcSPbcyA1geRQqXW5dUmYyBynOOdc7w5nfGvx1tp9uHiu521T4kiezvDFVqbPd4MvS+jIPoulVgwdB/fvcBNMlmw5weEpDJMsUtBGpJi50yaVUNVA1K4/vWvf8nAgQP1nuTmjTfekAsvvFAqKir0HpFbb71VpaM0Bx9++KFs3rxZNd9Fc9zPP/9cNcv9z3/+o5q3/vLLLyq1DiDVbuedd1Z/35YtW6rmuwcccIAcfPDBkp6erv72TU+haV5wPg499FDfa77gggvU+zM8dPrPBr2pyVnqleLeeqOxbJkqnfqKlKwfJel6V3PRo0cPWb16tRp37NhR3n//fdV4mRADvhe++OILNX744YflkksuUeOmotLpxJ9eVwN8TtrPkqGbN8qodvg8ZossMeM2sm6yVyZt6qTuY+PodHV/xQPw+SyV3BbFkqvS9ILH+dJN3Z9+jChx9tln+9LNL7/8cpV6lwwwxY4QjZJJJKWwV4jqiiA9/fTTAatkhxxySFz2u4k233zzTY2mibGMJJHa6d+/v+9vkpGR4f3tt9/0kXCp9Ho6u4XjCpUSpFelk4SNGzd6//rXv/rO0w033KCPEOK85Zcu9b030OcsktQdQXJA5EdFjoAdGXIv/miQ+znFPveziuvqFDsremQuvs9zFHnqqad8j7fnnnvqvYmPPT8gJJXhMiIJCVaR7CgRog3PPfecHH300XpP6rD33nvLCy+8INnZ2XqPyJgxY6S4uFhvkeYAhgxPPvmk3hLxeDzyl7/8RW81kt6TxNO5QmYtqdI7Eh9HOCrDCgOMSLZs2aK3SKpjG5v0799fjyJD1gBH8hQVS6ne9rFsqkwN+RaEeYNK/VcXRI1kWa60aIHIklccwRWazh5xpJTvdk2OAIcBIkgwyAGI4OM3ghCSPFAgkRrA2eziiy9W6VoATmlPP/20EkmpSosWLWTZsmVy8skn6z2iUu/eeecdvUVizV133aVHIrm5ucrFrsksG69S7jK3j1d/805DcqUT/i2EYEL6Tgu1v8UQTPn82wHHu1wiZ6t/p4qRWUgNUrdzLrnL1B59XVwH6UQ4lqsmklWFnZxxJ5nqTCJz1f02nauvvjrAhfCee+7RI5LqmPRLcOaZZ+pRhFALDvMkW31eNEirW5QRIgUuQ7o5180373nnenj/ly6aJzlL60iZa5chmRvyZbz6XDk4gsr9jEWf0047TY9E1qxZo0eEkKTAS1IOO4QeKsXusssuC0hXWLlypT5CvvzyS2+7du1856Z79+76CIklKIq236OOUNVHGoo/dcdcTFpPZUGGLhxXW871TOqdlZYXkCLksBQl5Pg3x39bZ+xLFVLpQPp+7Ov4Uoac+87DPvcxIllwvnDhQt9r/NOf/qQaJZPUBr3D7Pf+p59+qo9EkqDPWKiUuloNGfTn0LcPF3x+zH3WNGnw33/0QcNs87zQkDoZsOcHhKQyjCCRAFB0OnPmTL0lMm3aNFXkTVxgdPDII4/oLbcHxu233663SKyYN2+eHrmpLuhV1RRgzOB8H/rTejQZQ/ppk4UKWbehQvLbI9LjGjuUb6oSaddPhsosWazThbBOHhzHwgp4Zkd9n+1GiSdPp/BldBNnUhdEurMvX9q0GC8Z6wOfS1NBPyuYNID/+7//U723SGqDfmgGpBIjWyDypMso571sPl9en3FJlhSbfT4TB2uf7pOUPnqj/7bqgmiSuU8dWXI+VxvN8Rgao3Tq1EmPhGmrhCQZFEgkADRJNQwYMECuuOIKvUUMEIy33HKL3hKZMGGCcpQjseOpp57SI0fc5OToUbQJUR/hTMX6DRFdsxRKHtUko0uGXzCFIGsO7j9XiluY1L3IYTtSBjd8JqkHHDANcLIjDeOggw7SI7eROiEkeaBAIj5mzZoVUFNzxx136BEJBqKoS5cuavzHH38EFMGT6LJhwwafIIVdNSJI0Sd0fQRIH+2RzDmLpbSwQiREcTgK1ef1ceuLYC2+eE6m5AZfb1mxuDEx1CPhulhJL1H3G0mJ1Lu3/4FXrFihIkkkdfn555/1SGSXXXbRIxIuu+66qx6J/Pe//9UjQkgyQIFEfDzwwAN6JHL99ddL27Zt9RYJxdixY/XIPXf2aiyJHm+++aYeiZxwwgmy44476q2G4u+DNK+PMU/QLMuVNmMqpGJMG70fKT2OYHG2ldlC+3WS60t/y5LczHzJXp+h40elktvHkTsbnH0QUb2LpSRvnmQrkwb0dnFTh9z0PKTTOfsXIT7lXKfLI/LdEFHRI+XcNTmy6UKZmZk+5y30jnrrrbfUmKQm6JVmML3ESPj8/vvvehR4LgkhiQ8FElG8/PLLAdGjkSNH6hGpDaQrmSgSmDNnjh6RaLJp0yY9kibWHgXWRgRYAzuipub+mvURBpUWF6KOwtQQuWlz7sV/f9bjzyl2b7P+drl9tB4HXDdyHHbYYXoUeC5J6oEG0oZvv/1Wj0i4fPPNN3oUeC4JIYkPBRJR2P1kUNPBfPTwGDJkiB6JPPHEE3pEosknn3yiRyKHHHKIHpFwad26tR6JfPrpp3pEUpG0tDQ9Etm2bZv8+uuveouEg23MYH+uCCGJDwUSUTz77LN6JNKvXz89IvVx7rnn6pHIa6+9Jp9//rneItHi+++/1yOu2jYG+5zZ55KkHnCtMymXAA3CSfisW7dOj0Q6d+6sR4SQZIACiaiVQ9vu9fTTT9cjUh+IYNhpdq+++qoekWiB1DMDTBpIw7DPmX0uSWpy3HHH6ZHISy+9pEckHFauXKlHIscee6weEUKSAc4uiHIFM2Cyv/vuu+stEg5HHnmkHom89957ekSixW677aZHItu3b9cjEi72ObNduEhqYi+I0fo9fDZu3BgQQTr11FP1iBCSDFAgEamq8hsJ/+Mf/9CjuoD7F1y2Ai+u21ep5GK7y9TG2xMvmyo33tCpxv23GOIaJccb9jmzzyWJDnZ9XHV1tR6RcLFruFhrSGybfDhEovk1qR/blOeUU04J6IlECEl8KJBIgBPPfvvtp0d1AfetSvF0FslZql24lqLXSyeZuiVLip1xUyjdJHLJnRulsiBDJK/EvX9vieQUZUe8cWYk2H///fUo8FyS6GALUjv6ScLj/fff16NwF0RIMgOjhr59++otkQcffFCPGoNeIAu44HfBObRlqnSKxELXslz/fYdaiMPjNGWBLgx++uknmTFjht5yfqby8vSIEJIsUCAR+e233/RIZKeddtKjBtJ7kiOYKmTWkqb+LJVKhfQL0fslSyY5gqkiwo0zI4F9zuxzSaJDt27d9Ig1Xw2lsrJStm7dqrfcvkiEDBs2TI9EiouLZe3atXqrobgNjnMkQzyb3cWzygKR/Pa5UtpulJRg0aupwIIfi3CdPVK5PkSfMOdxNobab7CaPDcWNFE3Bidwr7vwwgvVmBCSPFAgEfnrX/+qR9J4m9dl41XDzcyOwT9L9oqi8yNpbbvRIJ2uZ1b8tohk9A3101Yq48dUOA+Q4fzwBd+nSfnD2LnmEIwDVy07FZbK1CHmMfRKpu85NI1ffvlFjwLPJYkOKIbeY4891Pg///mPrFixQo1J/ZSUlOiRW5xvziNJbc444wzJyvJ39rrpppv0qOmkj/aoJsjFdiPmZqRqySwp1+PG8O6778rtt9+ut0RGjx6tR4SQZIICicg+++yjRyJffvmlHoXHvD5aqPSZJxkFlTUaW1YV5ku5sx8riSV5+JE0K4w54lFNNNOl3+QS30pglaOBMtqpm7oUZbv33yJb5mHFcE5WiPtMl1FLPGLWJrPmuOl/oGrJOhm62bme5Eu++lV0xFX7deLRaXuZY7JdIdUE7HNmn0sSPXr39r/RFixYoEekPh5//HE9EunVq5ceESIyYcIEPXIbhyNKEgnwfe38Oki34OCRnSqHtDtr4SqgnrVBKXn6Nr4Ft8AFstWFnaTNmAqpGNOm0al+1157rR6JHH300TJixAi9RQhJJiiQSECzzc2bN+tRePhqkJzLRiV4AkkfvdHZLyrCk12kd6p0uXLJ1xGkCufH071llSzeBMlk4atBci5aRIW8z3YZEipZKL0j0jtayPiOG93bb6mQcufnOlv9EDuiy3n0dY4oawr2OUtPr3kOSOQZNGiQHonMnj27wcK+MbiRST35ciZ37iQucVi9erWsWbNGb4kMHDhQjwgROeaYY2Ts2LF6S2TcuHFSWtrYeqEK9b2LzwsESc7SjTLKXvhC1H9cuU7DQ31psUrB27jZIxmdPTJJrX9kSe5S5/t/jj+yVT+BNbDBC2Rpzm8HaluxmNew+3XJz89X4tEwZcoUPSKEJBsUSCSgjw9sqn/44Qe9FQHUKmG2yBJEe/Q+h/S+Q0VQT+QIFsnQomLLYpGOYfxo1XKfIUG+uiOuchdZq4qIRBnR5VyCo14N5a233tKjwHNJokd2drbvXONv6PF41DhqOO+57HL9vlniPH6fefpA4jB16lQ9chsct23bVm8R4jJ58mQ54YQT9JZrPoCUsobjr0EK/R0Lox9HNAkiPFio0jgiyZOZL+N1BAmCpynUWCDT+xvDfffdF/AZmjhxovTs2VNvEUKSDQokoopM27Rpo7dEXnjhBT1qOqWL5oVYPXTQP4TZt/pT6qqciWdGGGKl1vs0OEJrljY3qyrspFb6s+Y4Yipzlix2frgzN5gfYIcmRgLQZNfufWQ3XSTR5ZprrtEjUQJp/fr1eitKqPo3B6x0N9GpMdYsXrw4oMfNyJEj9YiQQB555BHZe++91fi7776Tfv36yaZNm9R2JFER2b4iJSrl2k/WgByZt8gRR/hebuLiVcgFskaAc2J/ZrDAcPPNN+stQkgyQoFEFP/85z/1yJ1M1Q1MEdooUwbUIAUKjFLJxeq6I0KyC6sko0uGr04J6XCuFbh7TfwQinPcXdWrUuLFrBdC2CA1Q9UgBeWKh77PLMnN06lzfddJZmekeOTKShkqgh9HXFc8jqjKkuLNHik3tVPjuul0jsbx5JNP6pGbonLggQfqLRJtLr744oDu9VEtlu6dq2zmfZMsZ+LlWxW3aifc45ZpiIp2mv0uvlQ9c2mq7XE9/Pe//5Xrr79eb7lRATtKQIhNhw4dZN48f4QUzof4fbAj5U2nVIqLcqQkVFQHjqjl+dLJ0WQNiR+VDvH/thhqLJA1ot70/vvvl0svvVRviXTv3l3mzp2rtwghSYuXpBzOD53vsn37drVvxYoVXrwdzOXzzz9X+6PK5hJvyWY9TlAOO+ww3zkrLCzUe0msePHFFwPetxMnTtRHokGJ15H06nEyCir1vkqvp3OOc8SlJM85noctfV01xnUyvB681zd7vBmdPc4ePRb/baPFkCFDfOdnl1128W7dulUfIaR2nnjiCd/7Bpddd93V++STT+qjteH/jIjo97xBvd/dYzlL8Znw37e6mM+FQ2VBhnMdvRHM0pzA2wXcPvAzWlng8ebgM4l96rNo3d5s18ENN9zgv3/n0q1bN+8XX3yhjyYn9vyAkFSGAikFsb8AjUACXbt29f0QjB07Vu+NHiXOj5f5QUxEFixYEPDjmew/nPFK8CSmuLhYH4kSeqKnRJIteIBP9GCiZsSPJZAC9tvj6DBp0qSAczNz5kx9hJD6WbJkibdFixYB76HoLkJoluIT1Hx8+umn3t69ewe87uOPPz4lvuPt+QEhqQxT7IgP264U7jxVVY3N2K4bk2JU3LFpRbPNjW2Di3O3//776y0SS/B3OP300/WWSG5ubhPct2rBrlXTNUghmxbDTbFzN6m9Habr4GhcFGVpcRPL0Gtn+vTpMn78eL0lcvnllwekChFSH+ecc46sXLlSWrVqpfe45gSnnXZaI80bwqFKpjYwvS6SFBUVSdeuXWXZMn/ueP/+/eXFF1/kdzwhKQQFEvGBydNhhx2mxn/88UeA5WskQT64I86b7B7XnKBRoD1BgP0raT4ee+wxad++vd4S6dOnT8AEJxLMG+evI6raVO6aNrTrJ0PFrbdTLCuW8iH9tJ18CLZMlez1HvX+j+Zn4MEHH5QrrrhCb7mNQGfMmKG3CAmfk046SV599VU588wz9R5RYuHwww9XvZPwWxEZTO1etkjf2MujDRs2KEOKIUOGyDfffKP3unbnTzzxhOy44456DyEkJUAYiaQWdgjdTrEDSKnA28JcnEmVPkIMq1evDjhHt956qz5CmpN33nnHu//++wf8bWbNmqWPNpGlHq/HuZgaCrtewq6tcPdb9RXOtsfUQPhS78y2e6m11qKR4P1o3//RRx/t/fe//62PEtJ4br755oD3Fi4HH3ywd9q0afoaiUd1dbX36quvrvG60tLS1O9hqmHPDwhJZSiQUhD7CzBYIIFLLrkk4IfilVde0UfIN9984+3QoYPv3Bx77LH6CIkH3nzzTe+BBx4Y8P5FjVLc4IgpT4AgcsRUQWSqLX799dcAQwZc8P788ssv9TUIaTr4PUA9jv0+w6Vt27beu+66y/vTTz/pa8Y369ev944YMaLG68Bl2LBh3u+//15fM7Ww5weEpDJMsSM1gK3poYceqrdEcnJyZPPmzXortRk0aJB88MEHaow6qmnTpqkxiQ+OPPJIWbFihS9VFNx5552qZuL999/Xe5qP0lvzZZ0eK8JtjlwPSHnKzMyUOXPm6D0iWVlZqqfZfvvtp/cQ0nRgEb9mzRp54IEHAt5bH330kVx33XWy7777qvTOtWvX6iPxxfz5832NpoO/v9H49aWXXlL1e7vvvrveSwhJRSiQSA122mknefTRR+Wvf/2r2q6urpazzz5b/QCmMjgHmHwb/vWvf0m3bt30FokXMjIyZPXq1dK3b1+9xxUQnTt3VuYjzUnWBKsHFy7OU+zXhDqkX375RU1KIQA3btyo97qmISUlJbLbbrvpPYREFrzH0Cj71ltvlT333FPvFfn555+VwICQ6tSpk6rhaU6x9NNPP6kaogsvvFD22GMPteAXbOJy9NFHy4IFC+Tll1+Wk08+We8lhKQyLRBG0mOSIrz99tt6JPKPf/xD/va3v+mtQJ566qmASWbbtm1l4cKFcsQRR+g9qcF//vMfGThwoDz//PN6jxuVsJtvkvgEk7fgjvdwqLrxxhtlwIABek9igknopEmT5LPPPtN7RP7yl78og4ZLLrlE7yEk+qAZMd6PM2fO9EXYg0FkCREaCCc01Ua0909/+pM+GjlgsPDmm28qY4lXXnlFufDVBhrgDhs2TC1+ERd7fpBqv/WE2FAgpSDhCiSAjuqwTTbsuuuuKnJy7rnn6j3JDc4VVh7hcGTAhBtWtyQxWLVqlYwaNSrgfQ/gzjVy5EjlXJVIPPzww3LvvffWSBlE2pDH45GOHTvqPYTEnuXLl0txcbFaTKtrerHDDjuoqC4ivnCgPOSQQ5SdOKy099lnHxXt2WWXXQJE1G+//SY//vijWrT6+uuv5fPPP1cZDpWVlfLhhx+qKOrWrVv1tUOTlpYmgwcPlvPPP1+l2ZFAKJAIcaFASkEaIpAA0hOCV9uRNgGr62QGq6HIpf+///s/vcftuXPDDTfoLZJI4G8Hcfv777/rPS6oVxo6dKhccMEFalIWj3z88cdqYeKRRx5RE0KbAw88UEXK8BoIiRd++OEHlYUAwfTss8/K9u3b9ZGGAYGEdFTYiTfWUhwCDDV5vXv3llNPPVXvJaGgQCLEhQIpBWmoQAKo6cjLy1MTNcPxxx8vhYWFctxxx+k9yQEmoGPGjFE56Taoy0I0iSQun3zyiUqPDGWugRVtpFKiKSQaZEYj/achYJUcE0wsUKCeKJidd95ZvU/Rr4w9Wki8g3Q3/I4g9e2NN95QEaBo0aFDB1VXhN+oHj16MKraACiQCHGhQEpBGiOQAGodLrvsshqTtWuuuUY1DGzZsqXek7hA8CHKgJx6Axz9EE3q3r273kMSHbgywq0R9Tp2hNAAoxI0xoT5ASZYsUrFef3111XNBMxAbEMQG+MSdvXVV8tee+2l9xKSWCAVDmmiqFmCARC2P/30U/nqq6/k22+/Vel0tQHzEaTh/f3vf1dpeenp6dKuXTuVrofPqm0aQRoGBRIhLhRIKUhjBZIBqUpIsbOBJero0aNVrQdWthMNpC6hfiO4wBgFvKj3MI5+JLn47rvvZPbs2fLYY48F1JkFg8nYUUcdJYcffriqm8CKNExLGpuSh0JyiLRNmzbJ+vXrpby8XBWWw3GrNlDcjjRApNIh5YiQZAYOjXDEQ0osUusQ0UWkFHWwf/7zn/W1SKShQCLEhQIpBWmqQALr1q1TIum5557Te1wwYRw+fLiKNGFVL55BsS8K3uG+FNznCVGjyZMnS58+ffQekuygtwvS2ZDWBvvicEDUFDVAiOpgjJVtLBCY9DxM7hCNRD3Gv//9b7U6jkgstsMBq+FI94Mpit3biRBCogEFEiEuFEgpSCQEkqGoqEhZDcNBKBhM7OAWdN555+k98QF64qBZ4Ny5c+XXX3/Ve11wLmABTQvv1AbRHDRZRV8U1E4Ev0+iBUQW3PXQi+WMM85QKUOEEBIrKJAIcaFASkEiKZAMKHq/5557ZMuWLXqPH9w/IjFwETr99NPVanssweQWk91nnnlGOSrZRhMGPEfUUqHpJvPXSTAoKkfU9N1331VWwkjF/PLLL/XRxgG7YRSTI2UPvZkwGaHtMCGkOaFAIsSFAikFiYZAMiAqg7Q1uBXVBr50YXgAl6Fu3bqpbuuRBMW+pqajrKxMRQBqs4fFY6Op5uWXX656bhASLkjRhOPhF198oRy54DqHfaid+N///qeug8atMHzAZwzRISwOHHDAAXLwwQfTeY4QEndQIBHiQoGUgkRTIBnwGEhje/zxx2v0bQkGE0ispKPovXXr1nLQQQfJfvvtpxy6YP6Amg5MNFGYjomnXdOBiSlqOhAVQrNArOxjoloXqBNBX6dBgwapNCZCCCGEUCARYqBASkFiIZBsVq1apazBYejw3nvv6b2xBV3aIYZMs0D0vCGEEEKIHwokQlwokFKQWAskGzTqhFvYa6+9Jm+99Za88847dVobNwZEmlDTceSRR8oxxxyjmgWy2J0QQgipGwokQlwokFKQ5hRIoYCxA1zwkCKHdDykzMEOGSl0SKVDSh3skgHsk01NB8wUTE0HCt5hK96+fXslhozNMiGEEELCgwKJEBcKpBQk3gQSIYQQQpofCiRCXFiIQQghhBBCCCEaCiRCCCGEEEII0VAgEUIIIYQQQoiGAokQQgghhBBCNBRIhBBCCCGEEKKhQCKEEEIIIYQQDQUSIYQQQgghhGgokAghhBBCCCFEQ4FECCGEEEIIIRoKJEIIIYQQQgjRUCARQgghhBBCiKaF10GPSYrw9ttv65HIP/7xDz0ihBBCSCrz4Ycf6pHIEUccoUeEpB4USCmILZAIIYQQQoKhQCKpDFPsUpA///nPekQIIYQQEgjnCSTVYQQpBfnll1/k448/1luEEEIIIX72228/2XPPPfUWIakHBRIhhBBCCCGEaJhiRwghhBBCCCEaCiRCCCGEEEII0VAgEUIIIYQQQoiGAokQQgghhBBCNBRIhBBCCCGEEKKhQCKEEEIIIYQQDQUSIYQQQgghhGgokAghhBBCCCFEQ4FECCGEEEIIIRoKJEIIIYQQQgjRUCARQgghhBBCiIYCiRBCCCGEEEI0FEiEEEIIIYQQoqFAIoQQQgghhBANBRIhhBBCCCGEaCiQCCGEEEIIIURDgUQIIYQQQgghGgokQgghhBBCCFGI/D+89sI2nEyvVAAAAABJRU5ErkJggg==;" vertex="1" parent="1">
          <mxGeometry x="870" y="62.379999999999995" width="550.24" height="547.62" as="geometry" />
        </mxCell>
      </root>
    </mxGraphModel>
  </diagram>
</mxfile>
